G04 #@! TF.GenerationSoftware,KiCad,Pcbnew,(5.1.6)-1*
G04 #@! TF.CreationDate,2021-03-05T11:33:03+01:00*
G04 #@! TF.ProjectId,rfreplacement,72667265-706c-4616-9365-6d656e742e6b,rev?*
G04 #@! TF.SameCoordinates,Original*
G04 #@! TF.FileFunction,Legend,Bot*
G04 #@! TF.FilePolarity,Positive*
%FSLAX46Y46*%
G04 Gerber Fmt 4.6, Leading zero omitted, Abs format (unit mm)*
G04 Created by KiCad (PCBNEW (5.1.6)-1) date 2021-03-05 11:33:03*
%MOMM*%
%LPD*%
G01*
G04 APERTURE LIST*
%ADD10C,0.200000*%
%ADD11C,0.120000*%
G04 APERTURE END LIST*
D10*
X130892857Y-103708476D02*
X130845238Y-103756095D01*
X130797619Y-103898952D01*
X130797619Y-103994190D01*
X130845238Y-104137047D01*
X130940476Y-104232285D01*
X131035714Y-104279904D01*
X131226190Y-104327523D01*
X131369047Y-104327523D01*
X131559523Y-104279904D01*
X131654761Y-104232285D01*
X131750000Y-104137047D01*
X131797619Y-103994190D01*
X131797619Y-103898952D01*
X131750000Y-103756095D01*
X131702380Y-103708476D01*
X131797619Y-102851333D02*
X131797619Y-103041809D01*
X131750000Y-103137047D01*
X131702380Y-103184666D01*
X131559523Y-103279904D01*
X131369047Y-103327523D01*
X130988095Y-103327523D01*
X130892857Y-103279904D01*
X130845238Y-103232285D01*
X130797619Y-103137047D01*
X130797619Y-102946571D01*
X130845238Y-102851333D01*
X130892857Y-102803714D01*
X130988095Y-102756095D01*
X131226190Y-102756095D01*
X131321428Y-102803714D01*
X131369047Y-102851333D01*
X131416666Y-102946571D01*
X131416666Y-103137047D01*
X131369047Y-103232285D01*
X131321428Y-103279904D01*
X131226190Y-103327523D01*
X131464285Y-101898952D02*
X130797619Y-101898952D01*
X131845238Y-102137047D02*
X131130952Y-102375142D01*
X131130952Y-101756095D01*
X131797619Y-100756095D02*
X130797619Y-100422761D01*
X131797619Y-100089428D01*
X130797619Y-99756095D02*
X131464285Y-99756095D01*
X131797619Y-99756095D02*
X131750000Y-99803714D01*
X131702380Y-99756095D01*
X131750000Y-99708476D01*
X131797619Y-99756095D01*
X131702380Y-99756095D01*
X130797619Y-98851333D02*
X131797619Y-98851333D01*
X130845238Y-98851333D02*
X130797619Y-98946571D01*
X130797619Y-99137047D01*
X130845238Y-99232285D01*
X130892857Y-99279904D01*
X130988095Y-99327523D01*
X131273809Y-99327523D01*
X131369047Y-99279904D01*
X131416666Y-99232285D01*
X131464285Y-99137047D01*
X131464285Y-98946571D01*
X131416666Y-98851333D01*
X130845238Y-97994190D02*
X130797619Y-98089428D01*
X130797619Y-98279904D01*
X130845238Y-98375142D01*
X130940476Y-98422761D01*
X131321428Y-98422761D01*
X131416666Y-98375142D01*
X131464285Y-98279904D01*
X131464285Y-98089428D01*
X131416666Y-97994190D01*
X131321428Y-97946571D01*
X131226190Y-97946571D01*
X131130952Y-98422761D01*
X130797619Y-97375142D02*
X130845238Y-97470380D01*
X130892857Y-97518000D01*
X130988095Y-97565619D01*
X131273809Y-97565619D01*
X131369047Y-97518000D01*
X131416666Y-97470380D01*
X131464285Y-97375142D01*
X131464285Y-97232285D01*
X131416666Y-97137047D01*
X131369047Y-97089428D01*
X131273809Y-97041809D01*
X130988095Y-97041809D01*
X130892857Y-97089428D01*
X130845238Y-97137047D01*
X130797619Y-97232285D01*
X130797619Y-97375142D01*
X131321428Y-95851333D02*
X131321428Y-95518000D01*
X130797619Y-95375142D02*
X130797619Y-95851333D01*
X131797619Y-95851333D01*
X131797619Y-95375142D01*
X131464285Y-94946571D02*
X130797619Y-94946571D01*
X131369047Y-94946571D02*
X131416666Y-94898952D01*
X131464285Y-94803714D01*
X131464285Y-94660857D01*
X131416666Y-94565619D01*
X131321428Y-94518000D01*
X130797619Y-94518000D01*
X130797619Y-94041809D02*
X131797619Y-94041809D01*
X130797619Y-93613238D02*
X131321428Y-93613238D01*
X131416666Y-93660857D01*
X131464285Y-93756095D01*
X131464285Y-93898952D01*
X131416666Y-93994190D01*
X131369047Y-94041809D01*
X130797619Y-92708476D02*
X131321428Y-92708476D01*
X131416666Y-92756095D01*
X131464285Y-92851333D01*
X131464285Y-93041809D01*
X131416666Y-93137047D01*
X130845238Y-92708476D02*
X130797619Y-92803714D01*
X130797619Y-93041809D01*
X130845238Y-93137047D01*
X130940476Y-93184666D01*
X131035714Y-93184666D01*
X131130952Y-93137047D01*
X131178571Y-93041809D01*
X131178571Y-92803714D01*
X131226190Y-92708476D01*
X131464285Y-92232285D02*
X130797619Y-92232285D01*
X131369047Y-92232285D02*
X131416666Y-92184666D01*
X131464285Y-92089428D01*
X131464285Y-91946571D01*
X131416666Y-91851333D01*
X131321428Y-91803714D01*
X130797619Y-91803714D01*
X130845238Y-90898952D02*
X130797619Y-90994190D01*
X130797619Y-91184666D01*
X130845238Y-91279904D01*
X130892857Y-91327523D01*
X130988095Y-91375142D01*
X131273809Y-91375142D01*
X131369047Y-91327523D01*
X131416666Y-91279904D01*
X131464285Y-91184666D01*
X131464285Y-90994190D01*
X131416666Y-90898952D01*
X130845238Y-90089428D02*
X130797619Y-90184666D01*
X130797619Y-90375142D01*
X130845238Y-90470380D01*
X130940476Y-90518000D01*
X131321428Y-90518000D01*
X131416666Y-90470380D01*
X131464285Y-90375142D01*
X131464285Y-90184666D01*
X131416666Y-90089428D01*
X131321428Y-90041809D01*
X131226190Y-90041809D01*
X131130952Y-90518000D01*
X130797619Y-89613238D02*
X131464285Y-89613238D01*
X131369047Y-89613238D02*
X131416666Y-89565619D01*
X131464285Y-89470380D01*
X131464285Y-89327523D01*
X131416666Y-89232285D01*
X131321428Y-89184666D01*
X130797619Y-89184666D01*
X131321428Y-89184666D02*
X131416666Y-89137047D01*
X131464285Y-89041809D01*
X131464285Y-88898952D01*
X131416666Y-88803714D01*
X131321428Y-88756095D01*
X130797619Y-88756095D01*
X130845238Y-87898952D02*
X130797619Y-87994190D01*
X130797619Y-88184666D01*
X130845238Y-88279904D01*
X130940476Y-88327523D01*
X131321428Y-88327523D01*
X131416666Y-88279904D01*
X131464285Y-88184666D01*
X131464285Y-87994190D01*
X131416666Y-87898952D01*
X131321428Y-87851333D01*
X131226190Y-87851333D01*
X131130952Y-88327523D01*
X131464285Y-87422761D02*
X130797619Y-87422761D01*
X131369047Y-87422761D02*
X131416666Y-87375142D01*
X131464285Y-87279904D01*
X131464285Y-87137047D01*
X131416666Y-87041809D01*
X131321428Y-86994190D01*
X130797619Y-86994190D01*
X131464285Y-86660857D02*
X131464285Y-86279904D01*
X131797619Y-86518000D02*
X130940476Y-86518000D01*
X130845238Y-86470380D01*
X130797619Y-86375142D01*
X130797619Y-86279904D01*
X130845238Y-85898952D02*
X130797619Y-85898952D01*
X130702380Y-85946571D01*
X130654761Y-85994190D01*
X131083333Y-84756095D02*
X131083333Y-84279904D01*
X130797619Y-84851333D02*
X131797619Y-84518000D01*
X130797619Y-84184666D01*
X131464285Y-83851333D02*
X130797619Y-83851333D01*
X131369047Y-83851333D02*
X131416666Y-83803714D01*
X131464285Y-83708476D01*
X131464285Y-83565619D01*
X131416666Y-83470380D01*
X131321428Y-83422761D01*
X130797619Y-83422761D01*
X130797619Y-82518000D02*
X131321428Y-82518000D01*
X131416666Y-82565619D01*
X131464285Y-82660857D01*
X131464285Y-82851333D01*
X131416666Y-82946571D01*
X130845238Y-82518000D02*
X130797619Y-82613238D01*
X130797619Y-82851333D01*
X130845238Y-82946571D01*
X130940476Y-82994190D01*
X131035714Y-82994190D01*
X131130952Y-82946571D01*
X131178571Y-82851333D01*
X131178571Y-82613238D01*
X131226190Y-82518000D01*
X130797619Y-81898952D02*
X130845238Y-81994190D01*
X130940476Y-82041809D01*
X131797619Y-82041809D01*
X130797619Y-81375142D02*
X130845238Y-81470380D01*
X130892857Y-81518000D01*
X130988095Y-81565619D01*
X131273809Y-81565619D01*
X131369047Y-81518000D01*
X131416666Y-81470380D01*
X131464285Y-81375142D01*
X131464285Y-81232285D01*
X131416666Y-81137047D01*
X131369047Y-81089428D01*
X131273809Y-81041809D01*
X130988095Y-81041809D01*
X130892857Y-81089428D01*
X130845238Y-81137047D01*
X130797619Y-81232285D01*
X130797619Y-81375142D01*
X131464285Y-80184666D02*
X130654761Y-80184666D01*
X130559523Y-80232285D01*
X130511904Y-80279904D01*
X130464285Y-80375142D01*
X130464285Y-80518000D01*
X130511904Y-80613238D01*
X130845238Y-80184666D02*
X130797619Y-80279904D01*
X130797619Y-80470380D01*
X130845238Y-80565619D01*
X130892857Y-80613238D01*
X130988095Y-80660857D01*
X131273809Y-80660857D01*
X131369047Y-80613238D01*
X131416666Y-80565619D01*
X131464285Y-80470380D01*
X131464285Y-80279904D01*
X131416666Y-80184666D01*
X131797619Y-78756095D02*
X131797619Y-78565619D01*
X131750000Y-78470380D01*
X131654761Y-78375142D01*
X131464285Y-78327523D01*
X131130952Y-78327523D01*
X130940476Y-78375142D01*
X130845238Y-78470380D01*
X130797619Y-78565619D01*
X130797619Y-78756095D01*
X130845238Y-78851333D01*
X130940476Y-78946571D01*
X131130952Y-78994190D01*
X131464285Y-78994190D01*
X131654761Y-78946571D01*
X131750000Y-78851333D01*
X131797619Y-78756095D01*
X131464285Y-77898952D02*
X130797619Y-77898952D01*
X131369047Y-77898952D02*
X131416666Y-77851333D01*
X131464285Y-77756095D01*
X131464285Y-77613238D01*
X131416666Y-77518000D01*
X131321428Y-77470380D01*
X130797619Y-77470380D01*
X130797619Y-76851333D02*
X130845238Y-76946571D01*
X130940476Y-76994190D01*
X131797619Y-76994190D01*
X131464285Y-76565619D02*
X130797619Y-76327523D01*
X131464285Y-76089428D02*
X130797619Y-76327523D01*
X130559523Y-76422761D01*
X130511904Y-76470380D01*
X130464285Y-76565619D01*
X129764285Y-103851333D02*
X128954761Y-103851333D01*
X128859523Y-103898952D01*
X128811904Y-103946571D01*
X128764285Y-104041809D01*
X128764285Y-104184666D01*
X128811904Y-104279904D01*
X129145238Y-103851333D02*
X129097619Y-103946571D01*
X129097619Y-104137047D01*
X129145238Y-104232285D01*
X129192857Y-104279904D01*
X129288095Y-104327523D01*
X129573809Y-104327523D01*
X129669047Y-104279904D01*
X129716666Y-104232285D01*
X129764285Y-104137047D01*
X129764285Y-103946571D01*
X129716666Y-103851333D01*
X129097619Y-103375142D02*
X129764285Y-103375142D01*
X130097619Y-103375142D02*
X130050000Y-103422761D01*
X130002380Y-103375142D01*
X130050000Y-103327523D01*
X130097619Y-103375142D01*
X130002380Y-103375142D01*
X129764285Y-103041809D02*
X129764285Y-102660857D01*
X130097619Y-102898952D02*
X129240476Y-102898952D01*
X129145238Y-102851333D01*
X129097619Y-102756095D01*
X129097619Y-102660857D01*
X129097619Y-102327523D02*
X130097619Y-102327523D01*
X129097619Y-101898952D02*
X129621428Y-101898952D01*
X129716666Y-101946571D01*
X129764285Y-102041809D01*
X129764285Y-102184666D01*
X129716666Y-102279904D01*
X129669047Y-102327523D01*
X129764285Y-100994190D02*
X129097619Y-100994190D01*
X129764285Y-101422761D02*
X129240476Y-101422761D01*
X129145238Y-101375142D01*
X129097619Y-101279904D01*
X129097619Y-101137047D01*
X129145238Y-101041809D01*
X129192857Y-100994190D01*
X129097619Y-100518000D02*
X130097619Y-100518000D01*
X129716666Y-100518000D02*
X129764285Y-100422761D01*
X129764285Y-100232285D01*
X129716666Y-100137047D01*
X129669047Y-100089428D01*
X129573809Y-100041809D01*
X129288095Y-100041809D01*
X129192857Y-100089428D01*
X129145238Y-100137047D01*
X129097619Y-100232285D01*
X129097619Y-100422761D01*
X129145238Y-100518000D01*
X129192857Y-99613238D02*
X129145238Y-99565619D01*
X129097619Y-99613238D01*
X129145238Y-99660857D01*
X129192857Y-99613238D01*
X129097619Y-99613238D01*
X129145238Y-98708476D02*
X129097619Y-98803714D01*
X129097619Y-98994190D01*
X129145238Y-99089428D01*
X129192857Y-99137047D01*
X129288095Y-99184666D01*
X129573809Y-99184666D01*
X129669047Y-99137047D01*
X129716666Y-99089428D01*
X129764285Y-98994190D01*
X129764285Y-98803714D01*
X129716666Y-98708476D01*
X129097619Y-98137047D02*
X129145238Y-98232285D01*
X129192857Y-98279904D01*
X129288095Y-98327523D01*
X129573809Y-98327523D01*
X129669047Y-98279904D01*
X129716666Y-98232285D01*
X129764285Y-98137047D01*
X129764285Y-97994190D01*
X129716666Y-97898952D01*
X129669047Y-97851333D01*
X129573809Y-97803714D01*
X129288095Y-97803714D01*
X129192857Y-97851333D01*
X129145238Y-97898952D01*
X129097619Y-97994190D01*
X129097619Y-98137047D01*
X129097619Y-97375142D02*
X129764285Y-97375142D01*
X129669047Y-97375142D02*
X129716666Y-97327523D01*
X129764285Y-97232285D01*
X129764285Y-97089428D01*
X129716666Y-96994190D01*
X129621428Y-96946571D01*
X129097619Y-96946571D01*
X129621428Y-96946571D02*
X129716666Y-96898952D01*
X129764285Y-96803714D01*
X129764285Y-96660857D01*
X129716666Y-96565619D01*
X129621428Y-96518000D01*
X129097619Y-96518000D01*
X130145238Y-95327523D02*
X128859523Y-96184666D01*
X129145238Y-94565619D02*
X129097619Y-94660857D01*
X129097619Y-94851333D01*
X129145238Y-94946571D01*
X129192857Y-94994190D01*
X129288095Y-95041809D01*
X129573809Y-95041809D01*
X129669047Y-94994190D01*
X129716666Y-94946571D01*
X129764285Y-94851333D01*
X129764285Y-94660857D01*
X129716666Y-94565619D01*
X130097619Y-93946571D02*
X130097619Y-93851333D01*
X130050000Y-93756095D01*
X130002380Y-93708476D01*
X129907142Y-93660857D01*
X129716666Y-93613238D01*
X129478571Y-93613238D01*
X129288095Y-93660857D01*
X129192857Y-93708476D01*
X129145238Y-93756095D01*
X129097619Y-93851333D01*
X129097619Y-93946571D01*
X129145238Y-94041809D01*
X129192857Y-94089428D01*
X129288095Y-94137047D01*
X129478571Y-94184666D01*
X129716666Y-94184666D01*
X129907142Y-94137047D01*
X130002380Y-94089428D01*
X130050000Y-94041809D01*
X130097619Y-93946571D01*
X129764285Y-93184666D02*
X128764285Y-93184666D01*
X129716666Y-93184666D02*
X129764285Y-93089428D01*
X129764285Y-92898952D01*
X129716666Y-92803714D01*
X129669047Y-92756095D01*
X129573809Y-92708476D01*
X129288095Y-92708476D01*
X129192857Y-92756095D01*
X129145238Y-92803714D01*
X129097619Y-92898952D01*
X129097619Y-93089428D01*
X129145238Y-93184666D01*
X129764285Y-92279904D02*
X128764285Y-92279904D01*
X129716666Y-92279904D02*
X129764285Y-92184666D01*
X129764285Y-91994190D01*
X129716666Y-91898952D01*
X129669047Y-91851333D01*
X129573809Y-91803714D01*
X129288095Y-91803714D01*
X129192857Y-91851333D01*
X129145238Y-91898952D01*
X129097619Y-91994190D01*
X129097619Y-92184666D01*
X129145238Y-92279904D01*
X129145238Y-90994190D02*
X129097619Y-91089428D01*
X129097619Y-91279904D01*
X129145238Y-91375142D01*
X129240476Y-91422761D01*
X129621428Y-91422761D01*
X129716666Y-91375142D01*
X129764285Y-91279904D01*
X129764285Y-91089428D01*
X129716666Y-90994190D01*
X129621428Y-90946571D01*
X129526190Y-90946571D01*
X129430952Y-91422761D01*
X129097619Y-90518000D02*
X129764285Y-90518000D01*
X129573809Y-90518000D02*
X129669047Y-90470380D01*
X129716666Y-90422761D01*
X129764285Y-90327523D01*
X129764285Y-90232285D01*
X129097619Y-89470380D02*
X130097619Y-89470380D01*
X129145238Y-89470380D02*
X129097619Y-89565619D01*
X129097619Y-89756095D01*
X129145238Y-89851333D01*
X129192857Y-89898952D01*
X129288095Y-89946571D01*
X129573809Y-89946571D01*
X129669047Y-89898952D01*
X129716666Y-89851333D01*
X129764285Y-89756095D01*
X129764285Y-89565619D01*
X129716666Y-89470380D01*
X129097619Y-88994190D02*
X129764285Y-88994190D01*
X129573809Y-88994190D02*
X129669047Y-88946571D01*
X129716666Y-88898952D01*
X129764285Y-88803714D01*
X129764285Y-88708476D01*
X129097619Y-87946571D02*
X129621428Y-87946571D01*
X129716666Y-87994190D01*
X129764285Y-88089428D01*
X129764285Y-88279904D01*
X129716666Y-88375142D01*
X129145238Y-87946571D02*
X129097619Y-88041809D01*
X129097619Y-88279904D01*
X129145238Y-88375142D01*
X129240476Y-88422761D01*
X129335714Y-88422761D01*
X129430952Y-88375142D01*
X129478571Y-88279904D01*
X129478571Y-88041809D01*
X129526190Y-87946571D01*
X129764285Y-87041809D02*
X128954761Y-87041809D01*
X128859523Y-87089428D01*
X128811904Y-87137047D01*
X128764285Y-87232285D01*
X128764285Y-87375142D01*
X128811904Y-87470380D01*
X129145238Y-87041809D02*
X129097619Y-87137047D01*
X129097619Y-87327523D01*
X129145238Y-87422761D01*
X129192857Y-87470380D01*
X129288095Y-87518000D01*
X129573809Y-87518000D01*
X129669047Y-87470380D01*
X129716666Y-87422761D01*
X129764285Y-87327523D01*
X129764285Y-87137047D01*
X129716666Y-87041809D01*
X129097619Y-86422761D02*
X129145238Y-86518000D01*
X129192857Y-86565619D01*
X129288095Y-86613238D01*
X129573809Y-86613238D01*
X129669047Y-86565619D01*
X129716666Y-86518000D01*
X129764285Y-86422761D01*
X129764285Y-86279904D01*
X129716666Y-86184666D01*
X129669047Y-86137047D01*
X129573809Y-86089428D01*
X129288095Y-86089428D01*
X129192857Y-86137047D01*
X129145238Y-86184666D01*
X129097619Y-86279904D01*
X129097619Y-86422761D01*
X129764285Y-85660857D02*
X129097619Y-85660857D01*
X129669047Y-85660857D02*
X129716666Y-85613238D01*
X129764285Y-85518000D01*
X129764285Y-85375142D01*
X129716666Y-85279904D01*
X129621428Y-85232285D01*
X129097619Y-85232285D01*
X125697619Y-104279904D02*
X126697619Y-104279904D01*
X126697619Y-103898952D01*
X126650000Y-103803714D01*
X126602380Y-103756095D01*
X126507142Y-103708476D01*
X126364285Y-103708476D01*
X126269047Y-103756095D01*
X126221428Y-103803714D01*
X126173809Y-103898952D01*
X126173809Y-104279904D01*
X125792857Y-102708476D02*
X125745238Y-102756095D01*
X125697619Y-102898952D01*
X125697619Y-102994190D01*
X125745238Y-103137047D01*
X125840476Y-103232285D01*
X125935714Y-103279904D01*
X126126190Y-103327523D01*
X126269047Y-103327523D01*
X126459523Y-103279904D01*
X126554761Y-103232285D01*
X126650000Y-103137047D01*
X126697619Y-102994190D01*
X126697619Y-102898952D01*
X126650000Y-102756095D01*
X126602380Y-102708476D01*
X126221428Y-101946571D02*
X126173809Y-101803714D01*
X126126190Y-101756095D01*
X126030952Y-101708476D01*
X125888095Y-101708476D01*
X125792857Y-101756095D01*
X125745238Y-101803714D01*
X125697619Y-101898952D01*
X125697619Y-102279904D01*
X126697619Y-102279904D01*
X126697619Y-101946571D01*
X126650000Y-101851333D01*
X126602380Y-101803714D01*
X126507142Y-101756095D01*
X126411904Y-101756095D01*
X126316666Y-101803714D01*
X126269047Y-101851333D01*
X126221428Y-101946571D01*
X126221428Y-102279904D01*
X125697619Y-100089428D02*
X126697619Y-100089428D01*
X125745238Y-100089428D02*
X125697619Y-100184666D01*
X125697619Y-100375142D01*
X125745238Y-100470380D01*
X125792857Y-100518000D01*
X125888095Y-100565619D01*
X126173809Y-100565619D01*
X126269047Y-100518000D01*
X126316666Y-100470380D01*
X126364285Y-100375142D01*
X126364285Y-100184666D01*
X126316666Y-100089428D01*
X125745238Y-99232285D02*
X125697619Y-99327523D01*
X125697619Y-99518000D01*
X125745238Y-99613238D01*
X125840476Y-99660857D01*
X126221428Y-99660857D01*
X126316666Y-99613238D01*
X126364285Y-99518000D01*
X126364285Y-99327523D01*
X126316666Y-99232285D01*
X126221428Y-99184666D01*
X126126190Y-99184666D01*
X126030952Y-99660857D01*
X125745238Y-98803714D02*
X125697619Y-98708476D01*
X125697619Y-98518000D01*
X125745238Y-98422761D01*
X125840476Y-98375142D01*
X125888095Y-98375142D01*
X125983333Y-98422761D01*
X126030952Y-98518000D01*
X126030952Y-98660857D01*
X126078571Y-98756095D01*
X126173809Y-98803714D01*
X126221428Y-98803714D01*
X126316666Y-98756095D01*
X126364285Y-98660857D01*
X126364285Y-98518000D01*
X126316666Y-98422761D01*
X125697619Y-97946571D02*
X126364285Y-97946571D01*
X126697619Y-97946571D02*
X126650000Y-97994190D01*
X126602380Y-97946571D01*
X126650000Y-97898952D01*
X126697619Y-97946571D01*
X126602380Y-97946571D01*
X126364285Y-97041809D02*
X125554761Y-97041809D01*
X125459523Y-97089428D01*
X125411904Y-97137047D01*
X125364285Y-97232285D01*
X125364285Y-97375142D01*
X125411904Y-97470380D01*
X125745238Y-97041809D02*
X125697619Y-97137047D01*
X125697619Y-97327523D01*
X125745238Y-97422761D01*
X125792857Y-97470380D01*
X125888095Y-97518000D01*
X126173809Y-97518000D01*
X126269047Y-97470380D01*
X126316666Y-97422761D01*
X126364285Y-97327523D01*
X126364285Y-97137047D01*
X126316666Y-97041809D01*
X126364285Y-96565619D02*
X125697619Y-96565619D01*
X126269047Y-96565619D02*
X126316666Y-96518000D01*
X126364285Y-96422761D01*
X126364285Y-96279904D01*
X126316666Y-96184666D01*
X126221428Y-96137047D01*
X125697619Y-96137047D01*
X126364285Y-95041809D02*
X126364285Y-94660857D01*
X125697619Y-94898952D02*
X126554761Y-94898952D01*
X126650000Y-94851333D01*
X126697619Y-94756095D01*
X126697619Y-94660857D01*
X125697619Y-94184666D02*
X125745238Y-94279904D01*
X125792857Y-94327523D01*
X125888095Y-94375142D01*
X126173809Y-94375142D01*
X126269047Y-94327523D01*
X126316666Y-94279904D01*
X126364285Y-94184666D01*
X126364285Y-94041809D01*
X126316666Y-93946571D01*
X126269047Y-93898952D01*
X126173809Y-93851333D01*
X125888095Y-93851333D01*
X125792857Y-93898952D01*
X125745238Y-93946571D01*
X125697619Y-94041809D01*
X125697619Y-94184666D01*
X125697619Y-93422761D02*
X126364285Y-93422761D01*
X126173809Y-93422761D02*
X126269047Y-93375142D01*
X126316666Y-93327523D01*
X126364285Y-93232285D01*
X126364285Y-93137047D01*
X125983333Y-92089428D02*
X125983333Y-91613238D01*
X125697619Y-92184666D02*
X126697619Y-91851333D01*
X125697619Y-91518000D01*
X125745238Y-91232285D02*
X125697619Y-91089428D01*
X125697619Y-90851333D01*
X125745238Y-90756095D01*
X125792857Y-90708476D01*
X125888095Y-90660857D01*
X125983333Y-90660857D01*
X126078571Y-90708476D01*
X126126190Y-90756095D01*
X126173809Y-90851333D01*
X126221428Y-91041809D01*
X126269047Y-91137047D01*
X126316666Y-91184666D01*
X126411904Y-91232285D01*
X126507142Y-91232285D01*
X126602380Y-91184666D01*
X126650000Y-91137047D01*
X126697619Y-91041809D01*
X126697619Y-90803714D01*
X126650000Y-90660857D01*
X125745238Y-90279904D02*
X125697619Y-90137047D01*
X125697619Y-89898952D01*
X125745238Y-89803714D01*
X125792857Y-89756095D01*
X125888095Y-89708476D01*
X125983333Y-89708476D01*
X126078571Y-89756095D01*
X126126190Y-89803714D01*
X126173809Y-89898952D01*
X126221428Y-90089428D01*
X126269047Y-90184666D01*
X126316666Y-90232285D01*
X126411904Y-90279904D01*
X126507142Y-90279904D01*
X126602380Y-90232285D01*
X126650000Y-90184666D01*
X126697619Y-90089428D01*
X126697619Y-89851333D01*
X126650000Y-89708476D01*
X126173809Y-89089428D02*
X125697619Y-89089428D01*
X126697619Y-89422761D02*
X126173809Y-89089428D01*
X126697619Y-88756095D01*
X125697619Y-87660857D02*
X126697619Y-87660857D01*
X125697619Y-87089428D01*
X126697619Y-87089428D01*
X126697619Y-86422761D02*
X126697619Y-86232285D01*
X126650000Y-86137047D01*
X126554761Y-86041809D01*
X126364285Y-85994190D01*
X126030952Y-85994190D01*
X125840476Y-86041809D01*
X125745238Y-86137047D01*
X125697619Y-86232285D01*
X125697619Y-86422761D01*
X125745238Y-86518000D01*
X125840476Y-86613238D01*
X126030952Y-86660857D01*
X126364285Y-86660857D01*
X126554761Y-86613238D01*
X126650000Y-86518000D01*
X126697619Y-86422761D01*
X125792857Y-85565619D02*
X125745238Y-85518000D01*
X125697619Y-85565619D01*
X125745238Y-85613238D01*
X125792857Y-85565619D01*
X125697619Y-85565619D01*
X126602380Y-85137047D02*
X126650000Y-85089428D01*
X126697619Y-84994190D01*
X126697619Y-84756095D01*
X126650000Y-84660857D01*
X126602380Y-84613238D01*
X126507142Y-84565619D01*
X126411904Y-84565619D01*
X126269047Y-84613238D01*
X125697619Y-85184666D01*
X125697619Y-84565619D01*
X126697619Y-83660857D02*
X126697619Y-84137047D01*
X126221428Y-84184666D01*
X126269047Y-84137047D01*
X126316666Y-84041809D01*
X126316666Y-83803714D01*
X126269047Y-83708476D01*
X126221428Y-83660857D01*
X126126190Y-83613238D01*
X125888095Y-83613238D01*
X125792857Y-83660857D01*
X125745238Y-83708476D01*
X125697619Y-83803714D01*
X125697619Y-84041809D01*
X125745238Y-84137047D01*
X125792857Y-84184666D01*
X126697619Y-82994190D02*
X126697619Y-82898952D01*
X126650000Y-82803714D01*
X126602380Y-82756095D01*
X126507142Y-82708476D01*
X126316666Y-82660857D01*
X126078571Y-82660857D01*
X125888095Y-82708476D01*
X125792857Y-82756095D01*
X125745238Y-82803714D01*
X125697619Y-82898952D01*
X125697619Y-82994190D01*
X125745238Y-83089428D01*
X125792857Y-83137047D01*
X125888095Y-83184666D01*
X126078571Y-83232285D01*
X126316666Y-83232285D01*
X126507142Y-83184666D01*
X126602380Y-83137047D01*
X126650000Y-83089428D01*
X126697619Y-82994190D01*
X126364285Y-81803714D02*
X125697619Y-81803714D01*
X126745238Y-82041809D02*
X126030952Y-82279904D01*
X126030952Y-81660857D01*
X126697619Y-80851333D02*
X126697619Y-81041809D01*
X126650000Y-81137047D01*
X126602380Y-81184666D01*
X126459523Y-81279904D01*
X126269047Y-81327523D01*
X125888095Y-81327523D01*
X125792857Y-81279904D01*
X125745238Y-81232285D01*
X125697619Y-81137047D01*
X125697619Y-80946571D01*
X125745238Y-80851333D01*
X125792857Y-80803714D01*
X125888095Y-80756095D01*
X126126190Y-80756095D01*
X126221428Y-80803714D01*
X126269047Y-80851333D01*
X126316666Y-80946571D01*
X126316666Y-81137047D01*
X126269047Y-81232285D01*
X126221428Y-81279904D01*
X126126190Y-81327523D01*
X125697619Y-80279904D02*
X125697619Y-80089428D01*
X125745238Y-79994190D01*
X125792857Y-79946571D01*
X125935714Y-79851333D01*
X126126190Y-79803714D01*
X126507142Y-79803714D01*
X126602380Y-79851333D01*
X126650000Y-79898952D01*
X126697619Y-79994190D01*
X126697619Y-80184666D01*
X126650000Y-80279904D01*
X126602380Y-80327523D01*
X126507142Y-80375142D01*
X126269047Y-80375142D01*
X126173809Y-80327523D01*
X126126190Y-80279904D01*
X126078571Y-80184666D01*
X126078571Y-79994190D01*
X126126190Y-79898952D01*
X126173809Y-79851333D01*
X126269047Y-79803714D01*
X123997619Y-104279904D02*
X124997619Y-104279904D01*
X124616666Y-104279904D02*
X124664285Y-104184666D01*
X124664285Y-103994190D01*
X124616666Y-103898952D01*
X124569047Y-103851333D01*
X124473809Y-103803714D01*
X124188095Y-103803714D01*
X124092857Y-103851333D01*
X124045238Y-103898952D01*
X123997619Y-103994190D01*
X123997619Y-104184666D01*
X124045238Y-104279904D01*
X124664285Y-103470380D02*
X123997619Y-103232285D01*
X124664285Y-102994190D02*
X123997619Y-103232285D01*
X123759523Y-103327523D01*
X123711904Y-103375142D01*
X123664285Y-103470380D01*
X123997619Y-101089428D02*
X124997619Y-101089428D01*
X124997619Y-100708476D01*
X124950000Y-100613238D01*
X124902380Y-100565619D01*
X124807142Y-100518000D01*
X124664285Y-100518000D01*
X124569047Y-100565619D01*
X124521428Y-100613238D01*
X124473809Y-100708476D01*
X124473809Y-101089428D01*
X123997619Y-99660857D02*
X124521428Y-99660857D01*
X124616666Y-99708476D01*
X124664285Y-99803714D01*
X124664285Y-99994190D01*
X124616666Y-100089428D01*
X124045238Y-99660857D02*
X123997619Y-99756095D01*
X123997619Y-99994190D01*
X124045238Y-100089428D01*
X124140476Y-100137047D01*
X124235714Y-100137047D01*
X124330952Y-100089428D01*
X124378571Y-99994190D01*
X124378571Y-99756095D01*
X124426190Y-99660857D01*
X124664285Y-99279904D02*
X123997619Y-99089428D01*
X124473809Y-98898952D01*
X123997619Y-98708476D01*
X124664285Y-98518000D01*
X124045238Y-97756095D02*
X123997619Y-97851333D01*
X123997619Y-98041809D01*
X124045238Y-98137047D01*
X124140476Y-98184666D01*
X124521428Y-98184666D01*
X124616666Y-98137047D01*
X124664285Y-98041809D01*
X124664285Y-97851333D01*
X124616666Y-97756095D01*
X124521428Y-97708476D01*
X124426190Y-97708476D01*
X124330952Y-98184666D01*
X123997619Y-97137047D02*
X124045238Y-97232285D01*
X124140476Y-97279904D01*
X124997619Y-97279904D01*
X123997619Y-95994190D02*
X124997619Y-95994190D01*
X124283333Y-95660857D01*
X124997619Y-95327523D01*
X123997619Y-95327523D01*
X123997619Y-94422761D02*
X124521428Y-94422761D01*
X124616666Y-94470380D01*
X124664285Y-94565619D01*
X124664285Y-94756095D01*
X124616666Y-94851333D01*
X124045238Y-94422761D02*
X123997619Y-94518000D01*
X123997619Y-94756095D01*
X124045238Y-94851333D01*
X124140476Y-94898952D01*
X124235714Y-94898952D01*
X124330952Y-94851333D01*
X124378571Y-94756095D01*
X124378571Y-94518000D01*
X124426190Y-94422761D01*
X124664285Y-93946571D02*
X123997619Y-93946571D01*
X124569047Y-93946571D02*
X124616666Y-93898952D01*
X124664285Y-93803714D01*
X124664285Y-93660857D01*
X124616666Y-93565619D01*
X124521428Y-93518000D01*
X123997619Y-93518000D01*
X123997619Y-92613238D02*
X124997619Y-92613238D01*
X124045238Y-92613238D02*
X123997619Y-92708476D01*
X123997619Y-92898952D01*
X124045238Y-92994190D01*
X124092857Y-93041809D01*
X124188095Y-93089428D01*
X124473809Y-93089428D01*
X124569047Y-93041809D01*
X124616666Y-92994190D01*
X124664285Y-92898952D01*
X124664285Y-92708476D01*
X124616666Y-92613238D01*
X124045238Y-91756095D02*
X123997619Y-91851333D01*
X123997619Y-92041809D01*
X124045238Y-92137047D01*
X124140476Y-92184666D01*
X124521428Y-92184666D01*
X124616666Y-92137047D01*
X124664285Y-92041809D01*
X124664285Y-91851333D01*
X124616666Y-91756095D01*
X124521428Y-91708476D01*
X124426190Y-91708476D01*
X124330952Y-92184666D01*
X124045238Y-91327523D02*
X123997619Y-91232285D01*
X123997619Y-91041809D01*
X124045238Y-90946571D01*
X124140476Y-90898952D01*
X124188095Y-90898952D01*
X124283333Y-90946571D01*
X124330952Y-91041809D01*
X124330952Y-91184666D01*
X124378571Y-91279904D01*
X124473809Y-91327523D01*
X124521428Y-91327523D01*
X124616666Y-91279904D01*
X124664285Y-91184666D01*
X124664285Y-91041809D01*
X124616666Y-90946571D01*
X125045238Y-88994190D02*
X123759523Y-89851333D01*
X123997619Y-87470380D02*
X124997619Y-87470380D01*
X124045238Y-87470380D02*
X123997619Y-87565619D01*
X123997619Y-87756095D01*
X124045238Y-87851333D01*
X124092857Y-87898952D01*
X124188095Y-87946571D01*
X124473809Y-87946571D01*
X124569047Y-87898952D01*
X124616666Y-87851333D01*
X124664285Y-87756095D01*
X124664285Y-87565619D01*
X124616666Y-87470380D01*
X124045238Y-86613238D02*
X123997619Y-86708476D01*
X123997619Y-86898952D01*
X124045238Y-86994190D01*
X124140476Y-87041809D01*
X124521428Y-87041809D01*
X124616666Y-86994190D01*
X124664285Y-86898952D01*
X124664285Y-86708476D01*
X124616666Y-86613238D01*
X124521428Y-86565619D01*
X124426190Y-86565619D01*
X124330952Y-87041809D01*
X124664285Y-86232285D02*
X123997619Y-85994190D01*
X124664285Y-85756095D01*
X124664285Y-85470380D02*
X124664285Y-84946571D01*
X123997619Y-85470380D01*
X123997619Y-84946571D01*
X123997619Y-84565619D02*
X124664285Y-84565619D01*
X124997619Y-84565619D02*
X124950000Y-84613238D01*
X124902380Y-84565619D01*
X124950000Y-84518000D01*
X124997619Y-84565619D01*
X124902380Y-84565619D01*
X124664285Y-84089428D02*
X123997619Y-84089428D01*
X124569047Y-84089428D02*
X124616666Y-84041809D01*
X124664285Y-83946571D01*
X124664285Y-83803714D01*
X124616666Y-83708476D01*
X124521428Y-83660857D01*
X123997619Y-83660857D01*
X124045238Y-82803714D02*
X123997619Y-82898952D01*
X123997619Y-83089428D01*
X124045238Y-83184666D01*
X124140476Y-83232285D01*
X124521428Y-83232285D01*
X124616666Y-83184666D01*
X124664285Y-83089428D01*
X124664285Y-82898952D01*
X124616666Y-82803714D01*
X124521428Y-82756095D01*
X124426190Y-82756095D01*
X124330952Y-83232285D01*
X124092857Y-82327523D02*
X124045238Y-82279904D01*
X123997619Y-82327523D01*
X124045238Y-82375142D01*
X124092857Y-82327523D01*
X123997619Y-82327523D01*
X124664285Y-81851333D02*
X123664285Y-81851333D01*
X124616666Y-81851333D02*
X124664285Y-81756095D01*
X124664285Y-81565619D01*
X124616666Y-81470380D01*
X124569047Y-81422761D01*
X124473809Y-81375142D01*
X124188095Y-81375142D01*
X124092857Y-81422761D01*
X124045238Y-81470380D01*
X123997619Y-81565619D01*
X123997619Y-81756095D01*
X124045238Y-81851333D01*
X123997619Y-80803714D02*
X124045238Y-80898952D01*
X124140476Y-80946571D01*
X124997619Y-80946571D01*
X122964285Y-103851333D02*
X122154761Y-103851333D01*
X122059523Y-103898952D01*
X122011904Y-103946571D01*
X121964285Y-104041809D01*
X121964285Y-104184666D01*
X122011904Y-104279904D01*
X122345238Y-103851333D02*
X122297619Y-103946571D01*
X122297619Y-104137047D01*
X122345238Y-104232285D01*
X122392857Y-104279904D01*
X122488095Y-104327523D01*
X122773809Y-104327523D01*
X122869047Y-104279904D01*
X122916666Y-104232285D01*
X122964285Y-104137047D01*
X122964285Y-103946571D01*
X122916666Y-103851333D01*
X122297619Y-103375142D02*
X122964285Y-103375142D01*
X123297619Y-103375142D02*
X123250000Y-103422761D01*
X123202380Y-103375142D01*
X123250000Y-103327523D01*
X123297619Y-103375142D01*
X123202380Y-103375142D01*
X122964285Y-103041809D02*
X122964285Y-102660857D01*
X123297619Y-102898952D02*
X122440476Y-102898952D01*
X122345238Y-102851333D01*
X122297619Y-102756095D01*
X122297619Y-102660857D01*
X122297619Y-102327523D02*
X123297619Y-102327523D01*
X122297619Y-101898952D02*
X122821428Y-101898952D01*
X122916666Y-101946571D01*
X122964285Y-102041809D01*
X122964285Y-102184666D01*
X122916666Y-102279904D01*
X122869047Y-102327523D01*
X122964285Y-100994190D02*
X122297619Y-100994190D01*
X122964285Y-101422761D02*
X122440476Y-101422761D01*
X122345238Y-101375142D01*
X122297619Y-101279904D01*
X122297619Y-101137047D01*
X122345238Y-101041809D01*
X122392857Y-100994190D01*
X122297619Y-100518000D02*
X123297619Y-100518000D01*
X122916666Y-100518000D02*
X122964285Y-100422761D01*
X122964285Y-100232285D01*
X122916666Y-100137047D01*
X122869047Y-100089428D01*
X122773809Y-100041809D01*
X122488095Y-100041809D01*
X122392857Y-100089428D01*
X122345238Y-100137047D01*
X122297619Y-100232285D01*
X122297619Y-100422761D01*
X122345238Y-100518000D01*
X122392857Y-99613238D02*
X122345238Y-99565619D01*
X122297619Y-99613238D01*
X122345238Y-99660857D01*
X122392857Y-99613238D01*
X122297619Y-99613238D01*
X122345238Y-98708476D02*
X122297619Y-98803714D01*
X122297619Y-98994190D01*
X122345238Y-99089428D01*
X122392857Y-99137047D01*
X122488095Y-99184666D01*
X122773809Y-99184666D01*
X122869047Y-99137047D01*
X122916666Y-99089428D01*
X122964285Y-98994190D01*
X122964285Y-98803714D01*
X122916666Y-98708476D01*
X122297619Y-98137047D02*
X122345238Y-98232285D01*
X122392857Y-98279904D01*
X122488095Y-98327523D01*
X122773809Y-98327523D01*
X122869047Y-98279904D01*
X122916666Y-98232285D01*
X122964285Y-98137047D01*
X122964285Y-97994190D01*
X122916666Y-97898952D01*
X122869047Y-97851333D01*
X122773809Y-97803714D01*
X122488095Y-97803714D01*
X122392857Y-97851333D01*
X122345238Y-97898952D01*
X122297619Y-97994190D01*
X122297619Y-98137047D01*
X122297619Y-97375142D02*
X122964285Y-97375142D01*
X122869047Y-97375142D02*
X122916666Y-97327523D01*
X122964285Y-97232285D01*
X122964285Y-97089428D01*
X122916666Y-96994190D01*
X122821428Y-96946571D01*
X122297619Y-96946571D01*
X122821428Y-96946571D02*
X122916666Y-96898952D01*
X122964285Y-96803714D01*
X122964285Y-96660857D01*
X122916666Y-96565619D01*
X122821428Y-96518000D01*
X122297619Y-96518000D01*
X123345238Y-95327523D02*
X122059523Y-96184666D01*
X122964285Y-94994190D02*
X121964285Y-94994190D01*
X122916666Y-94994190D02*
X122964285Y-94898952D01*
X122964285Y-94708476D01*
X122916666Y-94613238D01*
X122869047Y-94565619D01*
X122773809Y-94518000D01*
X122488095Y-94518000D01*
X122392857Y-94565619D01*
X122345238Y-94613238D01*
X122297619Y-94708476D01*
X122297619Y-94898952D01*
X122345238Y-94994190D01*
X122297619Y-94089428D02*
X122964285Y-94089428D01*
X122869047Y-94089428D02*
X122916666Y-94041809D01*
X122964285Y-93946571D01*
X122964285Y-93803714D01*
X122916666Y-93708476D01*
X122821428Y-93660857D01*
X122297619Y-93660857D01*
X122821428Y-93660857D02*
X122916666Y-93613238D01*
X122964285Y-93518000D01*
X122964285Y-93375142D01*
X122916666Y-93279904D01*
X122821428Y-93232285D01*
X122297619Y-93232285D01*
X122297619Y-92327523D02*
X122821428Y-92327523D01*
X122916666Y-92375142D01*
X122964285Y-92470380D01*
X122964285Y-92660857D01*
X122916666Y-92756095D01*
X122345238Y-92327523D02*
X122297619Y-92422761D01*
X122297619Y-92660857D01*
X122345238Y-92756095D01*
X122440476Y-92803714D01*
X122535714Y-92803714D01*
X122630952Y-92756095D01*
X122678571Y-92660857D01*
X122678571Y-92422761D01*
X122726190Y-92327523D01*
X122964285Y-91851333D02*
X122297619Y-91851333D01*
X122869047Y-91851333D02*
X122916666Y-91803714D01*
X122964285Y-91708476D01*
X122964285Y-91565619D01*
X122916666Y-91470380D01*
X122821428Y-91422761D01*
X122297619Y-91422761D01*
X122297619Y-90518000D02*
X123297619Y-90518000D01*
X122345238Y-90518000D02*
X122297619Y-90613238D01*
X122297619Y-90803714D01*
X122345238Y-90898952D01*
X122392857Y-90946571D01*
X122488095Y-90994190D01*
X122773809Y-90994190D01*
X122869047Y-90946571D01*
X122916666Y-90898952D01*
X122964285Y-90803714D01*
X122964285Y-90613238D01*
X122916666Y-90518000D01*
X122345238Y-89660857D02*
X122297619Y-89756095D01*
X122297619Y-89946571D01*
X122345238Y-90041809D01*
X122440476Y-90089428D01*
X122821428Y-90089428D01*
X122916666Y-90041809D01*
X122964285Y-89946571D01*
X122964285Y-89756095D01*
X122916666Y-89660857D01*
X122821428Y-89613238D01*
X122726190Y-89613238D01*
X122630952Y-90089428D01*
X122345238Y-89232285D02*
X122297619Y-89137047D01*
X122297619Y-88946571D01*
X122345238Y-88851333D01*
X122440476Y-88803714D01*
X122488095Y-88803714D01*
X122583333Y-88851333D01*
X122630952Y-88946571D01*
X122630952Y-89089428D01*
X122678571Y-89184666D01*
X122773809Y-89232285D01*
X122821428Y-89232285D01*
X122916666Y-89184666D01*
X122964285Y-89089428D01*
X122964285Y-88946571D01*
X122916666Y-88851333D01*
X123345238Y-87660857D02*
X122059523Y-88518000D01*
X122392857Y-86756095D02*
X122345238Y-86803714D01*
X122297619Y-86946571D01*
X122297619Y-87041809D01*
X122345238Y-87184666D01*
X122440476Y-87279904D01*
X122535714Y-87327523D01*
X122726190Y-87375142D01*
X122869047Y-87375142D01*
X123059523Y-87327523D01*
X123154761Y-87279904D01*
X123250000Y-87184666D01*
X123297619Y-87041809D01*
X123297619Y-86946571D01*
X123250000Y-86803714D01*
X123202380Y-86756095D01*
X123297619Y-85898952D02*
X123297619Y-86089428D01*
X123250000Y-86184666D01*
X123202380Y-86232285D01*
X123059523Y-86327523D01*
X122869047Y-86375142D01*
X122488095Y-86375142D01*
X122392857Y-86327523D01*
X122345238Y-86279904D01*
X122297619Y-86184666D01*
X122297619Y-85994190D01*
X122345238Y-85898952D01*
X122392857Y-85851333D01*
X122488095Y-85803714D01*
X122726190Y-85803714D01*
X122821428Y-85851333D01*
X122869047Y-85898952D01*
X122916666Y-85994190D01*
X122916666Y-86184666D01*
X122869047Y-86279904D01*
X122821428Y-86327523D01*
X122726190Y-86375142D01*
X122964285Y-84946571D02*
X122297619Y-84946571D01*
X123345238Y-85184666D02*
X122630952Y-85422761D01*
X122630952Y-84803714D01*
X122678571Y-84422761D02*
X122678571Y-83660857D01*
X122297619Y-82613238D02*
X122773809Y-82946571D01*
X122297619Y-83184666D02*
X123297619Y-83184666D01*
X123297619Y-82803714D01*
X123250000Y-82708476D01*
X123202380Y-82660857D01*
X123107142Y-82613238D01*
X122964285Y-82613238D01*
X122869047Y-82660857D01*
X122821428Y-82708476D01*
X122773809Y-82803714D01*
X122773809Y-83184666D01*
X122821428Y-81851333D02*
X122821428Y-82184666D01*
X122297619Y-82184666D02*
X123297619Y-82184666D01*
X123297619Y-81708476D01*
X122678571Y-81327523D02*
X122678571Y-80565619D01*
X122297619Y-80089428D02*
X123297619Y-80089428D01*
X122583333Y-79756095D01*
X123297619Y-79422761D01*
X122297619Y-79422761D01*
X122297619Y-78803714D02*
X122345238Y-78898952D01*
X122392857Y-78946571D01*
X122488095Y-78994190D01*
X122773809Y-78994190D01*
X122869047Y-78946571D01*
X122916666Y-78898952D01*
X122964285Y-78803714D01*
X122964285Y-78660857D01*
X122916666Y-78565619D01*
X122869047Y-78518000D01*
X122773809Y-78470380D01*
X122488095Y-78470380D01*
X122392857Y-78518000D01*
X122345238Y-78565619D01*
X122297619Y-78660857D01*
X122297619Y-78803714D01*
X122297619Y-77613238D02*
X123297619Y-77613238D01*
X122345238Y-77613238D02*
X122297619Y-77708476D01*
X122297619Y-77898952D01*
X122345238Y-77994190D01*
X122392857Y-78041809D01*
X122488095Y-78089428D01*
X122773809Y-78089428D01*
X122869047Y-78041809D01*
X122916666Y-77994190D01*
X122964285Y-77898952D01*
X122964285Y-77708476D01*
X122916666Y-77613238D01*
X122964285Y-76708476D02*
X122297619Y-76708476D01*
X122964285Y-77137047D02*
X122440476Y-77137047D01*
X122345238Y-77089428D01*
X122297619Y-76994190D01*
X122297619Y-76851333D01*
X122345238Y-76756095D01*
X122392857Y-76708476D01*
X122297619Y-76089428D02*
X122345238Y-76184666D01*
X122440476Y-76232285D01*
X123297619Y-76232285D01*
X122297619Y-75279904D02*
X122821428Y-75279904D01*
X122916666Y-75327523D01*
X122964285Y-75422761D01*
X122964285Y-75613238D01*
X122916666Y-75708476D01*
X122345238Y-75279904D02*
X122297619Y-75375142D01*
X122297619Y-75613238D01*
X122345238Y-75708476D01*
X122440476Y-75756095D01*
X122535714Y-75756095D01*
X122630952Y-75708476D01*
X122678571Y-75613238D01*
X122678571Y-75375142D01*
X122726190Y-75279904D01*
X122964285Y-74946571D02*
X122964285Y-74565619D01*
X123297619Y-74803714D02*
X122440476Y-74803714D01*
X122345238Y-74756095D01*
X122297619Y-74660857D01*
X122297619Y-74565619D01*
X122297619Y-74089428D02*
X122345238Y-74184666D01*
X122392857Y-74232285D01*
X122488095Y-74279904D01*
X122773809Y-74279904D01*
X122869047Y-74232285D01*
X122916666Y-74184666D01*
X122964285Y-74089428D01*
X122964285Y-73946571D01*
X122916666Y-73851333D01*
X122869047Y-73803714D01*
X122773809Y-73756095D01*
X122488095Y-73756095D01*
X122392857Y-73803714D01*
X122345238Y-73851333D01*
X122297619Y-73946571D01*
X122297619Y-74089428D01*
X122297619Y-73327523D02*
X122964285Y-73327523D01*
X122773809Y-73327523D02*
X122869047Y-73279904D01*
X122916666Y-73232285D01*
X122964285Y-73137047D01*
X122964285Y-73041809D01*
D11*
X121352000Y-55566000D02*
X121352000Y-56896000D01*
X122682000Y-55566000D02*
X121352000Y-55566000D01*
X123952000Y-55566000D02*
X123952000Y-58226000D01*
X123952000Y-58226000D02*
X126552000Y-58226000D01*
X123952000Y-55566000D02*
X126552000Y-55566000D01*
X126552000Y-55566000D02*
X126552000Y-58226000D01*
X121352000Y-107890000D02*
X121352000Y-109220000D01*
X122682000Y-107890000D02*
X121352000Y-107890000D01*
X123952000Y-107890000D02*
X123952000Y-110550000D01*
X123952000Y-110550000D02*
X126552000Y-110550000D01*
X123952000Y-107890000D02*
X126552000Y-107890000D01*
X126552000Y-107890000D02*
X126552000Y-110550000D01*
X143450000Y-85658000D02*
X144780000Y-85658000D01*
X143450000Y-84328000D02*
X143450000Y-85658000D01*
X143450000Y-83058000D02*
X146110000Y-83058000D01*
X146110000Y-83058000D02*
X146110000Y-80458000D01*
X143450000Y-83058000D02*
X143450000Y-80458000D01*
X143450000Y-80458000D02*
X146110000Y-80458000D01*
M02*
