G04 #@! TF.GenerationSoftware,KiCad,Pcbnew,(6.0.0)*
G04 #@! TF.CreationDate,2022-02-21T16:40:38+01:00*
G04 #@! TF.ProjectId,rfreplacement,72667265-706c-4616-9365-6d656e742e6b,rev?*
G04 #@! TF.SameCoordinates,Original*
G04 #@! TF.FileFunction,Paste,Top*
G04 #@! TF.FilePolarity,Positive*
%FSLAX46Y46*%
G04 Gerber Fmt 4.6, Leading zero omitted, Abs format (unit mm)*
G04 Created by KiCad (PCBNEW (6.0.0)) date 2022-02-21 16:40:38*
%MOMM*%
%LPD*%
G01*
G04 APERTURE LIST*
G04 Aperture macros list*
%AMRoundRect*
0 Rectangle with rounded corners*
0 $1 Rounding radius*
0 $2 $3 $4 $5 $6 $7 $8 $9 X,Y pos of 4 corners*
0 Add a 4 corners polygon primitive as box body*
4,1,4,$2,$3,$4,$5,$6,$7,$8,$9,$2,$3,0*
0 Add four circle primitives for the rounded corners*
1,1,$1+$1,$2,$3*
1,1,$1+$1,$4,$5*
1,1,$1+$1,$6,$7*
1,1,$1+$1,$8,$9*
0 Add four rect primitives between the rounded corners*
20,1,$1+$1,$2,$3,$4,$5,0*
20,1,$1+$1,$4,$5,$6,$7,0*
20,1,$1+$1,$6,$7,$8,$9,0*
20,1,$1+$1,$8,$9,$2,$3,0*%
G04 Aperture macros list end*
%ADD10R,1.450000X0.800000*%
%ADD11RoundRect,0.250000X-0.475000X0.337500X-0.475000X-0.337500X0.475000X-0.337500X0.475000X0.337500X0*%
%ADD12RoundRect,0.250000X0.337500X0.475000X-0.337500X0.475000X-0.337500X-0.475000X0.337500X-0.475000X0*%
%ADD13RoundRect,0.250000X-0.337500X-0.475000X0.337500X-0.475000X0.337500X0.475000X-0.337500X0.475000X0*%
%ADD14RoundRect,0.250000X-0.350000X-0.450000X0.350000X-0.450000X0.350000X0.450000X-0.350000X0.450000X0*%
%ADD15RoundRect,0.250000X0.450000X-0.350000X0.450000X0.350000X-0.450000X0.350000X-0.450000X-0.350000X0*%
%ADD16RoundRect,0.250000X-0.450000X0.350000X-0.450000X-0.350000X0.450000X-0.350000X0.450000X0.350000X0*%
%ADD17RoundRect,0.250000X0.350000X0.450000X-0.350000X0.450000X-0.350000X-0.450000X0.350000X-0.450000X0*%
%ADD18R,1.500000X2.000000*%
%ADD19R,3.800000X2.000000*%
%ADD20RoundRect,0.250000X0.450000X-0.325000X0.450000X0.325000X-0.450000X0.325000X-0.450000X-0.325000X0*%
G04 APERTURE END LIST*
D10*
X117687000Y-90170000D03*
X117687000Y-88900000D03*
X117687000Y-87630000D03*
X117687000Y-86360000D03*
X112437000Y-86360000D03*
X112437000Y-87630000D03*
X112437000Y-88900000D03*
X112437000Y-90170000D03*
D11*
X148590000Y-89123500D03*
X148590000Y-91198500D03*
D12*
X115845500Y-84328000D03*
X113770500Y-84328000D03*
D13*
X121399500Y-88900000D03*
X123474500Y-88900000D03*
D12*
X123474500Y-86360000D03*
X121399500Y-86360000D03*
D14*
X106696000Y-85217000D03*
X108696000Y-85217000D03*
X116357000Y-93345000D03*
X118357000Y-93345000D03*
D15*
X102362000Y-92050000D03*
X102362000Y-90050000D03*
D16*
X107442000Y-90050000D03*
X107442000Y-92050000D03*
D15*
X104902000Y-92050000D03*
X104902000Y-90050000D03*
D16*
X136652000Y-84335000D03*
X136652000Y-86335000D03*
X127127000Y-84335000D03*
X127127000Y-86335000D03*
D17*
X128127000Y-93345000D03*
X126127000Y-93345000D03*
D18*
X140956000Y-91542000D03*
X143256000Y-91542000D03*
X145556000Y-91542000D03*
D19*
X143256000Y-85242000D03*
D17*
X112887000Y-93345000D03*
X110887000Y-93345000D03*
D14*
X126127000Y-90805000D03*
X128127000Y-90805000D03*
D12*
X123474500Y-91440000D03*
X121399500Y-91440000D03*
D14*
X131207000Y-86360000D03*
X133207000Y-86360000D03*
D20*
X115062000Y-79774000D03*
X115062000Y-77724000D03*
X108458000Y-79756000D03*
X108458000Y-77706000D03*
M02*
