M48
; DRILL file {KiCad (6.0.0)} date Mon Feb 21 15:53:43 2022
; FORMAT={-:-/ absolute / inch / decimal}
; #@! TF.CreationDate,2022-02-21T15:53:43+01:00
; #@! TF.GenerationSoftware,Kicad,Pcbnew,(6.0.0)
; #@! TF.FileFunction,Plated,1,2,PTH
FMAT,2
INCH
; #@! TA.AperFunction,Plated,PTH,ViaDrill
T1C0.0157
; #@! TA.AperFunction,Plated,PTH,ViaDrill
T2C0.0315
; #@! TA.AperFunction,Plated,PTH,ComponentDrill
T3C0.0315
; #@! TA.AperFunction,Plated,PTH,ComponentDrill
T4C0.0350
; #@! TA.AperFunction,Plated,PTH,ComponentDrill
T5C0.0394
; #@! TA.AperFunction,Plated,PTH,ComponentDrill
T6C0.0512
; #@! TA.AperFunction,Plated,PTH,ComponentDrill
T7C0.0902
%
G90
G05
T1
X3.86Y-2.4
X3.86Y-2.92
X3.86Y-3.61
X3.86Y-4.03
X4.03Y-3.84
X4.4Y-2.78
X4.4Y-3.06
X4.62Y-3.84
X4.91Y-2.78
X4.91Y-3.06
X5.065Y-3.48
X5.2Y-3.84
X5.34Y-3.06
X5.59Y-3.73
X5.8329Y-2.6485
X5.96Y-2.4
X5.96Y-2.92
X5.96Y-3.61
X5.96Y-4.03
T2
X4.03Y-3.49
X4.33Y-3.375
X4.355Y-3.6
X4.405Y-3.325
X4.51Y-3.68
X4.73Y-3.675
X4.93Y-3.48
T3
X4.268Y-2.9194
X4.268Y-3.2194
X4.53Y-2.92
X4.53Y-3.22
X5.7542Y-2.5107
X5.7542Y-2.5894
X5.8329Y-2.5107
X5.8329Y-2.5894
X5.9117Y-2.5107
X5.9117Y-2.5894
T4
X4.2681Y-2.69
X4.2681Y-2.788
X4.5319Y-2.69
X4.5319Y-2.788
T5
X3.88Y-3.23
X3.88Y-3.33
X4.14Y-3.93
X4.24Y-3.93
X4.34Y-3.93
X4.44Y-3.93
X4.81Y-3.93
X4.86Y-2.47
X4.91Y-3.93
X4.96Y-2.47
X5.01Y-3.93
X5.38Y-3.93
X5.48Y-3.93
X5.58Y-3.93
X5.68Y-3.93
X5.94Y-3.23
X5.94Y-3.33
T6
X5.24Y-2.59
X5.2597Y-2.8774
X5.4211Y-2.4365
X5.5195Y-2.7042
X5.6258Y-2.7514
T7
X4.1339Y-2.5719
X4.4Y-2.54
X4.6661Y-2.5719
T0
M30
