G04 #@! TF.GenerationSoftware,KiCad,Pcbnew,(5.1.9)-1*
G04 #@! TF.CreationDate,2021-03-15T23:42:34+01:00*
G04 #@! TF.ProjectId,rfreplacement,72667265-706c-4616-9365-6d656e742e6b,rev?*
G04 #@! TF.SameCoordinates,Original*
G04 #@! TF.FileFunction,Copper,L1,Top*
G04 #@! TF.FilePolarity,Positive*
%FSLAX46Y46*%
G04 Gerber Fmt 4.6, Leading zero omitted, Abs format (unit mm)*
G04 Created by KiCad (PCBNEW (5.1.9)-1) date 2021-03-15 23:42:34*
%MOMM*%
%LPD*%
G01*
G04 APERTURE LIST*
G04 #@! TA.AperFunction,ComponentPad*
%ADD10O,2.200000X4.000000*%
G04 #@! TD*
G04 #@! TA.AperFunction,ComponentPad*
%ADD11O,4.000000X2.200000*%
G04 #@! TD*
G04 #@! TA.AperFunction,ComponentPad*
%ADD12R,4.000000X2.200000*%
G04 #@! TD*
G04 #@! TA.AperFunction,ComponentPad*
%ADD13C,3.306000*%
G04 #@! TD*
G04 #@! TA.AperFunction,ComponentPad*
%ADD14C,1.398000*%
G04 #@! TD*
G04 #@! TA.AperFunction,ComponentPad*
%ADD15R,1.398000X1.398000*%
G04 #@! TD*
G04 #@! TA.AperFunction,ComponentPad*
%ADD16O,1.700000X1.700000*%
G04 #@! TD*
G04 #@! TA.AperFunction,ComponentPad*
%ADD17R,1.700000X1.700000*%
G04 #@! TD*
G04 #@! TA.AperFunction,SMDPad,CuDef*
%ADD18R,0.800000X1.450000*%
G04 #@! TD*
G04 #@! TA.AperFunction,SMDPad,CuDef*
%ADD19C,0.100000*%
G04 #@! TD*
G04 #@! TA.AperFunction,SMDPad,CuDef*
%ADD20R,2.000000X3.800000*%
G04 #@! TD*
G04 #@! TA.AperFunction,SMDPad,CuDef*
%ADD21R,2.000000X1.500000*%
G04 #@! TD*
G04 #@! TA.AperFunction,ViaPad*
%ADD22C,1.200000*%
G04 #@! TD*
G04 #@! TA.AperFunction,Conductor*
%ADD23C,0.800000*%
G04 #@! TD*
G04 #@! TA.AperFunction,Conductor*
%ADD24C,1.200000*%
G04 #@! TD*
G04 APERTURE END LIST*
D10*
X145886000Y-96040000D03*
D11*
X137886000Y-101240000D03*
X139086000Y-98540000D03*
D10*
X134686000Y-91940000D03*
D12*
X141986000Y-91440000D03*
D13*
X142446000Y-63344000D03*
X142446000Y-76864000D03*
X143256000Y-70104000D03*
D14*
X136956000Y-73454000D03*
X139446000Y-73454000D03*
X136956000Y-66754000D03*
D15*
X139446000Y-66754000D03*
D16*
X125730000Y-56896000D03*
D17*
X123190000Y-56896000D03*
D16*
X125730000Y-109220000D03*
D17*
X123190000Y-109220000D03*
D16*
X145034000Y-81788000D03*
D17*
X145034000Y-84328000D03*
D16*
X107950000Y-80518000D03*
X107950000Y-83058000D03*
D17*
X107950000Y-85598000D03*
D16*
X107950000Y-94996000D03*
X107950000Y-97536000D03*
X107950000Y-100076000D03*
D17*
X107950000Y-102616000D03*
X107950000Y-71120000D03*
D16*
X107950000Y-68580000D03*
X107950000Y-66040000D03*
X107950000Y-63500000D03*
D18*
X121412000Y-70781000D03*
X120142000Y-70781000D03*
X118872000Y-70781000D03*
X117602000Y-70781000D03*
X121412000Y-76031000D03*
X120142000Y-76031000D03*
X118872000Y-76031000D03*
X117602000Y-76031000D03*
G04 #@! TA.AperFunction,SMDPad,CuDef*
G36*
G01*
X119211000Y-106483999D02*
X119211000Y-107384001D01*
G75*
G02*
X118961001Y-107634000I-249999J0D01*
G01*
X118310999Y-107634000D01*
G75*
G02*
X118061000Y-107384001I0J249999D01*
G01*
X118061000Y-106483999D01*
G75*
G02*
X118310999Y-106234000I249999J0D01*
G01*
X118961001Y-106234000D01*
G75*
G02*
X119211000Y-106483999I0J-249999D01*
G01*
G37*
G04 #@! TD.AperFunction*
G04 #@! TA.AperFunction,SMDPad,CuDef*
G36*
G01*
X117161000Y-106483999D02*
X117161000Y-107384001D01*
G75*
G02*
X116911001Y-107634000I-249999J0D01*
G01*
X116260999Y-107634000D01*
G75*
G02*
X116011000Y-107384001I0J249999D01*
G01*
X116011000Y-106483999D01*
G75*
G02*
X116260999Y-106234000I249999J0D01*
G01*
X116911001Y-106234000D01*
G75*
G02*
X117161000Y-106483999I0J-249999D01*
G01*
G37*
G04 #@! TD.AperFunction*
G04 #@! TA.AperFunction,SMDPad,CuDef*
G36*
G01*
X123894001Y-74752000D02*
X122993999Y-74752000D01*
G75*
G02*
X122744000Y-74502001I0J249999D01*
G01*
X122744000Y-73851999D01*
G75*
G02*
X122993999Y-73602000I249999J0D01*
G01*
X123894001Y-73602000D01*
G75*
G02*
X124144000Y-73851999I0J-249999D01*
G01*
X124144000Y-74502001D01*
G75*
G02*
X123894001Y-74752000I-249999J0D01*
G01*
G37*
G04 #@! TD.AperFunction*
G04 #@! TA.AperFunction,SMDPad,CuDef*
G36*
G01*
X123894001Y-72702000D02*
X122993999Y-72702000D01*
G75*
G02*
X122744000Y-72452001I0J249999D01*
G01*
X122744000Y-71801999D01*
G75*
G02*
X122993999Y-71552000I249999J0D01*
G01*
X123894001Y-71552000D01*
G75*
G02*
X124144000Y-71801999I0J-249999D01*
G01*
X124144000Y-72452001D01*
G75*
G02*
X123894001Y-72702000I-249999J0D01*
G01*
G37*
G04 #@! TD.AperFunction*
G04 #@! TA.AperFunction,SMDPad,CuDef*
G36*
G01*
X118421999Y-81231000D02*
X119322001Y-81231000D01*
G75*
G02*
X119572000Y-81480999I0J-249999D01*
G01*
X119572000Y-82131001D01*
G75*
G02*
X119322001Y-82381000I-249999J0D01*
G01*
X118421999Y-82381000D01*
G75*
G02*
X118172000Y-82131001I0J249999D01*
G01*
X118172000Y-81480999D01*
G75*
G02*
X118421999Y-81231000I249999J0D01*
G01*
G37*
G04 #@! TD.AperFunction*
G04 #@! TA.AperFunction,SMDPad,CuDef*
G36*
G01*
X118421999Y-79181000D02*
X119322001Y-79181000D01*
G75*
G02*
X119572000Y-79430999I0J-249999D01*
G01*
X119572000Y-80081001D01*
G75*
G02*
X119322001Y-80331000I-249999J0D01*
G01*
X118421999Y-80331000D01*
G75*
G02*
X118172000Y-80081001I0J249999D01*
G01*
X118172000Y-79430999D01*
G75*
G02*
X118421999Y-79181000I249999J0D01*
G01*
G37*
G04 #@! TD.AperFunction*
G04 #@! TA.AperFunction,SMDPad,CuDef*
G36*
G01*
X116782001Y-82381000D02*
X115881999Y-82381000D01*
G75*
G02*
X115632000Y-82131001I0J249999D01*
G01*
X115632000Y-81480999D01*
G75*
G02*
X115881999Y-81231000I249999J0D01*
G01*
X116782001Y-81231000D01*
G75*
G02*
X117032000Y-81480999I0J-249999D01*
G01*
X117032000Y-82131001D01*
G75*
G02*
X116782001Y-82381000I-249999J0D01*
G01*
G37*
G04 #@! TD.AperFunction*
G04 #@! TA.AperFunction,SMDPad,CuDef*
G36*
G01*
X116782001Y-80331000D02*
X115881999Y-80331000D01*
G75*
G02*
X115632000Y-80081001I0J249999D01*
G01*
X115632000Y-79430999D01*
G75*
G02*
X115881999Y-79181000I249999J0D01*
G01*
X116782001Y-79181000D01*
G75*
G02*
X117032000Y-79430999I0J-249999D01*
G01*
X117032000Y-80081001D01*
G75*
G02*
X116782001Y-80331000I-249999J0D01*
G01*
G37*
G04 #@! TD.AperFunction*
G04 #@! TA.AperFunction,SMDPad,CuDef*
G36*
G01*
X121862001Y-80331000D02*
X120961999Y-80331000D01*
G75*
G02*
X120712000Y-80081001I0J249999D01*
G01*
X120712000Y-79430999D01*
G75*
G02*
X120961999Y-79181000I249999J0D01*
G01*
X121862001Y-79181000D01*
G75*
G02*
X122112000Y-79430999I0J-249999D01*
G01*
X122112000Y-80081001D01*
G75*
G02*
X121862001Y-80331000I-249999J0D01*
G01*
G37*
G04 #@! TD.AperFunction*
G04 #@! TA.AperFunction,SMDPad,CuDef*
G36*
G01*
X121862001Y-82381000D02*
X120961999Y-82381000D01*
G75*
G02*
X120712000Y-82131001I0J249999D01*
G01*
X120712000Y-81480999D01*
G75*
G02*
X120961999Y-81231000I249999J0D01*
G01*
X121862001Y-81231000D01*
G75*
G02*
X122112000Y-81480999I0J-249999D01*
G01*
X122112000Y-82131001D01*
G75*
G02*
X121862001Y-82381000I-249999J0D01*
G01*
G37*
G04 #@! TD.AperFunction*
G04 #@! TA.AperFunction,SMDPad,CuDef*
D19*
G36*
X117767000Y-94246000D02*
G01*
X118267000Y-94246000D01*
X118267000Y-94246602D01*
X118291534Y-94246602D01*
X118340365Y-94251412D01*
X118388490Y-94260984D01*
X118435445Y-94275228D01*
X118480778Y-94294005D01*
X118524051Y-94317136D01*
X118564850Y-94344396D01*
X118602779Y-94375524D01*
X118637476Y-94410221D01*
X118668604Y-94448150D01*
X118695864Y-94488949D01*
X118718995Y-94532222D01*
X118737772Y-94577555D01*
X118752016Y-94624510D01*
X118761588Y-94672635D01*
X118766398Y-94721466D01*
X118766398Y-94746000D01*
X118767000Y-94746000D01*
X118767000Y-95246000D01*
X118766398Y-95246000D01*
X118766398Y-95270534D01*
X118761588Y-95319365D01*
X118752016Y-95367490D01*
X118737772Y-95414445D01*
X118718995Y-95459778D01*
X118695864Y-95503051D01*
X118668604Y-95543850D01*
X118637476Y-95581779D01*
X118602779Y-95616476D01*
X118564850Y-95647604D01*
X118524051Y-95674864D01*
X118480778Y-95697995D01*
X118435445Y-95716772D01*
X118388490Y-95731016D01*
X118340365Y-95740588D01*
X118291534Y-95745398D01*
X118267000Y-95745398D01*
X118267000Y-95746000D01*
X117767000Y-95746000D01*
X117767000Y-94246000D01*
G37*
G04 #@! TD.AperFunction*
G04 #@! TA.AperFunction,SMDPad,CuDef*
G36*
X116967000Y-95745398D02*
G01*
X116942466Y-95745398D01*
X116893635Y-95740588D01*
X116845510Y-95731016D01*
X116798555Y-95716772D01*
X116753222Y-95697995D01*
X116709949Y-95674864D01*
X116669150Y-95647604D01*
X116631221Y-95616476D01*
X116596524Y-95581779D01*
X116565396Y-95543850D01*
X116538136Y-95503051D01*
X116515005Y-95459778D01*
X116496228Y-95414445D01*
X116481984Y-95367490D01*
X116472412Y-95319365D01*
X116467602Y-95270534D01*
X116467602Y-95246000D01*
X116467000Y-95246000D01*
X116467000Y-94746000D01*
X116467602Y-94746000D01*
X116467602Y-94721466D01*
X116472412Y-94672635D01*
X116481984Y-94624510D01*
X116496228Y-94577555D01*
X116515005Y-94532222D01*
X116538136Y-94488949D01*
X116565396Y-94448150D01*
X116596524Y-94410221D01*
X116631221Y-94375524D01*
X116669150Y-94344396D01*
X116709949Y-94317136D01*
X116753222Y-94294005D01*
X116798555Y-94275228D01*
X116845510Y-94260984D01*
X116893635Y-94251412D01*
X116942466Y-94246602D01*
X116967000Y-94246602D01*
X116967000Y-94246000D01*
X117467000Y-94246000D01*
X117467000Y-95746000D01*
X116967000Y-95746000D01*
X116967000Y-95745398D01*
G37*
G04 #@! TD.AperFunction*
G04 #@! TA.AperFunction,SMDPad,CuDef*
G36*
G01*
X114877001Y-71831000D02*
X113976999Y-71831000D01*
G75*
G02*
X113727000Y-71581001I0J249999D01*
G01*
X113727000Y-70930999D01*
G75*
G02*
X113976999Y-70681000I249999J0D01*
G01*
X114877001Y-70681000D01*
G75*
G02*
X115127000Y-70930999I0J-249999D01*
G01*
X115127000Y-71581001D01*
G75*
G02*
X114877001Y-71831000I-249999J0D01*
G01*
G37*
G04 #@! TD.AperFunction*
G04 #@! TA.AperFunction,SMDPad,CuDef*
G36*
G01*
X114877001Y-69781000D02*
X113976999Y-69781000D01*
G75*
G02*
X113727000Y-69531001I0J249999D01*
G01*
X113727000Y-68880999D01*
G75*
G02*
X113976999Y-68631000I249999J0D01*
G01*
X114877001Y-68631000D01*
G75*
G02*
X115127000Y-68880999I0J-249999D01*
G01*
X115127000Y-69531001D01*
G75*
G02*
X114877001Y-69781000I-249999J0D01*
G01*
G37*
G04 #@! TD.AperFunction*
G04 #@! TA.AperFunction,SMDPad,CuDef*
G36*
G01*
X122104999Y-64440000D02*
X123005001Y-64440000D01*
G75*
G02*
X123255000Y-64689999I0J-249999D01*
G01*
X123255000Y-65340001D01*
G75*
G02*
X123005001Y-65590000I-249999J0D01*
G01*
X122104999Y-65590000D01*
G75*
G02*
X121855000Y-65340001I0J249999D01*
G01*
X121855000Y-64689999D01*
G75*
G02*
X122104999Y-64440000I249999J0D01*
G01*
G37*
G04 #@! TD.AperFunction*
G04 #@! TA.AperFunction,SMDPad,CuDef*
G36*
G01*
X122104999Y-66490000D02*
X123005001Y-66490000D01*
G75*
G02*
X123255000Y-66739999I0J-249999D01*
G01*
X123255000Y-67390001D01*
G75*
G02*
X123005001Y-67640000I-249999J0D01*
G01*
X122104999Y-67640000D01*
G75*
G02*
X121855000Y-67390001I0J249999D01*
G01*
X121855000Y-66739999D01*
G75*
G02*
X122104999Y-66490000I249999J0D01*
G01*
G37*
G04 #@! TD.AperFunction*
G04 #@! TA.AperFunction,SMDPad,CuDef*
G36*
G01*
X113976999Y-76151000D02*
X114877001Y-76151000D01*
G75*
G02*
X115127000Y-76400999I0J-249999D01*
G01*
X115127000Y-77051001D01*
G75*
G02*
X114877001Y-77301000I-249999J0D01*
G01*
X113976999Y-77301000D01*
G75*
G02*
X113727000Y-77051001I0J249999D01*
G01*
X113727000Y-76400999D01*
G75*
G02*
X113976999Y-76151000I249999J0D01*
G01*
G37*
G04 #@! TD.AperFunction*
G04 #@! TA.AperFunction,SMDPad,CuDef*
G36*
G01*
X113976999Y-74101000D02*
X114877001Y-74101000D01*
G75*
G02*
X115127000Y-74350999I0J-249999D01*
G01*
X115127000Y-75001001D01*
G75*
G02*
X114877001Y-75251000I-249999J0D01*
G01*
X113976999Y-75251000D01*
G75*
G02*
X113727000Y-75001001I0J249999D01*
G01*
X113727000Y-74350999D01*
G75*
G02*
X113976999Y-74101000I249999J0D01*
G01*
G37*
G04 #@! TD.AperFunction*
G04 #@! TA.AperFunction,SMDPad,CuDef*
G36*
G01*
X117172000Y-61156001D02*
X117172000Y-60255999D01*
G75*
G02*
X117421999Y-60006000I249999J0D01*
G01*
X118072001Y-60006000D01*
G75*
G02*
X118322000Y-60255999I0J-249999D01*
G01*
X118322000Y-61156001D01*
G75*
G02*
X118072001Y-61406000I-249999J0D01*
G01*
X117421999Y-61406000D01*
G75*
G02*
X117172000Y-61156001I0J249999D01*
G01*
G37*
G04 #@! TD.AperFunction*
G04 #@! TA.AperFunction,SMDPad,CuDef*
G36*
G01*
X115122000Y-61156001D02*
X115122000Y-60255999D01*
G75*
G02*
X115371999Y-60006000I249999J0D01*
G01*
X116022001Y-60006000D01*
G75*
G02*
X116272000Y-60255999I0J-249999D01*
G01*
X116272000Y-61156001D01*
G75*
G02*
X116022001Y-61406000I-249999J0D01*
G01*
X115371999Y-61406000D01*
G75*
G02*
X115122000Y-61156001I0J249999D01*
G01*
G37*
G04 #@! TD.AperFunction*
G04 #@! TA.AperFunction,SMDPad,CuDef*
G36*
G01*
X118322000Y-65335999D02*
X118322000Y-66236001D01*
G75*
G02*
X118072001Y-66486000I-249999J0D01*
G01*
X117421999Y-66486000D01*
G75*
G02*
X117172000Y-66236001I0J249999D01*
G01*
X117172000Y-65335999D01*
G75*
G02*
X117421999Y-65086000I249999J0D01*
G01*
X118072001Y-65086000D01*
G75*
G02*
X118322000Y-65335999I0J-249999D01*
G01*
G37*
G04 #@! TD.AperFunction*
G04 #@! TA.AperFunction,SMDPad,CuDef*
G36*
G01*
X116272000Y-65335999D02*
X116272000Y-66236001D01*
G75*
G02*
X116022001Y-66486000I-249999J0D01*
G01*
X115371999Y-66486000D01*
G75*
G02*
X115122000Y-66236001I0J249999D01*
G01*
X115122000Y-65335999D01*
G75*
G02*
X115371999Y-65086000I249999J0D01*
G01*
X116022001Y-65086000D01*
G75*
G02*
X116272000Y-65335999I0J-249999D01*
G01*
G37*
G04 #@! TD.AperFunction*
G04 #@! TA.AperFunction,SMDPad,CuDef*
G36*
G01*
X117172000Y-63696001D02*
X117172000Y-62795999D01*
G75*
G02*
X117421999Y-62546000I249999J0D01*
G01*
X118072001Y-62546000D01*
G75*
G02*
X118322000Y-62795999I0J-249999D01*
G01*
X118322000Y-63696001D01*
G75*
G02*
X118072001Y-63946000I-249999J0D01*
G01*
X117421999Y-63946000D01*
G75*
G02*
X117172000Y-63696001I0J249999D01*
G01*
G37*
G04 #@! TD.AperFunction*
G04 #@! TA.AperFunction,SMDPad,CuDef*
G36*
G01*
X115122000Y-63696001D02*
X115122000Y-62795999D01*
G75*
G02*
X115371999Y-62546000I249999J0D01*
G01*
X116022001Y-62546000D01*
G75*
G02*
X116272000Y-62795999I0J-249999D01*
G01*
X116272000Y-63696001D01*
G75*
G02*
X116022001Y-63946000I-249999J0D01*
G01*
X115371999Y-63946000D01*
G75*
G02*
X115122000Y-63696001I0J249999D01*
G01*
G37*
G04 #@! TD.AperFunction*
G04 #@! TA.AperFunction,SMDPad,CuDef*
G36*
G01*
X124037000Y-94545999D02*
X124037000Y-95446001D01*
G75*
G02*
X123787001Y-95696000I-249999J0D01*
G01*
X123136999Y-95696000D01*
G75*
G02*
X122887000Y-95446001I0J249999D01*
G01*
X122887000Y-94545999D01*
G75*
G02*
X123136999Y-94296000I249999J0D01*
G01*
X123787001Y-94296000D01*
G75*
G02*
X124037000Y-94545999I0J-249999D01*
G01*
G37*
G04 #@! TD.AperFunction*
G04 #@! TA.AperFunction,SMDPad,CuDef*
G36*
G01*
X121987000Y-94545999D02*
X121987000Y-95446001D01*
G75*
G02*
X121737001Y-95696000I-249999J0D01*
G01*
X121086999Y-95696000D01*
G75*
G02*
X120837000Y-95446001I0J249999D01*
G01*
X120837000Y-94545999D01*
G75*
G02*
X121086999Y-94296000I249999J0D01*
G01*
X121737001Y-94296000D01*
G75*
G02*
X121987000Y-94545999I0J-249999D01*
G01*
G37*
G04 #@! TD.AperFunction*
G04 #@! TA.AperFunction,SMDPad,CuDef*
G36*
G01*
X121987000Y-85020999D02*
X121987000Y-85921001D01*
G75*
G02*
X121737001Y-86171000I-249999J0D01*
G01*
X121086999Y-86171000D01*
G75*
G02*
X120837000Y-85921001I0J249999D01*
G01*
X120837000Y-85020999D01*
G75*
G02*
X121086999Y-84771000I249999J0D01*
G01*
X121737001Y-84771000D01*
G75*
G02*
X121987000Y-85020999I0J-249999D01*
G01*
G37*
G04 #@! TD.AperFunction*
G04 #@! TA.AperFunction,SMDPad,CuDef*
G36*
G01*
X124037000Y-85020999D02*
X124037000Y-85921001D01*
G75*
G02*
X123787001Y-86171000I-249999J0D01*
G01*
X123136999Y-86171000D01*
G75*
G02*
X122887000Y-85921001I0J249999D01*
G01*
X122887000Y-85020999D01*
G75*
G02*
X123136999Y-84771000I249999J0D01*
G01*
X123787001Y-84771000D01*
G75*
G02*
X124037000Y-85020999I0J-249999D01*
G01*
G37*
G04 #@! TD.AperFunction*
G04 #@! TA.AperFunction,SMDPad,CuDef*
G36*
G01*
X120961999Y-88951000D02*
X121862001Y-88951000D01*
G75*
G02*
X122112000Y-89200999I0J-249999D01*
G01*
X122112000Y-89851001D01*
G75*
G02*
X121862001Y-90101000I-249999J0D01*
G01*
X120961999Y-90101000D01*
G75*
G02*
X120712000Y-89851001I0J249999D01*
G01*
X120712000Y-89200999D01*
G75*
G02*
X120961999Y-88951000I249999J0D01*
G01*
G37*
G04 #@! TD.AperFunction*
G04 #@! TA.AperFunction,SMDPad,CuDef*
G36*
G01*
X120961999Y-91001000D02*
X121862001Y-91001000D01*
G75*
G02*
X122112000Y-91250999I0J-249999D01*
G01*
X122112000Y-91901001D01*
G75*
G02*
X121862001Y-92151000I-249999J0D01*
G01*
X120961999Y-92151000D01*
G75*
G02*
X120712000Y-91901001I0J249999D01*
G01*
X120712000Y-91250999D01*
G75*
G02*
X120961999Y-91001000I249999J0D01*
G01*
G37*
G04 #@! TD.AperFunction*
G04 #@! TA.AperFunction,SMDPad,CuDef*
G36*
G01*
X114877001Y-85021000D02*
X113976999Y-85021000D01*
G75*
G02*
X113727000Y-84771001I0J249999D01*
G01*
X113727000Y-84120999D01*
G75*
G02*
X113976999Y-83871000I249999J0D01*
G01*
X114877001Y-83871000D01*
G75*
G02*
X115127000Y-84120999I0J-249999D01*
G01*
X115127000Y-84771001D01*
G75*
G02*
X114877001Y-85021000I-249999J0D01*
G01*
G37*
G04 #@! TD.AperFunction*
G04 #@! TA.AperFunction,SMDPad,CuDef*
G36*
G01*
X114877001Y-87071000D02*
X113976999Y-87071000D01*
G75*
G02*
X113727000Y-86821001I0J249999D01*
G01*
X113727000Y-86170999D01*
G75*
G02*
X113976999Y-85921000I249999J0D01*
G01*
X114877001Y-85921000D01*
G75*
G02*
X115127000Y-86170999I0J-249999D01*
G01*
X115127000Y-86821001D01*
G75*
G02*
X114877001Y-87071000I-249999J0D01*
G01*
G37*
G04 #@! TD.AperFunction*
G04 #@! TA.AperFunction,SMDPad,CuDef*
G36*
G01*
X116516999Y-83871000D02*
X117417001Y-83871000D01*
G75*
G02*
X117667000Y-84120999I0J-249999D01*
G01*
X117667000Y-84771001D01*
G75*
G02*
X117417001Y-85021000I-249999J0D01*
G01*
X116516999Y-85021000D01*
G75*
G02*
X116267000Y-84771001I0J249999D01*
G01*
X116267000Y-84120999D01*
G75*
G02*
X116516999Y-83871000I249999J0D01*
G01*
G37*
G04 #@! TD.AperFunction*
G04 #@! TA.AperFunction,SMDPad,CuDef*
G36*
G01*
X116516999Y-85921000D02*
X117417001Y-85921000D01*
G75*
G02*
X117667000Y-86170999I0J-249999D01*
G01*
X117667000Y-86821001D01*
G75*
G02*
X117417001Y-87071000I-249999J0D01*
G01*
X116516999Y-87071000D01*
G75*
G02*
X116267000Y-86821001I0J249999D01*
G01*
X116267000Y-86170999D01*
G75*
G02*
X116516999Y-85921000I249999J0D01*
G01*
G37*
G04 #@! TD.AperFunction*
D20*
X122530000Y-101600000D03*
D21*
X116230000Y-101600000D03*
X116230000Y-103900000D03*
X116230000Y-99300000D03*
D22*
X116332000Y-68961000D03*
X119126000Y-60706000D03*
X114300000Y-72898000D03*
X119380000Y-83566000D03*
X122047000Y-68326000D03*
X114300000Y-63246000D03*
X114427000Y-78486000D03*
X123317000Y-70231000D03*
X120650000Y-106934000D03*
D23*
X116332000Y-78867000D02*
X116332000Y-79756000D01*
X117602000Y-76031000D02*
X117602000Y-77597000D01*
X117602000Y-77597000D02*
X116332000Y-78867000D01*
X118872000Y-76031000D02*
X118872000Y-79756000D01*
X121412000Y-78994000D02*
X121412000Y-79756000D01*
X120142000Y-76031000D02*
X120142000Y-77724000D01*
X120142000Y-77724000D02*
X121412000Y-78994000D01*
D24*
X123462000Y-85471000D02*
X123462000Y-92456000D01*
X123462000Y-85471000D02*
X123462000Y-75946000D01*
D23*
X123377000Y-76031000D02*
X121412000Y-76031000D01*
X123462000Y-75946000D02*
X123377000Y-76031000D01*
X123444000Y-75928000D02*
X123444000Y-74177000D01*
X123462000Y-75946000D02*
X123444000Y-75928000D01*
D24*
X123462000Y-100668000D02*
X123462000Y-93744000D01*
X122530000Y-101600000D02*
X123462000Y-100668000D01*
X123462000Y-93744000D02*
X123462000Y-94996000D01*
X123462000Y-92456000D02*
X123462000Y-93744000D01*
D23*
X114672000Y-68961000D02*
X114427000Y-69206000D01*
X116332000Y-68961000D02*
X114672000Y-68961000D01*
X117180528Y-68961000D02*
X116332000Y-68961000D01*
X117602000Y-70781000D02*
X117602000Y-69382472D01*
X117602000Y-69382472D02*
X117180528Y-68961000D01*
X117747000Y-60706000D02*
X119126000Y-60706000D01*
X118872000Y-66911000D02*
X117747000Y-65786000D01*
X118872000Y-70781000D02*
X118872000Y-66911000D01*
X120142000Y-70781000D02*
X120142000Y-65015000D01*
X122555000Y-65015000D02*
X120142000Y-65015000D01*
X118872000Y-63246000D02*
X117747000Y-63246000D01*
X120142000Y-65015000D02*
X120142000Y-64516000D01*
X120142000Y-64516000D02*
X118872000Y-63246000D01*
D24*
X107950000Y-102616000D02*
X109474000Y-102616000D01*
X110753000Y-103895000D02*
X112776000Y-103895000D01*
X109474000Y-102616000D02*
X110753000Y-103895000D01*
X116225000Y-103895000D02*
X116230000Y-103900000D01*
X112776000Y-103895000D02*
X116225000Y-103895000D01*
X116230000Y-106578000D02*
X116586000Y-106934000D01*
X116230000Y-103900000D02*
X116230000Y-106578000D01*
D23*
X114427000Y-71256000D02*
X114427000Y-72771000D01*
X114427000Y-72771000D02*
X114300000Y-72898000D01*
X114427000Y-73025000D02*
X114300000Y-72898000D01*
X114427000Y-74676000D02*
X114427000Y-73025000D01*
X118872000Y-81806000D02*
X118872000Y-83058000D01*
X118872000Y-83058000D02*
X119380000Y-83566000D01*
X122555000Y-67818000D02*
X122047000Y-68326000D01*
X122555000Y-67065000D02*
X122555000Y-67818000D01*
X116332000Y-81806000D02*
X116332000Y-84446000D01*
X116967000Y-84446000D02*
X116332000Y-84446000D01*
X116332000Y-84446000D02*
X114427000Y-84446000D01*
X121412000Y-89526000D02*
X121412000Y-85471000D01*
X121412000Y-81806000D02*
X121412000Y-85471000D01*
X107950000Y-66040000D02*
X109474000Y-66040000D01*
X114808000Y-60706000D02*
X115697000Y-60706000D01*
X109474000Y-66040000D02*
X114808000Y-60706000D01*
X134668000Y-73454000D02*
X136956000Y-73454000D01*
X120142000Y-58928000D02*
X134668000Y-73454000D01*
X116586000Y-58928000D02*
X120142000Y-58928000D01*
X115697000Y-59817000D02*
X116586000Y-58928000D01*
X115697000Y-60706000D02*
X115697000Y-59817000D01*
X107950000Y-71120000D02*
X109474000Y-71120000D01*
X114808000Y-65786000D02*
X115697000Y-65786000D01*
X109474000Y-71120000D02*
X114808000Y-65786000D01*
X107950000Y-68580000D02*
X109474000Y-68580000D01*
X114808000Y-63246000D02*
X115697000Y-63246000D01*
X109474000Y-68580000D02*
X114808000Y-63246000D01*
X116967000Y-94996000D02*
X116967000Y-93726000D01*
X116967000Y-93726000D02*
X119117000Y-91576000D01*
X116713000Y-94742000D02*
X116967000Y-94996000D01*
X107950000Y-100076000D02*
X109220000Y-100076000D01*
X114300000Y-94996000D02*
X116967000Y-94996000D01*
X109220000Y-100076000D02*
X114300000Y-94996000D01*
X119117000Y-91576000D02*
X121412000Y-91576000D01*
X114427000Y-87757000D02*
X114427000Y-86496000D01*
X114427000Y-90297000D02*
X114427000Y-87757000D01*
X109728000Y-94996000D02*
X114427000Y-90297000D01*
X107950000Y-94996000D02*
X109728000Y-94996000D01*
X114427000Y-76726000D02*
X114427000Y-78486000D01*
X123105000Y-70781000D02*
X123317000Y-70993000D01*
X121412000Y-70781000D02*
X123105000Y-70781000D01*
X123317000Y-72136000D02*
X123317000Y-70993000D01*
X123317000Y-70993000D02*
X123317000Y-70231000D01*
X109474000Y-97536000D02*
X107950000Y-97536000D01*
X116967000Y-90043000D02*
X109474000Y-97536000D01*
X116967000Y-86496000D02*
X116967000Y-90043000D01*
D24*
X118636000Y-99506000D02*
X118430000Y-99300000D01*
X118430000Y-99300000D02*
X116230000Y-99300000D01*
X118636000Y-106934000D02*
X118636000Y-99506000D01*
X120650000Y-106934000D02*
X118636000Y-106934000D01*
D23*
X118267000Y-94996000D02*
X121412000Y-94996000D01*
M02*
