G04 #@! TF.GenerationSoftware,KiCad,Pcbnew,(6.0.0)*
G04 #@! TF.CreationDate,2022-02-19T22:35:43+01:00*
G04 #@! TF.ProjectId,rfreplacement,72667265-706c-4616-9365-6d656e742e6b,rev?*
G04 #@! TF.SameCoordinates,Original*
G04 #@! TF.FileFunction,Copper,L1,Top*
G04 #@! TF.FilePolarity,Positive*
%FSLAX46Y46*%
G04 Gerber Fmt 4.6, Leading zero omitted, Abs format (unit mm)*
G04 Created by KiCad (PCBNEW (6.0.0)) date 2022-02-19 22:35:43*
%MOMM*%
%LPD*%
G01*
G04 APERTURE LIST*
G04 Aperture macros list*
%AMRoundRect*
0 Rectangle with rounded corners*
0 $1 Rounding radius*
0 $2 $3 $4 $5 $6 $7 $8 $9 X,Y pos of 4 corners*
0 Add a 4 corners polygon primitive as box body*
4,1,4,$2,$3,$4,$5,$6,$7,$8,$9,$2,$3,0*
0 Add four circle primitives for the rounded corners*
1,1,$1+$1,$2,$3*
1,1,$1+$1,$4,$5*
1,1,$1+$1,$6,$7*
1,1,$1+$1,$8,$9*
0 Add four rect primitives between the rounded corners*
20,1,$1+$1,$2,$3,$4,$5,0*
20,1,$1+$1,$4,$5,$6,$7,0*
20,1,$1+$1,$6,$7,$8,$9,0*
20,1,$1+$1,$8,$9,$2,$3,0*%
%AMFreePoly0*
4,1,22,0.500000,-0.750000,0.000000,-0.750000,0.000000,-0.745033,-0.079941,-0.743568,-0.215256,-0.701293,-0.333266,-0.622738,-0.424486,-0.514219,-0.481581,-0.384460,-0.499164,-0.250000,-0.500000,-0.250000,-0.500000,0.250000,-0.499164,0.250000,-0.499963,0.256109,-0.478152,0.396186,-0.417904,0.524511,-0.324060,0.630769,-0.204165,0.706417,-0.067858,0.745374,0.000000,0.744959,0.000000,0.750000,
0.500000,0.750000,0.500000,-0.750000,0.500000,-0.750000,$1*%
%AMFreePoly1*
4,1,20,0.000000,0.744959,0.073905,0.744508,0.209726,0.703889,0.328688,0.626782,0.421226,0.519385,0.479903,0.390333,0.500000,0.250000,0.500000,-0.250000,0.499851,-0.262216,0.476331,-0.402017,0.414519,-0.529596,0.319384,-0.634700,0.198574,-0.708877,0.061801,-0.746166,0.000000,-0.745033,0.000000,-0.750000,-0.500000,-0.750000,-0.500000,0.750000,0.000000,0.750000,0.000000,0.744959,
0.000000,0.744959,$1*%
G04 Aperture macros list end*
G04 #@! TA.AperFunction,ComponentPad*
%ADD10O,1.350000X1.350000*%
G04 #@! TD*
G04 #@! TA.AperFunction,ComponentPad*
%ADD11R,1.350000X1.350000*%
G04 #@! TD*
G04 #@! TA.AperFunction,ComponentPad*
%ADD12R,1.700000X1.700000*%
G04 #@! TD*
G04 #@! TA.AperFunction,ComponentPad*
%ADD13O,1.700000X1.700000*%
G04 #@! TD*
G04 #@! TA.AperFunction,SMDPad,CuDef*
%ADD14R,0.800000X1.450000*%
G04 #@! TD*
G04 #@! TA.AperFunction,SMDPad,CuDef*
%ADD15RoundRect,0.249999X0.325001X0.450001X-0.325001X0.450001X-0.325001X-0.450001X0.325001X-0.450001X0*%
G04 #@! TD*
G04 #@! TA.AperFunction,SMDPad,CuDef*
%ADD16RoundRect,0.249999X0.450001X-0.325001X0.450001X0.325001X-0.450001X0.325001X-0.450001X-0.325001X0*%
G04 #@! TD*
G04 #@! TA.AperFunction,SMDPad,CuDef*
%ADD17RoundRect,0.249999X-0.450001X0.325001X-0.450001X-0.325001X0.450001X-0.325001X0.450001X0.325001X0*%
G04 #@! TD*
G04 #@! TA.AperFunction,SMDPad,CuDef*
%ADD18FreePoly0,180.000000*%
G04 #@! TD*
G04 #@! TA.AperFunction,SMDPad,CuDef*
%ADD19FreePoly1,180.000000*%
G04 #@! TD*
G04 #@! TA.AperFunction,SMDPad,CuDef*
%ADD20RoundRect,0.249999X-0.325001X-0.450001X0.325001X-0.450001X0.325001X0.450001X-0.325001X0.450001X0*%
G04 #@! TD*
G04 #@! TA.AperFunction,SMDPad,CuDef*
%ADD21R,2.000000X1.500000*%
G04 #@! TD*
G04 #@! TA.AperFunction,SMDPad,CuDef*
%ADD22R,2.000000X3.800000*%
G04 #@! TD*
G04 #@! TA.AperFunction,ComponentPad*
%ADD23O,4.000000X2.200000*%
G04 #@! TD*
G04 #@! TA.AperFunction,ComponentPad*
%ADD24O,2.200000X4.000000*%
G04 #@! TD*
G04 #@! TA.AperFunction,ComponentPad*
%ADD25R,4.000000X2.200000*%
G04 #@! TD*
G04 #@! TA.AperFunction,ComponentPad*
%ADD26R,1.398000X1.398000*%
G04 #@! TD*
G04 #@! TA.AperFunction,ComponentPad*
%ADD27C,1.398000*%
G04 #@! TD*
G04 #@! TA.AperFunction,ComponentPad*
%ADD28C,3.306000*%
G04 #@! TD*
G04 #@! TA.AperFunction,ComponentPad*
%ADD29C,1.600000*%
G04 #@! TD*
G04 #@! TA.AperFunction,ComponentPad*
%ADD30O,1.600000X1.600000*%
G04 #@! TD*
G04 #@! TA.AperFunction,SMDPad,CuDef*
%ADD31RoundRect,0.250000X-0.325000X-0.450000X0.325000X-0.450000X0.325000X0.450000X-0.325000X0.450000X0*%
G04 #@! TD*
G04 #@! TA.AperFunction,ViaPad*
%ADD32C,1.200000*%
G04 #@! TD*
G04 #@! TA.AperFunction,ViaPad*
%ADD33C,0.600000*%
G04 #@! TD*
G04 #@! TA.AperFunction,Conductor*
%ADD34C,0.800000*%
G04 #@! TD*
G04 #@! TA.AperFunction,Conductor*
%ADD35C,1.200000*%
G04 #@! TD*
G04 APERTURE END LIST*
D10*
X142000000Y-108500000D03*
D11*
X144000000Y-108500000D03*
D10*
X142000000Y-104500000D03*
D11*
X144000000Y-104500000D03*
X144000000Y-106500000D03*
D10*
X142000000Y-106500000D03*
D12*
X107950000Y-102616000D03*
D13*
X107950000Y-100076000D03*
X107950000Y-97536000D03*
X107950000Y-94996000D03*
D14*
X117602000Y-76031000D03*
X118872000Y-76031000D03*
X120142000Y-76031000D03*
X121412000Y-76031000D03*
X121412000Y-70781000D03*
X120142000Y-70781000D03*
X118872000Y-70781000D03*
X117602000Y-70781000D03*
D15*
X118636000Y-106934000D03*
X116586000Y-106934000D03*
D16*
X123444000Y-74177000D03*
X123444000Y-72127000D03*
D17*
X118872000Y-79756000D03*
X118872000Y-81806000D03*
D16*
X121412000Y-81806000D03*
X121412000Y-79756000D03*
D18*
X118267000Y-94996000D03*
D19*
X116967000Y-94996000D03*
D17*
X122555000Y-65015000D03*
X122555000Y-67065000D03*
X114427000Y-74676000D03*
X114427000Y-76726000D03*
D20*
X115697000Y-60706000D03*
X117747000Y-60706000D03*
D15*
X117747000Y-65786000D03*
X115697000Y-65786000D03*
D20*
X115697000Y-63246000D03*
X117747000Y-63246000D03*
D15*
X123462000Y-94996000D03*
X121412000Y-94996000D03*
X123462000Y-85471000D03*
X121412000Y-85471000D03*
D16*
X114427000Y-86496000D03*
X114427000Y-84446000D03*
D21*
X116230000Y-99300000D03*
X116230000Y-101600000D03*
X116230000Y-103900000D03*
D22*
X122530000Y-101600000D03*
D16*
X114427000Y-71256000D03*
X114427000Y-69206000D03*
D17*
X116967000Y-84446000D03*
X116967000Y-86496000D03*
D16*
X116332000Y-81806000D03*
X116332000Y-79756000D03*
D12*
X107950000Y-85598000D03*
D13*
X107950000Y-83058000D03*
X107950000Y-80518000D03*
D17*
X121412000Y-89526000D03*
X121412000Y-91576000D03*
D12*
X107950000Y-71120000D03*
D13*
X107950000Y-68580000D03*
X107950000Y-66040000D03*
X107950000Y-63500000D03*
D23*
X137886000Y-101240000D03*
X139086000Y-98540000D03*
D24*
X145886000Y-96040000D03*
D25*
X141986000Y-91440000D03*
D24*
X134686000Y-91940000D03*
D26*
X139446000Y-66754000D03*
D27*
X139446000Y-73454000D03*
X136956000Y-66754000D03*
X136956000Y-73454000D03*
D28*
X143256000Y-70104000D03*
X142446000Y-76864000D03*
X142446000Y-63344000D03*
D29*
X133604000Y-66802000D03*
D30*
X125984000Y-66802000D03*
D29*
X133604000Y-73406000D03*
D30*
X125984000Y-73406000D03*
D31*
X127998000Y-73406000D03*
X130048000Y-73406000D03*
X128016000Y-66802000D03*
X130066000Y-66802000D03*
D12*
X145034000Y-84328000D03*
D13*
X145034000Y-81788000D03*
D12*
X123190000Y-109220000D03*
D13*
X125730000Y-109220000D03*
D12*
X123190000Y-56896000D03*
D13*
X125730000Y-56896000D03*
D32*
X116332000Y-68961000D03*
X119126000Y-60706000D03*
X114300000Y-72898000D03*
X119380000Y-83566000D03*
X122047000Y-68326000D03*
D33*
X129540000Y-109220000D03*
X119380000Y-86995000D03*
D32*
X123317000Y-70231000D03*
D33*
X137160000Y-56896000D03*
X140500000Y-106500000D03*
X113030000Y-100330000D03*
D32*
X114427000Y-78486000D03*
D33*
X137160000Y-83820000D03*
X107950000Y-56896000D03*
X129286000Y-70104000D03*
X107950000Y-109220000D03*
X107950000Y-91440000D03*
X107950000Y-76200000D03*
X129540000Y-83820000D03*
X137160000Y-70104000D03*
X107950000Y-60960000D03*
X129540000Y-56896000D03*
X144780000Y-56896000D03*
D34*
X144000000Y-99000000D02*
X141986000Y-96986000D01*
X144000000Y-104500000D02*
X144000000Y-99000000D01*
X141986000Y-96986000D02*
X141986000Y-91440000D01*
X137696000Y-107696000D02*
X137770489Y-107770489D01*
X120798978Y-108712000D02*
X121814978Y-107696000D01*
X109728000Y-108712000D02*
X120798978Y-108712000D01*
X105664000Y-104648000D02*
X109728000Y-108712000D01*
X105664000Y-65786000D02*
X105664000Y-104648000D01*
X107950000Y-63500000D02*
X105664000Y-65786000D01*
X121814978Y-107696000D02*
X137696000Y-107696000D01*
X137770489Y-106229511D02*
X137770489Y-107770489D01*
X139500000Y-104500000D02*
X137770489Y-106229511D01*
X142000000Y-104500000D02*
X139500000Y-104500000D01*
X145000000Y-106500000D02*
X144000000Y-106500000D01*
X145886000Y-105614000D02*
X145000000Y-106500000D01*
X145886000Y-96040000D02*
X145886000Y-105614000D01*
X138500000Y-108500000D02*
X142000000Y-108500000D01*
X137770489Y-107770489D02*
X138500000Y-108500000D01*
X116332000Y-78867000D02*
X116332000Y-79756000D01*
X117602000Y-77597000D02*
X116332000Y-78867000D01*
X117602000Y-76031000D02*
X117602000Y-77597000D01*
X118872000Y-76031000D02*
X118872000Y-79756000D01*
X120142000Y-76031000D02*
X120142000Y-77724000D01*
X121412000Y-78994000D02*
X121412000Y-79756000D01*
X120142000Y-77724000D02*
X121412000Y-78994000D01*
X123377000Y-76031000D02*
X121412000Y-76031000D01*
D35*
X123462000Y-100668000D02*
X123462000Y-85471000D01*
X123462000Y-85471000D02*
X123462000Y-75946000D01*
D34*
X123444000Y-75928000D02*
X123444000Y-74177000D01*
D35*
X122530000Y-101600000D02*
X123462000Y-100668000D01*
D34*
X123462000Y-75946000D02*
X123377000Y-76031000D01*
X123462000Y-75946000D02*
X123444000Y-75928000D01*
X116332000Y-68961000D02*
X114672000Y-68961000D01*
X117180528Y-68961000D02*
X116332000Y-68961000D01*
X114672000Y-68961000D02*
X114427000Y-69206000D01*
X117602000Y-70781000D02*
X117602000Y-69382472D01*
X117747000Y-60706000D02*
X119126000Y-60706000D01*
X117602000Y-69382472D02*
X117180528Y-68961000D01*
X118872000Y-70781000D02*
X118872000Y-66911000D01*
X118872000Y-66911000D02*
X117747000Y-65786000D01*
X120142000Y-70781000D02*
X120142000Y-65015000D01*
X120142000Y-64516000D02*
X118872000Y-63246000D01*
X118872000Y-63246000D02*
X117747000Y-63246000D01*
X120142000Y-65015000D02*
X120142000Y-64516000D01*
X122555000Y-65015000D02*
X120142000Y-65015000D01*
X122555000Y-67818000D02*
X122047000Y-68326000D01*
X114427000Y-72771000D02*
X114300000Y-72898000D01*
X118872000Y-83058000D02*
X119380000Y-83566000D01*
X114427000Y-71256000D02*
X114427000Y-72771000D01*
X122555000Y-67065000D02*
X122555000Y-67818000D01*
X114427000Y-74676000D02*
X114427000Y-73025000D01*
X114427000Y-73025000D02*
X114300000Y-72898000D01*
X118872000Y-81806000D02*
X118872000Y-83058000D01*
X116967000Y-84446000D02*
X116332000Y-84446000D01*
X116332000Y-84446000D02*
X114427000Y-84446000D01*
X116332000Y-81806000D02*
X116332000Y-84446000D01*
X121412000Y-89526000D02*
X121412000Y-85471000D01*
X121412000Y-81806000D02*
X121412000Y-85471000D01*
X109474000Y-66040000D02*
X114808000Y-60706000D01*
X114808000Y-60706000D02*
X115697000Y-60706000D01*
X125984000Y-73406000D02*
X127998000Y-73406000D01*
X107950000Y-66040000D02*
X109474000Y-66040000D01*
X114808000Y-65786000D02*
X115697000Y-65786000D01*
X109474000Y-71120000D02*
X114808000Y-65786000D01*
X107950000Y-71120000D02*
X109474000Y-71120000D01*
X109474000Y-68580000D02*
X114808000Y-63246000D01*
X114808000Y-63246000D02*
X115697000Y-63246000D01*
X125984000Y-66802000D02*
X128016000Y-66802000D01*
X107950000Y-68580000D02*
X109474000Y-68580000D01*
X116967000Y-93726000D02*
X119117000Y-91576000D01*
X114300000Y-94996000D02*
X116967000Y-94996000D01*
X107950000Y-100076000D02*
X109220000Y-100076000D01*
X109220000Y-100076000D02*
X114300000Y-94996000D01*
X119117000Y-91576000D02*
X121412000Y-91576000D01*
X116967000Y-94996000D02*
X116967000Y-93726000D01*
X114427000Y-90297000D02*
X114427000Y-86496000D01*
X109728000Y-94996000D02*
X114427000Y-90297000D01*
X107950000Y-94996000D02*
X109728000Y-94996000D01*
X114427000Y-76726000D02*
X114427000Y-78486000D01*
X123105000Y-70781000D02*
X123317000Y-70993000D01*
X121412000Y-70781000D02*
X123105000Y-70781000D01*
X109474000Y-97536000D02*
X107950000Y-97536000D01*
X123317000Y-72136000D02*
X123317000Y-70993000D01*
X116967000Y-90043000D02*
X109474000Y-97536000D01*
D35*
X118430000Y-99300000D02*
X116230000Y-99300000D01*
D34*
X116967000Y-86496000D02*
X116967000Y-90043000D01*
D35*
X118636000Y-106934000D02*
X118636000Y-99506000D01*
D34*
X123317000Y-70993000D02*
X123317000Y-70231000D01*
D35*
X118636000Y-99506000D02*
X118430000Y-99300000D01*
D34*
X118267000Y-94996000D02*
X121412000Y-94996000D01*
X130048000Y-73406000D02*
X133604000Y-73406000D01*
D35*
X109474000Y-102616000D02*
X110753000Y-103895000D01*
X110753000Y-103895000D02*
X116225000Y-103895000D01*
X116230000Y-103900000D02*
X116230000Y-106578000D01*
X116230000Y-106578000D02*
X116586000Y-106934000D01*
X107950000Y-102616000D02*
X109474000Y-102616000D01*
D34*
X130066000Y-66802000D02*
X133604000Y-66802000D01*
G04 #@! TA.AperFunction,Conductor*
G36*
X147512295Y-97593106D02*
G01*
X147560673Y-97645068D01*
X147574000Y-97701467D01*
X147574000Y-110364000D01*
X147553998Y-110432121D01*
X147500342Y-110478614D01*
X147448000Y-110490000D01*
X104774000Y-110490000D01*
X104705879Y-110469998D01*
X104659386Y-110416342D01*
X104648000Y-110364000D01*
X104648000Y-105179959D01*
X104668002Y-105111838D01*
X104721658Y-105065345D01*
X104791932Y-105055241D01*
X104856512Y-105084735D01*
X104886267Y-105122756D01*
X104897871Y-105145530D01*
X104902024Y-105150658D01*
X104902025Y-105150660D01*
X104906727Y-105156466D01*
X104917927Y-105172763D01*
X104921657Y-105179224D01*
X104921660Y-105179228D01*
X104924960Y-105184944D01*
X104929377Y-105189850D01*
X104929381Y-105189855D01*
X104970722Y-105235769D01*
X104975006Y-105240784D01*
X104987928Y-105256741D01*
X105002443Y-105271256D01*
X105006984Y-105276041D01*
X105052747Y-105326866D01*
X105058086Y-105330745D01*
X105058087Y-105330746D01*
X105064135Y-105335140D01*
X105079168Y-105347981D01*
X109028019Y-109296832D01*
X109040860Y-109311865D01*
X109049134Y-109323253D01*
X109083881Y-109354539D01*
X109099959Y-109369016D01*
X109104744Y-109373557D01*
X109119259Y-109388072D01*
X109121823Y-109390148D01*
X109135216Y-109400994D01*
X109140231Y-109405278D01*
X109186145Y-109446619D01*
X109186150Y-109446623D01*
X109191056Y-109451040D01*
X109196772Y-109454340D01*
X109196776Y-109454343D01*
X109203237Y-109458073D01*
X109219533Y-109469273D01*
X109230470Y-109478129D01*
X109236348Y-109481124D01*
X109236351Y-109481126D01*
X109291426Y-109509188D01*
X109297223Y-109512336D01*
X109329691Y-109531081D01*
X109356444Y-109546527D01*
X109369826Y-109550875D01*
X109388085Y-109558438D01*
X109400630Y-109564830D01*
X109407000Y-109566537D01*
X109407003Y-109566538D01*
X109446074Y-109577007D01*
X109466712Y-109582537D01*
X109473025Y-109584407D01*
X109538072Y-109605542D01*
X109552075Y-109607014D01*
X109571504Y-109610615D01*
X109585097Y-109614257D01*
X109591694Y-109614603D01*
X109591696Y-109614603D01*
X109653384Y-109617836D01*
X109659958Y-109618353D01*
X109677116Y-109620156D01*
X109677118Y-109620156D01*
X109680390Y-109620500D01*
X109700926Y-109620500D01*
X109707520Y-109620673D01*
X109769218Y-109623907D01*
X109769223Y-109623907D01*
X109775810Y-109624252D01*
X109789708Y-109622051D01*
X109809417Y-109620500D01*
X120717561Y-109620500D01*
X120737270Y-109622051D01*
X120751168Y-109624252D01*
X120757755Y-109623907D01*
X120757760Y-109623907D01*
X120819458Y-109620673D01*
X120826052Y-109620500D01*
X120846588Y-109620500D01*
X120849860Y-109620156D01*
X120849862Y-109620156D01*
X120867020Y-109618353D01*
X120873594Y-109617836D01*
X120935286Y-109614603D01*
X120935290Y-109614602D01*
X120941881Y-109614257D01*
X120948262Y-109612547D01*
X120948264Y-109612547D01*
X120955469Y-109610617D01*
X120974903Y-109607015D01*
X120982332Y-109606234D01*
X120982341Y-109606232D01*
X120988906Y-109605542D01*
X121053975Y-109584400D01*
X121060277Y-109582533D01*
X121126348Y-109564829D01*
X121138886Y-109558440D01*
X121157152Y-109550875D01*
X121164250Y-109548569D01*
X121164252Y-109548568D01*
X121170534Y-109546527D01*
X121179543Y-109541326D01*
X121229760Y-109512333D01*
X121235557Y-109509185D01*
X121296508Y-109478129D01*
X121307445Y-109469273D01*
X121323741Y-109458073D01*
X121330202Y-109454343D01*
X121330206Y-109454340D01*
X121335922Y-109451040D01*
X121340828Y-109446623D01*
X121340833Y-109446619D01*
X121386747Y-109405278D01*
X121391762Y-109400994D01*
X121405155Y-109390148D01*
X121407719Y-109388072D01*
X121422234Y-109373557D01*
X121427019Y-109369016D01*
X121443097Y-109354539D01*
X121477844Y-109323253D01*
X121486118Y-109311865D01*
X121498959Y-109296832D01*
X122154386Y-108641405D01*
X122216698Y-108607379D01*
X122243481Y-108604500D01*
X137267497Y-108604500D01*
X137335618Y-108624502D01*
X137356592Y-108641405D01*
X137800019Y-109084832D01*
X137812860Y-109099865D01*
X137821134Y-109111253D01*
X137826043Y-109115673D01*
X137871959Y-109157016D01*
X137876744Y-109161557D01*
X137891259Y-109176072D01*
X137893823Y-109178148D01*
X137907216Y-109188994D01*
X137912231Y-109193278D01*
X137958145Y-109234619D01*
X137958150Y-109234623D01*
X137963056Y-109239040D01*
X137968772Y-109242340D01*
X137968776Y-109242343D01*
X137975237Y-109246073D01*
X137991533Y-109257273D01*
X138002470Y-109266129D01*
X138040127Y-109285316D01*
X138063421Y-109297185D01*
X138069218Y-109300333D01*
X138099668Y-109317913D01*
X138128444Y-109334527D01*
X138134726Y-109336568D01*
X138134728Y-109336569D01*
X138141826Y-109338875D01*
X138160092Y-109346440D01*
X138172630Y-109352829D01*
X138179006Y-109354538D01*
X138179010Y-109354539D01*
X138238685Y-109370529D01*
X138245010Y-109372402D01*
X138310072Y-109393542D01*
X138316640Y-109394232D01*
X138316644Y-109394233D01*
X138324061Y-109395012D01*
X138343508Y-109398616D01*
X138357096Y-109402257D01*
X138363695Y-109402603D01*
X138363696Y-109402603D01*
X138425385Y-109405836D01*
X138431960Y-109406353D01*
X138446222Y-109407852D01*
X138452390Y-109408500D01*
X138472925Y-109408500D01*
X138479519Y-109408673D01*
X138541217Y-109411907D01*
X138541222Y-109411907D01*
X138547809Y-109412252D01*
X138561707Y-109410051D01*
X138581416Y-109408500D01*
X141191051Y-109408500D01*
X141261053Y-109429735D01*
X141432863Y-109544536D01*
X141438171Y-109546817D01*
X141438172Y-109546817D01*
X141627409Y-109628119D01*
X141627412Y-109628120D01*
X141632712Y-109630397D01*
X141638342Y-109631671D01*
X141736464Y-109653874D01*
X141844860Y-109678402D01*
X141850631Y-109678629D01*
X141850633Y-109678629D01*
X141923620Y-109681496D01*
X142062205Y-109686941D01*
X142277466Y-109655730D01*
X142282930Y-109653875D01*
X142282935Y-109653874D01*
X142477963Y-109587671D01*
X142477968Y-109587669D01*
X142483435Y-109585813D01*
X142489289Y-109582535D01*
X142614637Y-109512336D01*
X142673213Y-109479532D01*
X142721932Y-109439013D01*
X142787096Y-109410832D01*
X142857151Y-109422356D01*
X142903327Y-109460322D01*
X142961739Y-109538261D01*
X143078295Y-109625615D01*
X143214684Y-109676745D01*
X143276866Y-109683500D01*
X144723134Y-109683500D01*
X144785316Y-109676745D01*
X144921705Y-109625615D01*
X145038261Y-109538261D01*
X145125615Y-109421705D01*
X145176745Y-109285316D01*
X145183500Y-109223134D01*
X145183500Y-107776866D01*
X145176745Y-107714684D01*
X145147934Y-107637832D01*
X145128765Y-107586697D01*
X145128764Y-107586696D01*
X145125615Y-107578295D01*
X145121083Y-107572249D01*
X145106066Y-107503589D01*
X145130802Y-107437041D01*
X145192818Y-107392603D01*
X145201977Y-107389627D01*
X145254997Y-107372400D01*
X145261299Y-107370533D01*
X145327370Y-107352829D01*
X145339908Y-107346440D01*
X145358174Y-107338875D01*
X145365272Y-107336569D01*
X145365274Y-107336568D01*
X145371556Y-107334527D01*
X145430785Y-107300331D01*
X145436579Y-107297185D01*
X145452792Y-107288924D01*
X145497530Y-107266129D01*
X145508467Y-107257273D01*
X145524763Y-107246073D01*
X145531224Y-107242343D01*
X145531228Y-107242340D01*
X145536944Y-107239040D01*
X145541850Y-107234623D01*
X145541855Y-107234619D01*
X145587769Y-107193278D01*
X145592784Y-107188994D01*
X145606177Y-107178148D01*
X145608741Y-107176072D01*
X145623256Y-107161557D01*
X145628041Y-107157016D01*
X145673957Y-107115673D01*
X145678866Y-107111253D01*
X145687140Y-107099865D01*
X145699981Y-107084832D01*
X146470832Y-106313981D01*
X146485865Y-106301140D01*
X146491913Y-106296746D01*
X146491914Y-106296745D01*
X146497253Y-106292866D01*
X146543016Y-106242041D01*
X146547557Y-106237256D01*
X146562072Y-106222741D01*
X146574994Y-106206784D01*
X146579278Y-106201769D01*
X146620619Y-106155855D01*
X146620623Y-106155850D01*
X146625040Y-106150944D01*
X146628340Y-106145228D01*
X146628343Y-106145224D01*
X146632073Y-106138763D01*
X146643273Y-106122466D01*
X146647975Y-106116660D01*
X146647976Y-106116658D01*
X146652129Y-106111530D01*
X146683186Y-106050577D01*
X146686333Y-106044782D01*
X146717223Y-105991279D01*
X146717224Y-105991278D01*
X146720527Y-105985556D01*
X146724875Y-105972173D01*
X146732441Y-105953907D01*
X146735832Y-105947252D01*
X146738829Y-105941370D01*
X146756529Y-105875315D01*
X146758402Y-105868991D01*
X146777500Y-105810212D01*
X146779542Y-105803928D01*
X146780390Y-105795864D01*
X146781012Y-105789939D01*
X146784617Y-105770486D01*
X146786547Y-105763285D01*
X146788257Y-105756904D01*
X146789167Y-105739548D01*
X146791836Y-105688615D01*
X146792353Y-105682040D01*
X146794156Y-105664882D01*
X146794500Y-105661610D01*
X146794500Y-105641075D01*
X146794673Y-105634481D01*
X146797907Y-105572783D01*
X146797907Y-105572778D01*
X146798252Y-105566191D01*
X146796051Y-105552293D01*
X146794500Y-105532584D01*
X146794500Y-98337472D01*
X146814502Y-98269351D01*
X146838669Y-98241661D01*
X146848596Y-98233183D01*
X147026898Y-98080898D01*
X147191328Y-97888376D01*
X147323616Y-97672502D01*
X147331592Y-97653247D01*
X147376140Y-97597968D01*
X147443504Y-97575547D01*
X147512295Y-97593106D01*
G37*
G04 #@! TD.AperFunction*
G04 #@! TA.AperFunction,Conductor*
G36*
X147516121Y-55646002D02*
G01*
X147562614Y-55699658D01*
X147574000Y-55752000D01*
X147574000Y-94378533D01*
X147553998Y-94446654D01*
X147500342Y-94493147D01*
X147430068Y-94503251D01*
X147365488Y-94473757D01*
X147331591Y-94426752D01*
X147325509Y-94412068D01*
X147323616Y-94407498D01*
X147191328Y-94191624D01*
X147026898Y-93999102D01*
X146834376Y-93834672D01*
X146636168Y-93713210D01*
X146622722Y-93704970D01*
X146618502Y-93702384D01*
X146613932Y-93700491D01*
X146613928Y-93700489D01*
X146389164Y-93607389D01*
X146389162Y-93607388D01*
X146384591Y-93605495D01*
X146264742Y-93576722D01*
X146143216Y-93547546D01*
X146143210Y-93547545D01*
X146138403Y-93546391D01*
X145886000Y-93526526D01*
X145633597Y-93546391D01*
X145628790Y-93547545D01*
X145628784Y-93547546D01*
X145507258Y-93576722D01*
X145387409Y-93605495D01*
X145382838Y-93607388D01*
X145382836Y-93607389D01*
X145158072Y-93700489D01*
X145158068Y-93700491D01*
X145153498Y-93702384D01*
X145149278Y-93704970D01*
X145135832Y-93713210D01*
X144937624Y-93834672D01*
X144745102Y-93999102D01*
X144580672Y-94191624D01*
X144448384Y-94407498D01*
X144446491Y-94412068D01*
X144446489Y-94412072D01*
X144412907Y-94493147D01*
X144351495Y-94641409D01*
X144292391Y-94887597D01*
X144277500Y-95076801D01*
X144277500Y-97003199D01*
X144277693Y-97005648D01*
X144277693Y-97005655D01*
X144281759Y-97057310D01*
X144292391Y-97192403D01*
X144293545Y-97197210D01*
X144293546Y-97197216D01*
X144321432Y-97313370D01*
X144351495Y-97438591D01*
X144353388Y-97443162D01*
X144353389Y-97443164D01*
X144440409Y-97653248D01*
X144448384Y-97672502D01*
X144580672Y-97888376D01*
X144745102Y-98080898D01*
X144923405Y-98233183D01*
X144933331Y-98241661D01*
X144972140Y-98301112D01*
X144977500Y-98337472D01*
X144977500Y-98405842D01*
X144957498Y-98473963D01*
X144903842Y-98520456D01*
X144833568Y-98530560D01*
X144768988Y-98501066D01*
X144746545Y-98473885D01*
X144746224Y-98474118D01*
X144742462Y-98468941D01*
X144742381Y-98468842D01*
X144742343Y-98468776D01*
X144742340Y-98468772D01*
X144739040Y-98463056D01*
X144734623Y-98458150D01*
X144734619Y-98458145D01*
X144693278Y-98412231D01*
X144688994Y-98407216D01*
X144678148Y-98393823D01*
X144676072Y-98391259D01*
X144661557Y-98376744D01*
X144657016Y-98371959D01*
X144625964Y-98337472D01*
X144611253Y-98321134D01*
X144599865Y-98312860D01*
X144584832Y-98300019D01*
X142931405Y-96646592D01*
X142897379Y-96584280D01*
X142894500Y-96557497D01*
X142894500Y-93174500D01*
X142914502Y-93106379D01*
X142968158Y-93059886D01*
X143020500Y-93048500D01*
X144034134Y-93048500D01*
X144096316Y-93041745D01*
X144232705Y-92990615D01*
X144349261Y-92903261D01*
X144436615Y-92786705D01*
X144487745Y-92650316D01*
X144494500Y-92588134D01*
X144494500Y-90291866D01*
X144487745Y-90229684D01*
X144436615Y-90093295D01*
X144349261Y-89976739D01*
X144232705Y-89889385D01*
X144096316Y-89838255D01*
X144034134Y-89831500D01*
X139937866Y-89831500D01*
X139875684Y-89838255D01*
X139739295Y-89889385D01*
X139622739Y-89976739D01*
X139535385Y-90093295D01*
X139484255Y-90229684D01*
X139477500Y-90291866D01*
X139477500Y-92588134D01*
X139484255Y-92650316D01*
X139535385Y-92786705D01*
X139622739Y-92903261D01*
X139739295Y-92990615D01*
X139875684Y-93041745D01*
X139937866Y-93048500D01*
X140951500Y-93048500D01*
X141019621Y-93068502D01*
X141066114Y-93122158D01*
X141077500Y-93174500D01*
X141077500Y-96904583D01*
X141075949Y-96924292D01*
X141073748Y-96938190D01*
X141074093Y-96944777D01*
X141074093Y-96944782D01*
X141077327Y-97006480D01*
X141077500Y-97013074D01*
X141077500Y-97033610D01*
X141077844Y-97036882D01*
X141077844Y-97036884D01*
X141079647Y-97054042D01*
X141080164Y-97060617D01*
X141081892Y-97093593D01*
X141065482Y-97162668D01*
X141014333Y-97211905D01*
X140944684Y-97225672D01*
X140890230Y-97207619D01*
X140722732Y-97104975D01*
X140722721Y-97104969D01*
X140718502Y-97102384D01*
X140713932Y-97100491D01*
X140713928Y-97100489D01*
X140489164Y-97007389D01*
X140489162Y-97007388D01*
X140484591Y-97005495D01*
X140399968Y-96985179D01*
X140243216Y-96947546D01*
X140243210Y-96947545D01*
X140238403Y-96946391D01*
X140134202Y-96938190D01*
X140051655Y-96931693D01*
X140051648Y-96931693D01*
X140049199Y-96931500D01*
X138122801Y-96931500D01*
X138120352Y-96931693D01*
X138120345Y-96931693D01*
X138037798Y-96938190D01*
X137933597Y-96946391D01*
X137928790Y-96947545D01*
X137928784Y-96947546D01*
X137772032Y-96985179D01*
X137687409Y-97005495D01*
X137682838Y-97007388D01*
X137682836Y-97007389D01*
X137458072Y-97100489D01*
X137458068Y-97100491D01*
X137453498Y-97102384D01*
X137237624Y-97234672D01*
X137045102Y-97399102D01*
X136880672Y-97591624D01*
X136748384Y-97807498D01*
X136746491Y-97812068D01*
X136746489Y-97812072D01*
X136658756Y-98023879D01*
X136651495Y-98041409D01*
X136638812Y-98094240D01*
X136597038Y-98268241D01*
X136592391Y-98287597D01*
X136572526Y-98540000D01*
X136592391Y-98792403D01*
X136593545Y-98797210D01*
X136593546Y-98797216D01*
X136627370Y-98938101D01*
X136651495Y-99038591D01*
X136653388Y-99043162D01*
X136653389Y-99043164D01*
X136741040Y-99254771D01*
X136748384Y-99272502D01*
X136750970Y-99276722D01*
X136858849Y-99452764D01*
X136877387Y-99521298D01*
X136855931Y-99588974D01*
X136801292Y-99634307D01*
X136761302Y-99644211D01*
X136733597Y-99646391D01*
X136728790Y-99647545D01*
X136728784Y-99647546D01*
X136589864Y-99680898D01*
X136487409Y-99705495D01*
X136482838Y-99707388D01*
X136482836Y-99707389D01*
X136258072Y-99800489D01*
X136258068Y-99800491D01*
X136253498Y-99802384D01*
X136037624Y-99934672D01*
X135845102Y-100099102D01*
X135680672Y-100291624D01*
X135548384Y-100507498D01*
X135546491Y-100512068D01*
X135546489Y-100512072D01*
X135478644Y-100675865D01*
X135451495Y-100741409D01*
X135450340Y-100746221D01*
X135393650Y-100982353D01*
X135392391Y-100987597D01*
X135372526Y-101240000D01*
X135392391Y-101492403D01*
X135393545Y-101497210D01*
X135393546Y-101497216D01*
X135423564Y-101622251D01*
X135451495Y-101738591D01*
X135453388Y-101743162D01*
X135453389Y-101743164D01*
X135520795Y-101905895D01*
X135548384Y-101972502D01*
X135680672Y-102188376D01*
X135845102Y-102380898D01*
X136037624Y-102545328D01*
X136253498Y-102677616D01*
X136258068Y-102679509D01*
X136258072Y-102679511D01*
X136468078Y-102766498D01*
X136487409Y-102774505D01*
X136538368Y-102786739D01*
X136728784Y-102832454D01*
X136728790Y-102832455D01*
X136733597Y-102833609D01*
X136833416Y-102841465D01*
X136920345Y-102848307D01*
X136920352Y-102848307D01*
X136922801Y-102848500D01*
X138849199Y-102848500D01*
X138851648Y-102848307D01*
X138851655Y-102848307D01*
X138938584Y-102841465D01*
X139038403Y-102833609D01*
X139043210Y-102832455D01*
X139043216Y-102832454D01*
X139233632Y-102786739D01*
X139284591Y-102774505D01*
X139303922Y-102766498D01*
X139513928Y-102679511D01*
X139513932Y-102679509D01*
X139518502Y-102677616D01*
X139734376Y-102545328D01*
X139926898Y-102380898D01*
X140091328Y-102188376D01*
X140223616Y-101972502D01*
X140251206Y-101905895D01*
X140318611Y-101743164D01*
X140318612Y-101743162D01*
X140320505Y-101738591D01*
X140348436Y-101622251D01*
X140378454Y-101497216D01*
X140378455Y-101497210D01*
X140379609Y-101492403D01*
X140399474Y-101240000D01*
X140379609Y-100987597D01*
X140378351Y-100982353D01*
X140321660Y-100746221D01*
X140320505Y-100741409D01*
X140293356Y-100675865D01*
X140225511Y-100512072D01*
X140225509Y-100512068D01*
X140223616Y-100507498D01*
X140113151Y-100327236D01*
X140094613Y-100258702D01*
X140116069Y-100191026D01*
X140170708Y-100145693D01*
X140210698Y-100135789D01*
X140238403Y-100133609D01*
X140243210Y-100132455D01*
X140243216Y-100132454D01*
X140400601Y-100094669D01*
X140484591Y-100074505D01*
X140489164Y-100072611D01*
X140713928Y-99979511D01*
X140713932Y-99979509D01*
X140718502Y-99977616D01*
X140934376Y-99845328D01*
X141126898Y-99680898D01*
X141291328Y-99488376D01*
X141423616Y-99272502D01*
X141430961Y-99254771D01*
X141518611Y-99043164D01*
X141518612Y-99043162D01*
X141520505Y-99038591D01*
X141544630Y-98938101D01*
X141578454Y-98797216D01*
X141578455Y-98797210D01*
X141579609Y-98792403D01*
X141599474Y-98540000D01*
X141579609Y-98287597D01*
X141574963Y-98268241D01*
X141550212Y-98165148D01*
X141553759Y-98094240D01*
X141595079Y-98036506D01*
X141661053Y-98010276D01*
X141730734Y-98023879D01*
X141761826Y-98046639D01*
X143054595Y-99339408D01*
X143088621Y-99401720D01*
X143091500Y-99428503D01*
X143091500Y-103301461D01*
X143071498Y-103369582D01*
X143041065Y-103402287D01*
X143003865Y-103430167D01*
X142961739Y-103461739D01*
X142956358Y-103468919D01*
X142905538Y-103536728D01*
X142848679Y-103579243D01*
X142777860Y-103584269D01*
X142728012Y-103561129D01*
X142727795Y-103560963D01*
X142723556Y-103557044D01*
X142539599Y-103440976D01*
X142337572Y-103360376D01*
X142124239Y-103317941D01*
X142118464Y-103317865D01*
X142118460Y-103317865D01*
X142009419Y-103316438D01*
X141906746Y-103315094D01*
X141901049Y-103316073D01*
X141901048Y-103316073D01*
X141698065Y-103350952D01*
X141698062Y-103350953D01*
X141692375Y-103351930D01*
X141488307Y-103427214D01*
X141430276Y-103461739D01*
X141306344Y-103535471D01*
X141306341Y-103535473D01*
X141301376Y-103538427D01*
X141297032Y-103542237D01*
X141297026Y-103542241D01*
X141276511Y-103560232D01*
X141212107Y-103590109D01*
X141193434Y-103591500D01*
X139581417Y-103591500D01*
X139561708Y-103589949D01*
X139547810Y-103587748D01*
X139541223Y-103588093D01*
X139541218Y-103588093D01*
X139479520Y-103591327D01*
X139472926Y-103591500D01*
X139452390Y-103591500D01*
X139449118Y-103591844D01*
X139449116Y-103591844D01*
X139431958Y-103593647D01*
X139425384Y-103594164D01*
X139363696Y-103597397D01*
X139363694Y-103597397D01*
X139357097Y-103597743D01*
X139343504Y-103601385D01*
X139324075Y-103604986D01*
X139310072Y-103606458D01*
X139245025Y-103627593D01*
X139238712Y-103629463D01*
X139218074Y-103634993D01*
X139179003Y-103645462D01*
X139179000Y-103645463D01*
X139172630Y-103647170D01*
X139160085Y-103653562D01*
X139141826Y-103661125D01*
X139128444Y-103665473D01*
X139122723Y-103668776D01*
X139069223Y-103699664D01*
X139063426Y-103702812D01*
X139008351Y-103730874D01*
X139008348Y-103730876D01*
X139002470Y-103733871D01*
X138997342Y-103738024D01*
X138997340Y-103738025D01*
X138991534Y-103742727D01*
X138975237Y-103753927D01*
X138968776Y-103757657D01*
X138968772Y-103757660D01*
X138963056Y-103760960D01*
X138958150Y-103765377D01*
X138958145Y-103765381D01*
X138912231Y-103806722D01*
X138907216Y-103811006D01*
X138898718Y-103817888D01*
X138891259Y-103823928D01*
X138876744Y-103838443D01*
X138871959Y-103842984D01*
X138821134Y-103888747D01*
X138817255Y-103894086D01*
X138817254Y-103894087D01*
X138812860Y-103900135D01*
X138800019Y-103915168D01*
X137185657Y-105529530D01*
X137170624Y-105542371D01*
X137159236Y-105550645D01*
X137145238Y-105566191D01*
X137113473Y-105601470D01*
X137108932Y-105606255D01*
X137094417Y-105620770D01*
X137092341Y-105623334D01*
X137081495Y-105636727D01*
X137077211Y-105641742D01*
X137035870Y-105687656D01*
X137035866Y-105687661D01*
X137031449Y-105692567D01*
X137028149Y-105698283D01*
X137028146Y-105698287D01*
X137024416Y-105704748D01*
X137013216Y-105721044D01*
X137004360Y-105731981D01*
X136995024Y-105750304D01*
X136973304Y-105792932D01*
X136970158Y-105798726D01*
X136935962Y-105857955D01*
X136933921Y-105864237D01*
X136933920Y-105864239D01*
X136931614Y-105871337D01*
X136924049Y-105889603D01*
X136917660Y-105902141D01*
X136905573Y-105947252D01*
X136899958Y-105968206D01*
X136898089Y-105974514D01*
X136876947Y-106039583D01*
X136876257Y-106046148D01*
X136876255Y-106046157D01*
X136875474Y-106053586D01*
X136871872Y-106073020D01*
X136869942Y-106080225D01*
X136868232Y-106086608D01*
X136867887Y-106093199D01*
X136867886Y-106093203D01*
X136864653Y-106154895D01*
X136864136Y-106161469D01*
X136862333Y-106178627D01*
X136861989Y-106181901D01*
X136861989Y-106202437D01*
X136861816Y-106209031D01*
X136858237Y-106277321D01*
X136859269Y-106283836D01*
X136860438Y-106291216D01*
X136861989Y-106310928D01*
X136861989Y-106661500D01*
X136841987Y-106729621D01*
X136788331Y-106776114D01*
X136735989Y-106787500D01*
X121896395Y-106787500D01*
X121876686Y-106785949D01*
X121862788Y-106783748D01*
X121856201Y-106784093D01*
X121856196Y-106784093D01*
X121794498Y-106787327D01*
X121787904Y-106787500D01*
X121767368Y-106787500D01*
X121764096Y-106787844D01*
X121764094Y-106787844D01*
X121746936Y-106789647D01*
X121740362Y-106790164D01*
X121678670Y-106793397D01*
X121678666Y-106793398D01*
X121672075Y-106793743D01*
X121665694Y-106795453D01*
X121665692Y-106795453D01*
X121658487Y-106797383D01*
X121639053Y-106800985D01*
X121631624Y-106801766D01*
X121631615Y-106801768D01*
X121625050Y-106802458D01*
X121559981Y-106823600D01*
X121553679Y-106825467D01*
X121487608Y-106843171D01*
X121475071Y-106849559D01*
X121456804Y-106857125D01*
X121449706Y-106859431D01*
X121449704Y-106859432D01*
X121443422Y-106861473D01*
X121437700Y-106864776D01*
X121437699Y-106864777D01*
X121384196Y-106895667D01*
X121378401Y-106898814D01*
X121317448Y-106929871D01*
X121312320Y-106934024D01*
X121312318Y-106934025D01*
X121306512Y-106938727D01*
X121290215Y-106949927D01*
X121283754Y-106953657D01*
X121283750Y-106953660D01*
X121278034Y-106956960D01*
X121273128Y-106961377D01*
X121273123Y-106961381D01*
X121227209Y-107002722D01*
X121222194Y-107007006D01*
X121213696Y-107013888D01*
X121206237Y-107019928D01*
X121191722Y-107034443D01*
X121186937Y-107038984D01*
X121136112Y-107084747D01*
X121132233Y-107090086D01*
X121132232Y-107090087D01*
X121127838Y-107096135D01*
X121114997Y-107111168D01*
X120459570Y-107766595D01*
X120397258Y-107800621D01*
X120370475Y-107803500D01*
X119795036Y-107803500D01*
X119726915Y-107783498D01*
X119680422Y-107729842D01*
X119670318Y-107659568D01*
X119675443Y-107637832D01*
X119706138Y-107545291D01*
X119709005Y-107531915D01*
X119718672Y-107437563D01*
X119719000Y-107431147D01*
X119719000Y-107206115D01*
X119714525Y-107190876D01*
X119713135Y-107189671D01*
X119705452Y-107188000D01*
X118508000Y-107188000D01*
X118439879Y-107167998D01*
X118393386Y-107114342D01*
X118382000Y-107062000D01*
X118382000Y-106661885D01*
X118890000Y-106661885D01*
X118894475Y-106677124D01*
X118895865Y-106678329D01*
X118903548Y-106680000D01*
X119700885Y-106680000D01*
X119716124Y-106675525D01*
X119717329Y-106674135D01*
X119719000Y-106666452D01*
X119719000Y-106436902D01*
X119718663Y-106430387D01*
X119708744Y-106334795D01*
X119705850Y-106321396D01*
X119654412Y-106167215D01*
X119648238Y-106154036D01*
X119562937Y-106016190D01*
X119553901Y-106004791D01*
X119439172Y-105890262D01*
X119427761Y-105881250D01*
X119289758Y-105796184D01*
X119276577Y-105790037D01*
X119122291Y-105738862D01*
X119108915Y-105735995D01*
X119014563Y-105726328D01*
X119008146Y-105726000D01*
X118908115Y-105726000D01*
X118892876Y-105730475D01*
X118891671Y-105731865D01*
X118890000Y-105739548D01*
X118890000Y-106661885D01*
X118382000Y-106661885D01*
X118382000Y-105744115D01*
X118377525Y-105728876D01*
X118376135Y-105727671D01*
X118368452Y-105726000D01*
X118263902Y-105726000D01*
X118257387Y-105726337D01*
X118161795Y-105736256D01*
X118148396Y-105739150D01*
X117994215Y-105790588D01*
X117981036Y-105796762D01*
X117843190Y-105882063D01*
X117831791Y-105891099D01*
X117717263Y-106005827D01*
X117710205Y-106014763D01*
X117652286Y-106055823D01*
X117581363Y-106059051D01*
X117519953Y-106023423D01*
X117513156Y-106015593D01*
X117509479Y-106009651D01*
X117384303Y-105884694D01*
X117384396Y-105884601D01*
X117345344Y-105829517D01*
X117338500Y-105788555D01*
X117338500Y-105239754D01*
X117358502Y-105171633D01*
X117412158Y-105125140D01*
X117420270Y-105121772D01*
X117468297Y-105103767D01*
X117476705Y-105100615D01*
X117593261Y-105013261D01*
X117680615Y-104896705D01*
X117731745Y-104760316D01*
X117738500Y-104698134D01*
X117738500Y-103101866D01*
X117731745Y-103039684D01*
X117680615Y-102903295D01*
X117675229Y-102896108D01*
X117622360Y-102825565D01*
X117597512Y-102759058D01*
X117612565Y-102689676D01*
X117622360Y-102674435D01*
X117675229Y-102603892D01*
X117675230Y-102603890D01*
X117680615Y-102596705D01*
X117731745Y-102460316D01*
X117738500Y-102398134D01*
X117738500Y-100801866D01*
X117731745Y-100739684D01*
X117680615Y-100603295D01*
X117622047Y-100525148D01*
X117597199Y-100458642D01*
X117612252Y-100389259D01*
X117622047Y-100374018D01*
X117674786Y-100303648D01*
X117683324Y-100288054D01*
X117728478Y-100167606D01*
X117732105Y-100152351D01*
X117737631Y-100101486D01*
X117738000Y-100094672D01*
X117738000Y-99572115D01*
X117733525Y-99556876D01*
X117732135Y-99555671D01*
X117724452Y-99554000D01*
X114740116Y-99554000D01*
X114724877Y-99558475D01*
X114723672Y-99559865D01*
X114722001Y-99567548D01*
X114722001Y-100094669D01*
X114722371Y-100101490D01*
X114727895Y-100152352D01*
X114731521Y-100167604D01*
X114776676Y-100288054D01*
X114785214Y-100303648D01*
X114837953Y-100374018D01*
X114862801Y-100440524D01*
X114847748Y-100509907D01*
X114837953Y-100525148D01*
X114779385Y-100603295D01*
X114728255Y-100739684D01*
X114721500Y-100801866D01*
X114721500Y-102398134D01*
X114728255Y-102460316D01*
X114731029Y-102467715D01*
X114761093Y-102547910D01*
X114779385Y-102596705D01*
X114782958Y-102601473D01*
X114797804Y-102669347D01*
X114773068Y-102735895D01*
X114716281Y-102778506D01*
X114672115Y-102786500D01*
X111264346Y-102786500D01*
X111196225Y-102766498D01*
X111175251Y-102749595D01*
X110331551Y-101905895D01*
X110324565Y-101897621D01*
X110324335Y-101897820D01*
X110320412Y-101893275D01*
X110316946Y-101888389D01*
X110249984Y-101824287D01*
X110248020Y-101822364D01*
X110220460Y-101794804D01*
X110218145Y-101792892D01*
X110214739Y-101790079D01*
X110207855Y-101783957D01*
X110164150Y-101742119D01*
X110159114Y-101738867D01*
X110159110Y-101738864D01*
X110136008Y-101723947D01*
X110124126Y-101715251D01*
X110102919Y-101697738D01*
X110102916Y-101697736D01*
X110098295Y-101693920D01*
X110045203Y-101664913D01*
X110037283Y-101660202D01*
X109986452Y-101627380D01*
X109980884Y-101625136D01*
X109980882Y-101625135D01*
X109955381Y-101614858D01*
X109942068Y-101608565D01*
X109940413Y-101607661D01*
X109912671Y-101592504D01*
X109906959Y-101590676D01*
X109906953Y-101590673D01*
X109855049Y-101574059D01*
X109846375Y-101570928D01*
X109790263Y-101548314D01*
X109757392Y-101541895D01*
X109743125Y-101538232D01*
X109716927Y-101529846D01*
X109716925Y-101529846D01*
X109711219Y-101528019D01*
X109705272Y-101527305D01*
X109705265Y-101527303D01*
X109651154Y-101520802D01*
X109642033Y-101519366D01*
X109615473Y-101514179D01*
X109582663Y-101507772D01*
X109577101Y-101507500D01*
X109547960Y-101507500D01*
X109532932Y-101506601D01*
X109507155Y-101503504D01*
X109507149Y-101503504D01*
X109501207Y-101502790D01*
X109495232Y-101503213D01*
X109495229Y-101503213D01*
X109439137Y-101507185D01*
X109430238Y-101507500D01*
X109304802Y-101507500D01*
X109236681Y-101487498D01*
X109203976Y-101457065D01*
X109192700Y-101442019D01*
X109163261Y-101402739D01*
X109046705Y-101315385D01*
X109034132Y-101310672D01*
X108928203Y-101270960D01*
X108871439Y-101228318D01*
X108846739Y-101161756D01*
X108861947Y-101092408D01*
X108883493Y-101063728D01*
X108926119Y-101021250D01*
X108988490Y-100987333D01*
X109015059Y-100984500D01*
X109138583Y-100984500D01*
X109158292Y-100986051D01*
X109172190Y-100988252D01*
X109178777Y-100987907D01*
X109178782Y-100987907D01*
X109240480Y-100984673D01*
X109247074Y-100984500D01*
X109267610Y-100984500D01*
X109270882Y-100984156D01*
X109270884Y-100984156D01*
X109288042Y-100982353D01*
X109294616Y-100981836D01*
X109356308Y-100978603D01*
X109356312Y-100978602D01*
X109362903Y-100978257D01*
X109369284Y-100976547D01*
X109369286Y-100976547D01*
X109376491Y-100974617D01*
X109395925Y-100971015D01*
X109403354Y-100970234D01*
X109403363Y-100970232D01*
X109409928Y-100969542D01*
X109474997Y-100948400D01*
X109481299Y-100946533D01*
X109547370Y-100928829D01*
X109559908Y-100922440D01*
X109578174Y-100914875D01*
X109585272Y-100912569D01*
X109585274Y-100912568D01*
X109591556Y-100910527D01*
X109650785Y-100876331D01*
X109656579Y-100873185D01*
X109717530Y-100842129D01*
X109728467Y-100833273D01*
X109744763Y-100822073D01*
X109751224Y-100818343D01*
X109751228Y-100818340D01*
X109756944Y-100815040D01*
X109761850Y-100810623D01*
X109761855Y-100810619D01*
X109807769Y-100769278D01*
X109812784Y-100764994D01*
X109826177Y-100754148D01*
X109828741Y-100752072D01*
X109843256Y-100737557D01*
X109848041Y-100733016D01*
X109893957Y-100691673D01*
X109898866Y-100687253D01*
X109907140Y-100675865D01*
X109919981Y-100660832D01*
X111552928Y-99027885D01*
X114722000Y-99027885D01*
X114726475Y-99043124D01*
X114727865Y-99044329D01*
X114735548Y-99046000D01*
X115957885Y-99046000D01*
X115973124Y-99041525D01*
X115974329Y-99040135D01*
X115976000Y-99032452D01*
X115976000Y-99027885D01*
X116484000Y-99027885D01*
X116488475Y-99043124D01*
X116489865Y-99044329D01*
X116497548Y-99046000D01*
X117719884Y-99046000D01*
X117735123Y-99041525D01*
X117736328Y-99040135D01*
X117737999Y-99032452D01*
X117737999Y-98505331D01*
X117737629Y-98498510D01*
X117732105Y-98447648D01*
X117728479Y-98432396D01*
X117683324Y-98311946D01*
X117674786Y-98296351D01*
X117598285Y-98194276D01*
X117585724Y-98181715D01*
X117483649Y-98105214D01*
X117468054Y-98096676D01*
X117347606Y-98051522D01*
X117332351Y-98047895D01*
X117281486Y-98042369D01*
X117274672Y-98042000D01*
X116502115Y-98042000D01*
X116486876Y-98046475D01*
X116485671Y-98047865D01*
X116484000Y-98055548D01*
X116484000Y-99027885D01*
X115976000Y-99027885D01*
X115976000Y-98060116D01*
X115971525Y-98044877D01*
X115970135Y-98043672D01*
X115962452Y-98042001D01*
X115185331Y-98042001D01*
X115178510Y-98042371D01*
X115127648Y-98047895D01*
X115112396Y-98051521D01*
X114991946Y-98096676D01*
X114976351Y-98105214D01*
X114874276Y-98181715D01*
X114861715Y-98194276D01*
X114785214Y-98296351D01*
X114776676Y-98311946D01*
X114731522Y-98432394D01*
X114727895Y-98447649D01*
X114722369Y-98498514D01*
X114722000Y-98505328D01*
X114722000Y-99027885D01*
X111552928Y-99027885D01*
X114639408Y-95941405D01*
X114701720Y-95907379D01*
X114728503Y-95904500D01*
X116138451Y-95904500D01*
X116206572Y-95924502D01*
X116233904Y-95948252D01*
X116245748Y-95961998D01*
X116355511Y-96057750D01*
X116359272Y-96060188D01*
X116359275Y-96060190D01*
X116366943Y-96065160D01*
X116475696Y-96135650D01*
X116479757Y-96137526D01*
X116479758Y-96137527D01*
X116603055Y-96194498D01*
X116607924Y-96196748D01*
X116643583Y-96207412D01*
X116740844Y-96236499D01*
X116740849Y-96236500D01*
X116745142Y-96237784D01*
X116749574Y-96238446D01*
X116749577Y-96238447D01*
X116884765Y-96258650D01*
X116884768Y-96258650D01*
X116889196Y-96259312D01*
X116963855Y-96259768D01*
X117027945Y-96260160D01*
X117027950Y-96260160D01*
X117032417Y-96260187D01*
X117034861Y-96259852D01*
X117038656Y-96259729D01*
X117467000Y-96259729D01*
X117498986Y-96257441D01*
X117533373Y-96254982D01*
X117533374Y-96254982D01*
X117540111Y-96254500D01*
X117576440Y-96243833D01*
X117629868Y-96240012D01*
X117767000Y-96259729D01*
X118257008Y-96259729D01*
X118257778Y-96259731D01*
X118327931Y-96260160D01*
X118327937Y-96260160D01*
X118332417Y-96260187D01*
X118416507Y-96248669D01*
X118472276Y-96241030D01*
X118472280Y-96241029D01*
X118476727Y-96240420D01*
X118614436Y-96201063D01*
X118747398Y-96141586D01*
X118751180Y-96139200D01*
X118751187Y-96139196D01*
X118829166Y-96089994D01*
X118868526Y-96065160D01*
X118979452Y-95970754D01*
X119000348Y-95947093D01*
X119060433Y-95909275D01*
X119094790Y-95904500D01*
X120420519Y-95904500D01*
X120488640Y-95924502D01*
X120509531Y-95941322D01*
X120613697Y-96045306D01*
X120764261Y-96138115D01*
X120817502Y-96155774D01*
X120925610Y-96191632D01*
X120925612Y-96191632D01*
X120932138Y-96193797D01*
X120938974Y-96194497D01*
X120938977Y-96194498D01*
X120973481Y-96198033D01*
X121036599Y-96204500D01*
X121409105Y-96204500D01*
X121787400Y-96204499D01*
X121893167Y-96193526D01*
X122043367Y-96143415D01*
X122054002Y-96139867D01*
X122054004Y-96139866D01*
X122060946Y-96137550D01*
X122161198Y-96075513D01*
X122229650Y-96056676D01*
X122297419Y-96077838D01*
X122342990Y-96132279D01*
X122353500Y-96182658D01*
X122353500Y-99065500D01*
X122333498Y-99133621D01*
X122279842Y-99180114D01*
X122227500Y-99191500D01*
X121481866Y-99191500D01*
X121419684Y-99198255D01*
X121283295Y-99249385D01*
X121166739Y-99336739D01*
X121079385Y-99453295D01*
X121028255Y-99589684D01*
X121021500Y-99651866D01*
X121021500Y-103548134D01*
X121028255Y-103610316D01*
X121079385Y-103746705D01*
X121166739Y-103863261D01*
X121283295Y-103950615D01*
X121419684Y-104001745D01*
X121481866Y-104008500D01*
X123578134Y-104008500D01*
X123640316Y-104001745D01*
X123776705Y-103950615D01*
X123893261Y-103863261D01*
X123980615Y-103746705D01*
X124031745Y-103610316D01*
X124038500Y-103548134D01*
X124038500Y-101711346D01*
X124058502Y-101643225D01*
X124075405Y-101622251D01*
X124172105Y-101525551D01*
X124180379Y-101518565D01*
X124180180Y-101518335D01*
X124184725Y-101514412D01*
X124189611Y-101510946D01*
X124253714Y-101443983D01*
X124255637Y-101442019D01*
X124283196Y-101414460D01*
X124287921Y-101408739D01*
X124294043Y-101401855D01*
X124335881Y-101358150D01*
X124339133Y-101353114D01*
X124339136Y-101353110D01*
X124354053Y-101330008D01*
X124362749Y-101318126D01*
X124380262Y-101296919D01*
X124380264Y-101296916D01*
X124384080Y-101292295D01*
X124409958Y-101244930D01*
X124413087Y-101239203D01*
X124417798Y-101231283D01*
X124450620Y-101180452D01*
X124463142Y-101149381D01*
X124469435Y-101136068D01*
X124482618Y-101111938D01*
X124485496Y-101106671D01*
X124487324Y-101100959D01*
X124487327Y-101100953D01*
X124503941Y-101049049D01*
X124507072Y-101040375D01*
X124529686Y-100984263D01*
X124536105Y-100951392D01*
X124539768Y-100937125D01*
X124548152Y-100910936D01*
X124548154Y-100910925D01*
X124549981Y-100905219D01*
X124557196Y-100845159D01*
X124558633Y-100836038D01*
X124569357Y-100781122D01*
X124570228Y-100776663D01*
X124570500Y-100771101D01*
X124570500Y-100741951D01*
X124571399Y-100726923D01*
X124574495Y-100701154D01*
X124574495Y-100701150D01*
X124575209Y-100695207D01*
X124570815Y-100633147D01*
X124570500Y-100624248D01*
X124570500Y-92903199D01*
X133077500Y-92903199D01*
X133092391Y-93092403D01*
X133093545Y-93097210D01*
X133093546Y-93097216D01*
X133126469Y-93234351D01*
X133151495Y-93338591D01*
X133153388Y-93343162D01*
X133153389Y-93343164D01*
X133237408Y-93546003D01*
X133248384Y-93572502D01*
X133380672Y-93788376D01*
X133545102Y-93980898D01*
X133737624Y-94145328D01*
X133953498Y-94277616D01*
X133958068Y-94279509D01*
X133958072Y-94279511D01*
X134182836Y-94372611D01*
X134187409Y-94374505D01*
X134272032Y-94394821D01*
X134428784Y-94432454D01*
X134428790Y-94432455D01*
X134433597Y-94433609D01*
X134686000Y-94453474D01*
X134938403Y-94433609D01*
X134943210Y-94432455D01*
X134943216Y-94432454D01*
X135099968Y-94394821D01*
X135184591Y-94374505D01*
X135189164Y-94372611D01*
X135413928Y-94279511D01*
X135413932Y-94279509D01*
X135418502Y-94277616D01*
X135634376Y-94145328D01*
X135826898Y-93980898D01*
X135991328Y-93788376D01*
X136123616Y-93572502D01*
X136134593Y-93546003D01*
X136218611Y-93343164D01*
X136218612Y-93343162D01*
X136220505Y-93338591D01*
X136245531Y-93234351D01*
X136278454Y-93097216D01*
X136278455Y-93097210D01*
X136279609Y-93092403D01*
X136294500Y-92903199D01*
X136294500Y-90976801D01*
X136293552Y-90964747D01*
X136283494Y-90836960D01*
X136279609Y-90787597D01*
X136268046Y-90739431D01*
X136224836Y-90559450D01*
X136220505Y-90541409D01*
X136203575Y-90500536D01*
X136125511Y-90312072D01*
X136125509Y-90312068D01*
X136123616Y-90307498D01*
X135991328Y-90091624D01*
X135826898Y-89899102D01*
X135634376Y-89734672D01*
X135418502Y-89602384D01*
X135413932Y-89600491D01*
X135413928Y-89600489D01*
X135189164Y-89507389D01*
X135189162Y-89507388D01*
X135184591Y-89505495D01*
X135099968Y-89485179D01*
X134943216Y-89447546D01*
X134943210Y-89447545D01*
X134938403Y-89446391D01*
X134686000Y-89426526D01*
X134433597Y-89446391D01*
X134428790Y-89447545D01*
X134428784Y-89447546D01*
X134272032Y-89485179D01*
X134187409Y-89505495D01*
X134182838Y-89507388D01*
X134182836Y-89507389D01*
X133958072Y-89600489D01*
X133958068Y-89600491D01*
X133953498Y-89602384D01*
X133737624Y-89734672D01*
X133545102Y-89899102D01*
X133380672Y-90091624D01*
X133248384Y-90307498D01*
X133246491Y-90312068D01*
X133246489Y-90312072D01*
X133168425Y-90500536D01*
X133151495Y-90541409D01*
X133147164Y-90559450D01*
X133103955Y-90739431D01*
X133092391Y-90787597D01*
X133088506Y-90836960D01*
X133078449Y-90964747D01*
X133077500Y-90976801D01*
X133077500Y-92903199D01*
X124570500Y-92903199D01*
X124570500Y-76841312D01*
X140279568Y-76841312D01*
X140296533Y-77135541D01*
X140297358Y-77139746D01*
X140297359Y-77139754D01*
X140321761Y-77264131D01*
X140353272Y-77424745D01*
X140354659Y-77428795D01*
X140354660Y-77428800D01*
X140431400Y-77652937D01*
X140448736Y-77703572D01*
X140450658Y-77707393D01*
X140450659Y-77707396D01*
X140478060Y-77761876D01*
X140581159Y-77966864D01*
X140621043Y-78024896D01*
X140730567Y-78184254D01*
X140748088Y-78209748D01*
X140946437Y-78427730D01*
X140949726Y-78430480D01*
X141169241Y-78614025D01*
X141169246Y-78614029D01*
X141172533Y-78616777D01*
X141268652Y-78677072D01*
X141418555Y-78771106D01*
X141418559Y-78771108D01*
X141422195Y-78773389D01*
X141690801Y-78894669D01*
X141694921Y-78895889D01*
X141694920Y-78895889D01*
X141969269Y-78977155D01*
X141969273Y-78977156D01*
X141973382Y-78978373D01*
X141977619Y-78979021D01*
X141977622Y-78979022D01*
X142227431Y-79017249D01*
X142264708Y-79022953D01*
X142414769Y-79025310D01*
X142555098Y-79027515D01*
X142555104Y-79027515D01*
X142559389Y-79027582D01*
X142563641Y-79027067D01*
X142563649Y-79027067D01*
X142790870Y-78999569D01*
X142851971Y-78992175D01*
X142856120Y-78991087D01*
X142856123Y-78991086D01*
X143132891Y-78918478D01*
X143137042Y-78917389D01*
X143409325Y-78804605D01*
X143638313Y-78670795D01*
X143660079Y-78658076D01*
X143660080Y-78658075D01*
X143663782Y-78655912D01*
X143895706Y-78474061D01*
X143901306Y-78468283D01*
X144063379Y-78301036D01*
X144100803Y-78262417D01*
X144103336Y-78258969D01*
X144103340Y-78258964D01*
X144272742Y-78028351D01*
X144275280Y-78024896D01*
X144277326Y-78021128D01*
X144413856Y-77769670D01*
X144413857Y-77769668D01*
X144415906Y-77765894D01*
X144504965Y-77530209D01*
X144518564Y-77494220D01*
X144518565Y-77494216D01*
X144520082Y-77490202D01*
X144583431Y-77213604D01*
X144584919Y-77207107D01*
X144584920Y-77207103D01*
X144585877Y-77202923D01*
X144588950Y-77168497D01*
X144611856Y-76911837D01*
X144612076Y-76909373D01*
X144612551Y-76864000D01*
X144592506Y-76569965D01*
X144532741Y-76281371D01*
X144434362Y-76003559D01*
X144299190Y-75741668D01*
X144291889Y-75731279D01*
X144132189Y-75504050D01*
X144129726Y-75500545D01*
X143984646Y-75344420D01*
X143932027Y-75287795D01*
X143932024Y-75287792D01*
X143929106Y-75284652D01*
X143701042Y-75097984D01*
X143449754Y-74943995D01*
X143434635Y-74937358D01*
X143183821Y-74827258D01*
X143183818Y-74827257D01*
X143179893Y-74825534D01*
X142896451Y-74744793D01*
X142892209Y-74744189D01*
X142892203Y-74744188D01*
X142608925Y-74703872D01*
X142604674Y-74703267D01*
X142449275Y-74702453D01*
X142314247Y-74701746D01*
X142314241Y-74701746D01*
X142309961Y-74701724D01*
X142305716Y-74702283D01*
X142305714Y-74702283D01*
X142239683Y-74710976D01*
X142017765Y-74740193D01*
X141733494Y-74817960D01*
X141729546Y-74819644D01*
X141466358Y-74931903D01*
X141466354Y-74931905D01*
X141462406Y-74933589D01*
X141392707Y-74975303D01*
X141213202Y-75082734D01*
X141213198Y-75082737D01*
X141209520Y-75084938D01*
X141206177Y-75087616D01*
X141206173Y-75087619D01*
X141093809Y-75177640D01*
X140979514Y-75269208D01*
X140976570Y-75272310D01*
X140976566Y-75272314D01*
X140921854Y-75329969D01*
X140776644Y-75482988D01*
X140604664Y-75722323D01*
X140466757Y-75982784D01*
X140457676Y-76007600D01*
X140367842Y-76253085D01*
X140365475Y-76259552D01*
X140302691Y-76547504D01*
X140279568Y-76841312D01*
X124570500Y-76841312D01*
X124570500Y-75893154D01*
X124555452Y-75735434D01*
X124495908Y-75532466D01*
X124469155Y-75480522D01*
X124401804Y-75349751D01*
X124401802Y-75349748D01*
X124399058Y-75344420D01*
X124379414Y-75319412D01*
X124353064Y-75253486D01*
X124352500Y-75241579D01*
X124352500Y-75168481D01*
X124372502Y-75100360D01*
X124389322Y-75079469D01*
X124493306Y-74975303D01*
X124567225Y-74855385D01*
X124582275Y-74830969D01*
X124582276Y-74830967D01*
X124586115Y-74824739D01*
X124613781Y-74741327D01*
X124639632Y-74663390D01*
X124639632Y-74663388D01*
X124641797Y-74656862D01*
X124642738Y-74647683D01*
X124648625Y-74590219D01*
X124652500Y-74552401D01*
X124652500Y-74185341D01*
X124672502Y-74117220D01*
X124726158Y-74070727D01*
X124796432Y-74060623D01*
X124861012Y-74090117D01*
X124881713Y-74113071D01*
X124974639Y-74245784D01*
X124974643Y-74245789D01*
X124977802Y-74250300D01*
X125139700Y-74412198D01*
X125144208Y-74415355D01*
X125144211Y-74415357D01*
X125218741Y-74467543D01*
X125327251Y-74543523D01*
X125332233Y-74545846D01*
X125332238Y-74545849D01*
X125529775Y-74637961D01*
X125534757Y-74640284D01*
X125540065Y-74641706D01*
X125540067Y-74641707D01*
X125750598Y-74698119D01*
X125750600Y-74698119D01*
X125755913Y-74699543D01*
X125984000Y-74719498D01*
X126212087Y-74699543D01*
X126217400Y-74698119D01*
X126217402Y-74698119D01*
X126427933Y-74641707D01*
X126427935Y-74641706D01*
X126433243Y-74640284D01*
X126438225Y-74637961D01*
X126635762Y-74545849D01*
X126635767Y-74545846D01*
X126640749Y-74543523D01*
X126749259Y-74467543D01*
X126823789Y-74415357D01*
X126823792Y-74415355D01*
X126828300Y-74412198D01*
X126889093Y-74351405D01*
X126951405Y-74317379D01*
X126978188Y-74314500D01*
X127006520Y-74314500D01*
X127074641Y-74334502D01*
X127095536Y-74351325D01*
X127199697Y-74455305D01*
X127205927Y-74459145D01*
X127205928Y-74459146D01*
X127343090Y-74543694D01*
X127350262Y-74548115D01*
X127430005Y-74574564D01*
X127511611Y-74601632D01*
X127511613Y-74601632D01*
X127518139Y-74603797D01*
X127524975Y-74604497D01*
X127524978Y-74604498D01*
X127568031Y-74608909D01*
X127622600Y-74614500D01*
X128373400Y-74614500D01*
X128376646Y-74614163D01*
X128376650Y-74614163D01*
X128472308Y-74604238D01*
X128472312Y-74604237D01*
X128479166Y-74603526D01*
X128485702Y-74601345D01*
X128485704Y-74601345D01*
X128632409Y-74552400D01*
X128646946Y-74547550D01*
X128797348Y-74454478D01*
X128922305Y-74329303D01*
X128924906Y-74325084D01*
X128982030Y-74284583D01*
X129052953Y-74281351D01*
X129114365Y-74316976D01*
X129120922Y-74324530D01*
X129124522Y-74330348D01*
X129249697Y-74455305D01*
X129255927Y-74459145D01*
X129255928Y-74459146D01*
X129393090Y-74543694D01*
X129400262Y-74548115D01*
X129480005Y-74574564D01*
X129561611Y-74601632D01*
X129561613Y-74601632D01*
X129568139Y-74603797D01*
X129574975Y-74604497D01*
X129574978Y-74604498D01*
X129618031Y-74608909D01*
X129672600Y-74614500D01*
X130423400Y-74614500D01*
X130426646Y-74614163D01*
X130426650Y-74614163D01*
X130522308Y-74604238D01*
X130522312Y-74604237D01*
X130529166Y-74603526D01*
X130535702Y-74601345D01*
X130535704Y-74601345D01*
X130682409Y-74552400D01*
X130696946Y-74547550D01*
X130847348Y-74454478D01*
X130886401Y-74415357D01*
X130950165Y-74351482D01*
X131012448Y-74317403D01*
X131039338Y-74314500D01*
X132609812Y-74314500D01*
X132677933Y-74334502D01*
X132698907Y-74351405D01*
X132759700Y-74412198D01*
X132764208Y-74415355D01*
X132764211Y-74415357D01*
X132838741Y-74467543D01*
X132947251Y-74543523D01*
X132952233Y-74545846D01*
X132952238Y-74545849D01*
X133149775Y-74637961D01*
X133154757Y-74640284D01*
X133160065Y-74641706D01*
X133160067Y-74641707D01*
X133370598Y-74698119D01*
X133370600Y-74698119D01*
X133375913Y-74699543D01*
X133604000Y-74719498D01*
X133832087Y-74699543D01*
X133837400Y-74698119D01*
X133837402Y-74698119D01*
X134047933Y-74641707D01*
X134047935Y-74641706D01*
X134053243Y-74640284D01*
X134058225Y-74637961D01*
X134255762Y-74545849D01*
X134255767Y-74545846D01*
X134260749Y-74543523D01*
X134369259Y-74467543D01*
X134443789Y-74415357D01*
X134443792Y-74415355D01*
X134448300Y-74412198D01*
X134610198Y-74250300D01*
X134613361Y-74245784D01*
X134713405Y-74102905D01*
X134741523Y-74062749D01*
X134743846Y-74057767D01*
X134743849Y-74057762D01*
X134835961Y-73860225D01*
X134835961Y-73860224D01*
X134838284Y-73855243D01*
X134844434Y-73832293D01*
X134896119Y-73639402D01*
X134896119Y-73639400D01*
X134897543Y-73634087D01*
X134913299Y-73454000D01*
X135743888Y-73454000D01*
X135762303Y-73664481D01*
X135763727Y-73669795D01*
X135763727Y-73669796D01*
X135807268Y-73832293D01*
X135816987Y-73868567D01*
X135819309Y-73873548D01*
X135819310Y-73873549D01*
X135891454Y-74028261D01*
X135906280Y-74060056D01*
X136027468Y-74233131D01*
X136176869Y-74382532D01*
X136349944Y-74503720D01*
X136354922Y-74506041D01*
X136354925Y-74506043D01*
X136461314Y-74555653D01*
X136541433Y-74593013D01*
X136546741Y-74594435D01*
X136546743Y-74594436D01*
X136740204Y-74646273D01*
X136745519Y-74647697D01*
X136956000Y-74666112D01*
X137166481Y-74647697D01*
X137171796Y-74646273D01*
X137365257Y-74594436D01*
X137365259Y-74594435D01*
X137370567Y-74593013D01*
X137450686Y-74555653D01*
X137557075Y-74506043D01*
X137557078Y-74506041D01*
X137562056Y-74503720D01*
X137613722Y-74467543D01*
X138797011Y-74467543D01*
X138806306Y-74479558D01*
X138835689Y-74500131D01*
X138845179Y-74505610D01*
X139026623Y-74590219D01*
X139036915Y-74593965D01*
X139230291Y-74645780D01*
X139241086Y-74647683D01*
X139440525Y-74665132D01*
X139451475Y-74665132D01*
X139650914Y-74647683D01*
X139661709Y-74645780D01*
X139855085Y-74593965D01*
X139865377Y-74590219D01*
X140046821Y-74505610D01*
X140056311Y-74500131D01*
X140086532Y-74478971D01*
X140094906Y-74468495D01*
X140087838Y-74455048D01*
X139458812Y-73826022D01*
X139444868Y-73818408D01*
X139443035Y-73818539D01*
X139436420Y-73822790D01*
X138803441Y-74455769D01*
X138797011Y-74467543D01*
X137613722Y-74467543D01*
X137735131Y-74382532D01*
X137884532Y-74233131D01*
X138005720Y-74060056D01*
X138017871Y-74033998D01*
X138087081Y-73885578D01*
X138133999Y-73832293D01*
X138202276Y-73812832D01*
X138270236Y-73833374D01*
X138315471Y-73885578D01*
X138394388Y-74054818D01*
X138399871Y-74064313D01*
X138421029Y-74094530D01*
X138431506Y-74102905D01*
X138444953Y-74095837D01*
X139073978Y-73466812D01*
X139080356Y-73455132D01*
X139810408Y-73455132D01*
X139810539Y-73456965D01*
X139814790Y-73463580D01*
X140447768Y-74096558D01*
X140459543Y-74102988D01*
X140471558Y-74093692D01*
X140492129Y-74064313D01*
X140497612Y-74054818D01*
X140582219Y-73873377D01*
X140585965Y-73863085D01*
X140637780Y-73669709D01*
X140639683Y-73658914D01*
X140657132Y-73459475D01*
X140657132Y-73448525D01*
X140639683Y-73249086D01*
X140637780Y-73238291D01*
X140585965Y-73044915D01*
X140582219Y-73034623D01*
X140497612Y-72853182D01*
X140492129Y-72843687D01*
X140470971Y-72813470D01*
X140460494Y-72805095D01*
X140447047Y-72812163D01*
X139818022Y-73441188D01*
X139810408Y-73455132D01*
X139080356Y-73455132D01*
X139081592Y-73452868D01*
X139081461Y-73451035D01*
X139077210Y-73444420D01*
X138444232Y-72811442D01*
X138432457Y-72805012D01*
X138420442Y-72814308D01*
X138399871Y-72843687D01*
X138394388Y-72853182D01*
X138315471Y-73022422D01*
X138268554Y-73075707D01*
X138200277Y-73095168D01*
X138132317Y-73074626D01*
X138087081Y-73022422D01*
X138008043Y-72852925D01*
X138008041Y-72852922D01*
X138005720Y-72847944D01*
X137884532Y-72674869D01*
X137735131Y-72525468D01*
X137612364Y-72439506D01*
X138797095Y-72439506D01*
X138804163Y-72452953D01*
X139433188Y-73081978D01*
X139447132Y-73089592D01*
X139448965Y-73089461D01*
X139455580Y-73085210D01*
X140088559Y-72452231D01*
X140094989Y-72440457D01*
X140085694Y-72428442D01*
X140056311Y-72407869D01*
X140046821Y-72402390D01*
X139865377Y-72317781D01*
X139855085Y-72314035D01*
X139661709Y-72262220D01*
X139650914Y-72260317D01*
X139451475Y-72242868D01*
X139440525Y-72242868D01*
X139241086Y-72260317D01*
X139230291Y-72262220D01*
X139036915Y-72314035D01*
X139026623Y-72317781D01*
X138845182Y-72402388D01*
X138835687Y-72407871D01*
X138805470Y-72429029D01*
X138797095Y-72439506D01*
X137612364Y-72439506D01*
X137562056Y-72404280D01*
X137557078Y-72401959D01*
X137557075Y-72401957D01*
X137375549Y-72317310D01*
X137375548Y-72317309D01*
X137370567Y-72314987D01*
X137365259Y-72313565D01*
X137365257Y-72313564D01*
X137171796Y-72261727D01*
X137171795Y-72261727D01*
X137166481Y-72260303D01*
X136956000Y-72241888D01*
X136745519Y-72260303D01*
X136740205Y-72261727D01*
X136740204Y-72261727D01*
X136546743Y-72313564D01*
X136546741Y-72313565D01*
X136541433Y-72314987D01*
X136536452Y-72317309D01*
X136536451Y-72317310D01*
X136354925Y-72401957D01*
X136354922Y-72401959D01*
X136349944Y-72404280D01*
X136176869Y-72525468D01*
X136027468Y-72674869D01*
X135906280Y-72847944D01*
X135903959Y-72852922D01*
X135903957Y-72852925D01*
X135853063Y-72962067D01*
X135816987Y-73039433D01*
X135815565Y-73044741D01*
X135815564Y-73044743D01*
X135775935Y-73192644D01*
X135762303Y-73243519D01*
X135743888Y-73454000D01*
X134913299Y-73454000D01*
X134917498Y-73406000D01*
X134897543Y-73177913D01*
X134896119Y-73172598D01*
X134839707Y-72962067D01*
X134839706Y-72962065D01*
X134838284Y-72956757D01*
X134823449Y-72924942D01*
X134743849Y-72754238D01*
X134743846Y-72754233D01*
X134741523Y-72749251D01*
X134651048Y-72620039D01*
X134613357Y-72566211D01*
X134613355Y-72566208D01*
X134610198Y-72561700D01*
X134448300Y-72399802D01*
X134443792Y-72396645D01*
X134443789Y-72396643D01*
X134331162Y-72317781D01*
X134260749Y-72268477D01*
X134255767Y-72266154D01*
X134255762Y-72266151D01*
X134058225Y-72174039D01*
X134058224Y-72174039D01*
X134053243Y-72171716D01*
X134047935Y-72170294D01*
X134047933Y-72170293D01*
X133837402Y-72113881D01*
X133837400Y-72113881D01*
X133832087Y-72112457D01*
X133604000Y-72092502D01*
X133375913Y-72112457D01*
X133370600Y-72113881D01*
X133370598Y-72113881D01*
X133160067Y-72170293D01*
X133160065Y-72170294D01*
X133154757Y-72171716D01*
X133149776Y-72174039D01*
X133149775Y-72174039D01*
X132952238Y-72266151D01*
X132952233Y-72266154D01*
X132947251Y-72268477D01*
X132876838Y-72317781D01*
X132764211Y-72396643D01*
X132764208Y-72396645D01*
X132759700Y-72399802D01*
X132698907Y-72460595D01*
X132636595Y-72494621D01*
X132609812Y-72497500D01*
X131039480Y-72497500D01*
X130971359Y-72477498D01*
X130950462Y-72460673D01*
X130942006Y-72452231D01*
X130846303Y-72356695D01*
X130817016Y-72338642D01*
X130701968Y-72267725D01*
X130701966Y-72267724D01*
X130695738Y-72263885D01*
X130615995Y-72237436D01*
X130534389Y-72210368D01*
X130534387Y-72210368D01*
X130527861Y-72208203D01*
X130521025Y-72207503D01*
X130521022Y-72207502D01*
X130477969Y-72203091D01*
X130423400Y-72197500D01*
X129672600Y-72197500D01*
X129669354Y-72197837D01*
X129669350Y-72197837D01*
X129573692Y-72207762D01*
X129573688Y-72207763D01*
X129566834Y-72208474D01*
X129560298Y-72210655D01*
X129560296Y-72210655D01*
X129463743Y-72242868D01*
X129399054Y-72264450D01*
X129248652Y-72357522D01*
X129243479Y-72362704D01*
X129185669Y-72420615D01*
X129123695Y-72482697D01*
X129121094Y-72486916D01*
X129063970Y-72527417D01*
X128993047Y-72530649D01*
X128931635Y-72495024D01*
X128925078Y-72487470D01*
X128921478Y-72481652D01*
X128796303Y-72356695D01*
X128767016Y-72338642D01*
X128651968Y-72267725D01*
X128651966Y-72267724D01*
X128645738Y-72263885D01*
X128565995Y-72237436D01*
X128484389Y-72210368D01*
X128484387Y-72210368D01*
X128477861Y-72208203D01*
X128471025Y-72207503D01*
X128471022Y-72207502D01*
X128427969Y-72203091D01*
X128373400Y-72197500D01*
X127622600Y-72197500D01*
X127619354Y-72197837D01*
X127619350Y-72197837D01*
X127523692Y-72207762D01*
X127523688Y-72207763D01*
X127516834Y-72208474D01*
X127510298Y-72210655D01*
X127510296Y-72210655D01*
X127413743Y-72242868D01*
X127349054Y-72264450D01*
X127198652Y-72357522D01*
X127193479Y-72362704D01*
X127095835Y-72460518D01*
X127033552Y-72494597D01*
X127006662Y-72497500D01*
X126978188Y-72497500D01*
X126910067Y-72477498D01*
X126889093Y-72460595D01*
X126828300Y-72399802D01*
X126823792Y-72396645D01*
X126823789Y-72396643D01*
X126711162Y-72317781D01*
X126640749Y-72268477D01*
X126635767Y-72266154D01*
X126635762Y-72266151D01*
X126438225Y-72174039D01*
X126438224Y-72174039D01*
X126433243Y-72171716D01*
X126427935Y-72170294D01*
X126427933Y-72170293D01*
X126217402Y-72113881D01*
X126217400Y-72113881D01*
X126212087Y-72112457D01*
X125984000Y-72092502D01*
X125755913Y-72112457D01*
X125750600Y-72113881D01*
X125750598Y-72113881D01*
X125540067Y-72170293D01*
X125540065Y-72170294D01*
X125534757Y-72171716D01*
X125529776Y-72174039D01*
X125529775Y-72174039D01*
X125332238Y-72266151D01*
X125332233Y-72266154D01*
X125327251Y-72268477D01*
X125256838Y-72317781D01*
X125144211Y-72396643D01*
X125144208Y-72396645D01*
X125139700Y-72399802D01*
X124977802Y-72561700D01*
X124974645Y-72566208D01*
X124974643Y-72566211D01*
X124860726Y-72728901D01*
X124805269Y-72773229D01*
X124734649Y-72780538D01*
X124671289Y-72748507D01*
X124635304Y-72687306D01*
X124637806Y-72620039D01*
X124637696Y-72620016D01*
X124637830Y-72619393D01*
X124637920Y-72616961D01*
X124639138Y-72613288D01*
X124642005Y-72599915D01*
X124651672Y-72505563D01*
X124652000Y-72499147D01*
X124652000Y-72399115D01*
X124647525Y-72383876D01*
X124646135Y-72382671D01*
X124638452Y-72381000D01*
X122254115Y-72381000D01*
X122238876Y-72385475D01*
X122237671Y-72386865D01*
X122236000Y-72394548D01*
X122236000Y-72499098D01*
X122236337Y-72505613D01*
X122246256Y-72601205D01*
X122249150Y-72614604D01*
X122300588Y-72768785D01*
X122306762Y-72781964D01*
X122392063Y-72919810D01*
X122401099Y-72931209D01*
X122515827Y-73045737D01*
X122524763Y-73052795D01*
X122565823Y-73110714D01*
X122569051Y-73181637D01*
X122533423Y-73243047D01*
X122525593Y-73249844D01*
X122519651Y-73253521D01*
X122394694Y-73378697D01*
X122301885Y-73529261D01*
X122299581Y-73536208D01*
X122250449Y-73684338D01*
X122246203Y-73697138D01*
X122235500Y-73801599D01*
X122235501Y-74552400D01*
X122246474Y-74658167D01*
X122269176Y-74726213D01*
X122271760Y-74797160D01*
X122235577Y-74858244D01*
X122172112Y-74890069D01*
X122101517Y-74882530D01*
X122074088Y-74866914D01*
X122065891Y-74860770D01*
X122065888Y-74860768D01*
X122058705Y-74855385D01*
X121922316Y-74804255D01*
X121860134Y-74797500D01*
X120963866Y-74797500D01*
X120901684Y-74804255D01*
X120840324Y-74827258D01*
X120821230Y-74834416D01*
X120750423Y-74839599D01*
X120732770Y-74834416D01*
X120713676Y-74827258D01*
X120652316Y-74804255D01*
X120590134Y-74797500D01*
X119693866Y-74797500D01*
X119631684Y-74804255D01*
X119570324Y-74827258D01*
X119551230Y-74834416D01*
X119480423Y-74839599D01*
X119462770Y-74834416D01*
X119443676Y-74827258D01*
X119382316Y-74804255D01*
X119320134Y-74797500D01*
X118423866Y-74797500D01*
X118361684Y-74804255D01*
X118300324Y-74827258D01*
X118281230Y-74834416D01*
X118210423Y-74839599D01*
X118192770Y-74834416D01*
X118173676Y-74827258D01*
X118112316Y-74804255D01*
X118050134Y-74797500D01*
X117153866Y-74797500D01*
X117091684Y-74804255D01*
X116955295Y-74855385D01*
X116838739Y-74942739D01*
X116751385Y-75059295D01*
X116700255Y-75195684D01*
X116693500Y-75257866D01*
X116693500Y-77168497D01*
X116673498Y-77236618D01*
X116656595Y-77257592D01*
X115747168Y-78167019D01*
X115732135Y-78179860D01*
X115720747Y-78188134D01*
X115716327Y-78193043D01*
X115674984Y-78238959D01*
X115670443Y-78243744D01*
X115655928Y-78258259D01*
X115653852Y-78260823D01*
X115643006Y-78274216D01*
X115638722Y-78279231D01*
X115597381Y-78325145D01*
X115597377Y-78325150D01*
X115592960Y-78330056D01*
X115589660Y-78335772D01*
X115589657Y-78335776D01*
X115585927Y-78342237D01*
X115574727Y-78358533D01*
X115565871Y-78369470D01*
X115539213Y-78421790D01*
X115534815Y-78430421D01*
X115531669Y-78436215D01*
X115497473Y-78495444D01*
X115495432Y-78501726D01*
X115495431Y-78501728D01*
X115493125Y-78508826D01*
X115485560Y-78527092D01*
X115479171Y-78539630D01*
X115477463Y-78546003D01*
X115477463Y-78546004D01*
X115461469Y-78605695D01*
X115459600Y-78612003D01*
X115438458Y-78677072D01*
X115437768Y-78683637D01*
X115437766Y-78683646D01*
X115436985Y-78691075D01*
X115433383Y-78710509D01*
X115431453Y-78717714D01*
X115429743Y-78724097D01*
X115429398Y-78730688D01*
X115429397Y-78730692D01*
X115427498Y-78766934D01*
X115403959Y-78833915D01*
X115390848Y-78849353D01*
X115282694Y-78957697D01*
X115242870Y-79022304D01*
X115194744Y-79100379D01*
X115189885Y-79108261D01*
X115182802Y-79129615D01*
X115139106Y-79261357D01*
X115134203Y-79276138D01*
X115123500Y-79380599D01*
X115123501Y-80131400D01*
X115134474Y-80237167D01*
X115136658Y-80243713D01*
X115162179Y-80320207D01*
X115190450Y-80404946D01*
X115283521Y-80555349D01*
X115408697Y-80680306D01*
X115412918Y-80682908D01*
X115453417Y-80740037D01*
X115456645Y-80810960D01*
X115421016Y-80872370D01*
X115413468Y-80878921D01*
X115407651Y-80882521D01*
X115282694Y-81007697D01*
X115189885Y-81158261D01*
X115181536Y-81183433D01*
X115136674Y-81318689D01*
X115134203Y-81326138D01*
X115123500Y-81430599D01*
X115123501Y-82181400D01*
X115134474Y-82287167D01*
X115136658Y-82293713D01*
X115178321Y-82418590D01*
X115190450Y-82454946D01*
X115283521Y-82605349D01*
X115288703Y-82610522D01*
X115386517Y-82708165D01*
X115420597Y-82770447D01*
X115423500Y-82797338D01*
X115423500Y-83341131D01*
X115403498Y-83409252D01*
X115349842Y-83455745D01*
X115279568Y-83465849D01*
X115231385Y-83448391D01*
X115205973Y-83432727D01*
X115205968Y-83432725D01*
X115199739Y-83428885D01*
X115039264Y-83375658D01*
X115038390Y-83375368D01*
X115038388Y-83375368D01*
X115031862Y-83373203D01*
X115025026Y-83372503D01*
X115025023Y-83372502D01*
X114981970Y-83368091D01*
X114927401Y-83362500D01*
X114430859Y-83362500D01*
X113926600Y-83362501D01*
X113820833Y-83373474D01*
X113814286Y-83375658D01*
X113814287Y-83375658D01*
X113659998Y-83427133D01*
X113659996Y-83427134D01*
X113653054Y-83429450D01*
X113502651Y-83522521D01*
X113377694Y-83647697D01*
X113373854Y-83653927D01*
X113289239Y-83791198D01*
X113284885Y-83798261D01*
X113282581Y-83805208D01*
X113236169Y-83945137D01*
X113229203Y-83966138D01*
X113218500Y-84070599D01*
X113218501Y-84821400D01*
X113229474Y-84927167D01*
X113231658Y-84933713D01*
X113282730Y-85086792D01*
X113285450Y-85094946D01*
X113378521Y-85245349D01*
X113503697Y-85370306D01*
X113507918Y-85372908D01*
X113548417Y-85430037D01*
X113551645Y-85500960D01*
X113516016Y-85562370D01*
X113508468Y-85568921D01*
X113502651Y-85572521D01*
X113377694Y-85697697D01*
X113331290Y-85772979D01*
X113289339Y-85841036D01*
X113284885Y-85848261D01*
X113229203Y-86016138D01*
X113218500Y-86120599D01*
X113218501Y-86871400D01*
X113229474Y-86977167D01*
X113231658Y-86983713D01*
X113282729Y-87136789D01*
X113285450Y-87144946D01*
X113378521Y-87295349D01*
X113383703Y-87300522D01*
X113481517Y-87398165D01*
X113515597Y-87460447D01*
X113518500Y-87487338D01*
X113518500Y-89868497D01*
X113498498Y-89936618D01*
X113481595Y-89957592D01*
X109388592Y-94050595D01*
X109326280Y-94084621D01*
X109299497Y-94087500D01*
X109015856Y-94087500D01*
X108947735Y-94067498D01*
X108922662Y-94046299D01*
X108921952Y-94045518D01*
X108879670Y-93999051D01*
X108784505Y-93923894D01*
X108708414Y-93863800D01*
X108708410Y-93863798D01*
X108704359Y-93860598D01*
X108692199Y-93853885D01*
X108590060Y-93797502D01*
X108508789Y-93752638D01*
X108503920Y-93750914D01*
X108503916Y-93750912D01*
X108303087Y-93679795D01*
X108303083Y-93679794D01*
X108298212Y-93678069D01*
X108293119Y-93677162D01*
X108293116Y-93677161D01*
X108083373Y-93639800D01*
X108083367Y-93639799D01*
X108078284Y-93638894D01*
X108004452Y-93637992D01*
X107860081Y-93636228D01*
X107860079Y-93636228D01*
X107854911Y-93636165D01*
X107634091Y-93669955D01*
X107421756Y-93739357D01*
X107391443Y-93755137D01*
X107232490Y-93837883D01*
X107223607Y-93842507D01*
X107219474Y-93845610D01*
X107219471Y-93845612D01*
X107049100Y-93973530D01*
X107044965Y-93976635D01*
X107041393Y-93980373D01*
X106902740Y-94125465D01*
X106890629Y-94138138D01*
X106887715Y-94142410D01*
X106887714Y-94142411D01*
X106802588Y-94267201D01*
X106747677Y-94312204D01*
X106677152Y-94320375D01*
X106613405Y-94289121D01*
X106576675Y-94228364D01*
X106572500Y-94196197D01*
X106572500Y-86940061D01*
X106592502Y-86871940D01*
X106646158Y-86825447D01*
X106716432Y-86815343D01*
X106774064Y-86839235D01*
X106853295Y-86898615D01*
X106989684Y-86949745D01*
X107051866Y-86956500D01*
X108848134Y-86956500D01*
X108910316Y-86949745D01*
X109046705Y-86898615D01*
X109163261Y-86811261D01*
X109250615Y-86694705D01*
X109301745Y-86558316D01*
X109308500Y-86496134D01*
X109308500Y-84699866D01*
X109301745Y-84637684D01*
X109250615Y-84501295D01*
X109163261Y-84384739D01*
X109046705Y-84297385D01*
X109011753Y-84284282D01*
X108928203Y-84252960D01*
X108871439Y-84210318D01*
X108846739Y-84143756D01*
X108861947Y-84074408D01*
X108883493Y-84045727D01*
X108964670Y-83964833D01*
X108988096Y-83941489D01*
X109047594Y-83858689D01*
X109115435Y-83764277D01*
X109118453Y-83760077D01*
X109122958Y-83750963D01*
X109215136Y-83564453D01*
X109215137Y-83564451D01*
X109217430Y-83559811D01*
X109257037Y-83429450D01*
X109280865Y-83351023D01*
X109280865Y-83351021D01*
X109282370Y-83346069D01*
X109311529Y-83124590D01*
X109312073Y-83102320D01*
X109313074Y-83061365D01*
X109313074Y-83061361D01*
X109313156Y-83058000D01*
X109294852Y-82835361D01*
X109240431Y-82618702D01*
X109151354Y-82413840D01*
X109030014Y-82226277D01*
X108879670Y-82061051D01*
X108875619Y-82057852D01*
X108875615Y-82057848D01*
X108708414Y-81925800D01*
X108708410Y-81925798D01*
X108704359Y-81922598D01*
X108663053Y-81899796D01*
X108613084Y-81849364D01*
X108598312Y-81779921D01*
X108623428Y-81713516D01*
X108650780Y-81686909D01*
X108694603Y-81655650D01*
X108829860Y-81559173D01*
X108988096Y-81401489D01*
X109047594Y-81318689D01*
X109115435Y-81224277D01*
X109118453Y-81220077D01*
X109136564Y-81183433D01*
X109215136Y-81024453D01*
X109215137Y-81024451D01*
X109217430Y-81019811D01*
X109282370Y-80806069D01*
X109311529Y-80584590D01*
X109312117Y-80560522D01*
X109313074Y-80521365D01*
X109313074Y-80521361D01*
X109313156Y-80518000D01*
X109294852Y-80295361D01*
X109240431Y-80078702D01*
X109151354Y-79873840D01*
X109030014Y-79686277D01*
X108879670Y-79521051D01*
X108875619Y-79517852D01*
X108875615Y-79517848D01*
X108708414Y-79385800D01*
X108708410Y-79385798D01*
X108704359Y-79382598D01*
X108508789Y-79274638D01*
X108503920Y-79272914D01*
X108503916Y-79272912D01*
X108303087Y-79201795D01*
X108303083Y-79201794D01*
X108298212Y-79200069D01*
X108293119Y-79199162D01*
X108293116Y-79199161D01*
X108083373Y-79161800D01*
X108083367Y-79161799D01*
X108078284Y-79160894D01*
X108004452Y-79159992D01*
X107860081Y-79158228D01*
X107860079Y-79158228D01*
X107854911Y-79158165D01*
X107634091Y-79191955D01*
X107421756Y-79261357D01*
X107223607Y-79364507D01*
X107219474Y-79367610D01*
X107219471Y-79367612D01*
X107195247Y-79385800D01*
X107044965Y-79498635D01*
X106890629Y-79660138D01*
X106887715Y-79664410D01*
X106887714Y-79664411D01*
X106802588Y-79789201D01*
X106747677Y-79834204D01*
X106677152Y-79842375D01*
X106613405Y-79811121D01*
X106576675Y-79750364D01*
X106572500Y-79718197D01*
X106572500Y-77098098D01*
X113219000Y-77098098D01*
X113219337Y-77104613D01*
X113229256Y-77200205D01*
X113232150Y-77213604D01*
X113283588Y-77367785D01*
X113289762Y-77380964D01*
X113375063Y-77518810D01*
X113384099Y-77530209D01*
X113498828Y-77644738D01*
X113510239Y-77653750D01*
X113648242Y-77738816D01*
X113661423Y-77744963D01*
X113815709Y-77796138D01*
X113829085Y-77799005D01*
X113923437Y-77808672D01*
X113929853Y-77809000D01*
X114154885Y-77809000D01*
X114170124Y-77804525D01*
X114171329Y-77803135D01*
X114173000Y-77795452D01*
X114173000Y-77790885D01*
X114681000Y-77790885D01*
X114685475Y-77806124D01*
X114686865Y-77807329D01*
X114694548Y-77809000D01*
X114924098Y-77809000D01*
X114930613Y-77808663D01*
X115026205Y-77798744D01*
X115039604Y-77795850D01*
X115193785Y-77744412D01*
X115206964Y-77738238D01*
X115344810Y-77652937D01*
X115356209Y-77643901D01*
X115470738Y-77529172D01*
X115479750Y-77517761D01*
X115564816Y-77379758D01*
X115570963Y-77366577D01*
X115622138Y-77212291D01*
X115625005Y-77198915D01*
X115634672Y-77104563D01*
X115635000Y-77098147D01*
X115635000Y-76998115D01*
X115630525Y-76982876D01*
X115629135Y-76981671D01*
X115621452Y-76980000D01*
X114699115Y-76980000D01*
X114683876Y-76984475D01*
X114682671Y-76985865D01*
X114681000Y-76993548D01*
X114681000Y-77790885D01*
X114173000Y-77790885D01*
X114173000Y-76998115D01*
X114168525Y-76982876D01*
X114167135Y-76981671D01*
X114159452Y-76980000D01*
X113237115Y-76980000D01*
X113221876Y-76984475D01*
X113220671Y-76985865D01*
X113219000Y-76993548D01*
X113219000Y-77098098D01*
X106572500Y-77098098D01*
X106572500Y-72462061D01*
X106592502Y-72393940D01*
X106646158Y-72347447D01*
X106716432Y-72337343D01*
X106774064Y-72361235D01*
X106853295Y-72420615D01*
X106989684Y-72471745D01*
X107051866Y-72478500D01*
X108848134Y-72478500D01*
X108910316Y-72471745D01*
X109046705Y-72420615D01*
X109163261Y-72333261D01*
X109250615Y-72216705D01*
X109281369Y-72134669D01*
X109289668Y-72112532D01*
X109332310Y-72055768D01*
X109398871Y-72031068D01*
X109414243Y-72030935D01*
X109419669Y-72031219D01*
X109426190Y-72032252D01*
X109494480Y-72028673D01*
X109501074Y-72028500D01*
X109521610Y-72028500D01*
X109524882Y-72028156D01*
X109524884Y-72028156D01*
X109542042Y-72026353D01*
X109548616Y-72025836D01*
X109610308Y-72022603D01*
X109610312Y-72022602D01*
X109616903Y-72022257D01*
X109623284Y-72020547D01*
X109623286Y-72020547D01*
X109630491Y-72018617D01*
X109649925Y-72015015D01*
X109657354Y-72014234D01*
X109657363Y-72014232D01*
X109663928Y-72013542D01*
X109728997Y-71992400D01*
X109735299Y-71990533D01*
X109801370Y-71972829D01*
X109813908Y-71966440D01*
X109832174Y-71958875D01*
X109839272Y-71956569D01*
X109839274Y-71956568D01*
X109845556Y-71954527D01*
X109852031Y-71950789D01*
X109904782Y-71920333D01*
X109910579Y-71917185D01*
X109924741Y-71909969D01*
X109971530Y-71886129D01*
X109982467Y-71877273D01*
X109998763Y-71866073D01*
X110005224Y-71862343D01*
X110005228Y-71862340D01*
X110010944Y-71859040D01*
X110015850Y-71854623D01*
X110015855Y-71854619D01*
X110061769Y-71813278D01*
X110066784Y-71808994D01*
X110080177Y-71798148D01*
X110082741Y-71796072D01*
X110097256Y-71781557D01*
X110102041Y-71777016D01*
X110147957Y-71735673D01*
X110152866Y-71731253D01*
X110161140Y-71719865D01*
X110173981Y-71704832D01*
X113003405Y-68875408D01*
X113065717Y-68841382D01*
X113136532Y-68846447D01*
X113193368Y-68888994D01*
X113218179Y-68955514D01*
X113218500Y-68964503D01*
X113218501Y-69283809D01*
X113218501Y-69581400D01*
X113229474Y-69687167D01*
X113285450Y-69854946D01*
X113378521Y-70005349D01*
X113503697Y-70130306D01*
X113507918Y-70132908D01*
X113548417Y-70190037D01*
X113551645Y-70260960D01*
X113516016Y-70322370D01*
X113508468Y-70328921D01*
X113502651Y-70332521D01*
X113377694Y-70457697D01*
X113284885Y-70608261D01*
X113282581Y-70615208D01*
X113243107Y-70734220D01*
X113229203Y-70776138D01*
X113218500Y-70880599D01*
X113218501Y-71631400D01*
X113229474Y-71737167D01*
X113231658Y-71743713D01*
X113282730Y-71896792D01*
X113285450Y-71904946D01*
X113378521Y-72055349D01*
X113383701Y-72060520D01*
X113396659Y-72073455D01*
X113430739Y-72135737D01*
X113425736Y-72206557D01*
X113406592Y-72240634D01*
X113369932Y-72287138D01*
X113366351Y-72291681D01*
X113363662Y-72296792D01*
X113363660Y-72296795D01*
X113316272Y-72386865D01*
X113271492Y-72471978D01*
X113211078Y-72666543D01*
X113187132Y-72868859D01*
X113200457Y-73072151D01*
X113250605Y-73269610D01*
X113335898Y-73454624D01*
X113453479Y-73620997D01*
X113457614Y-73625025D01*
X113461369Y-73629422D01*
X113459241Y-73631240D01*
X113488379Y-73682689D01*
X113484412Y-73753575D01*
X113454863Y-73800393D01*
X113377694Y-73877697D01*
X113284885Y-74028261D01*
X113275991Y-74055075D01*
X113234574Y-74179946D01*
X113229203Y-74196138D01*
X113218500Y-74300599D01*
X113218501Y-75051400D01*
X113229474Y-75157167D01*
X113231658Y-75163713D01*
X113282730Y-75316792D01*
X113285450Y-75324946D01*
X113378521Y-75475349D01*
X113503697Y-75600306D01*
X113508236Y-75603104D01*
X113548824Y-75660356D01*
X113552053Y-75731279D01*
X113516425Y-75792689D01*
X113507931Y-75800062D01*
X113497788Y-75808101D01*
X113383262Y-75922828D01*
X113374250Y-75934239D01*
X113289184Y-76072242D01*
X113283037Y-76085423D01*
X113231862Y-76239709D01*
X113228995Y-76253085D01*
X113219328Y-76347437D01*
X113219000Y-76353854D01*
X113219000Y-76453885D01*
X113223475Y-76469124D01*
X113224865Y-76470329D01*
X113232548Y-76472000D01*
X115616885Y-76472000D01*
X115632124Y-76467525D01*
X115633329Y-76466135D01*
X115635000Y-76458452D01*
X115635000Y-76353902D01*
X115634663Y-76347387D01*
X115624744Y-76251795D01*
X115621850Y-76238396D01*
X115570412Y-76084215D01*
X115564238Y-76071036D01*
X115478937Y-75933190D01*
X115469901Y-75921791D01*
X115355173Y-75807263D01*
X115346237Y-75800205D01*
X115305177Y-75742286D01*
X115301949Y-75671363D01*
X115337577Y-75609953D01*
X115345407Y-75603156D01*
X115351349Y-75599479D01*
X115476306Y-75474303D01*
X115556367Y-75344420D01*
X115565275Y-75329969D01*
X115565276Y-75329967D01*
X115569115Y-75323739D01*
X115614043Y-75188285D01*
X115622632Y-75162390D01*
X115622632Y-75162388D01*
X115624797Y-75155862D01*
X115635500Y-75051401D01*
X115635499Y-74300600D01*
X115624526Y-74194833D01*
X115591062Y-74094530D01*
X115570867Y-74033998D01*
X115570866Y-74033996D01*
X115568550Y-74027054D01*
X115475479Y-73876651D01*
X115459024Y-73860225D01*
X115372483Y-73773835D01*
X115338403Y-73711553D01*
X115335500Y-73684662D01*
X115335500Y-73317113D01*
X115342187Y-73276612D01*
X115380634Y-73163352D01*
X115380635Y-73163347D01*
X115382490Y-73157883D01*
X115411723Y-72956263D01*
X115413249Y-72898000D01*
X115401376Y-72768785D01*
X115395137Y-72700880D01*
X115395136Y-72700877D01*
X115394608Y-72695126D01*
X115392403Y-72687306D01*
X115340231Y-72502323D01*
X115335500Y-72468121D01*
X115335500Y-72247481D01*
X115355502Y-72179360D01*
X115372322Y-72158469D01*
X115476306Y-72054303D01*
X115539842Y-71951229D01*
X115565275Y-71909969D01*
X115565276Y-71909967D01*
X115569115Y-71903739D01*
X115618482Y-71754902D01*
X115622632Y-71742390D01*
X115622632Y-71742388D01*
X115624797Y-71735862D01*
X115625817Y-71725913D01*
X115634681Y-71639396D01*
X115635500Y-71631401D01*
X115635499Y-70880600D01*
X115624526Y-70774833D01*
X115589150Y-70668800D01*
X115570867Y-70613998D01*
X115570866Y-70613996D01*
X115568550Y-70607054D01*
X115475479Y-70456651D01*
X115350303Y-70331694D01*
X115346082Y-70329092D01*
X115305583Y-70271963D01*
X115302355Y-70201040D01*
X115337984Y-70139630D01*
X115345532Y-70133079D01*
X115351349Y-70129479D01*
X115476306Y-70004303D01*
X115522487Y-69929384D01*
X115575260Y-69881891D01*
X115629747Y-69869500D01*
X115658055Y-69869500D01*
X115728057Y-69890735D01*
X115752009Y-69906739D01*
X115800803Y-69939342D01*
X115806106Y-69941620D01*
X115806109Y-69941622D01*
X115962926Y-70008996D01*
X115987987Y-70019763D01*
X116060817Y-70036243D01*
X116181055Y-70063450D01*
X116181060Y-70063451D01*
X116186692Y-70064725D01*
X116192463Y-70064952D01*
X116192465Y-70064952D01*
X116255470Y-70067427D01*
X116390263Y-70072723D01*
X116497853Y-70057123D01*
X116549420Y-70049647D01*
X116619706Y-70059667D01*
X116673417Y-70106097D01*
X116693500Y-70174343D01*
X116693500Y-71554134D01*
X116700255Y-71616316D01*
X116751385Y-71752705D01*
X116838739Y-71869261D01*
X116955295Y-71956615D01*
X117091684Y-72007745D01*
X117153866Y-72014500D01*
X118050134Y-72014500D01*
X118112316Y-72007745D01*
X118192770Y-71977584D01*
X118263577Y-71972401D01*
X118281229Y-71977584D01*
X118361684Y-72007745D01*
X118423866Y-72014500D01*
X119320134Y-72014500D01*
X119382316Y-72007745D01*
X119462770Y-71977584D01*
X119533577Y-71972401D01*
X119551229Y-71977584D01*
X119631684Y-72007745D01*
X119693866Y-72014500D01*
X120590134Y-72014500D01*
X120652316Y-72007745D01*
X120733483Y-71977317D01*
X120804289Y-71972134D01*
X120821942Y-71977317D01*
X120894394Y-72004478D01*
X120909649Y-72008105D01*
X120960514Y-72013631D01*
X120967328Y-72014000D01*
X121139885Y-72014000D01*
X121155124Y-72009525D01*
X121156329Y-72008135D01*
X121158000Y-72000452D01*
X121158000Y-71995884D01*
X121666000Y-71995884D01*
X121670475Y-72011123D01*
X121671865Y-72012328D01*
X121679548Y-72013999D01*
X121856669Y-72013999D01*
X121863490Y-72013629D01*
X121914352Y-72008105D01*
X121929604Y-72004479D01*
X122050054Y-71959324D01*
X122065644Y-71950789D01*
X122141380Y-71894028D01*
X122207887Y-71869181D01*
X122243727Y-71871734D01*
X122249547Y-71873000D01*
X123171885Y-71873000D01*
X123187124Y-71868525D01*
X123188329Y-71867135D01*
X123190000Y-71859452D01*
X123190000Y-71854885D01*
X123698000Y-71854885D01*
X123702475Y-71870124D01*
X123703865Y-71871329D01*
X123711548Y-71873000D01*
X124633885Y-71873000D01*
X124649124Y-71868525D01*
X124650329Y-71867135D01*
X124652000Y-71859452D01*
X124652000Y-71754902D01*
X124651663Y-71748387D01*
X124641744Y-71652795D01*
X124638850Y-71639396D01*
X124587412Y-71485215D01*
X124581238Y-71472036D01*
X124495937Y-71334190D01*
X124486901Y-71322791D01*
X124372172Y-71208262D01*
X124360761Y-71199250D01*
X124222758Y-71114184D01*
X124209577Y-71108037D01*
X124055291Y-71056862D01*
X124041915Y-71053995D01*
X123947563Y-71044328D01*
X123941146Y-71044000D01*
X123716115Y-71044000D01*
X123700876Y-71048475D01*
X123699671Y-71049865D01*
X123698000Y-71057548D01*
X123698000Y-71854885D01*
X123190000Y-71854885D01*
X123190000Y-71062115D01*
X123185525Y-71046876D01*
X123184135Y-71045671D01*
X123176452Y-71044000D01*
X122946902Y-71044000D01*
X122940387Y-71044337D01*
X122844795Y-71054256D01*
X122831396Y-71057150D01*
X122677215Y-71108588D01*
X122664036Y-71114762D01*
X122526191Y-71200062D01*
X122524264Y-71201590D01*
X122522699Y-71202223D01*
X122519964Y-71203916D01*
X122519674Y-71203448D01*
X122458454Y-71228227D01*
X122388690Y-71215056D01*
X122337121Y-71166259D01*
X122320000Y-71102844D01*
X122320000Y-71053115D01*
X122315525Y-71037876D01*
X122314135Y-71036671D01*
X122306452Y-71035000D01*
X121684115Y-71035000D01*
X121668876Y-71039475D01*
X121667671Y-71040865D01*
X121666000Y-71048548D01*
X121666000Y-71995884D01*
X121158000Y-71995884D01*
X121158000Y-69566116D01*
X121153525Y-69550877D01*
X121152133Y-69549671D01*
X121149716Y-69549145D01*
X121087404Y-69515120D01*
X121053379Y-69452808D01*
X121050500Y-69426025D01*
X121050500Y-69201542D01*
X121070502Y-69133421D01*
X121124158Y-69086928D01*
X121194432Y-69076824D01*
X121259012Y-69106318D01*
X121264421Y-69111288D01*
X121342270Y-69187125D01*
X121342276Y-69187130D01*
X121346410Y-69191157D01*
X121351206Y-69194362D01*
X121351209Y-69194364D01*
X121419134Y-69239750D01*
X121515803Y-69304342D01*
X121521105Y-69306620D01*
X121521118Y-69306627D01*
X121625681Y-69351551D01*
X121680374Y-69396819D01*
X121701911Y-69464470D01*
X121683454Y-69533025D01*
X121671167Y-69549831D01*
X121667671Y-69553865D01*
X121666000Y-69561548D01*
X121666000Y-70508885D01*
X121670475Y-70524124D01*
X121671865Y-70525329D01*
X121679548Y-70527000D01*
X122301884Y-70527000D01*
X122317123Y-70522525D01*
X122318328Y-70521135D01*
X122319999Y-70513452D01*
X122319999Y-70081312D01*
X141089568Y-70081312D01*
X141106533Y-70375541D01*
X141107358Y-70379746D01*
X141107359Y-70379754D01*
X141135920Y-70525329D01*
X141163272Y-70664745D01*
X141164659Y-70668795D01*
X141164660Y-70668800D01*
X141237175Y-70880599D01*
X141258736Y-70943572D01*
X141260658Y-70947393D01*
X141260659Y-70947396D01*
X141307670Y-71040865D01*
X141391159Y-71206864D01*
X141558088Y-71449748D01*
X141560975Y-71452921D01*
X141560976Y-71452922D01*
X141590361Y-71485215D01*
X141756437Y-71667730D01*
X141759726Y-71670480D01*
X141979241Y-71854025D01*
X141979246Y-71854029D01*
X141982533Y-71856777D01*
X142067329Y-71909969D01*
X142228555Y-72011106D01*
X142228559Y-72011108D01*
X142232195Y-72013389D01*
X142500801Y-72134669D01*
X142504921Y-72135889D01*
X142504920Y-72135889D01*
X142779269Y-72217155D01*
X142779273Y-72217156D01*
X142783382Y-72218373D01*
X142787619Y-72219021D01*
X142787622Y-72219022D01*
X142928855Y-72240634D01*
X143074708Y-72262953D01*
X143224769Y-72265310D01*
X143365098Y-72267515D01*
X143365104Y-72267515D01*
X143369389Y-72267582D01*
X143373641Y-72267067D01*
X143373649Y-72267067D01*
X143600870Y-72239569D01*
X143661971Y-72232175D01*
X143666120Y-72231087D01*
X143666123Y-72231086D01*
X143942891Y-72158478D01*
X143947042Y-72157389D01*
X144219325Y-72044605D01*
X144366034Y-71958875D01*
X144470079Y-71898076D01*
X144470080Y-71898075D01*
X144473782Y-71895912D01*
X144705706Y-71714061D01*
X144788927Y-71628184D01*
X144907820Y-71505495D01*
X144910803Y-71502417D01*
X144913336Y-71498969D01*
X144913340Y-71498964D01*
X145082742Y-71268351D01*
X145085280Y-71264896D01*
X145112341Y-71215056D01*
X145223856Y-71009670D01*
X145223857Y-71009668D01*
X145225906Y-71005894D01*
X145330082Y-70730202D01*
X145380770Y-70508885D01*
X145394919Y-70447107D01*
X145394920Y-70447103D01*
X145395877Y-70442923D01*
X145402274Y-70371254D01*
X145421856Y-70151837D01*
X145422076Y-70149373D01*
X145422551Y-70104000D01*
X145418846Y-70049647D01*
X145402798Y-69814242D01*
X145402797Y-69814236D01*
X145402506Y-69809965D01*
X145379791Y-69700276D01*
X145352007Y-69566116D01*
X145342741Y-69521371D01*
X145244362Y-69243559D01*
X145178977Y-69116877D01*
X145111155Y-68985475D01*
X145111155Y-68985474D01*
X145109190Y-68981668D01*
X145097127Y-68964503D01*
X144990190Y-68812348D01*
X144939726Y-68740545D01*
X144819930Y-68611629D01*
X144742027Y-68527795D01*
X144742024Y-68527792D01*
X144739106Y-68524652D01*
X144511042Y-68337984D01*
X144259754Y-68183995D01*
X144255818Y-68182267D01*
X143993821Y-68067258D01*
X143993818Y-68067257D01*
X143989893Y-68065534D01*
X143706451Y-67984793D01*
X143702209Y-67984189D01*
X143702203Y-67984188D01*
X143418925Y-67943872D01*
X143414674Y-67943267D01*
X143259275Y-67942453D01*
X143124247Y-67941746D01*
X143124241Y-67941746D01*
X143119961Y-67941724D01*
X143115716Y-67942283D01*
X143115714Y-67942283D01*
X143076453Y-67947452D01*
X142827765Y-67980193D01*
X142543494Y-68057960D01*
X142539546Y-68059644D01*
X142276358Y-68171903D01*
X142276354Y-68171905D01*
X142272406Y-68173589D01*
X142222049Y-68203727D01*
X142023202Y-68322734D01*
X142023198Y-68322737D01*
X142019520Y-68324938D01*
X142016177Y-68327616D01*
X142016173Y-68327619D01*
X141964333Y-68369151D01*
X141789514Y-68509208D01*
X141786570Y-68512310D01*
X141786566Y-68512314D01*
X141716752Y-68585883D01*
X141586644Y-68722988D01*
X141414664Y-68962323D01*
X141276757Y-69222784D01*
X141268157Y-69246284D01*
X141206590Y-69414527D01*
X141175475Y-69499552D01*
X141112691Y-69787504D01*
X141112355Y-69791774D01*
X141090856Y-70064952D01*
X141089568Y-70081312D01*
X122319999Y-70081312D01*
X122319999Y-70011331D01*
X122319629Y-70004510D01*
X122314105Y-69953648D01*
X122310479Y-69938396D01*
X122265324Y-69817946D01*
X122256786Y-69802351D01*
X122180285Y-69700276D01*
X122167725Y-69687716D01*
X122120924Y-69652641D01*
X122078408Y-69595782D01*
X122073382Y-69524963D01*
X122107442Y-69462670D01*
X122169772Y-69428679D01*
X122178408Y-69427118D01*
X122301169Y-69409319D01*
X122301175Y-69409318D01*
X122306883Y-69408490D01*
X122312347Y-69406635D01*
X122312352Y-69406634D01*
X122494327Y-69344862D01*
X122494332Y-69344860D01*
X122499799Y-69343004D01*
X122677551Y-69243458D01*
X122834186Y-69113186D01*
X122964458Y-68956551D01*
X123064004Y-68778799D01*
X123065860Y-68773332D01*
X123065862Y-68773327D01*
X123127634Y-68591352D01*
X123127635Y-68591347D01*
X123129490Y-68585883D01*
X123132434Y-68565579D01*
X123162005Y-68501034D01*
X123165714Y-68497258D01*
X123166253Y-68496866D01*
X123212007Y-68446051D01*
X123216548Y-68441266D01*
X123231072Y-68426742D01*
X123244023Y-68410749D01*
X123248269Y-68405778D01*
X123294040Y-68354944D01*
X123297341Y-68349227D01*
X123301074Y-68342762D01*
X123312271Y-68326471D01*
X123316971Y-68320667D01*
X123316975Y-68320661D01*
X123321129Y-68315531D01*
X123352189Y-68254572D01*
X123355336Y-68248777D01*
X123386223Y-68195279D01*
X123386223Y-68195278D01*
X123389527Y-68189556D01*
X123391896Y-68182267D01*
X123393875Y-68176174D01*
X123401441Y-68157907D01*
X123404832Y-68151252D01*
X123407829Y-68145370D01*
X123412008Y-68129777D01*
X123425529Y-68079315D01*
X123427402Y-68072991D01*
X123435086Y-68049342D01*
X123475905Y-67990610D01*
X123479349Y-67988479D01*
X123486489Y-67981327D01*
X123599134Y-67868484D01*
X123604306Y-67863303D01*
X123686166Y-67730502D01*
X123693275Y-67718969D01*
X123693276Y-67718967D01*
X123697115Y-67712739D01*
X123742888Y-67574738D01*
X123750632Y-67551390D01*
X123750632Y-67551388D01*
X123752797Y-67544862D01*
X123756934Y-67504490D01*
X123763172Y-67443599D01*
X123763500Y-67440401D01*
X123763499Y-66802000D01*
X124670502Y-66802000D01*
X124690457Y-67030087D01*
X124691881Y-67035400D01*
X124691881Y-67035402D01*
X124738373Y-67208909D01*
X124749716Y-67251243D01*
X124752039Y-67256224D01*
X124752039Y-67256225D01*
X124844151Y-67453762D01*
X124844154Y-67453767D01*
X124846477Y-67458749D01*
X124977802Y-67646300D01*
X125139700Y-67808198D01*
X125144208Y-67811355D01*
X125144211Y-67811357D01*
X125218398Y-67863303D01*
X125327251Y-67939523D01*
X125332233Y-67941846D01*
X125332238Y-67941849D01*
X125527847Y-68033062D01*
X125534757Y-68036284D01*
X125540065Y-68037706D01*
X125540067Y-68037707D01*
X125750598Y-68094119D01*
X125750600Y-68094119D01*
X125755913Y-68095543D01*
X125984000Y-68115498D01*
X126212087Y-68095543D01*
X126217400Y-68094119D01*
X126217402Y-68094119D01*
X126427933Y-68037707D01*
X126427935Y-68037706D01*
X126433243Y-68036284D01*
X126440153Y-68033062D01*
X126635762Y-67941849D01*
X126635767Y-67941846D01*
X126640749Y-67939523D01*
X126749602Y-67863303D01*
X126823789Y-67811357D01*
X126823792Y-67811355D01*
X126828300Y-67808198D01*
X126889093Y-67747405D01*
X126951405Y-67713379D01*
X126978188Y-67710500D01*
X127024520Y-67710500D01*
X127092641Y-67730502D01*
X127113536Y-67747325D01*
X127217697Y-67851305D01*
X127223927Y-67855145D01*
X127223928Y-67855146D01*
X127361090Y-67939694D01*
X127368262Y-67944115D01*
X127419166Y-67960999D01*
X127529611Y-67997632D01*
X127529613Y-67997632D01*
X127536139Y-67999797D01*
X127542975Y-68000497D01*
X127542978Y-68000498D01*
X127586031Y-68004909D01*
X127640600Y-68010500D01*
X128391400Y-68010500D01*
X128394646Y-68010163D01*
X128394650Y-68010163D01*
X128490308Y-68000238D01*
X128490312Y-68000237D01*
X128497166Y-67999526D01*
X128503702Y-67997345D01*
X128503704Y-67997345D01*
X128653250Y-67947452D01*
X128664946Y-67943550D01*
X128815348Y-67850478D01*
X128940305Y-67725303D01*
X128942906Y-67721084D01*
X129000030Y-67680583D01*
X129070953Y-67677351D01*
X129132365Y-67712976D01*
X129138922Y-67720530D01*
X129142522Y-67726348D01*
X129267697Y-67851305D01*
X129273927Y-67855145D01*
X129273928Y-67855146D01*
X129411090Y-67939694D01*
X129418262Y-67944115D01*
X129469166Y-67960999D01*
X129579611Y-67997632D01*
X129579613Y-67997632D01*
X129586139Y-67999797D01*
X129592975Y-68000497D01*
X129592978Y-68000498D01*
X129636031Y-68004909D01*
X129690600Y-68010500D01*
X130441400Y-68010500D01*
X130444646Y-68010163D01*
X130444650Y-68010163D01*
X130540308Y-68000238D01*
X130540312Y-68000237D01*
X130547166Y-67999526D01*
X130553702Y-67997345D01*
X130553704Y-67997345D01*
X130703250Y-67947452D01*
X130714946Y-67943550D01*
X130865348Y-67850478D01*
X130907029Y-67808724D01*
X130968165Y-67747482D01*
X131030448Y-67713403D01*
X131057338Y-67710500D01*
X132609812Y-67710500D01*
X132677933Y-67730502D01*
X132698907Y-67747405D01*
X132759700Y-67808198D01*
X132764208Y-67811355D01*
X132764211Y-67811357D01*
X132838398Y-67863303D01*
X132947251Y-67939523D01*
X132952233Y-67941846D01*
X132952238Y-67941849D01*
X133147847Y-68033062D01*
X133154757Y-68036284D01*
X133160065Y-68037706D01*
X133160067Y-68037707D01*
X133370598Y-68094119D01*
X133370600Y-68094119D01*
X133375913Y-68095543D01*
X133604000Y-68115498D01*
X133832087Y-68095543D01*
X133837400Y-68094119D01*
X133837402Y-68094119D01*
X134047933Y-68037707D01*
X134047935Y-68037706D01*
X134053243Y-68036284D01*
X134060153Y-68033062D01*
X134255762Y-67941849D01*
X134255767Y-67941846D01*
X134260749Y-67939523D01*
X134369602Y-67863303D01*
X134443789Y-67811357D01*
X134443792Y-67811355D01*
X134448300Y-67808198D01*
X134610198Y-67646300D01*
X134741523Y-67458749D01*
X134743846Y-67453767D01*
X134743849Y-67453762D01*
X134835961Y-67256225D01*
X134835961Y-67256224D01*
X134838284Y-67251243D01*
X134849628Y-67208909D01*
X134896119Y-67035402D01*
X134896119Y-67035400D01*
X134897543Y-67030087D01*
X134917498Y-66802000D01*
X134913299Y-66754000D01*
X135743888Y-66754000D01*
X135762303Y-66964481D01*
X135763727Y-66969795D01*
X135763727Y-66969796D01*
X135812904Y-67153327D01*
X135816987Y-67168567D01*
X135819309Y-67173548D01*
X135819310Y-67173549D01*
X135890513Y-67326243D01*
X135906280Y-67360056D01*
X136027468Y-67533131D01*
X136176869Y-67682532D01*
X136349944Y-67803720D01*
X136354922Y-67806041D01*
X136354925Y-67806043D01*
X136523616Y-67884705D01*
X136541433Y-67893013D01*
X136546741Y-67894435D01*
X136546743Y-67894436D01*
X136740204Y-67946273D01*
X136745519Y-67947697D01*
X136956000Y-67966112D01*
X137166481Y-67947697D01*
X137171796Y-67946273D01*
X137365257Y-67894436D01*
X137365259Y-67894435D01*
X137370567Y-67893013D01*
X137388384Y-67884705D01*
X137557075Y-67806043D01*
X137557078Y-67806041D01*
X137562056Y-67803720D01*
X137735131Y-67682532D01*
X137884532Y-67533131D01*
X137971628Y-67408744D01*
X138002565Y-67364562D01*
X138002566Y-67364561D01*
X138005720Y-67360056D01*
X138006004Y-67360255D01*
X138055271Y-67313284D01*
X138124986Y-67299852D01*
X138190895Y-67326243D01*
X138232074Y-67384078D01*
X138239001Y-67425281D01*
X138239001Y-67497669D01*
X138239371Y-67504490D01*
X138244895Y-67555352D01*
X138248521Y-67570604D01*
X138293676Y-67691054D01*
X138302214Y-67706649D01*
X138378715Y-67808724D01*
X138391276Y-67821285D01*
X138493351Y-67897786D01*
X138508946Y-67906324D01*
X138629394Y-67951478D01*
X138644649Y-67955105D01*
X138695514Y-67960631D01*
X138702328Y-67961000D01*
X139173885Y-67961000D01*
X139189124Y-67956525D01*
X139190329Y-67955135D01*
X139192000Y-67947452D01*
X139192000Y-67942884D01*
X139700000Y-67942884D01*
X139704475Y-67958123D01*
X139705865Y-67959328D01*
X139713548Y-67960999D01*
X140189669Y-67960999D01*
X140196490Y-67960629D01*
X140247352Y-67955105D01*
X140262604Y-67951479D01*
X140383054Y-67906324D01*
X140398649Y-67897786D01*
X140500724Y-67821285D01*
X140513285Y-67808724D01*
X140589786Y-67706649D01*
X140598324Y-67691054D01*
X140643478Y-67570606D01*
X140647105Y-67555351D01*
X140652631Y-67504486D01*
X140653000Y-67497672D01*
X140653000Y-67026115D01*
X140648525Y-67010876D01*
X140647135Y-67009671D01*
X140639452Y-67008000D01*
X139718115Y-67008000D01*
X139702876Y-67012475D01*
X139701671Y-67013865D01*
X139700000Y-67021548D01*
X139700000Y-67942884D01*
X139192000Y-67942884D01*
X139192000Y-66481885D01*
X139700000Y-66481885D01*
X139704475Y-66497124D01*
X139705865Y-66498329D01*
X139713548Y-66500000D01*
X140634884Y-66500000D01*
X140650123Y-66495525D01*
X140651328Y-66494135D01*
X140652999Y-66486452D01*
X140652999Y-66010331D01*
X140652629Y-66003510D01*
X140647105Y-65952648D01*
X140643479Y-65937396D01*
X140598324Y-65816946D01*
X140589786Y-65801351D01*
X140513285Y-65699276D01*
X140500724Y-65686715D01*
X140398649Y-65610214D01*
X140383054Y-65601676D01*
X140262606Y-65556522D01*
X140247351Y-65552895D01*
X140196486Y-65547369D01*
X140189672Y-65547000D01*
X139718115Y-65547000D01*
X139702876Y-65551475D01*
X139701671Y-65552865D01*
X139700000Y-65560548D01*
X139700000Y-66481885D01*
X139192000Y-66481885D01*
X139192000Y-65565116D01*
X139187525Y-65549877D01*
X139186135Y-65548672D01*
X139178452Y-65547001D01*
X138702331Y-65547001D01*
X138695510Y-65547371D01*
X138644648Y-65552895D01*
X138629396Y-65556521D01*
X138508946Y-65601676D01*
X138493351Y-65610214D01*
X138391276Y-65686715D01*
X138378715Y-65699276D01*
X138302214Y-65801351D01*
X138293676Y-65816946D01*
X138248522Y-65937394D01*
X138244895Y-65952649D01*
X138239369Y-66003514D01*
X138239000Y-66010328D01*
X138239000Y-66082718D01*
X138218998Y-66150839D01*
X138165342Y-66197332D01*
X138095068Y-66207436D01*
X138030488Y-66177942D01*
X138005722Y-66147949D01*
X138005720Y-66147944D01*
X137884532Y-65974869D01*
X137735131Y-65825468D01*
X137562056Y-65704280D01*
X137557078Y-65701959D01*
X137557075Y-65701957D01*
X137375549Y-65617310D01*
X137375548Y-65617309D01*
X137370567Y-65614987D01*
X137365259Y-65613565D01*
X137365257Y-65613564D01*
X137171796Y-65561727D01*
X137171795Y-65561727D01*
X137166481Y-65560303D01*
X136956000Y-65541888D01*
X136745519Y-65560303D01*
X136740205Y-65561727D01*
X136740204Y-65561727D01*
X136546743Y-65613564D01*
X136546741Y-65613565D01*
X136541433Y-65614987D01*
X136536452Y-65617309D01*
X136536451Y-65617310D01*
X136354925Y-65701957D01*
X136354922Y-65701959D01*
X136349944Y-65704280D01*
X136176869Y-65825468D01*
X136027468Y-65974869D01*
X135906280Y-66147944D01*
X135903959Y-66152922D01*
X135903957Y-66152925D01*
X135883250Y-66197332D01*
X135816987Y-66339433D01*
X135815565Y-66344741D01*
X135815564Y-66344743D01*
X135777594Y-66486452D01*
X135762303Y-66543519D01*
X135743888Y-66754000D01*
X134913299Y-66754000D01*
X134897543Y-66573913D01*
X134887975Y-66538204D01*
X134839707Y-66358067D01*
X134839706Y-66358065D01*
X134838284Y-66352757D01*
X134780909Y-66229715D01*
X134743849Y-66150238D01*
X134743846Y-66150233D01*
X134741523Y-66145251D01*
X134662304Y-66032115D01*
X134613357Y-65962211D01*
X134613355Y-65962208D01*
X134610198Y-65957700D01*
X134448300Y-65795802D01*
X134443792Y-65792645D01*
X134443789Y-65792643D01*
X134267164Y-65668969D01*
X134260749Y-65664477D01*
X134255767Y-65662154D01*
X134255762Y-65662151D01*
X134058225Y-65570039D01*
X134058224Y-65570039D01*
X134053243Y-65567716D01*
X134047935Y-65566294D01*
X134047933Y-65566293D01*
X133837402Y-65509881D01*
X133837400Y-65509881D01*
X133832087Y-65508457D01*
X133604000Y-65488502D01*
X133375913Y-65508457D01*
X133370600Y-65509881D01*
X133370598Y-65509881D01*
X133160067Y-65566293D01*
X133160065Y-65566294D01*
X133154757Y-65567716D01*
X133149776Y-65570039D01*
X133149775Y-65570039D01*
X132952238Y-65662151D01*
X132952233Y-65662154D01*
X132947251Y-65664477D01*
X132940836Y-65668969D01*
X132764211Y-65792643D01*
X132764208Y-65792645D01*
X132759700Y-65795802D01*
X132698907Y-65856595D01*
X132636595Y-65890621D01*
X132609812Y-65893500D01*
X131057480Y-65893500D01*
X130989359Y-65873498D01*
X130968462Y-65856673D01*
X130945560Y-65833810D01*
X130864303Y-65752695D01*
X130728475Y-65668969D01*
X130719968Y-65663725D01*
X130719966Y-65663724D01*
X130713738Y-65659885D01*
X130633995Y-65633436D01*
X130552389Y-65606368D01*
X130552387Y-65606368D01*
X130545861Y-65604203D01*
X130539025Y-65603503D01*
X130539022Y-65603502D01*
X130495969Y-65599091D01*
X130441400Y-65593500D01*
X129690600Y-65593500D01*
X129687354Y-65593837D01*
X129687350Y-65593837D01*
X129591692Y-65603762D01*
X129591688Y-65603763D01*
X129584834Y-65604474D01*
X129578298Y-65606655D01*
X129578296Y-65606655D01*
X129533528Y-65621591D01*
X129417054Y-65660450D01*
X129266652Y-65753522D01*
X129141695Y-65878697D01*
X129139094Y-65882916D01*
X129081970Y-65923417D01*
X129011047Y-65926649D01*
X128949635Y-65891024D01*
X128943078Y-65883470D01*
X128939478Y-65877652D01*
X128814303Y-65752695D01*
X128678475Y-65668969D01*
X128669968Y-65663725D01*
X128669966Y-65663724D01*
X128663738Y-65659885D01*
X128583995Y-65633436D01*
X128502389Y-65606368D01*
X128502387Y-65606368D01*
X128495861Y-65604203D01*
X128489025Y-65603503D01*
X128489022Y-65603502D01*
X128445969Y-65599091D01*
X128391400Y-65593500D01*
X127640600Y-65593500D01*
X127637354Y-65593837D01*
X127637350Y-65593837D01*
X127541692Y-65603762D01*
X127541688Y-65603763D01*
X127534834Y-65604474D01*
X127528298Y-65606655D01*
X127528296Y-65606655D01*
X127483528Y-65621591D01*
X127367054Y-65660450D01*
X127216652Y-65753522D01*
X127211479Y-65758704D01*
X127113835Y-65856518D01*
X127051552Y-65890597D01*
X127024662Y-65893500D01*
X126978188Y-65893500D01*
X126910067Y-65873498D01*
X126889093Y-65856595D01*
X126828300Y-65795802D01*
X126823792Y-65792645D01*
X126823789Y-65792643D01*
X126647164Y-65668969D01*
X126640749Y-65664477D01*
X126635767Y-65662154D01*
X126635762Y-65662151D01*
X126438225Y-65570039D01*
X126438224Y-65570039D01*
X126433243Y-65567716D01*
X126427935Y-65566294D01*
X126427933Y-65566293D01*
X126217402Y-65509881D01*
X126217400Y-65509881D01*
X126212087Y-65508457D01*
X125984000Y-65488502D01*
X125755913Y-65508457D01*
X125750600Y-65509881D01*
X125750598Y-65509881D01*
X125540067Y-65566293D01*
X125540065Y-65566294D01*
X125534757Y-65567716D01*
X125529776Y-65570039D01*
X125529775Y-65570039D01*
X125332238Y-65662151D01*
X125332233Y-65662154D01*
X125327251Y-65664477D01*
X125320836Y-65668969D01*
X125144211Y-65792643D01*
X125144208Y-65792645D01*
X125139700Y-65795802D01*
X124977802Y-65957700D01*
X124974645Y-65962208D01*
X124974643Y-65962211D01*
X124925696Y-66032115D01*
X124846477Y-66145251D01*
X124844154Y-66150233D01*
X124844151Y-66150238D01*
X124807091Y-66229715D01*
X124749716Y-66352757D01*
X124748294Y-66358065D01*
X124748293Y-66358067D01*
X124700025Y-66538204D01*
X124690457Y-66573913D01*
X124670502Y-66802000D01*
X123763499Y-66802000D01*
X123763499Y-66689600D01*
X123752526Y-66583833D01*
X123737303Y-66538204D01*
X123698867Y-66422998D01*
X123698866Y-66422996D01*
X123696550Y-66416054D01*
X123603479Y-66265651D01*
X123478303Y-66140694D01*
X123474082Y-66138092D01*
X123433583Y-66080963D01*
X123430355Y-66010040D01*
X123465984Y-65948630D01*
X123473532Y-65942079D01*
X123479349Y-65938479D01*
X123604306Y-65813303D01*
X123697115Y-65662739D01*
X123732346Y-65556521D01*
X123750632Y-65501390D01*
X123750632Y-65501388D01*
X123752797Y-65494862D01*
X123755122Y-65472175D01*
X123758699Y-65437259D01*
X123763500Y-65390401D01*
X123763499Y-64639600D01*
X123752526Y-64533833D01*
X123703584Y-64387137D01*
X123698867Y-64372998D01*
X123698866Y-64372996D01*
X123696550Y-64366054D01*
X123603479Y-64215651D01*
X123575175Y-64187396D01*
X123483484Y-64095866D01*
X123478303Y-64090694D01*
X123363529Y-64019946D01*
X123333969Y-64001725D01*
X123333967Y-64001724D01*
X123327739Y-63997885D01*
X123167264Y-63944658D01*
X123166390Y-63944368D01*
X123166388Y-63944368D01*
X123159862Y-63942203D01*
X123153026Y-63941503D01*
X123153023Y-63941502D01*
X123109970Y-63937091D01*
X123055401Y-63931500D01*
X122558859Y-63931500D01*
X122054600Y-63931501D01*
X121948833Y-63942474D01*
X121942286Y-63944658D01*
X121942287Y-63944658D01*
X121787998Y-63996133D01*
X121787996Y-63996134D01*
X121781054Y-63998450D01*
X121638769Y-64086498D01*
X121636915Y-64087645D01*
X121570613Y-64106500D01*
X121030196Y-64106500D01*
X120962075Y-64086498D01*
X120917930Y-64037704D01*
X120911128Y-64024355D01*
X120911126Y-64024352D01*
X120908129Y-64018470D01*
X120899273Y-64007533D01*
X120888073Y-63991237D01*
X120884343Y-63984776D01*
X120884340Y-63984772D01*
X120881040Y-63979056D01*
X120876623Y-63974150D01*
X120876619Y-63974145D01*
X120835278Y-63928231D01*
X120830994Y-63923216D01*
X120820148Y-63909823D01*
X120818072Y-63907259D01*
X120803557Y-63892744D01*
X120799016Y-63887959D01*
X120757673Y-63842043D01*
X120753253Y-63837134D01*
X120741865Y-63828860D01*
X120726832Y-63816019D01*
X120232125Y-63321312D01*
X140279568Y-63321312D01*
X140296533Y-63615541D01*
X140297358Y-63619746D01*
X140297359Y-63619754D01*
X140329375Y-63782939D01*
X140353272Y-63904745D01*
X140354659Y-63908795D01*
X140354660Y-63908800D01*
X140439633Y-64156984D01*
X140448736Y-64183572D01*
X140450658Y-64187393D01*
X140450659Y-64187396D01*
X140502331Y-64290134D01*
X140581159Y-64446864D01*
X140619370Y-64502461D01*
X140733766Y-64668909D01*
X140748088Y-64689748D01*
X140946437Y-64907730D01*
X140949726Y-64910480D01*
X141169241Y-65094025D01*
X141169246Y-65094029D01*
X141172533Y-65096777D01*
X141230697Y-65133263D01*
X141418555Y-65251106D01*
X141418559Y-65251108D01*
X141422195Y-65253389D01*
X141690801Y-65374669D01*
X141694921Y-65375889D01*
X141694920Y-65375889D01*
X141969269Y-65457155D01*
X141969273Y-65457156D01*
X141973382Y-65458373D01*
X141977619Y-65459021D01*
X141977622Y-65459022D01*
X142167142Y-65488023D01*
X142264708Y-65502953D01*
X142414769Y-65505310D01*
X142555098Y-65507515D01*
X142555104Y-65507515D01*
X142559389Y-65507582D01*
X142563641Y-65507067D01*
X142563649Y-65507067D01*
X142790870Y-65479569D01*
X142851971Y-65472175D01*
X142856120Y-65471087D01*
X142856123Y-65471086D01*
X143132891Y-65398478D01*
X143137042Y-65397389D01*
X143409325Y-65284605D01*
X143588620Y-65179833D01*
X143660079Y-65138076D01*
X143660080Y-65138075D01*
X143663782Y-65135912D01*
X143895706Y-64954061D01*
X143904969Y-64944503D01*
X144097820Y-64745495D01*
X144100803Y-64742417D01*
X144103336Y-64738969D01*
X144103340Y-64738964D01*
X144272742Y-64508351D01*
X144275280Y-64504896D01*
X144304248Y-64451544D01*
X144413856Y-64249670D01*
X144413857Y-64249668D01*
X144415906Y-64245894D01*
X144501843Y-64018470D01*
X144518564Y-63974220D01*
X144518565Y-63974216D01*
X144520082Y-63970202D01*
X144585877Y-63682923D01*
X144592274Y-63611254D01*
X144611856Y-63391837D01*
X144612076Y-63389373D01*
X144612551Y-63344000D01*
X144593238Y-63060702D01*
X144592798Y-63054242D01*
X144592797Y-63054236D01*
X144592506Y-63049965D01*
X144532741Y-62761371D01*
X144434362Y-62483559D01*
X144360261Y-62339991D01*
X144301155Y-62225475D01*
X144301155Y-62225474D01*
X144299190Y-62221668D01*
X144282220Y-62197521D01*
X144169755Y-62037501D01*
X144129726Y-61980545D01*
X144014381Y-61856419D01*
X143932027Y-61767795D01*
X143932024Y-61767792D01*
X143929106Y-61764652D01*
X143701042Y-61577984D01*
X143449754Y-61423995D01*
X143445818Y-61422267D01*
X143183821Y-61307258D01*
X143183818Y-61307257D01*
X143179893Y-61305534D01*
X142896451Y-61224793D01*
X142892209Y-61224189D01*
X142892203Y-61224188D01*
X142608925Y-61183872D01*
X142604674Y-61183267D01*
X142449275Y-61182453D01*
X142314247Y-61181746D01*
X142314241Y-61181746D01*
X142309961Y-61181724D01*
X142305716Y-61182283D01*
X142305714Y-61182283D01*
X142239683Y-61190976D01*
X142017765Y-61220193D01*
X141733494Y-61297960D01*
X141729546Y-61299644D01*
X141466358Y-61411903D01*
X141466354Y-61411905D01*
X141462406Y-61413589D01*
X141336824Y-61488748D01*
X141213202Y-61562734D01*
X141213198Y-61562737D01*
X141209520Y-61564938D01*
X141206177Y-61567616D01*
X141206173Y-61567619D01*
X141121417Y-61635522D01*
X140979514Y-61749208D01*
X140976570Y-61752310D01*
X140976566Y-61752314D01*
X140889845Y-61843699D01*
X140776644Y-61962988D01*
X140710452Y-62055104D01*
X140608115Y-62197521D01*
X140604664Y-62202323D01*
X140466757Y-62462784D01*
X140451800Y-62503657D01*
X140389970Y-62672617D01*
X140365475Y-62739552D01*
X140302691Y-63027504D01*
X140279568Y-63321312D01*
X120232125Y-63321312D01*
X119571981Y-62661168D01*
X119559140Y-62646135D01*
X119554746Y-62640087D01*
X119554745Y-62640086D01*
X119550866Y-62634747D01*
X119500041Y-62588984D01*
X119495256Y-62584443D01*
X119480741Y-62569928D01*
X119473282Y-62563888D01*
X119464784Y-62557006D01*
X119459769Y-62552722D01*
X119413855Y-62511381D01*
X119413850Y-62511377D01*
X119408944Y-62506960D01*
X119403228Y-62503660D01*
X119403224Y-62503657D01*
X119396763Y-62499927D01*
X119380466Y-62488727D01*
X119374660Y-62484025D01*
X119374658Y-62484024D01*
X119369530Y-62479871D01*
X119308577Y-62448814D01*
X119302782Y-62445667D01*
X119249279Y-62414777D01*
X119249278Y-62414776D01*
X119243556Y-62411473D01*
X119237274Y-62409432D01*
X119237272Y-62409431D01*
X119230174Y-62407125D01*
X119211907Y-62399559D01*
X119199370Y-62393171D01*
X119133299Y-62375467D01*
X119126997Y-62373600D01*
X119061928Y-62352458D01*
X119055363Y-62351768D01*
X119055354Y-62351766D01*
X119047925Y-62350985D01*
X119028491Y-62347383D01*
X119021286Y-62345453D01*
X119021284Y-62345453D01*
X119014903Y-62343743D01*
X119008312Y-62343398D01*
X119008308Y-62343397D01*
X118946616Y-62340164D01*
X118940042Y-62339647D01*
X118922884Y-62337844D01*
X118922882Y-62337844D01*
X118919610Y-62337500D01*
X118899074Y-62337500D01*
X118892480Y-62337327D01*
X118830782Y-62334093D01*
X118830777Y-62334093D01*
X118824190Y-62333748D01*
X118810292Y-62335949D01*
X118790583Y-62337500D01*
X118738481Y-62337500D01*
X118670360Y-62317498D01*
X118649469Y-62300678D01*
X118545303Y-62196694D01*
X118394739Y-62103885D01*
X118387791Y-62101581D01*
X118387788Y-62101579D01*
X118369567Y-62095535D01*
X118311207Y-62055104D01*
X118283972Y-61989539D01*
X118296506Y-61919658D01*
X118344832Y-61867647D01*
X118369353Y-61856422D01*
X118395946Y-61847550D01*
X118546349Y-61754479D01*
X118551522Y-61749297D01*
X118557258Y-61744751D01*
X118558543Y-61746372D01*
X118611782Y-61717236D01*
X118688420Y-61724564D01*
X118776671Y-61762480D01*
X118776680Y-61762483D01*
X118781987Y-61764763D01*
X118854817Y-61781243D01*
X118975055Y-61808450D01*
X118975060Y-61808451D01*
X118980692Y-61809725D01*
X118986463Y-61809952D01*
X118986465Y-61809952D01*
X119049470Y-61812427D01*
X119184263Y-61817723D01*
X119385883Y-61788490D01*
X119391347Y-61786635D01*
X119391352Y-61786634D01*
X119573327Y-61724862D01*
X119573332Y-61724860D01*
X119578799Y-61723004D01*
X119589099Y-61717236D01*
X119637941Y-61689883D01*
X119756551Y-61623458D01*
X119913186Y-61493186D01*
X120043458Y-61336551D01*
X120109883Y-61217941D01*
X120140180Y-61163842D01*
X120140181Y-61163840D01*
X120143004Y-61158799D01*
X120144860Y-61153332D01*
X120144862Y-61153327D01*
X120206634Y-60971352D01*
X120206635Y-60971347D01*
X120208490Y-60965883D01*
X120237723Y-60764263D01*
X120239249Y-60706000D01*
X120220608Y-60503126D01*
X120165307Y-60307047D01*
X120075201Y-60124329D01*
X120049811Y-60090327D01*
X119956758Y-59965715D01*
X119956758Y-59965714D01*
X119953305Y-59961091D01*
X119834708Y-59851461D01*
X119807943Y-59826719D01*
X119807940Y-59826717D01*
X119803703Y-59822800D01*
X119740143Y-59782697D01*
X119636288Y-59717169D01*
X119636283Y-59717167D01*
X119631404Y-59714088D01*
X119442180Y-59638595D01*
X119242366Y-59598849D01*
X119236592Y-59598773D01*
X119236588Y-59598773D01*
X119133452Y-59597424D01*
X119038655Y-59596183D01*
X119032958Y-59597162D01*
X119032957Y-59597162D01*
X118843567Y-59629705D01*
X118837870Y-59630684D01*
X118753348Y-59661866D01*
X118680825Y-59688621D01*
X118609991Y-59693433D01*
X118557564Y-59664713D01*
X118556229Y-59666403D01*
X118550483Y-59661865D01*
X118545303Y-59656694D01*
X118501519Y-59629705D01*
X118400969Y-59567725D01*
X118400967Y-59567724D01*
X118394739Y-59563885D01*
X118234264Y-59510658D01*
X118233390Y-59510368D01*
X118233388Y-59510368D01*
X118226862Y-59508203D01*
X118220026Y-59507503D01*
X118220023Y-59507502D01*
X118176970Y-59503091D01*
X118122401Y-59497500D01*
X117749895Y-59497500D01*
X117371600Y-59497501D01*
X117265833Y-59508474D01*
X117259286Y-59510658D01*
X117259287Y-59510658D01*
X117104998Y-59562133D01*
X117104996Y-59562134D01*
X117098054Y-59564450D01*
X116947651Y-59657521D01*
X116942478Y-59662703D01*
X116916605Y-59688621D01*
X116822694Y-59782697D01*
X116820092Y-59786918D01*
X116762963Y-59827417D01*
X116692040Y-59830645D01*
X116630630Y-59795016D01*
X116624079Y-59787468D01*
X116620479Y-59781651D01*
X116495303Y-59656694D01*
X116420021Y-59610290D01*
X116350969Y-59567725D01*
X116350967Y-59567724D01*
X116344739Y-59563885D01*
X116184264Y-59510658D01*
X116183390Y-59510368D01*
X116183388Y-59510368D01*
X116176862Y-59508203D01*
X116170026Y-59507503D01*
X116170023Y-59507502D01*
X116126970Y-59503091D01*
X116072401Y-59497500D01*
X115699895Y-59497500D01*
X115321600Y-59497501D01*
X115215833Y-59508474D01*
X115209286Y-59510658D01*
X115209287Y-59510658D01*
X115054998Y-59562133D01*
X115054996Y-59562134D01*
X115048054Y-59564450D01*
X114897651Y-59657521D01*
X114790679Y-59764681D01*
X114728398Y-59798759D01*
X114708102Y-59801489D01*
X114671697Y-59803397D01*
X114671696Y-59803397D01*
X114665096Y-59803743D01*
X114651508Y-59807384D01*
X114632061Y-59810988D01*
X114624644Y-59811767D01*
X114624640Y-59811768D01*
X114618072Y-59812458D01*
X114562098Y-59830645D01*
X114553009Y-59833598D01*
X114546685Y-59835471D01*
X114487010Y-59851461D01*
X114487006Y-59851462D01*
X114480630Y-59853171D01*
X114474748Y-59856168D01*
X114468093Y-59859559D01*
X114449826Y-59867125D01*
X114442728Y-59869431D01*
X114442726Y-59869432D01*
X114436444Y-59871473D01*
X114430722Y-59874776D01*
X114430721Y-59874777D01*
X114377218Y-59905667D01*
X114371423Y-59908814D01*
X114310470Y-59939871D01*
X114305342Y-59944024D01*
X114305340Y-59944025D01*
X114299534Y-59948727D01*
X114283237Y-59959927D01*
X114276776Y-59963657D01*
X114276772Y-59963660D01*
X114271056Y-59966960D01*
X114266150Y-59971377D01*
X114266145Y-59971381D01*
X114220231Y-60012722D01*
X114215216Y-60017006D01*
X114206718Y-60023888D01*
X114199259Y-60029928D01*
X114184744Y-60044443D01*
X114179959Y-60048984D01*
X114129134Y-60094747D01*
X114125255Y-60100086D01*
X114125254Y-60100087D01*
X114120860Y-60106135D01*
X114108019Y-60121168D01*
X109134592Y-65094595D01*
X109072280Y-65128621D01*
X109045497Y-65131500D01*
X109015856Y-65131500D01*
X108947735Y-65111498D01*
X108922662Y-65090299D01*
X108883148Y-65046873D01*
X108883146Y-65046871D01*
X108879670Y-65043051D01*
X108809104Y-64987321D01*
X108708414Y-64907800D01*
X108708410Y-64907798D01*
X108704359Y-64904598D01*
X108663053Y-64881796D01*
X108613084Y-64831364D01*
X108598312Y-64761921D01*
X108623428Y-64695516D01*
X108650780Y-64668909D01*
X108763546Y-64588474D01*
X108829860Y-64541173D01*
X108988096Y-64383489D01*
X109055780Y-64289297D01*
X109115435Y-64206277D01*
X109118453Y-64202077D01*
X109170946Y-64095866D01*
X109215136Y-64006453D01*
X109215137Y-64006451D01*
X109217430Y-64001811D01*
X109282370Y-63788069D01*
X109311529Y-63566590D01*
X109313156Y-63500000D01*
X109294852Y-63277361D01*
X109240431Y-63060702D01*
X109151354Y-62855840D01*
X109030014Y-62668277D01*
X108879670Y-62503051D01*
X108875619Y-62499852D01*
X108875615Y-62499848D01*
X108708414Y-62367800D01*
X108708410Y-62367798D01*
X108704359Y-62364598D01*
X108682368Y-62352458D01*
X108617189Y-62316478D01*
X108508789Y-62256638D01*
X108503920Y-62254914D01*
X108503916Y-62254912D01*
X108303087Y-62183795D01*
X108303083Y-62183794D01*
X108298212Y-62182069D01*
X108293119Y-62181162D01*
X108293116Y-62181161D01*
X108083373Y-62143800D01*
X108083367Y-62143799D01*
X108078284Y-62142894D01*
X108004452Y-62141992D01*
X107860081Y-62140228D01*
X107860079Y-62140228D01*
X107854911Y-62140165D01*
X107634091Y-62173955D01*
X107421756Y-62243357D01*
X107391443Y-62259137D01*
X107228917Y-62343743D01*
X107223607Y-62346507D01*
X107219474Y-62349610D01*
X107219471Y-62349612D01*
X107049100Y-62477530D01*
X107044965Y-62480635D01*
X106890629Y-62642138D01*
X106887715Y-62646410D01*
X106887714Y-62646411D01*
X106875404Y-62664457D01*
X106764743Y-62826680D01*
X106670688Y-63029305D01*
X106610989Y-63244570D01*
X106587251Y-63466695D01*
X106587548Y-63471848D01*
X106587548Y-63471852D01*
X106590063Y-63515473D01*
X106574015Y-63584632D01*
X106553367Y-63611820D01*
X105079168Y-65086019D01*
X105064135Y-65098860D01*
X105052747Y-65107134D01*
X105048327Y-65112043D01*
X105006984Y-65157959D01*
X105002443Y-65162744D01*
X104987928Y-65177259D01*
X104985852Y-65179823D01*
X104975006Y-65193216D01*
X104970722Y-65198231D01*
X104929381Y-65244145D01*
X104929377Y-65244150D01*
X104924960Y-65249056D01*
X104921660Y-65254772D01*
X104921657Y-65254776D01*
X104917927Y-65261237D01*
X104906727Y-65277533D01*
X104897871Y-65288470D01*
X104891270Y-65301426D01*
X104886267Y-65311244D01*
X104837518Y-65362859D01*
X104768604Y-65379925D01*
X104701402Y-65357024D01*
X104657250Y-65301426D01*
X104648000Y-65254041D01*
X104648000Y-55752000D01*
X104668002Y-55683879D01*
X104721658Y-55637386D01*
X104774000Y-55626000D01*
X147448000Y-55626000D01*
X147516121Y-55646002D01*
G37*
G04 #@! TD.AperFunction*
G04 #@! TA.AperFunction,Conductor*
G36*
X141183634Y-105428502D02*
G01*
X141230127Y-105482158D01*
X141240231Y-105552432D01*
X141210737Y-105617012D01*
X141198590Y-105629232D01*
X141142552Y-105678376D01*
X141134630Y-105686724D01*
X141007180Y-105848394D01*
X141000909Y-105858050D01*
X140905060Y-106040229D01*
X140900655Y-106050863D01*
X140845436Y-106228700D01*
X140845218Y-106242799D01*
X140851950Y-106246000D01*
X142128000Y-106246000D01*
X142196121Y-106266002D01*
X142242614Y-106319658D01*
X142254000Y-106372000D01*
X142254000Y-106628000D01*
X142233998Y-106696121D01*
X142180342Y-106742614D01*
X142128000Y-106754000D01*
X140861981Y-106754000D01*
X140848450Y-106757973D01*
X140847158Y-106766962D01*
X140878656Y-106890985D01*
X140882497Y-106901832D01*
X140968685Y-107088789D01*
X140974436Y-107098750D01*
X141093254Y-107266873D01*
X141100720Y-107275615D01*
X141202994Y-107375246D01*
X141237831Y-107437107D01*
X141233694Y-107507983D01*
X141191895Y-107565371D01*
X141125705Y-107591051D01*
X141115072Y-107591500D01*
X138928503Y-107591500D01*
X138860382Y-107571498D01*
X138839408Y-107554595D01*
X138715894Y-107431081D01*
X138681868Y-107368769D01*
X138678989Y-107341986D01*
X138678989Y-106658014D01*
X138698991Y-106589893D01*
X138715894Y-106568919D01*
X139839408Y-105445405D01*
X139901720Y-105411379D01*
X139928503Y-105408500D01*
X141115513Y-105408500D01*
X141183634Y-105428502D01*
G37*
G04 #@! TD.AperFunction*
G04 #@! TA.AperFunction,Conductor*
G36*
X118384011Y-84080197D02*
G01*
X118410618Y-84112422D01*
X118413480Y-84117379D01*
X118415898Y-84122624D01*
X118533479Y-84288997D01*
X118679410Y-84431157D01*
X118684206Y-84434362D01*
X118684209Y-84434364D01*
X118773624Y-84494109D01*
X118848803Y-84544342D01*
X118854106Y-84546620D01*
X118854109Y-84546622D01*
X118943115Y-84584862D01*
X119035987Y-84624763D01*
X119093090Y-84637684D01*
X119229055Y-84668450D01*
X119229060Y-84668451D01*
X119234692Y-84669725D01*
X119240463Y-84669952D01*
X119240465Y-84669952D01*
X119303470Y-84672427D01*
X119438263Y-84677723D01*
X119639883Y-84648490D01*
X119645347Y-84646635D01*
X119645352Y-84646634D01*
X119827327Y-84584862D01*
X119827332Y-84584860D01*
X119832799Y-84583004D01*
X120010551Y-84483458D01*
X120167186Y-84353186D01*
X120280627Y-84216789D01*
X120339563Y-84177205D01*
X120410545Y-84175769D01*
X120471036Y-84212936D01*
X120501829Y-84276907D01*
X120503500Y-84297358D01*
X120503500Y-84486341D01*
X120484760Y-84552457D01*
X120394885Y-84698261D01*
X120392581Y-84705208D01*
X120354042Y-84821401D01*
X120339203Y-84866138D01*
X120328500Y-84970599D01*
X120328501Y-85971400D01*
X120339474Y-86077167D01*
X120395450Y-86244946D01*
X120399301Y-86251169D01*
X120484645Y-86389085D01*
X120503500Y-86455387D01*
X120503500Y-88534519D01*
X120483498Y-88602640D01*
X120466678Y-88623531D01*
X120362694Y-88727697D01*
X120269885Y-88878261D01*
X120214203Y-89046138D01*
X120203500Y-89150599D01*
X120203501Y-89901400D01*
X120214474Y-90007167D01*
X120270450Y-90174946D01*
X120363521Y-90325349D01*
X120368703Y-90330522D01*
X120488697Y-90450306D01*
X120486993Y-90452013D01*
X120521394Y-90500536D01*
X120524626Y-90571459D01*
X120489000Y-90632870D01*
X120425829Y-90665272D01*
X120402239Y-90667500D01*
X119198416Y-90667500D01*
X119178707Y-90665949D01*
X119164809Y-90663748D01*
X119158222Y-90664093D01*
X119158217Y-90664093D01*
X119096519Y-90667327D01*
X119089925Y-90667500D01*
X119069390Y-90667500D01*
X119063222Y-90668148D01*
X119048960Y-90669647D01*
X119042385Y-90670164D01*
X118980696Y-90673397D01*
X118980695Y-90673397D01*
X118974096Y-90673743D01*
X118960508Y-90677384D01*
X118941061Y-90680988D01*
X118933644Y-90681767D01*
X118933640Y-90681768D01*
X118927072Y-90682458D01*
X118870276Y-90700912D01*
X118862009Y-90703598D01*
X118855685Y-90705471D01*
X118796010Y-90721461D01*
X118796006Y-90721462D01*
X118789630Y-90723171D01*
X118783748Y-90726168D01*
X118777093Y-90729559D01*
X118758826Y-90737125D01*
X118751728Y-90739431D01*
X118751726Y-90739432D01*
X118745444Y-90741473D01*
X118739722Y-90744776D01*
X118739721Y-90744777D01*
X118686218Y-90775667D01*
X118680423Y-90778814D01*
X118619470Y-90809871D01*
X118614342Y-90814024D01*
X118614340Y-90814025D01*
X118608534Y-90818727D01*
X118592237Y-90829927D01*
X118585776Y-90833657D01*
X118585772Y-90833660D01*
X118580056Y-90836960D01*
X118575150Y-90841377D01*
X118575145Y-90841381D01*
X118529231Y-90882722D01*
X118524216Y-90887006D01*
X118523951Y-90887221D01*
X118508259Y-90899928D01*
X118493744Y-90914443D01*
X118488959Y-90918984D01*
X118438134Y-90964747D01*
X118434255Y-90970086D01*
X118434254Y-90970087D01*
X118429860Y-90976135D01*
X118417019Y-90991168D01*
X116382168Y-93026019D01*
X116367135Y-93038860D01*
X116355747Y-93047134D01*
X116351327Y-93052043D01*
X116309984Y-93097959D01*
X116305443Y-93102744D01*
X116290928Y-93117259D01*
X116288852Y-93119823D01*
X116278006Y-93133216D01*
X116273722Y-93138231D01*
X116232381Y-93184145D01*
X116232377Y-93184150D01*
X116227960Y-93189056D01*
X116224660Y-93194772D01*
X116224657Y-93194776D01*
X116220927Y-93201237D01*
X116209727Y-93217533D01*
X116200871Y-93228470D01*
X116169815Y-93289421D01*
X116166669Y-93295215D01*
X116132473Y-93354444D01*
X116130432Y-93360726D01*
X116130431Y-93360728D01*
X116128125Y-93367826D01*
X116120560Y-93386092D01*
X116114171Y-93398630D01*
X116112463Y-93405003D01*
X116112463Y-93405004D01*
X116096469Y-93464695D01*
X116094600Y-93471003D01*
X116073458Y-93536072D01*
X116072768Y-93542637D01*
X116072766Y-93542646D01*
X116071985Y-93550075D01*
X116068383Y-93569509D01*
X116066453Y-93576714D01*
X116064743Y-93583097D01*
X116064398Y-93589688D01*
X116064397Y-93589692D01*
X116061164Y-93651384D01*
X116060647Y-93657958D01*
X116058844Y-93675116D01*
X116058500Y-93678390D01*
X116058500Y-93698926D01*
X116058327Y-93705520D01*
X116055559Y-93758339D01*
X116054748Y-93773810D01*
X116056917Y-93787501D01*
X116056949Y-93787705D01*
X116058500Y-93807417D01*
X116058500Y-93961500D01*
X116038498Y-94029621D01*
X115984842Y-94076114D01*
X115932500Y-94087500D01*
X114381417Y-94087500D01*
X114361708Y-94085949D01*
X114347810Y-94083748D01*
X114341223Y-94084093D01*
X114341218Y-94084093D01*
X114279520Y-94087327D01*
X114272926Y-94087500D01*
X114252390Y-94087500D01*
X114249118Y-94087844D01*
X114249116Y-94087844D01*
X114231958Y-94089647D01*
X114225384Y-94090164D01*
X114163696Y-94093397D01*
X114163694Y-94093397D01*
X114157097Y-94093743D01*
X114143504Y-94097385D01*
X114124075Y-94100986D01*
X114110072Y-94102458D01*
X114045025Y-94123593D01*
X114038712Y-94125463D01*
X114018074Y-94130993D01*
X113979003Y-94141462D01*
X113979000Y-94141463D01*
X113972630Y-94143170D01*
X113960085Y-94149562D01*
X113941826Y-94157125D01*
X113928444Y-94161473D01*
X113922723Y-94164776D01*
X113869223Y-94195664D01*
X113863426Y-94198812D01*
X113808351Y-94226874D01*
X113808348Y-94226876D01*
X113802470Y-94229871D01*
X113797342Y-94234024D01*
X113797340Y-94234025D01*
X113791534Y-94238727D01*
X113775237Y-94249927D01*
X113768776Y-94253657D01*
X113768772Y-94253660D01*
X113763056Y-94256960D01*
X113758150Y-94261377D01*
X113758145Y-94261381D01*
X113712231Y-94302722D01*
X113707216Y-94307006D01*
X113700797Y-94312204D01*
X113691259Y-94319928D01*
X113676744Y-94334443D01*
X113671959Y-94338984D01*
X113621134Y-94384747D01*
X113617255Y-94390086D01*
X113617254Y-94390087D01*
X113612860Y-94396135D01*
X113600019Y-94411168D01*
X108988227Y-99022960D01*
X108925915Y-99056986D01*
X108855100Y-99051921D01*
X108821040Y-99032747D01*
X108708414Y-98943800D01*
X108708410Y-98943798D01*
X108704359Y-98940598D01*
X108662569Y-98917529D01*
X108612598Y-98867097D01*
X108597826Y-98797654D01*
X108622942Y-98731248D01*
X108650294Y-98704641D01*
X108825328Y-98579792D01*
X108833200Y-98573139D01*
X108984052Y-98422812D01*
X108990730Y-98414965D01*
X109115003Y-98242020D01*
X109120313Y-98233183D01*
X109214670Y-98042267D01*
X109218469Y-98032672D01*
X109280377Y-97828910D01*
X109282555Y-97818837D01*
X109283986Y-97807962D01*
X109281775Y-97793778D01*
X109268617Y-97790000D01*
X107822000Y-97790000D01*
X107753879Y-97769998D01*
X107707386Y-97716342D01*
X107696000Y-97664000D01*
X107696000Y-97408000D01*
X107716002Y-97339879D01*
X107769658Y-97293386D01*
X107822000Y-97282000D01*
X109268344Y-97282000D01*
X109281875Y-97278027D01*
X109283180Y-97268947D01*
X109241214Y-97101875D01*
X109237894Y-97092124D01*
X109152972Y-96896814D01*
X109148105Y-96887739D01*
X109032426Y-96708926D01*
X109026136Y-96700757D01*
X108882806Y-96543240D01*
X108875273Y-96536215D01*
X108708139Y-96404222D01*
X108699556Y-96398520D01*
X108662602Y-96378120D01*
X108612631Y-96327687D01*
X108597859Y-96258245D01*
X108622975Y-96191839D01*
X108650327Y-96165232D01*
X108680913Y-96143415D01*
X108829860Y-96037173D01*
X108926120Y-95941248D01*
X108988490Y-95907333D01*
X109015059Y-95904500D01*
X109646583Y-95904500D01*
X109666292Y-95906051D01*
X109680190Y-95908252D01*
X109686777Y-95907907D01*
X109686782Y-95907907D01*
X109748480Y-95904673D01*
X109755074Y-95904500D01*
X109775610Y-95904500D01*
X109778882Y-95904156D01*
X109778884Y-95904156D01*
X109796042Y-95902353D01*
X109802616Y-95901836D01*
X109864308Y-95898603D01*
X109864312Y-95898602D01*
X109870903Y-95898257D01*
X109877284Y-95896547D01*
X109877286Y-95896547D01*
X109884491Y-95894617D01*
X109903925Y-95891015D01*
X109911354Y-95890234D01*
X109911363Y-95890232D01*
X109917928Y-95889542D01*
X109982997Y-95868400D01*
X109989299Y-95866533D01*
X110055370Y-95848829D01*
X110067908Y-95842440D01*
X110086174Y-95834875D01*
X110093272Y-95832569D01*
X110093274Y-95832568D01*
X110099556Y-95830527D01*
X110158785Y-95796331D01*
X110164579Y-95793185D01*
X110225530Y-95762129D01*
X110236467Y-95753273D01*
X110252763Y-95742073D01*
X110259224Y-95738343D01*
X110259228Y-95738340D01*
X110264944Y-95735040D01*
X110269850Y-95730623D01*
X110269855Y-95730619D01*
X110315769Y-95689278D01*
X110320784Y-95684994D01*
X110334177Y-95674148D01*
X110336741Y-95672072D01*
X110351256Y-95657557D01*
X110356041Y-95653016D01*
X110401957Y-95611673D01*
X110406866Y-95607253D01*
X110415140Y-95595865D01*
X110427981Y-95580832D01*
X115011832Y-90996981D01*
X115026865Y-90984140D01*
X115032913Y-90979746D01*
X115032914Y-90979745D01*
X115038253Y-90975866D01*
X115084016Y-90925041D01*
X115088557Y-90920256D01*
X115103072Y-90905741D01*
X115115994Y-90889784D01*
X115120278Y-90884769D01*
X115161619Y-90838855D01*
X115161623Y-90838850D01*
X115166040Y-90833944D01*
X115169340Y-90828228D01*
X115169343Y-90828224D01*
X115173073Y-90821763D01*
X115184273Y-90805466D01*
X115188975Y-90799660D01*
X115188976Y-90799658D01*
X115193129Y-90794530D01*
X115201137Y-90778815D01*
X115224188Y-90733574D01*
X115227336Y-90727777D01*
X115258224Y-90674277D01*
X115261527Y-90668556D01*
X115265875Y-90655174D01*
X115273438Y-90636915D01*
X115279830Y-90624370D01*
X115297537Y-90558288D01*
X115299409Y-90551969D01*
X115302470Y-90542550D01*
X115320542Y-90486928D01*
X115322014Y-90472925D01*
X115325615Y-90453496D01*
X115329257Y-90439903D01*
X115332836Y-90371616D01*
X115333353Y-90365042D01*
X115335156Y-90347884D01*
X115335156Y-90347882D01*
X115335500Y-90344610D01*
X115335500Y-90324074D01*
X115335673Y-90317480D01*
X115338907Y-90255782D01*
X115338907Y-90255777D01*
X115339252Y-90249190D01*
X115337051Y-90235293D01*
X115335500Y-90215583D01*
X115335500Y-87487481D01*
X115355502Y-87419360D01*
X115372322Y-87398469D01*
X115476306Y-87294303D01*
X115564535Y-87151169D01*
X115565275Y-87149969D01*
X115565276Y-87149967D01*
X115569115Y-87143739D01*
X115577726Y-87117778D01*
X115618156Y-87059417D01*
X115683720Y-87032180D01*
X115753602Y-87044713D01*
X115805614Y-87093037D01*
X115816843Y-87117568D01*
X115823588Y-87137785D01*
X115829762Y-87150964D01*
X115915063Y-87288810D01*
X115924099Y-87300209D01*
X116038828Y-87414738D01*
X116050239Y-87423750D01*
X116188242Y-87508816D01*
X116201423Y-87514963D01*
X116355709Y-87566138D01*
X116369085Y-87569005D01*
X116463437Y-87578672D01*
X116469853Y-87579000D01*
X116694885Y-87579000D01*
X116710124Y-87574525D01*
X116711329Y-87573135D01*
X116713000Y-87565452D01*
X116713000Y-87560885D01*
X117221000Y-87560885D01*
X117225475Y-87576124D01*
X117226865Y-87577329D01*
X117234548Y-87579000D01*
X117464098Y-87579000D01*
X117470613Y-87578663D01*
X117566205Y-87568744D01*
X117579604Y-87565850D01*
X117733785Y-87514412D01*
X117746964Y-87508238D01*
X117884810Y-87422937D01*
X117896209Y-87413901D01*
X118010738Y-87299172D01*
X118019750Y-87287761D01*
X118104816Y-87149758D01*
X118110963Y-87136577D01*
X118162138Y-86982291D01*
X118165005Y-86968915D01*
X118174672Y-86874563D01*
X118175000Y-86868147D01*
X118175000Y-86768115D01*
X118170525Y-86752876D01*
X118169135Y-86751671D01*
X118161452Y-86750000D01*
X117239115Y-86750000D01*
X117223876Y-86754475D01*
X117222671Y-86755865D01*
X117221000Y-86763548D01*
X117221000Y-87560885D01*
X116713000Y-87560885D01*
X116713000Y-86368000D01*
X116733002Y-86299879D01*
X116786658Y-86253386D01*
X116839000Y-86242000D01*
X118156885Y-86242000D01*
X118172124Y-86237525D01*
X118173329Y-86236135D01*
X118175000Y-86228452D01*
X118175000Y-86123902D01*
X118174663Y-86117387D01*
X118164744Y-86021795D01*
X118161850Y-86008396D01*
X118110412Y-85854215D01*
X118104238Y-85841036D01*
X118018937Y-85703190D01*
X118009901Y-85691791D01*
X117895173Y-85577263D01*
X117886237Y-85570205D01*
X117845177Y-85512286D01*
X117841949Y-85441363D01*
X117877577Y-85379953D01*
X117885407Y-85373156D01*
X117891349Y-85369479D01*
X118016306Y-85244303D01*
X118109115Y-85093739D01*
X118135564Y-85013996D01*
X118162632Y-84932390D01*
X118162632Y-84932388D01*
X118164797Y-84925862D01*
X118175500Y-84821401D01*
X118175499Y-84175422D01*
X118195501Y-84107301D01*
X118249157Y-84060808D01*
X118319430Y-84050704D01*
X118384011Y-84080197D01*
G37*
G04 #@! TD.AperFunction*
M02*
