G04 #@! TF.GenerationSoftware,KiCad,Pcbnew,(5.1.9)-1*
G04 #@! TF.CreationDate,2021-03-15T23:42:34+01:00*
G04 #@! TF.ProjectId,rfreplacement,72667265-706c-4616-9365-6d656e742e6b,rev?*
G04 #@! TF.SameCoordinates,Original*
G04 #@! TF.FileFunction,Legend,Top*
G04 #@! TF.FilePolarity,Positive*
%FSLAX46Y46*%
G04 Gerber Fmt 4.6, Leading zero omitted, Abs format (unit mm)*
G04 Created by KiCad (PCBNEW (5.1.9)-1) date 2021-03-15 23:42:34*
%MOMM*%
%LPD*%
G01*
G04 APERTURE LIST*
%ADD10C,0.150000*%
%ADD11C,0.250000*%
%ADD12C,0.120000*%
%ADD13C,0.200000*%
%ADD14C,0.127000*%
G04 APERTURE END LIST*
D10*
X128837095Y-61197119D02*
X129218047Y-60930452D01*
X128837095Y-60739976D02*
X129637095Y-60739976D01*
X129637095Y-61044738D01*
X129599000Y-61120928D01*
X129560904Y-61159023D01*
X129484714Y-61197119D01*
X129370428Y-61197119D01*
X129294238Y-61159023D01*
X129256142Y-61120928D01*
X129218047Y-61044738D01*
X129218047Y-60739976D01*
X129256142Y-61806642D02*
X129256142Y-61539976D01*
X128837095Y-61539976D02*
X129637095Y-61539976D01*
X129637095Y-61920928D01*
X128837095Y-62835214D02*
X129637095Y-62835214D01*
X129065666Y-63101880D01*
X129637095Y-63368547D01*
X128837095Y-63368547D01*
X129637095Y-63901880D02*
X129637095Y-64054261D01*
X129599000Y-64130452D01*
X129522809Y-64206642D01*
X129370428Y-64244738D01*
X129103761Y-64244738D01*
X128951380Y-64206642D01*
X128875190Y-64130452D01*
X128837095Y-64054261D01*
X128837095Y-63901880D01*
X128875190Y-63825690D01*
X128951380Y-63749500D01*
X129103761Y-63711404D01*
X129370428Y-63711404D01*
X129522809Y-63749500D01*
X129599000Y-63825690D01*
X129637095Y-63901880D01*
X128837095Y-64587595D02*
X129637095Y-64587595D01*
X129637095Y-64778071D01*
X129599000Y-64892357D01*
X129522809Y-64968547D01*
X129446619Y-65006642D01*
X129294238Y-65044738D01*
X129179952Y-65044738D01*
X129027571Y-65006642D01*
X128951380Y-64968547D01*
X128875190Y-64892357D01*
X128837095Y-64778071D01*
X128837095Y-64587595D01*
X129637095Y-65387595D02*
X128989476Y-65387595D01*
X128913285Y-65425690D01*
X128875190Y-65463785D01*
X128837095Y-65539976D01*
X128837095Y-65692357D01*
X128875190Y-65768547D01*
X128913285Y-65806642D01*
X128989476Y-65844738D01*
X129637095Y-65844738D01*
X128837095Y-66606642D02*
X128837095Y-66225690D01*
X129637095Y-66225690D01*
X129065666Y-66835214D02*
X129065666Y-67216166D01*
X128837095Y-66759023D02*
X129637095Y-67025690D01*
X128837095Y-67292357D01*
X129637095Y-67444738D02*
X129637095Y-67901880D01*
X128837095Y-67673309D02*
X129637095Y-67673309D01*
X129637095Y-68320928D02*
X129637095Y-68473309D01*
X129599000Y-68549500D01*
X129522809Y-68625690D01*
X129370428Y-68663785D01*
X129103761Y-68663785D01*
X128951380Y-68625690D01*
X128875190Y-68549500D01*
X128837095Y-68473309D01*
X128837095Y-68320928D01*
X128875190Y-68244738D01*
X128951380Y-68168547D01*
X129103761Y-68130452D01*
X129370428Y-68130452D01*
X129522809Y-68168547D01*
X129599000Y-68244738D01*
X129637095Y-68320928D01*
X128837095Y-69463785D02*
X129218047Y-69197119D01*
X128837095Y-69006642D02*
X129637095Y-69006642D01*
X129637095Y-69311404D01*
X129599000Y-69387595D01*
X129560904Y-69425690D01*
X129484714Y-69463785D01*
X129370428Y-69463785D01*
X129294238Y-69425690D01*
X129256142Y-69387595D01*
X129218047Y-69311404D01*
X129218047Y-69006642D01*
X128837095Y-70873309D02*
X129218047Y-70606642D01*
X128837095Y-70416166D02*
X129637095Y-70416166D01*
X129637095Y-70720928D01*
X129599000Y-70797119D01*
X129560904Y-70835214D01*
X129484714Y-70873309D01*
X129370428Y-70873309D01*
X129294238Y-70835214D01*
X129256142Y-70797119D01*
X129218047Y-70720928D01*
X129218047Y-70416166D01*
X129256142Y-71216166D02*
X129256142Y-71482833D01*
X128837095Y-71597119D02*
X128837095Y-71216166D01*
X129637095Y-71216166D01*
X129637095Y-71597119D01*
X128837095Y-71939976D02*
X129637095Y-71939976D01*
X129637095Y-72244738D01*
X129599000Y-72320928D01*
X129560904Y-72359023D01*
X129484714Y-72397119D01*
X129370428Y-72397119D01*
X129294238Y-72359023D01*
X129256142Y-72320928D01*
X129218047Y-72244738D01*
X129218047Y-71939976D01*
X128837095Y-73120928D02*
X128837095Y-72739976D01*
X129637095Y-72739976D01*
X129065666Y-73349500D02*
X129065666Y-73730452D01*
X128837095Y-73273309D02*
X129637095Y-73539976D01*
X128837095Y-73806642D01*
X128913285Y-74530452D02*
X128875190Y-74492357D01*
X128837095Y-74378071D01*
X128837095Y-74301880D01*
X128875190Y-74187595D01*
X128951380Y-74111404D01*
X129027571Y-74073309D01*
X129179952Y-74035214D01*
X129294238Y-74035214D01*
X129446619Y-74073309D01*
X129522809Y-74111404D01*
X129599000Y-74187595D01*
X129637095Y-74301880D01*
X129637095Y-74378071D01*
X129599000Y-74492357D01*
X129560904Y-74530452D01*
X129256142Y-74873309D02*
X129256142Y-75139976D01*
X128837095Y-75254261D02*
X128837095Y-74873309D01*
X129637095Y-74873309D01*
X129637095Y-75254261D01*
X128837095Y-75597119D02*
X129637095Y-75597119D01*
X129065666Y-75863785D01*
X129637095Y-76130452D01*
X128837095Y-76130452D01*
X129256142Y-76511404D02*
X129256142Y-76778071D01*
X128837095Y-76892357D02*
X128837095Y-76511404D01*
X129637095Y-76511404D01*
X129637095Y-76892357D01*
X128837095Y-77235214D02*
X129637095Y-77235214D01*
X128837095Y-77692357D01*
X129637095Y-77692357D01*
X129637095Y-77959023D02*
X129637095Y-78416166D01*
X128837095Y-78187595D02*
X129637095Y-78187595D01*
X129637095Y-79178071D02*
X128837095Y-79444738D01*
X129637095Y-79711404D01*
X128837095Y-80397119D02*
X128837095Y-79939976D01*
X128837095Y-80168547D02*
X129637095Y-80168547D01*
X129522809Y-80092357D01*
X129446619Y-80016166D01*
X129408523Y-79939976D01*
X128913285Y-80739976D02*
X128875190Y-80778071D01*
X128837095Y-80739976D01*
X128875190Y-80701880D01*
X128913285Y-80739976D01*
X128837095Y-80739976D01*
X129637095Y-81273309D02*
X129637095Y-81349500D01*
X129599000Y-81425690D01*
X129560904Y-81463785D01*
X129484714Y-81501880D01*
X129332333Y-81539976D01*
X129141857Y-81539976D01*
X128989476Y-81501880D01*
X128913285Y-81463785D01*
X128875190Y-81425690D01*
X128837095Y-81349500D01*
X128837095Y-81273309D01*
X128875190Y-81197119D01*
X128913285Y-81159023D01*
X128989476Y-81120928D01*
X129141857Y-81082833D01*
X129332333Y-81082833D01*
X129484714Y-81120928D01*
X129560904Y-81159023D01*
X129599000Y-81197119D01*
X129637095Y-81273309D01*
X127906142Y-61006642D02*
X127906142Y-60739976D01*
X127487095Y-60739976D02*
X128287095Y-60739976D01*
X128287095Y-61120928D01*
X128287095Y-61578071D02*
X128287095Y-61730452D01*
X128249000Y-61806642D01*
X128172809Y-61882833D01*
X128020428Y-61920928D01*
X127753761Y-61920928D01*
X127601380Y-61882833D01*
X127525190Y-61806642D01*
X127487095Y-61730452D01*
X127487095Y-61578071D01*
X127525190Y-61501880D01*
X127601380Y-61425690D01*
X127753761Y-61387595D01*
X128020428Y-61387595D01*
X128172809Y-61425690D01*
X128249000Y-61501880D01*
X128287095Y-61578071D01*
X127487095Y-62720928D02*
X127868047Y-62454261D01*
X127487095Y-62263785D02*
X128287095Y-62263785D01*
X128287095Y-62568547D01*
X128249000Y-62644738D01*
X128210904Y-62682833D01*
X128134714Y-62720928D01*
X128020428Y-62720928D01*
X127944238Y-62682833D01*
X127906142Y-62644738D01*
X127868047Y-62568547D01*
X127868047Y-62263785D01*
X127715666Y-63635214D02*
X127715666Y-64016166D01*
X127487095Y-63559023D02*
X128287095Y-63825690D01*
X127487095Y-64092357D01*
X127525190Y-64320928D02*
X127487095Y-64435214D01*
X127487095Y-64625690D01*
X127525190Y-64701880D01*
X127563285Y-64739976D01*
X127639476Y-64778071D01*
X127715666Y-64778071D01*
X127791857Y-64739976D01*
X127829952Y-64701880D01*
X127868047Y-64625690D01*
X127906142Y-64473309D01*
X127944238Y-64397119D01*
X127982333Y-64359023D01*
X128058523Y-64320928D01*
X128134714Y-64320928D01*
X128210904Y-64359023D01*
X128249000Y-64397119D01*
X128287095Y-64473309D01*
X128287095Y-64663785D01*
X128249000Y-64778071D01*
X127525190Y-65082833D02*
X127487095Y-65197119D01*
X127487095Y-65387595D01*
X127525190Y-65463785D01*
X127563285Y-65501880D01*
X127639476Y-65539976D01*
X127715666Y-65539976D01*
X127791857Y-65501880D01*
X127829952Y-65463785D01*
X127868047Y-65387595D01*
X127906142Y-65235214D01*
X127944238Y-65159023D01*
X127982333Y-65120928D01*
X128058523Y-65082833D01*
X128134714Y-65082833D01*
X128210904Y-65120928D01*
X128249000Y-65159023D01*
X128287095Y-65235214D01*
X128287095Y-65425690D01*
X128249000Y-65539976D01*
X127868047Y-66035214D02*
X127487095Y-66035214D01*
X128287095Y-65768547D02*
X127868047Y-66035214D01*
X128287095Y-66301880D01*
X127487095Y-67178071D02*
X128287095Y-67178071D01*
X127487095Y-67635214D01*
X128287095Y-67635214D01*
X128287095Y-68168547D02*
X128287095Y-68320928D01*
X128249000Y-68397119D01*
X128172809Y-68473309D01*
X128020428Y-68511404D01*
X127753761Y-68511404D01*
X127601380Y-68473309D01*
X127525190Y-68397119D01*
X127487095Y-68320928D01*
X127487095Y-68168547D01*
X127525190Y-68092357D01*
X127601380Y-68016166D01*
X127753761Y-67978071D01*
X128020428Y-67978071D01*
X128172809Y-68016166D01*
X128249000Y-68092357D01*
X128287095Y-68168547D01*
X127563285Y-68854261D02*
X127525190Y-68892357D01*
X127487095Y-68854261D01*
X127525190Y-68816166D01*
X127563285Y-68854261D01*
X127487095Y-68854261D01*
X128210904Y-69197119D02*
X128249000Y-69235214D01*
X128287095Y-69311404D01*
X128287095Y-69501880D01*
X128249000Y-69578071D01*
X128210904Y-69616166D01*
X128134714Y-69654261D01*
X128058523Y-69654261D01*
X127944238Y-69616166D01*
X127487095Y-69159023D01*
X127487095Y-69654261D01*
X128287095Y-70378071D02*
X128287095Y-69997119D01*
X127906142Y-69959023D01*
X127944238Y-69997119D01*
X127982333Y-70073309D01*
X127982333Y-70263785D01*
X127944238Y-70339976D01*
X127906142Y-70378071D01*
X127829952Y-70416166D01*
X127639476Y-70416166D01*
X127563285Y-70378071D01*
X127525190Y-70339976D01*
X127487095Y-70263785D01*
X127487095Y-70073309D01*
X127525190Y-69997119D01*
X127563285Y-69959023D01*
X128287095Y-70911404D02*
X128287095Y-70987595D01*
X128249000Y-71063785D01*
X128210904Y-71101880D01*
X128134714Y-71139976D01*
X127982333Y-71178071D01*
X127791857Y-71178071D01*
X127639476Y-71139976D01*
X127563285Y-71101880D01*
X127525190Y-71063785D01*
X127487095Y-70987595D01*
X127487095Y-70911404D01*
X127525190Y-70835214D01*
X127563285Y-70797119D01*
X127639476Y-70759023D01*
X127791857Y-70720928D01*
X127982333Y-70720928D01*
X128134714Y-70759023D01*
X128210904Y-70797119D01*
X128249000Y-70835214D01*
X128287095Y-70911404D01*
X128020428Y-71863785D02*
X127487095Y-71863785D01*
X128325190Y-71673309D02*
X127753761Y-71482833D01*
X127753761Y-71978071D01*
X128287095Y-72625690D02*
X128287095Y-72473309D01*
X128249000Y-72397119D01*
X128210904Y-72359023D01*
X128096619Y-72282833D01*
X127944238Y-72244738D01*
X127639476Y-72244738D01*
X127563285Y-72282833D01*
X127525190Y-72320928D01*
X127487095Y-72397119D01*
X127487095Y-72549500D01*
X127525190Y-72625690D01*
X127563285Y-72663785D01*
X127639476Y-72701880D01*
X127829952Y-72701880D01*
X127906142Y-72663785D01*
X127944238Y-72625690D01*
X127982333Y-72549500D01*
X127982333Y-72397119D01*
X127944238Y-72320928D01*
X127906142Y-72282833D01*
X127829952Y-72244738D01*
X127487095Y-73082833D02*
X127487095Y-73235214D01*
X127525190Y-73311404D01*
X127563285Y-73349500D01*
X127677571Y-73425690D01*
X127829952Y-73463785D01*
X128134714Y-73463785D01*
X128210904Y-73425690D01*
X128249000Y-73387595D01*
X128287095Y-73311404D01*
X128287095Y-73159023D01*
X128249000Y-73082833D01*
X128210904Y-73044738D01*
X128134714Y-73006642D01*
X127944238Y-73006642D01*
X127868047Y-73044738D01*
X127829952Y-73082833D01*
X127791857Y-73159023D01*
X127791857Y-73311404D01*
X127829952Y-73387595D01*
X127868047Y-73425690D01*
X127944238Y-73463785D01*
D11*
X131421238Y-67056380D02*
X131373619Y-67199238D01*
X131373619Y-67437333D01*
X131421238Y-67532571D01*
X131468857Y-67580190D01*
X131564095Y-67627809D01*
X131659333Y-67627809D01*
X131754571Y-67580190D01*
X131802190Y-67532571D01*
X131849809Y-67437333D01*
X131897428Y-67246857D01*
X131945047Y-67151619D01*
X131992666Y-67104000D01*
X132087904Y-67056380D01*
X132183142Y-67056380D01*
X132278380Y-67104000D01*
X132326000Y-67151619D01*
X132373619Y-67246857D01*
X132373619Y-67484952D01*
X132326000Y-67627809D01*
X131754571Y-68056380D02*
X131754571Y-68818285D01*
X132373619Y-69151619D02*
X131373619Y-69484952D01*
X132373619Y-69818285D01*
X131373619Y-70151619D02*
X132373619Y-70151619D01*
X131373619Y-70627809D02*
X132373619Y-70627809D01*
X132373619Y-70865904D01*
X132326000Y-71008761D01*
X132230761Y-71104000D01*
X132135523Y-71151619D01*
X131945047Y-71199238D01*
X131802190Y-71199238D01*
X131611714Y-71151619D01*
X131516476Y-71104000D01*
X131421238Y-71008761D01*
X131373619Y-70865904D01*
X131373619Y-70627809D01*
X131897428Y-71627809D02*
X131897428Y-71961142D01*
X131373619Y-72104000D02*
X131373619Y-71627809D01*
X132373619Y-71627809D01*
X132373619Y-72104000D01*
X132373619Y-72723047D02*
X132373619Y-72913523D01*
X132326000Y-73008761D01*
X132230761Y-73104000D01*
X132040285Y-73151619D01*
X131706952Y-73151619D01*
X131516476Y-73104000D01*
X131421238Y-73008761D01*
X131373619Y-72913523D01*
X131373619Y-72723047D01*
X131421238Y-72627809D01*
X131516476Y-72532571D01*
X131706952Y-72484952D01*
X132040285Y-72484952D01*
X132230761Y-72532571D01*
X132326000Y-72627809D01*
X132373619Y-72723047D01*
X131659333Y-90773904D02*
X131659333Y-91250095D01*
X131373619Y-90678666D02*
X132373619Y-91012000D01*
X131373619Y-91345333D01*
X132373619Y-91678666D02*
X131564095Y-91678666D01*
X131468857Y-91726285D01*
X131421238Y-91773904D01*
X131373619Y-91869142D01*
X131373619Y-92059619D01*
X131421238Y-92154857D01*
X131468857Y-92202476D01*
X131564095Y-92250095D01*
X132373619Y-92250095D01*
X131373619Y-92726285D02*
X132373619Y-92726285D01*
X132373619Y-92964380D01*
X132326000Y-93107238D01*
X132230761Y-93202476D01*
X132135523Y-93250095D01*
X131945047Y-93297714D01*
X131802190Y-93297714D01*
X131611714Y-93250095D01*
X131516476Y-93202476D01*
X131421238Y-93107238D01*
X131373619Y-92964380D01*
X131373619Y-92726285D01*
X131373619Y-93726285D02*
X132373619Y-93726285D01*
X132373619Y-94392952D02*
X132373619Y-94583428D01*
X132326000Y-94678666D01*
X132230761Y-94773904D01*
X132040285Y-94821523D01*
X131706952Y-94821523D01*
X131516476Y-94773904D01*
X131421238Y-94678666D01*
X131373619Y-94583428D01*
X131373619Y-94392952D01*
X131421238Y-94297714D01*
X131516476Y-94202476D01*
X131706952Y-94154857D01*
X132040285Y-94154857D01*
X132230761Y-94202476D01*
X132326000Y-94297714D01*
X132373619Y-94392952D01*
X132373619Y-96202476D02*
X132373619Y-96392952D01*
X132326000Y-96488190D01*
X132230761Y-96583428D01*
X132040285Y-96631047D01*
X131706952Y-96631047D01*
X131516476Y-96583428D01*
X131421238Y-96488190D01*
X131373619Y-96392952D01*
X131373619Y-96202476D01*
X131421238Y-96107238D01*
X131516476Y-96012000D01*
X131706952Y-95964380D01*
X132040285Y-95964380D01*
X132230761Y-96012000D01*
X132326000Y-96107238D01*
X132373619Y-96202476D01*
X132373619Y-97059619D02*
X131564095Y-97059619D01*
X131468857Y-97107238D01*
X131421238Y-97154857D01*
X131373619Y-97250095D01*
X131373619Y-97440571D01*
X131421238Y-97535809D01*
X131468857Y-97583428D01*
X131564095Y-97631047D01*
X132373619Y-97631047D01*
X132373619Y-97964380D02*
X132373619Y-98535809D01*
X131373619Y-98250095D02*
X132373619Y-98250095D01*
X131373619Y-98869142D02*
X132373619Y-98869142D01*
X132373619Y-99250095D01*
X132326000Y-99345333D01*
X132278380Y-99392952D01*
X132183142Y-99440571D01*
X132040285Y-99440571D01*
X131945047Y-99392952D01*
X131897428Y-99345333D01*
X131849809Y-99250095D01*
X131849809Y-98869142D01*
X132373619Y-99869142D02*
X131564095Y-99869142D01*
X131468857Y-99916761D01*
X131421238Y-99964380D01*
X131373619Y-100059619D01*
X131373619Y-100250095D01*
X131421238Y-100345333D01*
X131468857Y-100392952D01*
X131564095Y-100440571D01*
X132373619Y-100440571D01*
X132373619Y-100773904D02*
X132373619Y-101345333D01*
X131373619Y-101059619D02*
X132373619Y-101059619D01*
D10*
X109783619Y-80105619D02*
X109783619Y-79629428D01*
X110783619Y-79629428D01*
X110164571Y-80438952D02*
X110164571Y-81200857D01*
X110736000Y-82200857D02*
X110783619Y-82105619D01*
X110783619Y-81962761D01*
X110736000Y-81819904D01*
X110640761Y-81724666D01*
X110545523Y-81677047D01*
X110355047Y-81629428D01*
X110212190Y-81629428D01*
X110021714Y-81677047D01*
X109926476Y-81724666D01*
X109831238Y-81819904D01*
X109783619Y-81962761D01*
X109783619Y-82058000D01*
X109831238Y-82200857D01*
X109878857Y-82248476D01*
X110212190Y-82248476D01*
X110212190Y-82058000D01*
X109783619Y-82677047D02*
X110783619Y-82677047D01*
X109783619Y-83248476D01*
X110783619Y-83248476D01*
X109783619Y-83724666D02*
X110783619Y-83724666D01*
X110783619Y-83962761D01*
X110736000Y-84105619D01*
X110640761Y-84200857D01*
X110545523Y-84248476D01*
X110355047Y-84296095D01*
X110212190Y-84296095D01*
X110021714Y-84248476D01*
X109926476Y-84200857D01*
X109831238Y-84105619D01*
X109783619Y-83962761D01*
X109783619Y-83724666D01*
X110164571Y-84724666D02*
X110164571Y-85486571D01*
X109783619Y-86534190D02*
X110259809Y-86200857D01*
X109783619Y-85962761D02*
X110783619Y-85962761D01*
X110783619Y-86343714D01*
X110736000Y-86438952D01*
X110688380Y-86486571D01*
X110593142Y-86534190D01*
X110450285Y-86534190D01*
X110355047Y-86486571D01*
X110307428Y-86438952D01*
X110259809Y-86343714D01*
X110259809Y-85962761D01*
X151386000Y-92940000D02*
X147786000Y-92940000D01*
X151386000Y-99140000D02*
X151386000Y-92940000D01*
X147786000Y-99140000D02*
X151386000Y-99140000D01*
X147786000Y-90440000D02*
X147786000Y-102240000D01*
X144236000Y-90440000D02*
X147786000Y-90440000D01*
X135986000Y-90440000D02*
X139736000Y-90440000D01*
X133286000Y-90440000D02*
X133386000Y-90440000D01*
X133286000Y-102240000D02*
X133286000Y-90440000D01*
X135686000Y-102240000D02*
X133286000Y-102240000D01*
X147786000Y-102240000D02*
X140036000Y-102240000D01*
D12*
X141986000Y-89940000D02*
X142486000Y-89390000D01*
X142486000Y-89390000D02*
X141486000Y-89390000D01*
X141486000Y-89390000D02*
X141986000Y-89940000D01*
D13*
X134746000Y-66704000D02*
G75*
G03*
X134746000Y-66704000I-100000J0D01*
G01*
D14*
X144516000Y-63104000D02*
X147956000Y-63104000D01*
X144516000Y-77104000D02*
X147956000Y-77104000D01*
X140336000Y-63134000D02*
X135126000Y-63134000D01*
X140336000Y-77104000D02*
X135126000Y-77104000D01*
X135126000Y-63134000D02*
X135126000Y-63104000D01*
X135126000Y-77104000D02*
X135126000Y-63134000D01*
X147956000Y-63104000D02*
X147956000Y-77104000D01*
D12*
X109220000Y-86868000D02*
X107950000Y-86868000D01*
X109220000Y-85598000D02*
X109220000Y-86868000D01*
X106907071Y-80138000D02*
X106510000Y-80138000D01*
X106907071Y-80898000D02*
X106510000Y-80898000D01*
X97850000Y-80138000D02*
X103850000Y-80138000D01*
X97850000Y-80898000D02*
X97850000Y-80138000D01*
X103850000Y-80898000D02*
X97850000Y-80898000D01*
X106510000Y-81788000D02*
X103850000Y-81788000D01*
X106907071Y-82678000D02*
X106510000Y-82678000D01*
X106907071Y-83438000D02*
X106510000Y-83438000D01*
X97850000Y-82678000D02*
X103850000Y-82678000D01*
X97850000Y-83438000D02*
X97850000Y-82678000D01*
X103850000Y-83438000D02*
X97850000Y-83438000D01*
X106510000Y-84328000D02*
X103850000Y-84328000D01*
X106840000Y-85218000D02*
X106510000Y-85218000D01*
X106840000Y-85978000D02*
X106510000Y-85978000D01*
X103850000Y-85318000D02*
X97850000Y-85318000D01*
X103850000Y-85438000D02*
X97850000Y-85438000D01*
X103850000Y-85558000D02*
X97850000Y-85558000D01*
X103850000Y-85678000D02*
X97850000Y-85678000D01*
X103850000Y-85798000D02*
X97850000Y-85798000D01*
X103850000Y-85918000D02*
X97850000Y-85918000D01*
X97850000Y-85218000D02*
X103850000Y-85218000D01*
X97850000Y-85978000D02*
X97850000Y-85218000D01*
X103850000Y-85978000D02*
X97850000Y-85978000D01*
X103850000Y-86928000D02*
X106510000Y-86928000D01*
X103850000Y-79188000D02*
X103850000Y-86928000D01*
X106510000Y-79188000D02*
X103850000Y-79188000D01*
X106510000Y-86928000D02*
X106510000Y-79188000D01*
X109280000Y-93666000D02*
X106620000Y-93666000D01*
X109280000Y-101346000D02*
X109280000Y-93666000D01*
X106620000Y-101346000D02*
X106620000Y-93666000D01*
X109280000Y-101346000D02*
X106620000Y-101346000D01*
X109280000Y-102616000D02*
X109280000Y-103946000D01*
X109280000Y-103946000D02*
X107950000Y-103946000D01*
X109280000Y-72450000D02*
X107950000Y-72450000D01*
X109280000Y-71120000D02*
X109280000Y-72450000D01*
X109280000Y-69850000D02*
X106620000Y-69850000D01*
X106620000Y-69850000D02*
X106620000Y-62170000D01*
X109280000Y-69850000D02*
X109280000Y-62170000D01*
X109280000Y-62170000D02*
X106620000Y-62170000D01*
X116947000Y-75506000D02*
X116947000Y-76696000D01*
X116777000Y-75506000D02*
X116947000Y-75506000D01*
X116777000Y-71306000D02*
X116947000Y-71306000D01*
X122077000Y-75506000D02*
X122247000Y-75506000D01*
X122067000Y-71306000D02*
X122237000Y-71306000D01*
X122237000Y-71306000D02*
X122237000Y-75506000D01*
X116777000Y-71306000D02*
X116777000Y-75506000D01*
X117872252Y-106224000D02*
X117349748Y-106224000D01*
X117872252Y-107644000D02*
X117349748Y-107644000D01*
X124154000Y-73413252D02*
X124154000Y-72890748D01*
X122734000Y-73413252D02*
X122734000Y-72890748D01*
X119582000Y-80519748D02*
X119582000Y-81042252D01*
X118162000Y-80519748D02*
X118162000Y-81042252D01*
X117042000Y-81042252D02*
X117042000Y-80519748D01*
X115622000Y-81042252D02*
X115622000Y-80519748D01*
X120702000Y-81042252D02*
X120702000Y-80519748D01*
X122122000Y-81042252D02*
X122122000Y-80519748D01*
X118317000Y-95996000D02*
X116917000Y-95996000D01*
X116217000Y-95296000D02*
X116217000Y-94696000D01*
X116917000Y-93996000D02*
X118317000Y-93996000D01*
X119017000Y-94696000D02*
X119017000Y-95296000D01*
X116917000Y-95996000D02*
G75*
G02*
X116217000Y-95296000I0J700000D01*
G01*
X116217000Y-94696000D02*
G75*
G02*
X116917000Y-93996000I700000J0D01*
G01*
X118317000Y-93996000D02*
G75*
G02*
X119017000Y-94696000I0J-700000D01*
G01*
X119017000Y-95296000D02*
G75*
G02*
X118317000Y-95996000I-700000J0D01*
G01*
X115137000Y-70492252D02*
X115137000Y-69969748D01*
X113717000Y-70492252D02*
X113717000Y-69969748D01*
X121845000Y-65778748D02*
X121845000Y-66301252D01*
X123265000Y-65778748D02*
X123265000Y-66301252D01*
X115137000Y-75439748D02*
X115137000Y-75962252D01*
X113717000Y-75439748D02*
X113717000Y-75962252D01*
X116460748Y-59996000D02*
X116983252Y-59996000D01*
X116460748Y-61416000D02*
X116983252Y-61416000D01*
X116983252Y-65076000D02*
X116460748Y-65076000D01*
X116983252Y-66496000D02*
X116460748Y-66496000D01*
X116460748Y-62536000D02*
X116983252Y-62536000D01*
X116460748Y-63956000D02*
X116983252Y-63956000D01*
X122698252Y-94286000D02*
X122175748Y-94286000D01*
X122698252Y-95706000D02*
X122175748Y-95706000D01*
X122698252Y-86181000D02*
X122175748Y-86181000D01*
X122698252Y-84761000D02*
X122175748Y-84761000D01*
X120702000Y-90289748D02*
X120702000Y-90812252D01*
X122122000Y-90289748D02*
X122122000Y-90812252D01*
X113717000Y-85732252D02*
X113717000Y-85209748D01*
X115137000Y-85732252D02*
X115137000Y-85209748D01*
X116257000Y-85209748D02*
X116257000Y-85732252D01*
X117677000Y-85209748D02*
X117677000Y-85732252D01*
X115280000Y-98190000D02*
X121290000Y-98190000D01*
X117530000Y-105010000D02*
X121290000Y-105010000D01*
X121290000Y-98190000D02*
X121290000Y-99450000D01*
X121290000Y-105010000D02*
X121290000Y-103750000D01*
D10*
X117721285Y-73572666D02*
X118197476Y-73572666D01*
X117626047Y-73858380D02*
X117959380Y-72858380D01*
X118292714Y-73858380D01*
X118626047Y-73858380D02*
X118626047Y-72858380D01*
X118959380Y-73572666D01*
X119292714Y-72858380D01*
X119292714Y-73858380D01*
X119768904Y-73858380D02*
X119768904Y-72858380D01*
X120149857Y-72858380D01*
X120245095Y-72906000D01*
X120292714Y-72953619D01*
X120340333Y-73048857D01*
X120340333Y-73191714D01*
X120292714Y-73286952D01*
X120245095Y-73334571D01*
X120149857Y-73382190D01*
X119768904Y-73382190D01*
X120721285Y-72953619D02*
X120768904Y-72906000D01*
X120864142Y-72858380D01*
X121102238Y-72858380D01*
X121197476Y-72906000D01*
X121245095Y-72953619D01*
X121292714Y-73048857D01*
X121292714Y-73144095D01*
X121245095Y-73286952D01*
X120673666Y-73858380D01*
X121292714Y-73858380D01*
X114641333Y-107291142D02*
X114593714Y-107338761D01*
X114450857Y-107386380D01*
X114355619Y-107386380D01*
X114212761Y-107338761D01*
X114117523Y-107243523D01*
X114069904Y-107148285D01*
X114022285Y-106957809D01*
X114022285Y-106814952D01*
X114069904Y-106624476D01*
X114117523Y-106529238D01*
X114212761Y-106434000D01*
X114355619Y-106386380D01*
X114450857Y-106386380D01*
X114593714Y-106434000D01*
X114641333Y-106481619D01*
X115593714Y-107386380D02*
X115022285Y-107386380D01*
X115308000Y-107386380D02*
X115308000Y-106386380D01*
X115212761Y-106529238D01*
X115117523Y-106624476D01*
X115022285Y-106672095D01*
X123277333Y-76294142D02*
X123229714Y-76341761D01*
X123086857Y-76389380D01*
X122991619Y-76389380D01*
X122848761Y-76341761D01*
X122753523Y-76246523D01*
X122705904Y-76151285D01*
X122658285Y-75960809D01*
X122658285Y-75817952D01*
X122705904Y-75627476D01*
X122753523Y-75532238D01*
X122848761Y-75437000D01*
X122991619Y-75389380D01*
X123086857Y-75389380D01*
X123229714Y-75437000D01*
X123277333Y-75484619D01*
X123753523Y-76389380D02*
X123944000Y-76389380D01*
X124039238Y-76341761D01*
X124086857Y-76294142D01*
X124182095Y-76151285D01*
X124229714Y-75960809D01*
X124229714Y-75579857D01*
X124182095Y-75484619D01*
X124134476Y-75437000D01*
X124039238Y-75389380D01*
X123848761Y-75389380D01*
X123753523Y-75437000D01*
X123705904Y-75484619D01*
X123658285Y-75579857D01*
X123658285Y-75817952D01*
X123705904Y-75913190D01*
X123753523Y-75960809D01*
X123848761Y-76008428D01*
X124039238Y-76008428D01*
X124134476Y-75960809D01*
X124182095Y-75913190D01*
X124229714Y-75817952D01*
X118229142Y-78589142D02*
X118181523Y-78636761D01*
X118038666Y-78684380D01*
X117943428Y-78684380D01*
X117800571Y-78636761D01*
X117705333Y-78541523D01*
X117657714Y-78446285D01*
X117610095Y-78255809D01*
X117610095Y-78112952D01*
X117657714Y-77922476D01*
X117705333Y-77827238D01*
X117800571Y-77732000D01*
X117943428Y-77684380D01*
X118038666Y-77684380D01*
X118181523Y-77732000D01*
X118229142Y-77779619D01*
X119181523Y-78684380D02*
X118610095Y-78684380D01*
X118895809Y-78684380D02*
X118895809Y-77684380D01*
X118800571Y-77827238D01*
X118705333Y-77922476D01*
X118610095Y-77970095D01*
X119800571Y-77684380D02*
X119895809Y-77684380D01*
X119991047Y-77732000D01*
X120038666Y-77779619D01*
X120086285Y-77874857D01*
X120133904Y-78065333D01*
X120133904Y-78303428D01*
X120086285Y-78493904D01*
X120038666Y-78589142D01*
X119991047Y-78636761D01*
X119895809Y-78684380D01*
X119800571Y-78684380D01*
X119705333Y-78636761D01*
X119657714Y-78589142D01*
X119610095Y-78493904D01*
X119562476Y-78303428D01*
X119562476Y-78065333D01*
X119610095Y-77874857D01*
X119657714Y-77779619D01*
X119705333Y-77732000D01*
X119800571Y-77684380D01*
X115039142Y-81423857D02*
X115086761Y-81471476D01*
X115134380Y-81614333D01*
X115134380Y-81709571D01*
X115086761Y-81852428D01*
X114991523Y-81947666D01*
X114896285Y-81995285D01*
X114705809Y-82042904D01*
X114562952Y-82042904D01*
X114372476Y-81995285D01*
X114277238Y-81947666D01*
X114182000Y-81852428D01*
X114134380Y-81709571D01*
X114134380Y-81614333D01*
X114182000Y-81471476D01*
X114229619Y-81423857D01*
X114229619Y-81042904D02*
X114182000Y-80995285D01*
X114134380Y-80900047D01*
X114134380Y-80661952D01*
X114182000Y-80566714D01*
X114229619Y-80519095D01*
X114324857Y-80471476D01*
X114420095Y-80471476D01*
X114562952Y-80519095D01*
X115134380Y-81090523D01*
X115134380Y-80471476D01*
X114562952Y-79900047D02*
X114515333Y-79995285D01*
X114467714Y-80042904D01*
X114372476Y-80090523D01*
X114324857Y-80090523D01*
X114229619Y-80042904D01*
X114182000Y-79995285D01*
X114134380Y-79900047D01*
X114134380Y-79709571D01*
X114182000Y-79614333D01*
X114229619Y-79566714D01*
X114324857Y-79519095D01*
X114372476Y-79519095D01*
X114467714Y-79566714D01*
X114515333Y-79614333D01*
X114562952Y-79709571D01*
X114562952Y-79900047D01*
X114610571Y-79995285D01*
X114658190Y-80042904D01*
X114753428Y-80090523D01*
X114943904Y-80090523D01*
X115039142Y-80042904D01*
X115086761Y-79995285D01*
X115134380Y-79900047D01*
X115134380Y-79709571D01*
X115086761Y-79614333D01*
X115039142Y-79566714D01*
X114943904Y-79519095D01*
X114753428Y-79519095D01*
X114658190Y-79566714D01*
X114610571Y-79614333D01*
X114562952Y-79709571D01*
X123547142Y-81414857D02*
X123594761Y-81462476D01*
X123642380Y-81605333D01*
X123642380Y-81700571D01*
X123594761Y-81843428D01*
X123499523Y-81938666D01*
X123404285Y-81986285D01*
X123213809Y-82033904D01*
X123070952Y-82033904D01*
X122880476Y-81986285D01*
X122785238Y-81938666D01*
X122690000Y-81843428D01*
X122642380Y-81700571D01*
X122642380Y-81605333D01*
X122690000Y-81462476D01*
X122737619Y-81414857D01*
X122737619Y-81033904D02*
X122690000Y-80986285D01*
X122642380Y-80891047D01*
X122642380Y-80652952D01*
X122690000Y-80557714D01*
X122737619Y-80510095D01*
X122832857Y-80462476D01*
X122928095Y-80462476D01*
X123070952Y-80510095D01*
X123642380Y-81081523D01*
X123642380Y-80462476D01*
X123642380Y-79986285D02*
X123642380Y-79795809D01*
X123594761Y-79700571D01*
X123547142Y-79652952D01*
X123404285Y-79557714D01*
X123213809Y-79510095D01*
X122832857Y-79510095D01*
X122737619Y-79557714D01*
X122690000Y-79605333D01*
X122642380Y-79700571D01*
X122642380Y-79891047D01*
X122690000Y-79986285D01*
X122737619Y-80033904D01*
X122832857Y-80081523D01*
X123070952Y-80081523D01*
X123166190Y-80033904D01*
X123213809Y-79986285D01*
X123261428Y-79891047D01*
X123261428Y-79700571D01*
X123213809Y-79605333D01*
X123166190Y-79557714D01*
X123070952Y-79510095D01*
X114252666Y-92162380D02*
X114252666Y-92876666D01*
X114205047Y-93019523D01*
X114109809Y-93114761D01*
X113966952Y-93162380D01*
X113871714Y-93162380D01*
X114728857Y-93162380D02*
X114728857Y-92162380D01*
X115109809Y-92162380D01*
X115205047Y-92210000D01*
X115252666Y-92257619D01*
X115300285Y-92352857D01*
X115300285Y-92495714D01*
X115252666Y-92590952D01*
X115205047Y-92638571D01*
X115109809Y-92686190D01*
X114728857Y-92686190D01*
X116205047Y-93162380D02*
X115728857Y-93162380D01*
X115728857Y-92162380D01*
X116538380Y-92162380D02*
X116538380Y-92971904D01*
X116586000Y-93067142D01*
X116633619Y-93114761D01*
X116728857Y-93162380D01*
X116919333Y-93162380D01*
X117014571Y-93114761D01*
X117062190Y-93067142D01*
X117109809Y-92971904D01*
X117109809Y-92162380D01*
X117586000Y-93162380D02*
X117586000Y-92162380D01*
X117919333Y-92876666D01*
X118252666Y-92162380D01*
X118252666Y-93162380D01*
X119252666Y-93162380D02*
X118681238Y-93162380D01*
X118966952Y-93162380D02*
X118966952Y-92162380D01*
X118871714Y-92305238D01*
X118776476Y-92400476D01*
X118681238Y-92448095D01*
X113228380Y-70746857D02*
X112752190Y-71080190D01*
X113228380Y-71318285D02*
X112228380Y-71318285D01*
X112228380Y-70937333D01*
X112276000Y-70842095D01*
X112323619Y-70794476D01*
X112418857Y-70746857D01*
X112561714Y-70746857D01*
X112656952Y-70794476D01*
X112704571Y-70842095D01*
X112752190Y-70937333D01*
X112752190Y-71318285D01*
X112228380Y-70413523D02*
X112228380Y-69794476D01*
X112609333Y-70127809D01*
X112609333Y-69984952D01*
X112656952Y-69889714D01*
X112704571Y-69842095D01*
X112799809Y-69794476D01*
X113037904Y-69794476D01*
X113133142Y-69842095D01*
X113180761Y-69889714D01*
X113228380Y-69984952D01*
X113228380Y-70270666D01*
X113180761Y-70365904D01*
X113133142Y-70413523D01*
X112228380Y-69175428D02*
X112228380Y-69080190D01*
X112276000Y-68984952D01*
X112323619Y-68937333D01*
X112418857Y-68889714D01*
X112609333Y-68842095D01*
X112847428Y-68842095D01*
X113037904Y-68889714D01*
X113133142Y-68937333D01*
X113180761Y-68984952D01*
X113228380Y-69080190D01*
X113228380Y-69175428D01*
X113180761Y-69270666D01*
X113133142Y-69318285D01*
X113037904Y-69365904D01*
X112847428Y-69413523D01*
X112609333Y-69413523D01*
X112418857Y-69365904D01*
X112323619Y-69318285D01*
X112276000Y-69270666D01*
X112228380Y-69175428D01*
X124658380Y-66682857D02*
X124182190Y-67016190D01*
X124658380Y-67254285D02*
X123658380Y-67254285D01*
X123658380Y-66873333D01*
X123706000Y-66778095D01*
X123753619Y-66730476D01*
X123848857Y-66682857D01*
X123991714Y-66682857D01*
X124086952Y-66730476D01*
X124134571Y-66778095D01*
X124182190Y-66873333D01*
X124182190Y-67254285D01*
X123658380Y-66349523D02*
X123658380Y-65730476D01*
X124039333Y-66063809D01*
X124039333Y-65920952D01*
X124086952Y-65825714D01*
X124134571Y-65778095D01*
X124229809Y-65730476D01*
X124467904Y-65730476D01*
X124563142Y-65778095D01*
X124610761Y-65825714D01*
X124658380Y-65920952D01*
X124658380Y-66206666D01*
X124610761Y-66301904D01*
X124563142Y-66349523D01*
X124658380Y-64778095D02*
X124658380Y-65349523D01*
X124658380Y-65063809D02*
X123658380Y-65063809D01*
X123801238Y-65159047D01*
X123896476Y-65254285D01*
X123944095Y-65349523D01*
X113228380Y-76334857D02*
X112752190Y-76668190D01*
X113228380Y-76906285D02*
X112228380Y-76906285D01*
X112228380Y-76525333D01*
X112276000Y-76430095D01*
X112323619Y-76382476D01*
X112418857Y-76334857D01*
X112561714Y-76334857D01*
X112656952Y-76382476D01*
X112704571Y-76430095D01*
X112752190Y-76525333D01*
X112752190Y-76906285D01*
X112228380Y-76001523D02*
X112228380Y-75382476D01*
X112609333Y-75715809D01*
X112609333Y-75572952D01*
X112656952Y-75477714D01*
X112704571Y-75430095D01*
X112799809Y-75382476D01*
X113037904Y-75382476D01*
X113133142Y-75430095D01*
X113180761Y-75477714D01*
X113228380Y-75572952D01*
X113228380Y-75858666D01*
X113180761Y-75953904D01*
X113133142Y-76001523D01*
X112323619Y-75001523D02*
X112276000Y-74953904D01*
X112228380Y-74858666D01*
X112228380Y-74620571D01*
X112276000Y-74525333D01*
X112323619Y-74477714D01*
X112418857Y-74430095D01*
X112514095Y-74430095D01*
X112656952Y-74477714D01*
X113228380Y-75049142D01*
X113228380Y-74430095D01*
X112641142Y-61158380D02*
X112307809Y-60682190D01*
X112069714Y-61158380D02*
X112069714Y-60158380D01*
X112450666Y-60158380D01*
X112545904Y-60206000D01*
X112593523Y-60253619D01*
X112641142Y-60348857D01*
X112641142Y-60491714D01*
X112593523Y-60586952D01*
X112545904Y-60634571D01*
X112450666Y-60682190D01*
X112069714Y-60682190D01*
X112974476Y-60158380D02*
X113593523Y-60158380D01*
X113260190Y-60539333D01*
X113403047Y-60539333D01*
X113498285Y-60586952D01*
X113545904Y-60634571D01*
X113593523Y-60729809D01*
X113593523Y-60967904D01*
X113545904Y-61063142D01*
X113498285Y-61110761D01*
X113403047Y-61158380D01*
X113117333Y-61158380D01*
X113022095Y-61110761D01*
X112974476Y-61063142D01*
X113926857Y-60158380D02*
X114545904Y-60158380D01*
X114212571Y-60539333D01*
X114355428Y-60539333D01*
X114450666Y-60586952D01*
X114498285Y-60634571D01*
X114545904Y-60729809D01*
X114545904Y-60967904D01*
X114498285Y-61063142D01*
X114450666Y-61110761D01*
X114355428Y-61158380D01*
X114069714Y-61158380D01*
X113974476Y-61110761D01*
X113926857Y-61063142D01*
X112641142Y-66238380D02*
X112307809Y-65762190D01*
X112069714Y-66238380D02*
X112069714Y-65238380D01*
X112450666Y-65238380D01*
X112545904Y-65286000D01*
X112593523Y-65333619D01*
X112641142Y-65428857D01*
X112641142Y-65571714D01*
X112593523Y-65666952D01*
X112545904Y-65714571D01*
X112450666Y-65762190D01*
X112069714Y-65762190D01*
X112974476Y-65238380D02*
X113593523Y-65238380D01*
X113260190Y-65619333D01*
X113403047Y-65619333D01*
X113498285Y-65666952D01*
X113545904Y-65714571D01*
X113593523Y-65809809D01*
X113593523Y-66047904D01*
X113545904Y-66143142D01*
X113498285Y-66190761D01*
X113403047Y-66238380D01*
X113117333Y-66238380D01*
X113022095Y-66190761D01*
X112974476Y-66143142D01*
X114450666Y-65571714D02*
X114450666Y-66238380D01*
X114212571Y-65190761D02*
X113974476Y-65905047D01*
X114593523Y-65905047D01*
X119499142Y-63698380D02*
X119165809Y-63222190D01*
X118927714Y-63698380D02*
X118927714Y-62698380D01*
X119308666Y-62698380D01*
X119403904Y-62746000D01*
X119451523Y-62793619D01*
X119499142Y-62888857D01*
X119499142Y-63031714D01*
X119451523Y-63126952D01*
X119403904Y-63174571D01*
X119308666Y-63222190D01*
X118927714Y-63222190D01*
X119832476Y-62698380D02*
X120451523Y-62698380D01*
X120118190Y-63079333D01*
X120261047Y-63079333D01*
X120356285Y-63126952D01*
X120403904Y-63174571D01*
X120451523Y-63269809D01*
X120451523Y-63507904D01*
X120403904Y-63603142D01*
X120356285Y-63650761D01*
X120261047Y-63698380D01*
X119975333Y-63698380D01*
X119880095Y-63650761D01*
X119832476Y-63603142D01*
X121356285Y-62698380D02*
X120880095Y-62698380D01*
X120832476Y-63174571D01*
X120880095Y-63126952D01*
X120975333Y-63079333D01*
X121213428Y-63079333D01*
X121308666Y-63126952D01*
X121356285Y-63174571D01*
X121403904Y-63269809D01*
X121403904Y-63507904D01*
X121356285Y-63603142D01*
X121308666Y-63650761D01*
X121213428Y-63698380D01*
X120975333Y-63698380D01*
X120880095Y-63650761D01*
X120832476Y-63603142D01*
X121794142Y-97098380D02*
X121460809Y-96622190D01*
X121222714Y-97098380D02*
X121222714Y-96098380D01*
X121603666Y-96098380D01*
X121698904Y-96146000D01*
X121746523Y-96193619D01*
X121794142Y-96288857D01*
X121794142Y-96431714D01*
X121746523Y-96526952D01*
X121698904Y-96574571D01*
X121603666Y-96622190D01*
X121222714Y-96622190D01*
X122127476Y-96098380D02*
X122746523Y-96098380D01*
X122413190Y-96479333D01*
X122556047Y-96479333D01*
X122651285Y-96526952D01*
X122698904Y-96574571D01*
X122746523Y-96669809D01*
X122746523Y-96907904D01*
X122698904Y-97003142D01*
X122651285Y-97050761D01*
X122556047Y-97098380D01*
X122270333Y-97098380D01*
X122175095Y-97050761D01*
X122127476Y-97003142D01*
X123603666Y-96098380D02*
X123413190Y-96098380D01*
X123317952Y-96146000D01*
X123270333Y-96193619D01*
X123175095Y-96336476D01*
X123127476Y-96526952D01*
X123127476Y-96907904D01*
X123175095Y-97003142D01*
X123222714Y-97050761D01*
X123317952Y-97098380D01*
X123508428Y-97098380D01*
X123603666Y-97050761D01*
X123651285Y-97003142D01*
X123698904Y-96907904D01*
X123698904Y-96669809D01*
X123651285Y-96574571D01*
X123603666Y-96526952D01*
X123508428Y-96479333D01*
X123317952Y-96479333D01*
X123222714Y-96526952D01*
X123175095Y-96574571D01*
X123127476Y-96669809D01*
X121794142Y-87573380D02*
X121460809Y-87097190D01*
X121222714Y-87573380D02*
X121222714Y-86573380D01*
X121603666Y-86573380D01*
X121698904Y-86621000D01*
X121746523Y-86668619D01*
X121794142Y-86763857D01*
X121794142Y-86906714D01*
X121746523Y-87001952D01*
X121698904Y-87049571D01*
X121603666Y-87097190D01*
X121222714Y-87097190D01*
X122127476Y-86573380D02*
X122746523Y-86573380D01*
X122413190Y-86954333D01*
X122556047Y-86954333D01*
X122651285Y-87001952D01*
X122698904Y-87049571D01*
X122746523Y-87144809D01*
X122746523Y-87382904D01*
X122698904Y-87478142D01*
X122651285Y-87525761D01*
X122556047Y-87573380D01*
X122270333Y-87573380D01*
X122175095Y-87525761D01*
X122127476Y-87478142D01*
X123079857Y-86573380D02*
X123746523Y-86573380D01*
X123317952Y-87573380D01*
X123642380Y-91066857D02*
X123166190Y-91400190D01*
X123642380Y-91638285D02*
X122642380Y-91638285D01*
X122642380Y-91257333D01*
X122690000Y-91162095D01*
X122737619Y-91114476D01*
X122832857Y-91066857D01*
X122975714Y-91066857D01*
X123070952Y-91114476D01*
X123118571Y-91162095D01*
X123166190Y-91257333D01*
X123166190Y-91638285D01*
X122642380Y-90733523D02*
X122642380Y-90114476D01*
X123023333Y-90447809D01*
X123023333Y-90304952D01*
X123070952Y-90209714D01*
X123118571Y-90162095D01*
X123213809Y-90114476D01*
X123451904Y-90114476D01*
X123547142Y-90162095D01*
X123594761Y-90209714D01*
X123642380Y-90304952D01*
X123642380Y-90590666D01*
X123594761Y-90685904D01*
X123547142Y-90733523D01*
X123070952Y-89543047D02*
X123023333Y-89638285D01*
X122975714Y-89685904D01*
X122880476Y-89733523D01*
X122832857Y-89733523D01*
X122737619Y-89685904D01*
X122690000Y-89638285D01*
X122642380Y-89543047D01*
X122642380Y-89352571D01*
X122690000Y-89257333D01*
X122737619Y-89209714D01*
X122832857Y-89162095D01*
X122880476Y-89162095D01*
X122975714Y-89209714D01*
X123023333Y-89257333D01*
X123070952Y-89352571D01*
X123070952Y-89543047D01*
X123118571Y-89638285D01*
X123166190Y-89685904D01*
X123261428Y-89733523D01*
X123451904Y-89733523D01*
X123547142Y-89685904D01*
X123594761Y-89638285D01*
X123642380Y-89543047D01*
X123642380Y-89352571D01*
X123594761Y-89257333D01*
X123547142Y-89209714D01*
X123451904Y-89162095D01*
X123261428Y-89162095D01*
X123166190Y-89209714D01*
X123118571Y-89257333D01*
X123070952Y-89352571D01*
X115006380Y-89415857D02*
X114530190Y-89749190D01*
X115006380Y-89987285D02*
X114006380Y-89987285D01*
X114006380Y-89606333D01*
X114054000Y-89511095D01*
X114101619Y-89463476D01*
X114196857Y-89415857D01*
X114339714Y-89415857D01*
X114434952Y-89463476D01*
X114482571Y-89511095D01*
X114530190Y-89606333D01*
X114530190Y-89987285D01*
X114006380Y-89082523D02*
X114006380Y-88463476D01*
X114387333Y-88796809D01*
X114387333Y-88653952D01*
X114434952Y-88558714D01*
X114482571Y-88511095D01*
X114577809Y-88463476D01*
X114815904Y-88463476D01*
X114911142Y-88511095D01*
X114958761Y-88558714D01*
X115006380Y-88653952D01*
X115006380Y-88939666D01*
X114958761Y-89034904D01*
X114911142Y-89082523D01*
X115006380Y-87987285D02*
X115006380Y-87796809D01*
X114958761Y-87701571D01*
X114911142Y-87653952D01*
X114768285Y-87558714D01*
X114577809Y-87511095D01*
X114196857Y-87511095D01*
X114101619Y-87558714D01*
X114054000Y-87606333D01*
X114006380Y-87701571D01*
X114006380Y-87892047D01*
X114054000Y-87987285D01*
X114101619Y-88034904D01*
X114196857Y-88082523D01*
X114434952Y-88082523D01*
X114530190Y-88034904D01*
X114577809Y-87987285D01*
X114625428Y-87892047D01*
X114625428Y-87701571D01*
X114577809Y-87606333D01*
X114530190Y-87558714D01*
X114434952Y-87511095D01*
X117419380Y-89415857D02*
X116943190Y-89749190D01*
X117419380Y-89987285D02*
X116419380Y-89987285D01*
X116419380Y-89606333D01*
X116467000Y-89511095D01*
X116514619Y-89463476D01*
X116609857Y-89415857D01*
X116752714Y-89415857D01*
X116847952Y-89463476D01*
X116895571Y-89511095D01*
X116943190Y-89606333D01*
X116943190Y-89987285D01*
X116752714Y-88558714D02*
X117419380Y-88558714D01*
X116371761Y-88796809D02*
X117086047Y-89034904D01*
X117086047Y-88415857D01*
X116419380Y-87844428D02*
X116419380Y-87749190D01*
X116467000Y-87653952D01*
X116514619Y-87606333D01*
X116609857Y-87558714D01*
X116800333Y-87511095D01*
X117038428Y-87511095D01*
X117228904Y-87558714D01*
X117324142Y-87606333D01*
X117371761Y-87653952D01*
X117419380Y-87749190D01*
X117419380Y-87844428D01*
X117371761Y-87939666D01*
X117324142Y-87987285D01*
X117228904Y-88034904D01*
X117038428Y-88082523D01*
X116800333Y-88082523D01*
X116609857Y-88034904D01*
X116514619Y-87987285D01*
X116467000Y-87939666D01*
X116419380Y-87844428D01*
X119832380Y-102719047D02*
X119356190Y-103052380D01*
X119832380Y-103290476D02*
X118832380Y-103290476D01*
X118832380Y-102909523D01*
X118880000Y-102814285D01*
X118927619Y-102766666D01*
X119022857Y-102719047D01*
X119165714Y-102719047D01*
X119260952Y-102766666D01*
X119308571Y-102814285D01*
X119356190Y-102909523D01*
X119356190Y-103290476D01*
X119308571Y-102290476D02*
X119308571Y-101957142D01*
X119832380Y-101814285D02*
X119832380Y-102290476D01*
X118832380Y-102290476D01*
X118832380Y-101814285D01*
X118880000Y-100861904D02*
X118832380Y-100957142D01*
X118832380Y-101100000D01*
X118880000Y-101242857D01*
X118975238Y-101338095D01*
X119070476Y-101385714D01*
X119260952Y-101433333D01*
X119403809Y-101433333D01*
X119594285Y-101385714D01*
X119689523Y-101338095D01*
X119784761Y-101242857D01*
X119832380Y-101100000D01*
X119832380Y-101004761D01*
X119784761Y-100861904D01*
X119737142Y-100814285D01*
X119403809Y-100814285D01*
X119403809Y-101004761D01*
X118927619Y-100433333D02*
X118880000Y-100385714D01*
X118832380Y-100290476D01*
X118832380Y-100052380D01*
X118880000Y-99957142D01*
X118927619Y-99909523D01*
X119022857Y-99861904D01*
X119118095Y-99861904D01*
X119260952Y-99909523D01*
X119832380Y-100480952D01*
X119832380Y-99861904D01*
M02*
