M48
; DRILL file {KiCad (6.0.0)} date Sat Feb 19 22:37:16 2022
; FORMAT={-:-/ absolute / inch / decimal}
; #@! TF.CreationDate,2022-02-19T22:37:16+01:00
; #@! TF.GenerationSoftware,Kicad,Pcbnew,(6.0.0)
; #@! TF.FileFunction,Plated,1,2,PTH
FMAT,2
INCH
; #@! TA.AperFunction,Plated,PTH,ViaDrill
T1C0.0157
; #@! TA.AperFunction,Plated,PTH,ViaDrill
T2C0.0315
; #@! TA.AperFunction,Plated,PTH,ComponentDrill
T3C0.0315
; #@! TA.AperFunction,Plated,PTH,ComponentDrill
T4C0.0350
; #@! TA.AperFunction,Plated,PTH,ComponentDrill
T5C0.0394
; #@! TA.AperFunction,Plated,PTH,ComponentDrill
T6C0.0512
; #@! TA.AperFunction,Plated,PTH,ComponentDrill
T7C0.0902
%
G90
G05
T1
X4.25Y-2.24
X4.25Y-2.4
X4.25Y-3.0
X4.25Y-3.6
X4.25Y-4.3
X4.45Y-3.95
X4.7Y-3.425
X5.09Y-2.76
X5.1Y-2.24
X5.1Y-3.3
X5.1Y-4.3
X5.4Y-2.24
X5.4Y-2.76
X5.4Y-3.3
X5.5315Y-4.1929
X5.7Y-2.24
T2
X4.5Y-2.87
X4.505Y-3.09
X4.58Y-2.715
X4.69Y-2.39
X4.7Y-3.29
X4.805Y-2.69
X4.855Y-2.765
T3
X4.96Y-2.63
X4.96Y-2.89
X5.26Y-2.63
X5.26Y-2.89
X5.5906Y-4.1142
X5.5906Y-4.1929
X5.5906Y-4.2717
X5.6693Y-4.1142
X5.6693Y-4.1929
X5.6693Y-4.2717
T4
X5.392Y-2.6281
X5.392Y-2.8919
X5.49Y-2.6281
X5.49Y-2.8919
T5
X4.25Y-2.5
X4.25Y-2.6
X4.25Y-2.7
X4.25Y-2.8
X4.25Y-3.17
X4.25Y-3.27
X4.25Y-3.37
X4.25Y-3.74
X4.25Y-3.84
X4.25Y-3.94
X4.25Y-4.04
X4.85Y-2.24
X4.85Y-4.3
X4.95Y-2.24
X4.95Y-4.3
X5.71Y-3.22
X5.71Y-3.32
T6
X5.3026Y-3.6197
X5.4286Y-3.9858
X5.4758Y-3.8795
X5.59Y-3.6
X5.7435Y-3.7811
T7
X5.6081Y-2.4939
X5.6081Y-3.0261
X5.64Y-2.76
T0
M30
