G04 #@! TF.GenerationSoftware,KiCad,Pcbnew,(6.0.0)*
G04 #@! TF.CreationDate,2022-02-21T15:52:47+01:00*
G04 #@! TF.ProjectId,rfreplacement,72667265-706c-4616-9365-6d656e742e6b,rev?*
G04 #@! TF.SameCoordinates,Original*
G04 #@! TF.FileFunction,Soldermask,Top*
G04 #@! TF.FilePolarity,Negative*
%FSLAX46Y46*%
G04 Gerber Fmt 4.6, Leading zero omitted, Abs format (unit mm)*
G04 Created by KiCad (PCBNEW (6.0.0)) date 2022-02-21 15:52:47*
%MOMM*%
%LPD*%
G01*
G04 APERTURE LIST*
G04 Aperture macros list*
%AMRoundRect*
0 Rectangle with rounded corners*
0 $1 Rounding radius*
0 $2 $3 $4 $5 $6 $7 $8 $9 X,Y pos of 4 corners*
0 Add a 4 corners polygon primitive as box body*
4,1,4,$2,$3,$4,$5,$6,$7,$8,$9,$2,$3,0*
0 Add four circle primitives for the rounded corners*
1,1,$1+$1,$2,$3*
1,1,$1+$1,$4,$5*
1,1,$1+$1,$6,$7*
1,1,$1+$1,$8,$9*
0 Add four rect primitives between the rounded corners*
20,1,$1+$1,$2,$3,$4,$5,0*
20,1,$1+$1,$4,$5,$6,$7,0*
20,1,$1+$1,$6,$7,$8,$9,0*
20,1,$1+$1,$8,$9,$2,$3,0*%
%AMFreePoly0*
4,1,22,0.500000,-0.750000,0.000000,-0.750000,0.000000,-0.745033,-0.079941,-0.743568,-0.215256,-0.701293,-0.333266,-0.622738,-0.424486,-0.514219,-0.481581,-0.384460,-0.499164,-0.250000,-0.500000,-0.250000,-0.500000,0.250000,-0.499164,0.250000,-0.499963,0.256109,-0.478152,0.396186,-0.417904,0.524511,-0.324060,0.630769,-0.204165,0.706417,-0.067858,0.745374,0.000000,0.744959,0.000000,0.750000,
0.500000,0.750000,0.500000,-0.750000,0.500000,-0.750000,$1*%
%AMFreePoly1*
4,1,20,0.000000,0.744959,0.073905,0.744508,0.209726,0.703889,0.328688,0.626782,0.421226,0.519385,0.479903,0.390333,0.500000,0.250000,0.500000,-0.250000,0.499851,-0.262216,0.476331,-0.402017,0.414519,-0.529596,0.319384,-0.634700,0.198574,-0.708877,0.061801,-0.746166,0.000000,-0.745033,0.000000,-0.750000,-0.500000,-0.750000,-0.500000,0.750000,0.000000,0.750000,0.000000,0.744959,
0.000000,0.744959,$1*%
G04 Aperture macros list end*
%ADD10R,1.700000X1.700000*%
%ADD11O,1.700000X1.700000*%
%ADD12R,1.450000X0.800000*%
%ADD13RoundRect,0.250000X-0.475000X0.337500X-0.475000X-0.337500X0.475000X-0.337500X0.475000X0.337500X0*%
%ADD14RoundRect,0.250000X0.337500X0.475000X-0.337500X0.475000X-0.337500X-0.475000X0.337500X-0.475000X0*%
%ADD15RoundRect,0.250000X-0.337500X-0.475000X0.337500X-0.475000X0.337500X0.475000X-0.337500X0.475000X0*%
%ADD16FreePoly0,270.000000*%
%ADD17FreePoly1,270.000000*%
%ADD18RoundRect,0.250000X-0.350000X-0.450000X0.350000X-0.450000X0.350000X0.450000X-0.350000X0.450000X0*%
%ADD19RoundRect,0.250000X0.450000X-0.350000X0.450000X0.350000X-0.450000X0.350000X-0.450000X-0.350000X0*%
%ADD20RoundRect,0.250000X-0.450000X0.350000X-0.450000X-0.350000X0.450000X-0.350000X0.450000X0.350000X0*%
%ADD21RoundRect,0.250000X0.350000X0.450000X-0.350000X0.450000X-0.350000X-0.450000X0.350000X-0.450000X0*%
%ADD22R,1.500000X2.000000*%
%ADD23R,3.800000X2.000000*%
%ADD24O,2.200000X4.000000*%
%ADD25O,4.000000X2.200000*%
%ADD26R,2.200000X4.000000*%
%ADD27R,1.398000X1.398000*%
%ADD28C,1.398000*%
%ADD29C,3.306000*%
%ADD30R,1.350000X1.350000*%
%ADD31O,1.350000X1.350000*%
%ADD32RoundRect,0.250000X0.450000X-0.325000X0.450000X0.325000X-0.450000X0.325000X-0.450000X-0.325000X0*%
%ADD33C,1.600000*%
%ADD34O,1.600000X1.600000*%
G04 APERTURE END LIST*
D10*
X144272000Y-99822000D03*
D11*
X141732000Y-99822000D03*
X139192000Y-99822000D03*
X136652000Y-99822000D03*
D12*
X117687000Y-90170000D03*
X117687000Y-88900000D03*
X117687000Y-87630000D03*
X117687000Y-86360000D03*
X112437000Y-86360000D03*
X112437000Y-87630000D03*
X112437000Y-88900000D03*
X112437000Y-90170000D03*
D13*
X148590000Y-89123500D03*
X148590000Y-91198500D03*
D14*
X115845500Y-84328000D03*
X113770500Y-84328000D03*
D15*
X121399500Y-88900000D03*
X123474500Y-88900000D03*
D14*
X123474500Y-86360000D03*
X121399500Y-86360000D03*
D16*
X136652000Y-89505000D03*
D17*
X136652000Y-90805000D03*
D18*
X106696000Y-85217000D03*
X108696000Y-85217000D03*
X116357000Y-93345000D03*
X118357000Y-93345000D03*
D19*
X102362000Y-92050000D03*
X102362000Y-90050000D03*
D20*
X107442000Y-90050000D03*
X107442000Y-92050000D03*
D19*
X104902000Y-92050000D03*
X104902000Y-90050000D03*
D20*
X136652000Y-84335000D03*
X136652000Y-86335000D03*
X127127000Y-84335000D03*
X127127000Y-86335000D03*
D21*
X128127000Y-93345000D03*
X126127000Y-93345000D03*
D22*
X140956000Y-91542000D03*
X143256000Y-91542000D03*
X145556000Y-91542000D03*
D23*
X143256000Y-85242000D03*
D21*
X112887000Y-93345000D03*
X110887000Y-93345000D03*
D18*
X126127000Y-90805000D03*
X128127000Y-90805000D03*
D14*
X123474500Y-91440000D03*
X121399500Y-91440000D03*
D10*
X127254000Y-99822000D03*
D11*
X124714000Y-99822000D03*
X122174000Y-99822000D03*
D18*
X131207000Y-86360000D03*
X133207000Y-86360000D03*
D10*
X112776000Y-99822000D03*
D11*
X110236000Y-99822000D03*
X107696000Y-99822000D03*
X105156000Y-99822000D03*
D24*
X142896000Y-69886000D03*
X140196000Y-68686000D03*
D25*
X137696000Y-61886000D03*
D26*
X133096000Y-65786000D03*
D25*
X133596000Y-73086000D03*
D27*
X108410000Y-68326000D03*
D28*
X115110000Y-68326000D03*
X108410000Y-70816000D03*
X115110000Y-70816000D03*
D29*
X111760000Y-64516000D03*
X118520000Y-65326000D03*
X105000000Y-65326000D03*
D30*
X146156000Y-63772000D03*
D31*
X146156000Y-65772000D03*
D30*
X148156000Y-63772000D03*
D31*
X148156000Y-65772000D03*
D30*
X150156000Y-63772000D03*
D31*
X150156000Y-65772000D03*
D32*
X115062000Y-79774000D03*
X115062000Y-77724000D03*
X108458000Y-79756000D03*
X108458000Y-77706000D03*
D10*
X125984000Y-62738000D03*
D11*
X123444000Y-62738000D03*
D10*
X150876000Y-84582000D03*
D11*
X150876000Y-82042000D03*
D10*
X98552000Y-84582000D03*
D11*
X98552000Y-82042000D03*
D33*
X108406000Y-74152000D03*
D34*
X108406000Y-81772000D03*
D33*
X115062000Y-74168000D03*
D34*
X115062000Y-81788000D03*
M02*
