G04 #@! TF.GenerationSoftware,KiCad,Pcbnew,(6.0.0)*
G04 #@! TF.CreationDate,2022-03-23T09:25:18+01:00*
G04 #@! TF.ProjectId,rfreplacement,72667265-706c-4616-9365-6d656e742e6b,1.2*
G04 #@! TF.SameCoordinates,Original*
G04 #@! TF.FileFunction,Copper,L1,Top*
G04 #@! TF.FilePolarity,Positive*
%FSLAX46Y46*%
G04 Gerber Fmt 4.6, Leading zero omitted, Abs format (unit mm)*
G04 Created by KiCad (PCBNEW (6.0.0)) date 2022-03-23 09:25:18*
%MOMM*%
%LPD*%
G01*
G04 APERTURE LIST*
G04 Aperture macros list*
%AMRoundRect*
0 Rectangle with rounded corners*
0 $1 Rounding radius*
0 $2 $3 $4 $5 $6 $7 $8 $9 X,Y pos of 4 corners*
0 Add a 4 corners polygon primitive as box body*
4,1,4,$2,$3,$4,$5,$6,$7,$8,$9,$2,$3,0*
0 Add four circle primitives for the rounded corners*
1,1,$1+$1,$2,$3*
1,1,$1+$1,$4,$5*
1,1,$1+$1,$6,$7*
1,1,$1+$1,$8,$9*
0 Add four rect primitives between the rounded corners*
20,1,$1+$1,$2,$3,$4,$5,0*
20,1,$1+$1,$4,$5,$6,$7,0*
20,1,$1+$1,$6,$7,$8,$9,0*
20,1,$1+$1,$8,$9,$2,$3,0*%
%AMFreePoly0*
4,1,22,0.500000,-0.750000,0.000000,-0.750000,0.000000,-0.745033,-0.079941,-0.743568,-0.215256,-0.701293,-0.333266,-0.622738,-0.424486,-0.514219,-0.481581,-0.384460,-0.499164,-0.250000,-0.500000,-0.250000,-0.500000,0.250000,-0.499164,0.250000,-0.499963,0.256109,-0.478152,0.396186,-0.417904,0.524511,-0.324060,0.630769,-0.204165,0.706417,-0.067858,0.745374,0.000000,0.744959,0.000000,0.750000,
0.500000,0.750000,0.500000,-0.750000,0.500000,-0.750000,$1*%
%AMFreePoly1*
4,1,20,0.000000,0.744959,0.073905,0.744508,0.209726,0.703889,0.328688,0.626782,0.421226,0.519385,0.479903,0.390333,0.500000,0.250000,0.500000,-0.250000,0.499851,-0.262216,0.476331,-0.402017,0.414519,-0.529596,0.319384,-0.634700,0.198574,-0.708877,0.061801,-0.746166,0.000000,-0.745033,0.000000,-0.750000,-0.500000,-0.750000,-0.500000,0.750000,0.000000,0.750000,0.000000,0.744959,
0.000000,0.744959,$1*%
G04 Aperture macros list end*
G04 #@! TA.AperFunction,ComponentPad*
%ADD10R,1.700000X1.700000*%
G04 #@! TD*
G04 #@! TA.AperFunction,ComponentPad*
%ADD11O,1.700000X1.700000*%
G04 #@! TD*
G04 #@! TA.AperFunction,SMDPad,CuDef*
%ADD12R,1.450000X0.800000*%
G04 #@! TD*
G04 #@! TA.AperFunction,SMDPad,CuDef*
%ADD13RoundRect,0.250000X-0.475000X0.337500X-0.475000X-0.337500X0.475000X-0.337500X0.475000X0.337500X0*%
G04 #@! TD*
G04 #@! TA.AperFunction,SMDPad,CuDef*
%ADD14RoundRect,0.250000X0.337500X0.475000X-0.337500X0.475000X-0.337500X-0.475000X0.337500X-0.475000X0*%
G04 #@! TD*
G04 #@! TA.AperFunction,SMDPad,CuDef*
%ADD15RoundRect,0.250000X-0.337500X-0.475000X0.337500X-0.475000X0.337500X0.475000X-0.337500X0.475000X0*%
G04 #@! TD*
G04 #@! TA.AperFunction,SMDPad,CuDef*
%ADD16FreePoly0,270.000000*%
G04 #@! TD*
G04 #@! TA.AperFunction,SMDPad,CuDef*
%ADD17FreePoly1,270.000000*%
G04 #@! TD*
G04 #@! TA.AperFunction,SMDPad,CuDef*
%ADD18RoundRect,0.250000X-0.350000X-0.450000X0.350000X-0.450000X0.350000X0.450000X-0.350000X0.450000X0*%
G04 #@! TD*
G04 #@! TA.AperFunction,SMDPad,CuDef*
%ADD19RoundRect,0.250000X0.450000X-0.350000X0.450000X0.350000X-0.450000X0.350000X-0.450000X-0.350000X0*%
G04 #@! TD*
G04 #@! TA.AperFunction,SMDPad,CuDef*
%ADD20RoundRect,0.250000X-0.450000X0.350000X-0.450000X-0.350000X0.450000X-0.350000X0.450000X0.350000X0*%
G04 #@! TD*
G04 #@! TA.AperFunction,SMDPad,CuDef*
%ADD21RoundRect,0.250000X0.350000X0.450000X-0.350000X0.450000X-0.350000X-0.450000X0.350000X-0.450000X0*%
G04 #@! TD*
G04 #@! TA.AperFunction,SMDPad,CuDef*
%ADD22R,1.500000X2.000000*%
G04 #@! TD*
G04 #@! TA.AperFunction,SMDPad,CuDef*
%ADD23R,3.800000X2.000000*%
G04 #@! TD*
G04 #@! TA.AperFunction,ComponentPad*
%ADD24O,2.200000X4.000000*%
G04 #@! TD*
G04 #@! TA.AperFunction,ComponentPad*
%ADD25O,4.000000X2.200000*%
G04 #@! TD*
G04 #@! TA.AperFunction,ComponentPad*
%ADD26R,2.200000X4.000000*%
G04 #@! TD*
G04 #@! TA.AperFunction,ComponentPad*
%ADD27R,1.398000X1.398000*%
G04 #@! TD*
G04 #@! TA.AperFunction,ComponentPad*
%ADD28C,1.398000*%
G04 #@! TD*
G04 #@! TA.AperFunction,ComponentPad*
%ADD29C,3.306000*%
G04 #@! TD*
G04 #@! TA.AperFunction,ComponentPad*
%ADD30R,1.350000X1.350000*%
G04 #@! TD*
G04 #@! TA.AperFunction,ComponentPad*
%ADD31O,1.350000X1.350000*%
G04 #@! TD*
G04 #@! TA.AperFunction,SMDPad,CuDef*
%ADD32RoundRect,0.250000X0.450000X-0.325000X0.450000X0.325000X-0.450000X0.325000X-0.450000X-0.325000X0*%
G04 #@! TD*
G04 #@! TA.AperFunction,ComponentPad*
%ADD33C,1.600000*%
G04 #@! TD*
G04 #@! TA.AperFunction,ComponentPad*
%ADD34O,1.600000X1.600000*%
G04 #@! TD*
G04 #@! TA.AperFunction,ViaPad*
%ADD35C,1.200000*%
G04 #@! TD*
G04 #@! TA.AperFunction,ViaPad*
%ADD36C,0.600000*%
G04 #@! TD*
G04 #@! TA.AperFunction,Conductor*
%ADD37C,0.800000*%
G04 #@! TD*
G04 #@! TA.AperFunction,Conductor*
%ADD38C,1.200000*%
G04 #@! TD*
G04 APERTURE END LIST*
D10*
X144272000Y-99822000D03*
D11*
X141732000Y-99822000D03*
X139192000Y-99822000D03*
X136652000Y-99822000D03*
D12*
X117687000Y-90170000D03*
X117687000Y-88900000D03*
X117687000Y-87630000D03*
X117687000Y-86360000D03*
X112437000Y-86360000D03*
X112437000Y-87630000D03*
X112437000Y-88900000D03*
X112437000Y-90170000D03*
D13*
X148590000Y-89123500D03*
X148590000Y-91198500D03*
D14*
X115845500Y-84328000D03*
X113770500Y-84328000D03*
D15*
X121399500Y-88900000D03*
X123474500Y-88900000D03*
D14*
X123474500Y-86360000D03*
X121399500Y-86360000D03*
D16*
X136652000Y-89505000D03*
D17*
X136652000Y-90805000D03*
D18*
X106696000Y-85217000D03*
X108696000Y-85217000D03*
X116357000Y-93345000D03*
X118357000Y-93345000D03*
D19*
X102362000Y-92050000D03*
X102362000Y-90050000D03*
D20*
X107442000Y-90050000D03*
X107442000Y-92050000D03*
D19*
X104902000Y-92050000D03*
X104902000Y-90050000D03*
D20*
X136652000Y-84335000D03*
X136652000Y-86335000D03*
X127127000Y-84335000D03*
X127127000Y-86335000D03*
D21*
X128127000Y-93345000D03*
X126127000Y-93345000D03*
D22*
X140956000Y-91542000D03*
X143256000Y-91542000D03*
X145556000Y-91542000D03*
D23*
X143256000Y-85242000D03*
D21*
X112887000Y-93345000D03*
X110887000Y-93345000D03*
D18*
X126127000Y-90805000D03*
X128127000Y-90805000D03*
D14*
X123474500Y-91440000D03*
X121399500Y-91440000D03*
D10*
X127254000Y-99822000D03*
D11*
X124714000Y-99822000D03*
X122174000Y-99822000D03*
D18*
X131207000Y-86360000D03*
X133207000Y-86360000D03*
D10*
X112776000Y-99822000D03*
D11*
X110236000Y-99822000D03*
X107696000Y-99822000D03*
X105156000Y-99822000D03*
D24*
X142896000Y-69886000D03*
X140196000Y-68686000D03*
D25*
X137696000Y-61886000D03*
D26*
X133096000Y-65786000D03*
D25*
X133596000Y-73086000D03*
D27*
X108410000Y-68326000D03*
D28*
X115110000Y-68326000D03*
X108410000Y-70816000D03*
X115110000Y-70816000D03*
D29*
X111760000Y-64516000D03*
X118520000Y-65326000D03*
X105000000Y-65326000D03*
D30*
X146156000Y-63772000D03*
D31*
X146156000Y-65772000D03*
D30*
X148156000Y-63772000D03*
D31*
X148156000Y-65772000D03*
D30*
X150156000Y-63772000D03*
D31*
X150156000Y-65772000D03*
D32*
X115062000Y-79774000D03*
X115062000Y-77724000D03*
X108458000Y-79756000D03*
X108458000Y-77706000D03*
D10*
X125984000Y-62738000D03*
D11*
X123444000Y-62738000D03*
D10*
X150876000Y-84582000D03*
D11*
X150876000Y-82042000D03*
D10*
X98552000Y-84582000D03*
D11*
X98552000Y-82042000D03*
D33*
X108406000Y-74152000D03*
D34*
X108406000Y-81772000D03*
D33*
X115062000Y-74168000D03*
D34*
X115062000Y-81788000D03*
D35*
X110617000Y-91440000D03*
X102362000Y-88646000D03*
X114554000Y-93472000D03*
X125222000Y-88392000D03*
X109982000Y-85725000D03*
D36*
X151384000Y-74168000D03*
X128651000Y-88392000D03*
X135636000Y-77724000D03*
D35*
X111887000Y-84455000D03*
D36*
X98044000Y-74168000D03*
X151384000Y-91694000D03*
X148156000Y-67272000D03*
X141986000Y-94742000D03*
D35*
X120142000Y-93345000D03*
D36*
X124714000Y-70612000D03*
X98044000Y-102362000D03*
X111760000Y-77724000D03*
X151384000Y-60960000D03*
X151384000Y-102362000D03*
X132080000Y-97536000D03*
X117348000Y-97536000D03*
X124714000Y-77724000D03*
X111760000Y-70612000D03*
X102362000Y-97536000D03*
X98044000Y-91694000D03*
X98044000Y-60960000D03*
D37*
X120523000Y-91440000D02*
X121412000Y-91440000D01*
X119253000Y-90170000D02*
X120523000Y-91440000D01*
X117687000Y-90170000D02*
X119253000Y-90170000D01*
X117687000Y-88900000D02*
X121412000Y-88900000D01*
X117687000Y-87630000D02*
X119380000Y-87630000D01*
X120650000Y-86360000D02*
X121412000Y-86360000D01*
X119380000Y-87630000D02*
X120650000Y-86360000D01*
X117687000Y-84395000D02*
X117687000Y-86360000D01*
D38*
X142324000Y-84310000D02*
X127127000Y-84310000D01*
X127127000Y-84310000D02*
X117602000Y-84310000D01*
D37*
X117584000Y-84328000D02*
X115833000Y-84328000D01*
D38*
X143256000Y-85242000D02*
X142324000Y-84310000D01*
D37*
X117602000Y-84310000D02*
X117687000Y-84395000D01*
X117602000Y-84310000D02*
X117584000Y-84328000D01*
X110617000Y-91440000D02*
X110617000Y-93100000D01*
X110617000Y-90591472D02*
X110617000Y-91440000D01*
X110617000Y-93100000D02*
X110862000Y-93345000D01*
X112437000Y-90170000D02*
X111038472Y-90170000D01*
X102362000Y-90025000D02*
X102362000Y-88646000D01*
X111038472Y-90170000D02*
X110617000Y-90591472D01*
X112437000Y-88900000D02*
X108567000Y-88900000D01*
X108567000Y-88900000D02*
X107442000Y-90025000D01*
X112437000Y-87630000D02*
X106671000Y-87630000D01*
X106172000Y-87630000D02*
X104902000Y-88900000D01*
X104902000Y-88900000D02*
X104902000Y-90025000D01*
X106671000Y-87630000D02*
X106172000Y-87630000D01*
X106671000Y-85217000D02*
X106671000Y-87630000D01*
X109474000Y-85217000D02*
X109982000Y-85725000D01*
X114427000Y-93345000D02*
X114554000Y-93472000D01*
X124714000Y-88900000D02*
X125222000Y-88392000D01*
X112912000Y-93345000D02*
X114427000Y-93345000D01*
X108721000Y-85217000D02*
X109474000Y-85217000D01*
X116332000Y-93345000D02*
X114681000Y-93345000D01*
X114681000Y-93345000D02*
X114554000Y-93472000D01*
X123462000Y-88900000D02*
X124714000Y-88900000D01*
X126102000Y-90805000D02*
X126102000Y-91440000D01*
X126102000Y-91440000D02*
X126102000Y-93345000D01*
X123462000Y-91440000D02*
X126102000Y-91440000D01*
X131182000Y-86360000D02*
X127127000Y-86360000D01*
X123462000Y-86360000D02*
X127127000Y-86360000D01*
X107696000Y-98298000D02*
X102362000Y-92964000D01*
X102362000Y-92964000D02*
X102362000Y-92075000D01*
X115062000Y-81788000D02*
X115062000Y-79774000D01*
X107696000Y-99822000D02*
X107696000Y-98298000D01*
X107442000Y-92964000D02*
X107442000Y-92075000D01*
X112776000Y-98298000D02*
X107442000Y-92964000D01*
X112776000Y-99822000D02*
X112776000Y-98298000D01*
X110236000Y-98298000D02*
X104902000Y-92964000D01*
X104902000Y-92964000D02*
X104902000Y-92075000D01*
X108458000Y-81788000D02*
X108458000Y-79756000D01*
X110236000Y-99822000D02*
X110236000Y-98298000D01*
X135382000Y-90805000D02*
X133232000Y-88655000D01*
X136652000Y-93472000D02*
X136652000Y-90805000D01*
X141732000Y-99822000D02*
X141732000Y-98552000D01*
X141732000Y-98552000D02*
X136652000Y-93472000D01*
X133232000Y-88655000D02*
X133232000Y-86360000D01*
X136652000Y-90805000D02*
X135382000Y-90805000D01*
X131953000Y-93345000D02*
X128152000Y-93345000D01*
X136652000Y-98044000D02*
X131953000Y-93345000D01*
X136652000Y-99822000D02*
X136652000Y-98044000D01*
X118382000Y-93345000D02*
X120142000Y-93345000D01*
X112437000Y-84667000D02*
X112649000Y-84455000D01*
X112437000Y-86360000D02*
X112437000Y-84667000D01*
X139192000Y-98298000D02*
X139192000Y-99822000D01*
X113792000Y-84455000D02*
X112649000Y-84455000D01*
X131699000Y-90805000D02*
X139192000Y-98298000D01*
D38*
X140956000Y-89342000D02*
X140956000Y-91542000D01*
D37*
X128152000Y-90805000D02*
X131699000Y-90805000D01*
D38*
X148590000Y-89136000D02*
X141162000Y-89136000D01*
D37*
X112649000Y-84455000D02*
X111887000Y-84455000D01*
D38*
X141162000Y-89136000D02*
X140956000Y-89342000D01*
D37*
X136652000Y-89505000D02*
X136652000Y-86360000D01*
X140656000Y-63772000D02*
X138642000Y-65786000D01*
X146156000Y-63772000D02*
X140656000Y-63772000D01*
X138642000Y-65786000D02*
X133096000Y-65786000D01*
X115062000Y-77724000D02*
X115062000Y-74168000D01*
D38*
X144272000Y-98298000D02*
X145551000Y-97019000D01*
X145551000Y-97019000D02*
X145551000Y-91547000D01*
X145556000Y-91542000D02*
X148234000Y-91542000D01*
X148234000Y-91542000D02*
X148590000Y-91186000D01*
X144272000Y-99822000D02*
X144272000Y-98298000D01*
D37*
X150156000Y-69272000D02*
X150156000Y-65772000D01*
X149352000Y-85957022D02*
X149352000Y-70076000D01*
X107442000Y-102108000D02*
X146304000Y-102108000D01*
X146156000Y-68272000D02*
X147885511Y-70001511D01*
X105156000Y-99822000D02*
X107442000Y-102108000D01*
X147885511Y-70001511D02*
X149426489Y-70001511D01*
X150368000Y-86973022D02*
X149352000Y-85957022D01*
X146156000Y-65772000D02*
X146156000Y-68272000D01*
X149426489Y-70001511D02*
X150156000Y-69272000D01*
X149352000Y-70076000D02*
X149426489Y-70001511D01*
X150368000Y-98044000D02*
X150368000Y-86973022D01*
X146304000Y-102108000D02*
X150368000Y-98044000D01*
X108458000Y-77706000D02*
X108458000Y-74168000D01*
X147270000Y-61886000D02*
X148156000Y-62772000D01*
X148156000Y-62772000D02*
X148156000Y-63772000D01*
X137696000Y-61886000D02*
X147270000Y-61886000D01*
G04 #@! TA.AperFunction,Conductor*
G36*
X136102654Y-60218002D02*
G01*
X136149147Y-60271658D01*
X136159251Y-60341932D01*
X136129757Y-60406512D01*
X136082753Y-60440408D01*
X136063498Y-60448384D01*
X135847624Y-60580672D01*
X135655102Y-60745102D01*
X135490672Y-60937624D01*
X135358384Y-61153498D01*
X135356491Y-61158068D01*
X135356489Y-61158072D01*
X135297217Y-61301168D01*
X135261495Y-61387409D01*
X135256610Y-61407758D01*
X135210333Y-61600517D01*
X135202391Y-61633597D01*
X135182526Y-61886000D01*
X135202391Y-62138403D01*
X135203545Y-62143210D01*
X135203546Y-62143216D01*
X135236469Y-62280351D01*
X135261495Y-62384591D01*
X135263388Y-62389162D01*
X135263389Y-62389164D01*
X135349991Y-62598239D01*
X135358384Y-62618502D01*
X135490672Y-62834376D01*
X135655102Y-63026898D01*
X135847624Y-63191328D01*
X136063498Y-63323616D01*
X136068068Y-63325509D01*
X136068072Y-63325511D01*
X136267796Y-63408239D01*
X136297409Y-63420505D01*
X136382032Y-63440821D01*
X136538784Y-63478454D01*
X136538790Y-63478455D01*
X136543597Y-63479609D01*
X136643416Y-63487465D01*
X136730345Y-63494307D01*
X136730352Y-63494307D01*
X136732801Y-63494500D01*
X138659199Y-63494500D01*
X138661648Y-63494307D01*
X138661655Y-63494307D01*
X138748584Y-63487465D01*
X138848403Y-63479609D01*
X138853210Y-63478455D01*
X138853216Y-63478454D01*
X139009968Y-63440821D01*
X139094591Y-63420505D01*
X139124204Y-63408239D01*
X139323928Y-63325511D01*
X139323932Y-63325509D01*
X139328502Y-63323616D01*
X139544376Y-63191328D01*
X139736898Y-63026898D01*
X139897662Y-62838668D01*
X139957112Y-62799860D01*
X139993472Y-62794500D01*
X140061842Y-62794500D01*
X140129963Y-62814502D01*
X140176456Y-62868158D01*
X140186560Y-62938432D01*
X140157066Y-63003012D01*
X140129885Y-63025455D01*
X140130118Y-63025776D01*
X140124941Y-63029538D01*
X140124842Y-63029619D01*
X140124776Y-63029657D01*
X140124772Y-63029660D01*
X140119056Y-63032960D01*
X140114150Y-63037377D01*
X140114145Y-63037381D01*
X140068231Y-63078722D01*
X140063216Y-63083006D01*
X140054718Y-63089888D01*
X140047259Y-63095928D01*
X140032744Y-63110443D01*
X140027959Y-63114984D01*
X139977134Y-63160747D01*
X139973255Y-63166086D01*
X139973254Y-63166087D01*
X139968860Y-63172135D01*
X139956019Y-63187168D01*
X138302592Y-64840595D01*
X138240280Y-64874621D01*
X138213497Y-64877500D01*
X134830500Y-64877500D01*
X134762379Y-64857498D01*
X134715886Y-64803842D01*
X134704500Y-64751500D01*
X134704500Y-63737866D01*
X134697745Y-63675684D01*
X134646615Y-63539295D01*
X134559261Y-63422739D01*
X134442705Y-63335385D01*
X134306316Y-63284255D01*
X134244134Y-63277500D01*
X131947866Y-63277500D01*
X131885684Y-63284255D01*
X131749295Y-63335385D01*
X131632739Y-63422739D01*
X131545385Y-63539295D01*
X131494255Y-63675684D01*
X131487500Y-63737866D01*
X131487500Y-67834134D01*
X131494255Y-67896316D01*
X131545385Y-68032705D01*
X131632739Y-68149261D01*
X131749295Y-68236615D01*
X131885684Y-68287745D01*
X131947866Y-68294500D01*
X134244134Y-68294500D01*
X134306316Y-68287745D01*
X134442705Y-68236615D01*
X134559261Y-68149261D01*
X134646615Y-68032705D01*
X134697745Y-67896316D01*
X134704500Y-67834134D01*
X134704500Y-66820500D01*
X134724502Y-66752379D01*
X134778158Y-66705886D01*
X134830500Y-66694500D01*
X138560583Y-66694500D01*
X138580292Y-66696051D01*
X138594190Y-66698252D01*
X138600777Y-66697907D01*
X138600782Y-66697907D01*
X138662480Y-66694673D01*
X138669074Y-66694500D01*
X138689610Y-66694500D01*
X138692882Y-66694156D01*
X138692884Y-66694156D01*
X138710042Y-66692353D01*
X138716617Y-66691836D01*
X138749593Y-66690108D01*
X138818668Y-66706518D01*
X138867905Y-66757667D01*
X138881672Y-66827316D01*
X138863619Y-66881770D01*
X138760975Y-67049268D01*
X138760970Y-67049278D01*
X138758384Y-67053498D01*
X138756491Y-67058068D01*
X138756489Y-67058072D01*
X138664618Y-67279869D01*
X138661495Y-67287409D01*
X138660340Y-67292221D01*
X138608202Y-67509394D01*
X138602391Y-67533597D01*
X138587500Y-67722801D01*
X138587500Y-69649199D01*
X138587693Y-69651648D01*
X138587693Y-69651655D01*
X138589687Y-69676987D01*
X138602391Y-69838403D01*
X138603545Y-69843210D01*
X138603546Y-69843216D01*
X138617189Y-69900041D01*
X138661495Y-70084591D01*
X138758384Y-70318502D01*
X138890672Y-70534376D01*
X139055102Y-70726898D01*
X139247624Y-70891328D01*
X139463498Y-71023616D01*
X139468068Y-71025509D01*
X139468072Y-71025511D01*
X139692836Y-71118611D01*
X139697409Y-71120505D01*
X139782032Y-71140821D01*
X139938784Y-71178454D01*
X139938790Y-71178455D01*
X139943597Y-71179609D01*
X140196000Y-71199474D01*
X140448403Y-71179609D01*
X140453210Y-71178455D01*
X140453216Y-71178454D01*
X140609968Y-71140821D01*
X140694591Y-71120505D01*
X140699164Y-71118611D01*
X140923928Y-71025511D01*
X140923932Y-71025509D01*
X140928502Y-71023616D01*
X141108764Y-70913151D01*
X141177298Y-70894613D01*
X141244974Y-70916069D01*
X141290307Y-70970708D01*
X141300211Y-71010698D01*
X141302391Y-71038403D01*
X141361495Y-71284591D01*
X141363388Y-71289162D01*
X141363389Y-71289164D01*
X141447408Y-71492003D01*
X141458384Y-71518502D01*
X141590672Y-71734376D01*
X141755102Y-71926898D01*
X141947624Y-72091328D01*
X142163498Y-72223616D01*
X142168068Y-72225509D01*
X142168072Y-72225511D01*
X142392836Y-72318611D01*
X142397409Y-72320505D01*
X142482032Y-72340821D01*
X142638784Y-72378454D01*
X142638790Y-72378455D01*
X142643597Y-72379609D01*
X142896000Y-72399474D01*
X143148403Y-72379609D01*
X143153210Y-72378455D01*
X143153216Y-72378454D01*
X143309968Y-72340821D01*
X143394591Y-72320505D01*
X143399164Y-72318611D01*
X143623928Y-72225511D01*
X143623932Y-72225509D01*
X143628502Y-72223616D01*
X143844376Y-72091328D01*
X144036898Y-71926898D01*
X144201328Y-71734376D01*
X144333616Y-71518502D01*
X144344593Y-71492003D01*
X144428611Y-71289164D01*
X144428612Y-71289162D01*
X144430505Y-71284591D01*
X144489609Y-71038403D01*
X144501437Y-70888117D01*
X144504307Y-70851655D01*
X144504307Y-70851648D01*
X144504500Y-70849199D01*
X144504500Y-68922801D01*
X144489609Y-68733597D01*
X144481069Y-68698022D01*
X144443541Y-68541709D01*
X144430505Y-68487409D01*
X144428611Y-68482836D01*
X144335511Y-68258072D01*
X144335509Y-68258068D01*
X144333616Y-68253498D01*
X144201328Y-68037624D01*
X144036898Y-67845102D01*
X143844376Y-67680672D01*
X143628502Y-67548384D01*
X143623932Y-67546491D01*
X143623928Y-67546489D01*
X143399164Y-67453389D01*
X143399162Y-67453388D01*
X143394591Y-67451495D01*
X143309968Y-67431179D01*
X143153216Y-67393546D01*
X143153210Y-67393545D01*
X143148403Y-67392391D01*
X142896000Y-67372526D01*
X142643597Y-67392391D01*
X142638790Y-67393545D01*
X142638784Y-67393546D01*
X142482032Y-67431179D01*
X142397409Y-67451495D01*
X142392838Y-67453388D01*
X142392836Y-67453389D01*
X142168072Y-67546489D01*
X142168068Y-67546491D01*
X142163498Y-67548384D01*
X142159278Y-67550970D01*
X141983236Y-67658849D01*
X141914702Y-67677387D01*
X141847026Y-67655931D01*
X141801693Y-67601292D01*
X141791789Y-67561300D01*
X141790976Y-67550970D01*
X141789609Y-67533597D01*
X141783799Y-67509394D01*
X141731660Y-67292221D01*
X141730505Y-67287409D01*
X141727382Y-67279869D01*
X141635511Y-67058072D01*
X141635509Y-67058068D01*
X141633616Y-67053498D01*
X141501328Y-66837624D01*
X141336898Y-66645102D01*
X141144376Y-66480672D01*
X140928502Y-66348384D01*
X140923932Y-66346491D01*
X140923928Y-66346489D01*
X140699164Y-66253389D01*
X140699162Y-66253388D01*
X140694591Y-66251495D01*
X140579549Y-66223876D01*
X140453216Y-66193546D01*
X140453210Y-66193545D01*
X140448403Y-66192391D01*
X140196000Y-66172526D01*
X139943597Y-66192391D01*
X139938790Y-66193545D01*
X139938784Y-66193546D01*
X139821148Y-66221788D01*
X139750240Y-66218241D01*
X139692506Y-66176921D01*
X139666276Y-66110947D01*
X139679879Y-66041266D01*
X139702639Y-66010174D01*
X140995408Y-64717405D01*
X141057720Y-64683379D01*
X141084503Y-64680500D01*
X144957461Y-64680500D01*
X145025582Y-64700502D01*
X145058287Y-64730935D01*
X145070753Y-64747568D01*
X145117739Y-64810261D01*
X145124919Y-64815642D01*
X145196269Y-64869116D01*
X145238784Y-64925975D01*
X145243810Y-64996794D01*
X145219654Y-65047948D01*
X145193756Y-65080800D01*
X145159181Y-65124658D01*
X145057905Y-65317154D01*
X145056192Y-65322671D01*
X145025452Y-65421670D01*
X144993403Y-65524882D01*
X144967837Y-65740887D01*
X144982063Y-65957933D01*
X144983484Y-65963529D01*
X144983485Y-65963534D01*
X145025436Y-66128712D01*
X145035605Y-66168753D01*
X145038022Y-66173996D01*
X145075566Y-66255435D01*
X145126668Y-66366285D01*
X145130001Y-66371001D01*
X145224397Y-66504568D01*
X145247500Y-66577288D01*
X145247500Y-68190583D01*
X145245949Y-68210292D01*
X145243748Y-68224190D01*
X145244093Y-68230777D01*
X145244093Y-68230782D01*
X145247327Y-68292480D01*
X145247500Y-68299074D01*
X145247500Y-68319610D01*
X145247844Y-68322882D01*
X145247844Y-68322884D01*
X145249647Y-68340042D01*
X145250164Y-68346616D01*
X145253743Y-68414903D01*
X145255453Y-68421284D01*
X145255453Y-68421286D01*
X145257383Y-68428491D01*
X145260985Y-68447925D01*
X145261766Y-68455354D01*
X145261768Y-68455363D01*
X145262458Y-68461928D01*
X145283600Y-68526997D01*
X145285467Y-68533299D01*
X145303171Y-68599370D01*
X145309559Y-68611907D01*
X145317125Y-68630173D01*
X145321473Y-68643556D01*
X145324776Y-68649278D01*
X145324777Y-68649279D01*
X145355667Y-68702782D01*
X145358814Y-68708577D01*
X145389871Y-68769530D01*
X145394024Y-68774658D01*
X145394025Y-68774660D01*
X145398727Y-68780466D01*
X145409927Y-68796763D01*
X145413657Y-68803224D01*
X145413660Y-68803228D01*
X145416960Y-68808944D01*
X145421377Y-68813850D01*
X145421381Y-68813855D01*
X145462722Y-68859769D01*
X145467006Y-68864784D01*
X145479928Y-68880741D01*
X145494443Y-68895256D01*
X145498984Y-68900041D01*
X145544747Y-68950866D01*
X145550086Y-68954745D01*
X145550087Y-68954746D01*
X145556135Y-68959140D01*
X145571168Y-68971981D01*
X147185530Y-70586343D01*
X147198371Y-70601376D01*
X147206645Y-70612764D01*
X147211554Y-70617184D01*
X147257470Y-70658527D01*
X147262255Y-70663068D01*
X147276770Y-70677583D01*
X147279334Y-70679659D01*
X147292727Y-70690505D01*
X147297742Y-70694789D01*
X147343656Y-70736130D01*
X147343661Y-70736134D01*
X147348567Y-70740551D01*
X147354283Y-70743851D01*
X147354287Y-70743854D01*
X147360748Y-70747584D01*
X147377044Y-70758784D01*
X147387981Y-70767640D01*
X147393859Y-70770635D01*
X147393862Y-70770637D01*
X147448937Y-70798699D01*
X147454734Y-70801847D01*
X147469765Y-70810525D01*
X147513955Y-70836038D01*
X147527337Y-70840386D01*
X147545596Y-70847949D01*
X147558141Y-70854341D01*
X147564511Y-70856048D01*
X147564514Y-70856049D01*
X147603585Y-70866518D01*
X147624223Y-70872048D01*
X147630536Y-70873918D01*
X147695583Y-70895053D01*
X147709586Y-70896525D01*
X147729015Y-70900126D01*
X147742608Y-70903768D01*
X147749205Y-70904114D01*
X147749207Y-70904114D01*
X147810895Y-70907347D01*
X147817469Y-70907864D01*
X147834627Y-70909667D01*
X147834629Y-70909667D01*
X147837901Y-70910011D01*
X147858437Y-70910011D01*
X147865031Y-70910184D01*
X147926729Y-70913418D01*
X147926734Y-70913418D01*
X147933321Y-70913763D01*
X147947219Y-70911562D01*
X147966928Y-70910011D01*
X148317500Y-70910011D01*
X148385621Y-70930013D01*
X148432114Y-70983669D01*
X148443500Y-71036011D01*
X148443500Y-85875605D01*
X148441949Y-85895314D01*
X148439748Y-85909212D01*
X148440093Y-85915799D01*
X148440093Y-85915804D01*
X148443327Y-85977502D01*
X148443500Y-85984096D01*
X148443500Y-86004632D01*
X148443844Y-86007904D01*
X148443844Y-86007906D01*
X148445647Y-86025064D01*
X148446164Y-86031638D01*
X148447550Y-86058075D01*
X148449743Y-86099925D01*
X148451453Y-86106306D01*
X148451453Y-86106308D01*
X148453383Y-86113513D01*
X148456985Y-86132947D01*
X148457766Y-86140376D01*
X148457768Y-86140385D01*
X148458458Y-86146950D01*
X148479600Y-86212019D01*
X148481467Y-86218321D01*
X148499171Y-86284392D01*
X148503828Y-86293531D01*
X148505559Y-86296929D01*
X148513125Y-86315195D01*
X148517473Y-86328578D01*
X148548779Y-86382801D01*
X148551667Y-86387804D01*
X148554814Y-86393599D01*
X148585871Y-86454552D01*
X148590024Y-86459680D01*
X148590025Y-86459682D01*
X148594727Y-86465488D01*
X148605927Y-86481785D01*
X148609657Y-86488246D01*
X148609660Y-86488250D01*
X148612960Y-86493966D01*
X148617377Y-86498872D01*
X148617381Y-86498877D01*
X148658722Y-86544791D01*
X148663006Y-86549806D01*
X148675928Y-86565763D01*
X148690443Y-86580278D01*
X148694984Y-86585063D01*
X148740747Y-86635888D01*
X148746086Y-86639767D01*
X148746087Y-86639768D01*
X148752135Y-86644162D01*
X148767168Y-86657003D01*
X149422595Y-87312430D01*
X149456621Y-87374742D01*
X149459500Y-87401525D01*
X149459500Y-87943672D01*
X149439498Y-88011793D01*
X149385842Y-88058286D01*
X149315568Y-88068390D01*
X149293833Y-88063265D01*
X149226293Y-88040863D01*
X149212914Y-88037995D01*
X149118562Y-88028328D01*
X149112145Y-88028000D01*
X148862115Y-88028000D01*
X148846876Y-88032475D01*
X148845671Y-88033865D01*
X148844000Y-88041548D01*
X148844000Y-89251500D01*
X148823998Y-89319621D01*
X148770342Y-89366114D01*
X148718000Y-89377500D01*
X147375116Y-89377500D01*
X147359877Y-89381975D01*
X147358672Y-89383365D01*
X147357001Y-89391048D01*
X147357001Y-89508095D01*
X147357338Y-89514614D01*
X147367257Y-89610206D01*
X147370149Y-89623600D01*
X147421588Y-89777784D01*
X147427761Y-89790962D01*
X147513063Y-89928807D01*
X147522099Y-89940208D01*
X147636828Y-90054738D01*
X147645762Y-90061794D01*
X147686823Y-90119712D01*
X147690053Y-90190635D01*
X147654426Y-90252046D01*
X147646593Y-90258846D01*
X147640652Y-90262522D01*
X147515695Y-90387697D01*
X147515600Y-90387602D01*
X147460524Y-90426654D01*
X147419556Y-90433500D01*
X146895754Y-90433500D01*
X146827633Y-90413498D01*
X146781140Y-90359842D01*
X146777772Y-90351730D01*
X146759767Y-90303703D01*
X146756615Y-90295295D01*
X146669261Y-90178739D01*
X146552705Y-90091385D01*
X146416316Y-90040255D01*
X146354134Y-90033500D01*
X144757866Y-90033500D01*
X144695684Y-90040255D01*
X144559295Y-90091385D01*
X144552110Y-90096770D01*
X144552108Y-90096771D01*
X144481565Y-90149640D01*
X144415058Y-90174488D01*
X144345676Y-90159435D01*
X144330435Y-90149640D01*
X144259892Y-90096771D01*
X144259890Y-90096770D01*
X144252705Y-90091385D01*
X144116316Y-90040255D01*
X144054134Y-90033500D01*
X142457866Y-90033500D01*
X142395684Y-90040255D01*
X142259295Y-90091385D01*
X142217744Y-90122526D01*
X142181148Y-90149953D01*
X142114642Y-90174801D01*
X142045259Y-90159748D01*
X142030018Y-90149953D01*
X141959648Y-90097214D01*
X141944054Y-90088676D01*
X141823606Y-90043522D01*
X141808351Y-90039895D01*
X141757486Y-90034369D01*
X141750672Y-90034000D01*
X141228115Y-90034000D01*
X141212876Y-90038475D01*
X141211671Y-90039865D01*
X141210000Y-90047548D01*
X141210000Y-93031884D01*
X141214475Y-93047123D01*
X141215865Y-93048328D01*
X141223548Y-93049999D01*
X141750669Y-93049999D01*
X141757490Y-93049629D01*
X141808352Y-93044105D01*
X141823604Y-93040479D01*
X141944054Y-92995324D01*
X141959648Y-92986786D01*
X142030018Y-92934047D01*
X142096524Y-92909199D01*
X142165907Y-92924252D01*
X142181148Y-92934047D01*
X142259295Y-92992615D01*
X142395684Y-93043745D01*
X142457866Y-93050500D01*
X144054134Y-93050500D01*
X144116316Y-93043745D01*
X144210519Y-93008430D01*
X144244303Y-92995765D01*
X144244304Y-92995764D01*
X144252705Y-92992615D01*
X144257473Y-92989042D01*
X144325347Y-92974196D01*
X144391895Y-92998932D01*
X144434506Y-93055719D01*
X144442500Y-93099885D01*
X144442500Y-96507654D01*
X144422498Y-96575775D01*
X144405595Y-96596749D01*
X143561895Y-97440449D01*
X143553621Y-97447435D01*
X143553820Y-97447665D01*
X143549275Y-97451588D01*
X143544389Y-97455054D01*
X143540247Y-97459381D01*
X143480287Y-97522016D01*
X143478364Y-97523980D01*
X143450804Y-97551540D01*
X143448894Y-97553852D01*
X143448892Y-97553855D01*
X143446079Y-97557261D01*
X143439957Y-97564145D01*
X143398119Y-97607850D01*
X143394867Y-97612886D01*
X143394864Y-97612890D01*
X143379947Y-97635992D01*
X143371251Y-97647874D01*
X143354890Y-97667687D01*
X143349920Y-97673705D01*
X143341422Y-97689259D01*
X143320913Y-97726797D01*
X143316202Y-97734717D01*
X143283380Y-97785548D01*
X143281136Y-97791116D01*
X143281135Y-97791118D01*
X143270858Y-97816619D01*
X143264565Y-97829932D01*
X143248504Y-97859329D01*
X143246676Y-97865041D01*
X143246673Y-97865047D01*
X143230059Y-97916951D01*
X143226928Y-97925625D01*
X143204314Y-97981737D01*
X143203164Y-97987627D01*
X143197895Y-98014608D01*
X143194232Y-98028875D01*
X143184019Y-98060781D01*
X143183305Y-98066728D01*
X143183303Y-98066735D01*
X143176802Y-98120846D01*
X143175366Y-98129967D01*
X143163772Y-98189337D01*
X143163500Y-98194899D01*
X143163500Y-98224040D01*
X143162601Y-98239068D01*
X143159504Y-98264845D01*
X143159504Y-98264851D01*
X143158790Y-98270793D01*
X143159213Y-98276768D01*
X143159213Y-98276771D01*
X143163185Y-98332863D01*
X143163500Y-98341762D01*
X143163500Y-98467198D01*
X143143498Y-98535319D01*
X143113065Y-98568024D01*
X143058739Y-98608739D01*
X142971385Y-98725295D01*
X142968233Y-98733703D01*
X142926919Y-98843907D01*
X142884277Y-98900671D01*
X142817716Y-98925371D01*
X142748367Y-98910163D01*
X142715743Y-98884476D01*
X142673306Y-98837838D01*
X142642254Y-98773992D01*
X142640500Y-98753039D01*
X142640500Y-98633417D01*
X142642051Y-98613705D01*
X142643220Y-98606325D01*
X142644252Y-98599810D01*
X142643488Y-98585219D01*
X142640673Y-98531520D01*
X142640500Y-98524926D01*
X142640500Y-98504390D01*
X142639834Y-98498051D01*
X142638353Y-98483958D01*
X142637836Y-98477384D01*
X142634603Y-98415696D01*
X142634603Y-98415694D01*
X142634257Y-98409097D01*
X142630615Y-98395504D01*
X142627014Y-98376075D01*
X142626519Y-98371370D01*
X142625542Y-98362072D01*
X142604407Y-98297025D01*
X142602535Y-98290706D01*
X142586538Y-98231003D01*
X142586537Y-98231000D01*
X142584830Y-98224630D01*
X142578438Y-98212085D01*
X142570874Y-98193823D01*
X142569417Y-98189337D01*
X142566527Y-98180444D01*
X142538517Y-98131929D01*
X142532336Y-98121223D01*
X142529188Y-98115426D01*
X142501126Y-98060351D01*
X142501124Y-98060348D01*
X142498129Y-98054470D01*
X142489273Y-98043533D01*
X142478073Y-98027237D01*
X142474343Y-98020776D01*
X142474340Y-98020772D01*
X142471040Y-98015056D01*
X142466623Y-98010150D01*
X142466619Y-98010145D01*
X142425278Y-97964231D01*
X142420994Y-97959216D01*
X142410148Y-97945823D01*
X142408072Y-97943259D01*
X142393557Y-97928744D01*
X142389016Y-97923959D01*
X142386661Y-97921344D01*
X142343253Y-97873134D01*
X142335111Y-97867218D01*
X142331865Y-97864860D01*
X142316832Y-97852019D01*
X137597405Y-93132592D01*
X137563379Y-93070280D01*
X137560500Y-93043497D01*
X137560500Y-92586669D01*
X139698001Y-92586669D01*
X139698371Y-92593490D01*
X139703895Y-92644352D01*
X139707521Y-92659604D01*
X139752676Y-92780054D01*
X139761214Y-92795649D01*
X139837715Y-92897724D01*
X139850276Y-92910285D01*
X139952351Y-92986786D01*
X139967946Y-92995324D01*
X140088394Y-93040478D01*
X140103649Y-93044105D01*
X140154514Y-93049631D01*
X140161328Y-93050000D01*
X140683885Y-93050000D01*
X140699124Y-93045525D01*
X140700329Y-93044135D01*
X140702000Y-93036452D01*
X140702000Y-91814115D01*
X140697525Y-91798876D01*
X140696135Y-91797671D01*
X140688452Y-91796000D01*
X139716116Y-91796000D01*
X139700877Y-91800475D01*
X139699672Y-91801865D01*
X139698001Y-91809548D01*
X139698001Y-92586669D01*
X137560500Y-92586669D01*
X137560500Y-91633549D01*
X137580502Y-91565428D01*
X137604252Y-91538096D01*
X137617998Y-91526252D01*
X137713750Y-91416489D01*
X137721117Y-91405124D01*
X137789214Y-91300062D01*
X137791650Y-91296304D01*
X137803857Y-91269885D01*
X139698000Y-91269885D01*
X139702475Y-91285124D01*
X139703865Y-91286329D01*
X139711548Y-91288000D01*
X140683885Y-91288000D01*
X140699124Y-91283525D01*
X140700329Y-91282135D01*
X140702000Y-91274452D01*
X140702000Y-90052116D01*
X140697525Y-90036877D01*
X140696135Y-90035672D01*
X140688452Y-90034001D01*
X140161331Y-90034001D01*
X140154510Y-90034371D01*
X140103648Y-90039895D01*
X140088396Y-90043521D01*
X139967946Y-90088676D01*
X139952351Y-90097214D01*
X139850276Y-90173715D01*
X139837715Y-90186276D01*
X139761214Y-90288351D01*
X139752676Y-90303946D01*
X139707522Y-90424394D01*
X139703895Y-90439649D01*
X139698369Y-90490514D01*
X139698000Y-90497328D01*
X139698000Y-91269885D01*
X137803857Y-91269885D01*
X137850868Y-91168145D01*
X137850869Y-91168143D01*
X137852748Y-91164076D01*
X137878340Y-91078500D01*
X137892499Y-91031156D01*
X137892500Y-91031151D01*
X137893784Y-91026858D01*
X137896474Y-91008862D01*
X137914650Y-90887235D01*
X137914650Y-90887232D01*
X137915312Y-90882804D01*
X137916187Y-90739583D01*
X137915852Y-90737139D01*
X137915729Y-90733344D01*
X137915729Y-90305000D01*
X137911840Y-90250626D01*
X137910982Y-90238627D01*
X137910982Y-90238626D01*
X137910500Y-90231889D01*
X137899833Y-90195560D01*
X137896012Y-90142131D01*
X137898831Y-90122526D01*
X137915729Y-90005000D01*
X137915729Y-89514992D01*
X137915731Y-89514222D01*
X137916160Y-89444069D01*
X137916160Y-89444063D01*
X137916187Y-89439583D01*
X137899755Y-89319621D01*
X137897030Y-89299724D01*
X137897029Y-89299720D01*
X137896420Y-89295273D01*
X137857063Y-89157564D01*
X137797586Y-89024602D01*
X137795200Y-89020820D01*
X137795196Y-89020813D01*
X137727250Y-88913126D01*
X137721160Y-88903474D01*
X137676829Y-88851385D01*
X147357000Y-88851385D01*
X147361475Y-88866624D01*
X147362865Y-88867829D01*
X147370548Y-88869500D01*
X148317885Y-88869500D01*
X148333124Y-88865025D01*
X148334329Y-88863635D01*
X148336000Y-88855952D01*
X148336000Y-88046116D01*
X148331525Y-88030877D01*
X148330135Y-88029672D01*
X148322452Y-88028001D01*
X148067905Y-88028001D01*
X148061386Y-88028338D01*
X147965794Y-88038257D01*
X147952400Y-88041149D01*
X147798216Y-88092588D01*
X147785038Y-88098761D01*
X147647193Y-88184063D01*
X147635792Y-88193099D01*
X147521261Y-88307829D01*
X147512249Y-88319240D01*
X147427184Y-88457243D01*
X147421037Y-88470424D01*
X147369862Y-88624710D01*
X147366995Y-88638086D01*
X147357328Y-88732438D01*
X147357000Y-88738855D01*
X147357000Y-88851385D01*
X137676829Y-88851385D01*
X137636744Y-88804286D01*
X137629663Y-88795966D01*
X137626754Y-88792548D01*
X137603093Y-88771652D01*
X137565275Y-88711567D01*
X137560500Y-88677210D01*
X137560500Y-87351480D01*
X137580502Y-87283359D01*
X137597327Y-87262462D01*
X137597624Y-87262165D01*
X137701305Y-87158303D01*
X137713223Y-87138968D01*
X137790275Y-87013968D01*
X137790276Y-87013966D01*
X137794115Y-87007738D01*
X137836826Y-86878968D01*
X137847632Y-86846389D01*
X137847632Y-86846387D01*
X137849797Y-86839861D01*
X137852101Y-86817380D01*
X137858953Y-86750500D01*
X137860500Y-86735400D01*
X137860500Y-85934600D01*
X137860163Y-85931350D01*
X137850238Y-85835692D01*
X137850237Y-85835688D01*
X137849526Y-85828834D01*
X137829281Y-85768151D01*
X137795868Y-85668002D01*
X137793550Y-85661054D01*
X137762453Y-85610801D01*
X137743616Y-85542350D01*
X137764778Y-85474581D01*
X137819219Y-85429010D01*
X137869598Y-85418500D01*
X140721500Y-85418500D01*
X140789621Y-85438502D01*
X140836114Y-85492158D01*
X140847500Y-85544500D01*
X140847500Y-86290134D01*
X140854255Y-86352316D01*
X140905385Y-86488705D01*
X140992739Y-86605261D01*
X141109295Y-86692615D01*
X141245684Y-86743745D01*
X141307866Y-86750500D01*
X145204134Y-86750500D01*
X145266316Y-86743745D01*
X145402705Y-86692615D01*
X145519261Y-86605261D01*
X145606615Y-86488705D01*
X145657745Y-86352316D01*
X145664500Y-86290134D01*
X145664500Y-84193866D01*
X145657745Y-84131684D01*
X145606615Y-83995295D01*
X145519261Y-83878739D01*
X145402705Y-83791385D01*
X145266316Y-83740255D01*
X145204134Y-83733500D01*
X143367346Y-83733500D01*
X143299225Y-83713498D01*
X143278251Y-83696595D01*
X143181551Y-83599895D01*
X143174565Y-83591621D01*
X143174335Y-83591820D01*
X143170412Y-83587275D01*
X143166946Y-83582389D01*
X143099983Y-83518286D01*
X143098019Y-83516363D01*
X143070460Y-83488804D01*
X143068145Y-83486892D01*
X143064739Y-83484079D01*
X143057855Y-83477957D01*
X143014150Y-83436119D01*
X143009114Y-83432867D01*
X143009110Y-83432864D01*
X142986008Y-83417947D01*
X142974126Y-83409251D01*
X142952919Y-83391738D01*
X142952916Y-83391736D01*
X142948295Y-83387920D01*
X142895203Y-83358913D01*
X142887283Y-83354202D01*
X142836452Y-83321380D01*
X142830884Y-83319136D01*
X142830882Y-83319135D01*
X142805381Y-83308858D01*
X142792068Y-83302565D01*
X142769756Y-83290375D01*
X142762671Y-83286504D01*
X142756959Y-83284676D01*
X142756953Y-83284673D01*
X142705049Y-83268059D01*
X142696375Y-83264928D01*
X142640263Y-83242314D01*
X142607392Y-83235895D01*
X142593125Y-83232232D01*
X142566927Y-83223846D01*
X142566925Y-83223846D01*
X142561219Y-83222019D01*
X142555272Y-83221305D01*
X142555265Y-83221303D01*
X142501154Y-83214802D01*
X142492033Y-83213366D01*
X142465473Y-83208179D01*
X142432663Y-83201772D01*
X142427101Y-83201500D01*
X142397960Y-83201500D01*
X142382932Y-83200601D01*
X142357155Y-83197504D01*
X142357149Y-83197504D01*
X142351207Y-83196790D01*
X142345232Y-83197213D01*
X142345229Y-83197213D01*
X142289137Y-83201185D01*
X142280238Y-83201500D01*
X117549154Y-83201500D01*
X117391434Y-83216548D01*
X117188466Y-83276092D01*
X117183139Y-83278836D01*
X117183138Y-83278836D01*
X117005751Y-83370196D01*
X117005748Y-83370198D01*
X117000420Y-83372942D01*
X116986646Y-83383762D01*
X116975412Y-83392586D01*
X116909486Y-83418936D01*
X116897579Y-83419500D01*
X116873683Y-83419500D01*
X116805562Y-83399498D01*
X116781984Y-83378145D01*
X116781478Y-83378652D01*
X116780970Y-83378145D01*
X116656303Y-83253695D01*
X116631292Y-83238278D01*
X116511968Y-83164725D01*
X116511966Y-83164724D01*
X116505738Y-83160885D01*
X116398443Y-83125297D01*
X116344389Y-83107368D01*
X116344387Y-83107368D01*
X116337861Y-83105203D01*
X116331025Y-83104503D01*
X116331022Y-83104502D01*
X116287969Y-83100091D01*
X116233400Y-83094500D01*
X115877046Y-83094500D01*
X115808925Y-83074498D01*
X115762432Y-83020842D01*
X115752328Y-82950568D01*
X115781822Y-82885988D01*
X115804775Y-82865287D01*
X115901789Y-82797357D01*
X115901792Y-82797355D01*
X115906300Y-82794198D01*
X116068198Y-82632300D01*
X116079402Y-82616300D01*
X116196366Y-82449257D01*
X116199523Y-82444749D01*
X116201846Y-82439767D01*
X116201849Y-82439762D01*
X116293961Y-82242225D01*
X116293961Y-82242224D01*
X116296284Y-82237243D01*
X116355543Y-82016087D01*
X116375498Y-81788000D01*
X116355543Y-81559913D01*
X116313448Y-81402814D01*
X116297707Y-81344067D01*
X116297706Y-81344065D01*
X116296284Y-81338757D01*
X116236277Y-81210070D01*
X116201849Y-81136238D01*
X116201846Y-81136233D01*
X116199523Y-81131251D01*
X116068198Y-80943700D01*
X116007405Y-80882907D01*
X115973379Y-80820595D01*
X115970500Y-80793812D01*
X115970500Y-80765480D01*
X115990502Y-80697359D01*
X116007327Y-80676462D01*
X116007624Y-80676165D01*
X116111305Y-80572303D01*
X116118568Y-80560521D01*
X116200275Y-80427968D01*
X116200276Y-80427966D01*
X116204115Y-80421738D01*
X116259797Y-80253861D01*
X116260973Y-80242389D01*
X116270172Y-80152598D01*
X116270500Y-80149400D01*
X116270500Y-79398600D01*
X116268966Y-79383817D01*
X116260238Y-79299692D01*
X116260237Y-79299688D01*
X116259526Y-79292834D01*
X116251340Y-79268296D01*
X116205868Y-79132002D01*
X116203550Y-79125054D01*
X116110478Y-78974652D01*
X115985303Y-78849695D01*
X115981084Y-78847094D01*
X115940583Y-78789970D01*
X115937351Y-78719047D01*
X115972976Y-78657635D01*
X115980530Y-78651078D01*
X115986348Y-78647478D01*
X116001542Y-78632258D01*
X116106134Y-78527483D01*
X116111305Y-78522303D01*
X116118568Y-78510521D01*
X116200275Y-78377968D01*
X116200276Y-78377966D01*
X116204115Y-78371738D01*
X116259797Y-78203861D01*
X116260973Y-78192389D01*
X116270172Y-78102598D01*
X116270500Y-78099400D01*
X116270500Y-77348600D01*
X116268966Y-77333817D01*
X116260238Y-77249692D01*
X116260237Y-77249688D01*
X116259526Y-77242834D01*
X116251340Y-77218296D01*
X116205868Y-77082002D01*
X116203550Y-77075054D01*
X116110478Y-76924652D01*
X116099735Y-76913928D01*
X116007482Y-76821835D01*
X115973403Y-76759552D01*
X115970500Y-76732662D01*
X115970500Y-75162188D01*
X115990502Y-75094067D01*
X116007405Y-75073093D01*
X116068198Y-75012300D01*
X116073245Y-75005093D01*
X116196366Y-74829257D01*
X116199523Y-74824749D01*
X116201846Y-74819767D01*
X116201849Y-74819762D01*
X116293961Y-74622225D01*
X116293961Y-74622224D01*
X116296284Y-74617243D01*
X116321372Y-74523616D01*
X116354119Y-74401402D01*
X116354119Y-74401400D01*
X116355543Y-74396087D01*
X116375498Y-74168000D01*
X116355543Y-73939913D01*
X116296284Y-73718757D01*
X116286500Y-73697775D01*
X116201849Y-73516238D01*
X116201846Y-73516233D01*
X116199523Y-73511251D01*
X116126098Y-73406389D01*
X116071357Y-73328211D01*
X116071355Y-73328208D01*
X116068198Y-73323700D01*
X115906300Y-73161802D01*
X115901792Y-73158645D01*
X115901789Y-73158643D01*
X115823611Y-73103902D01*
X115798044Y-73086000D01*
X131082526Y-73086000D01*
X131102391Y-73338403D01*
X131161495Y-73584591D01*
X131163388Y-73589162D01*
X131163389Y-73589164D01*
X131219268Y-73724067D01*
X131258384Y-73818502D01*
X131390672Y-74034376D01*
X131555102Y-74226898D01*
X131747624Y-74391328D01*
X131963498Y-74523616D01*
X131968068Y-74525509D01*
X131968072Y-74525511D01*
X132192836Y-74618611D01*
X132197409Y-74620505D01*
X132282032Y-74640821D01*
X132438784Y-74678454D01*
X132438790Y-74678455D01*
X132443597Y-74679609D01*
X132543416Y-74687465D01*
X132630345Y-74694307D01*
X132630352Y-74694307D01*
X132632801Y-74694500D01*
X134559199Y-74694500D01*
X134561648Y-74694307D01*
X134561655Y-74694307D01*
X134648584Y-74687465D01*
X134748403Y-74679609D01*
X134753210Y-74678455D01*
X134753216Y-74678454D01*
X134909968Y-74640821D01*
X134994591Y-74620505D01*
X134999164Y-74618611D01*
X135223928Y-74525511D01*
X135223932Y-74525509D01*
X135228502Y-74523616D01*
X135444376Y-74391328D01*
X135636898Y-74226898D01*
X135801328Y-74034376D01*
X135933616Y-73818502D01*
X135972733Y-73724067D01*
X136028611Y-73589164D01*
X136028612Y-73589162D01*
X136030505Y-73584591D01*
X136089609Y-73338403D01*
X136109474Y-73086000D01*
X136089609Y-72833597D01*
X136030505Y-72587409D01*
X135952660Y-72399474D01*
X135935511Y-72358072D01*
X135935509Y-72358068D01*
X135933616Y-72353498D01*
X135801328Y-72137624D01*
X135636898Y-71945102D01*
X135444376Y-71780672D01*
X135228502Y-71648384D01*
X135223932Y-71646491D01*
X135223928Y-71646489D01*
X134999164Y-71553389D01*
X134999162Y-71553388D01*
X134994591Y-71551495D01*
X134874742Y-71522722D01*
X134753216Y-71493546D01*
X134753210Y-71493545D01*
X134748403Y-71492391D01*
X134648584Y-71484535D01*
X134561655Y-71477693D01*
X134561648Y-71477693D01*
X134559199Y-71477500D01*
X132632801Y-71477500D01*
X132630352Y-71477693D01*
X132630345Y-71477693D01*
X132543416Y-71484535D01*
X132443597Y-71492391D01*
X132438790Y-71493545D01*
X132438784Y-71493546D01*
X132317258Y-71522722D01*
X132197409Y-71551495D01*
X132192838Y-71553388D01*
X132192836Y-71553389D01*
X131968072Y-71646489D01*
X131968068Y-71646491D01*
X131963498Y-71648384D01*
X131747624Y-71780672D01*
X131555102Y-71945102D01*
X131390672Y-72137624D01*
X131258384Y-72353498D01*
X131256491Y-72358068D01*
X131256489Y-72358072D01*
X131239340Y-72399474D01*
X131161495Y-72587409D01*
X131102391Y-72833597D01*
X131082526Y-73086000D01*
X115798044Y-73086000D01*
X115718749Y-73030477D01*
X115713767Y-73028154D01*
X115713762Y-73028151D01*
X115516225Y-72936039D01*
X115516224Y-72936039D01*
X115511243Y-72933716D01*
X115505935Y-72932294D01*
X115505933Y-72932293D01*
X115295402Y-72875881D01*
X115295400Y-72875881D01*
X115290087Y-72874457D01*
X115062000Y-72854502D01*
X114833913Y-72874457D01*
X114828600Y-72875881D01*
X114828598Y-72875881D01*
X114618067Y-72932293D01*
X114618065Y-72932294D01*
X114612757Y-72933716D01*
X114607776Y-72936039D01*
X114607775Y-72936039D01*
X114410238Y-73028151D01*
X114410233Y-73028154D01*
X114405251Y-73030477D01*
X114300389Y-73103902D01*
X114222211Y-73158643D01*
X114222208Y-73158645D01*
X114217700Y-73161802D01*
X114055802Y-73323700D01*
X114052645Y-73328208D01*
X114052643Y-73328211D01*
X113997902Y-73406389D01*
X113924477Y-73511251D01*
X113922154Y-73516233D01*
X113922151Y-73516238D01*
X113837500Y-73697775D01*
X113827716Y-73718757D01*
X113768457Y-73939913D01*
X113748502Y-74168000D01*
X113768457Y-74396087D01*
X113769881Y-74401400D01*
X113769881Y-74401402D01*
X113802629Y-74523616D01*
X113827716Y-74617243D01*
X113830039Y-74622224D01*
X113830039Y-74622225D01*
X113922151Y-74819762D01*
X113922154Y-74819767D01*
X113924477Y-74824749D01*
X113927634Y-74829257D01*
X114050756Y-75005093D01*
X114055802Y-75012300D01*
X114116595Y-75073093D01*
X114150621Y-75135405D01*
X114153500Y-75162188D01*
X114153500Y-76732520D01*
X114133498Y-76800641D01*
X114116675Y-76821536D01*
X114012695Y-76925697D01*
X114008855Y-76931927D01*
X114008854Y-76931928D01*
X113934821Y-77052032D01*
X113919885Y-77076262D01*
X113917581Y-77083209D01*
X113872339Y-77219611D01*
X113864203Y-77244139D01*
X113853500Y-77348600D01*
X113853500Y-78099400D01*
X113853837Y-78102646D01*
X113853837Y-78102650D01*
X113863285Y-78193704D01*
X113864474Y-78205166D01*
X113920450Y-78372946D01*
X114013522Y-78523348D01*
X114138697Y-78648305D01*
X114142916Y-78650906D01*
X114183417Y-78708030D01*
X114186649Y-78778953D01*
X114151024Y-78840365D01*
X114143470Y-78846922D01*
X114137652Y-78850522D01*
X114012695Y-78975697D01*
X114008855Y-78981927D01*
X114008854Y-78981928D01*
X113934821Y-79102032D01*
X113919885Y-79126262D01*
X113917581Y-79133209D01*
X113872339Y-79269611D01*
X113864203Y-79294139D01*
X113853500Y-79398600D01*
X113853500Y-80149400D01*
X113853837Y-80152646D01*
X113853837Y-80152650D01*
X113863285Y-80243704D01*
X113864474Y-80255166D01*
X113920450Y-80422946D01*
X114013522Y-80573348D01*
X114018704Y-80578521D01*
X114116518Y-80676165D01*
X114150597Y-80738448D01*
X114153500Y-80765338D01*
X114153500Y-80793812D01*
X114133498Y-80861933D01*
X114116595Y-80882907D01*
X114055802Y-80943700D01*
X113924477Y-81131251D01*
X113922154Y-81136233D01*
X113922151Y-81136238D01*
X113887723Y-81210070D01*
X113827716Y-81338757D01*
X113826294Y-81344065D01*
X113826293Y-81344067D01*
X113810552Y-81402814D01*
X113768457Y-81559913D01*
X113748502Y-81788000D01*
X113768457Y-82016087D01*
X113827716Y-82237243D01*
X113830039Y-82242224D01*
X113830039Y-82242225D01*
X113922151Y-82439762D01*
X113922154Y-82439767D01*
X113924477Y-82444749D01*
X113927634Y-82449257D01*
X114044599Y-82616300D01*
X114055802Y-82632300D01*
X114217700Y-82794198D01*
X114222210Y-82797356D01*
X114222216Y-82797361D01*
X114334142Y-82875732D01*
X114378471Y-82931189D01*
X114385780Y-83001808D01*
X114353750Y-83065169D01*
X114292548Y-83101154D01*
X114249030Y-83104289D01*
X114161563Y-83095328D01*
X114155145Y-83095000D01*
X114042615Y-83095000D01*
X114027376Y-83099475D01*
X114026171Y-83100865D01*
X114024500Y-83108548D01*
X114024500Y-85542884D01*
X114028975Y-85558123D01*
X114030365Y-85559328D01*
X114038048Y-85560999D01*
X114155095Y-85560999D01*
X114161614Y-85560662D01*
X114257206Y-85550743D01*
X114270600Y-85547851D01*
X114424784Y-85496412D01*
X114437962Y-85490239D01*
X114575807Y-85404937D01*
X114587208Y-85395901D01*
X114701738Y-85281172D01*
X114708794Y-85272238D01*
X114766712Y-85231177D01*
X114837635Y-85227947D01*
X114899046Y-85263574D01*
X114905846Y-85271407D01*
X114909522Y-85277348D01*
X115034697Y-85402305D01*
X115040927Y-85406145D01*
X115040928Y-85406146D01*
X115177352Y-85490239D01*
X115185262Y-85495115D01*
X115257047Y-85518925D01*
X115346611Y-85548632D01*
X115346613Y-85548632D01*
X115353139Y-85550797D01*
X115359975Y-85551497D01*
X115359978Y-85551498D01*
X115403031Y-85555909D01*
X115457600Y-85561500D01*
X116233400Y-85561500D01*
X116236646Y-85561163D01*
X116236650Y-85561163D01*
X116332308Y-85551238D01*
X116332312Y-85551237D01*
X116339166Y-85550526D01*
X116345708Y-85548343D01*
X116345710Y-85548343D01*
X116356076Y-85544885D01*
X116427026Y-85542300D01*
X116488110Y-85578483D01*
X116519935Y-85641947D01*
X116512470Y-85711847D01*
X116511385Y-85713295D01*
X116460255Y-85849684D01*
X116453500Y-85911866D01*
X116453500Y-86808134D01*
X116460255Y-86870316D01*
X116472025Y-86901712D01*
X116490416Y-86950770D01*
X116495599Y-87021577D01*
X116490416Y-87039229D01*
X116460255Y-87119684D01*
X116453500Y-87181866D01*
X116453500Y-88078134D01*
X116460255Y-88140316D01*
X116480710Y-88194880D01*
X116490416Y-88220770D01*
X116495599Y-88291577D01*
X116490416Y-88309229D01*
X116460255Y-88389684D01*
X116453500Y-88451866D01*
X116453500Y-89348134D01*
X116460255Y-89410316D01*
X116476095Y-89452568D01*
X116490416Y-89490770D01*
X116495599Y-89561577D01*
X116490416Y-89579229D01*
X116460255Y-89659684D01*
X116453500Y-89721866D01*
X116453500Y-90618134D01*
X116460255Y-90680316D01*
X116511385Y-90816705D01*
X116598739Y-90933261D01*
X116715295Y-91020615D01*
X116851684Y-91071745D01*
X116913866Y-91078500D01*
X118824497Y-91078500D01*
X118892618Y-91098502D01*
X118913592Y-91115405D01*
X119823019Y-92024832D01*
X119835860Y-92039865D01*
X119844134Y-92051253D01*
X119849043Y-92055673D01*
X119894959Y-92097016D01*
X119899744Y-92101557D01*
X119914259Y-92116072D01*
X119916823Y-92118148D01*
X119930216Y-92128994D01*
X119935231Y-92133278D01*
X119981145Y-92174619D01*
X119981150Y-92174623D01*
X119986056Y-92179040D01*
X119991772Y-92182340D01*
X119991776Y-92182343D01*
X119998237Y-92186073D01*
X120014534Y-92197273D01*
X120018618Y-92200580D01*
X120025470Y-92206129D01*
X120086421Y-92237185D01*
X120092215Y-92240331D01*
X120151444Y-92274527D01*
X120157726Y-92276568D01*
X120157728Y-92276569D01*
X120164826Y-92278875D01*
X120183092Y-92286440D01*
X120195630Y-92292829D01*
X120202006Y-92294538D01*
X120202010Y-92294539D01*
X120261685Y-92310529D01*
X120268010Y-92312402D01*
X120333072Y-92333542D01*
X120339640Y-92334232D01*
X120339644Y-92334233D01*
X120347061Y-92335012D01*
X120366508Y-92338616D01*
X120380096Y-92342257D01*
X120385349Y-92342532D01*
X120449051Y-92372730D01*
X120461218Y-92385624D01*
X120463522Y-92389348D01*
X120588697Y-92514305D01*
X120594927Y-92518145D01*
X120594928Y-92518146D01*
X120732090Y-92602694D01*
X120739262Y-92607115D01*
X120773358Y-92618424D01*
X120900611Y-92660632D01*
X120900613Y-92660632D01*
X120907139Y-92662797D01*
X120913975Y-92663497D01*
X120913978Y-92663498D01*
X120957031Y-92667909D01*
X121011600Y-92673500D01*
X121787400Y-92673500D01*
X121790646Y-92673163D01*
X121790650Y-92673163D01*
X121886308Y-92663238D01*
X121886312Y-92663237D01*
X121893166Y-92662526D01*
X121899702Y-92660345D01*
X121899704Y-92660345D01*
X122049463Y-92610381D01*
X122060946Y-92606550D01*
X122211348Y-92513478D01*
X122336305Y-92388303D01*
X122338906Y-92384084D01*
X122396030Y-92343583D01*
X122466953Y-92340351D01*
X122528365Y-92375976D01*
X122534922Y-92383530D01*
X122538522Y-92389348D01*
X122543703Y-92394520D01*
X122543704Y-92394521D01*
X122596409Y-92447134D01*
X122663697Y-92514305D01*
X122669927Y-92518145D01*
X122669928Y-92518146D01*
X122807090Y-92602694D01*
X122814262Y-92607115D01*
X122848358Y-92618424D01*
X122975611Y-92660632D01*
X122975613Y-92660632D01*
X122982139Y-92662797D01*
X122988975Y-92663497D01*
X122988978Y-92663498D01*
X123032031Y-92667909D01*
X123086600Y-92673500D01*
X123862400Y-92673500D01*
X123865646Y-92673163D01*
X123865650Y-92673163D01*
X123961308Y-92663238D01*
X123961312Y-92663237D01*
X123968166Y-92662526D01*
X123974702Y-92660345D01*
X123974704Y-92660345D01*
X124124463Y-92610381D01*
X124135946Y-92606550D01*
X124286348Y-92513478D01*
X124411305Y-92388303D01*
X124412945Y-92389941D01*
X124461744Y-92355344D01*
X124502706Y-92348500D01*
X124997132Y-92348500D01*
X125065253Y-92368502D01*
X125111746Y-92422158D01*
X125121850Y-92492432D01*
X125104392Y-92540616D01*
X125090777Y-92562704D01*
X125084885Y-92572262D01*
X125063926Y-92635452D01*
X125032508Y-92730176D01*
X125029203Y-92740139D01*
X125018500Y-92844600D01*
X125018500Y-93845400D01*
X125018837Y-93848646D01*
X125018837Y-93848650D01*
X125028618Y-93942914D01*
X125029474Y-93951166D01*
X125031655Y-93957702D01*
X125031655Y-93957704D01*
X125044686Y-93996763D01*
X125085450Y-94118946D01*
X125178522Y-94269348D01*
X125303697Y-94394305D01*
X125309927Y-94398145D01*
X125309928Y-94398146D01*
X125447288Y-94482816D01*
X125454262Y-94487115D01*
X125465559Y-94490862D01*
X125615611Y-94540632D01*
X125615613Y-94540632D01*
X125622139Y-94542797D01*
X125628975Y-94543497D01*
X125628978Y-94543498D01*
X125672031Y-94547909D01*
X125726600Y-94553500D01*
X126527400Y-94553500D01*
X126530646Y-94553163D01*
X126530650Y-94553163D01*
X126626308Y-94543238D01*
X126626312Y-94543237D01*
X126633166Y-94542526D01*
X126639702Y-94540345D01*
X126639704Y-94540345D01*
X126788021Y-94490862D01*
X126800946Y-94486550D01*
X126951348Y-94393478D01*
X127037784Y-94306891D01*
X127100066Y-94272812D01*
X127170886Y-94277815D01*
X127215975Y-94306736D01*
X127256232Y-94346923D01*
X127303697Y-94394305D01*
X127309927Y-94398145D01*
X127309928Y-94398146D01*
X127447288Y-94482816D01*
X127454262Y-94487115D01*
X127465559Y-94490862D01*
X127615611Y-94540632D01*
X127615613Y-94540632D01*
X127622139Y-94542797D01*
X127628975Y-94543497D01*
X127628978Y-94543498D01*
X127672031Y-94547909D01*
X127726600Y-94553500D01*
X128527400Y-94553500D01*
X128530646Y-94553163D01*
X128530650Y-94553163D01*
X128626308Y-94543238D01*
X128626312Y-94543237D01*
X128633166Y-94542526D01*
X128639702Y-94540345D01*
X128639704Y-94540345D01*
X128788021Y-94490862D01*
X128800946Y-94486550D01*
X128951348Y-94393478D01*
X129007571Y-94337157D01*
X129054165Y-94290482D01*
X129116448Y-94256403D01*
X129143338Y-94253500D01*
X131524497Y-94253500D01*
X131592618Y-94273502D01*
X131613592Y-94290405D01*
X135706595Y-98383408D01*
X135740621Y-98445720D01*
X135743500Y-98472503D01*
X135743500Y-98755737D01*
X135723498Y-98823858D01*
X135708594Y-98842788D01*
X135598756Y-98957727D01*
X135592629Y-98964138D01*
X135466743Y-99148680D01*
X135372688Y-99351305D01*
X135312989Y-99566570D01*
X135289251Y-99788695D01*
X135302110Y-100011715D01*
X135303247Y-100016761D01*
X135303248Y-100016767D01*
X135314031Y-100064614D01*
X135351222Y-100229639D01*
X135435266Y-100436616D01*
X135472685Y-100497678D01*
X135549291Y-100622688D01*
X135551987Y-100627088D01*
X135698250Y-100795938D01*
X135870126Y-100938632D01*
X135914757Y-100964712D01*
X135963481Y-101016350D01*
X135976552Y-101086133D01*
X135949821Y-101151905D01*
X135891774Y-101192784D01*
X135851187Y-101199500D01*
X128596061Y-101199500D01*
X128527940Y-101179498D01*
X128481447Y-101125842D01*
X128471343Y-101055568D01*
X128495235Y-100997935D01*
X128499012Y-100992896D01*
X128554615Y-100918705D01*
X128605745Y-100782316D01*
X128612500Y-100720134D01*
X128612500Y-98923866D01*
X128605745Y-98861684D01*
X128554615Y-98725295D01*
X128467261Y-98608739D01*
X128350705Y-98521385D01*
X128214316Y-98470255D01*
X128152134Y-98463500D01*
X126355866Y-98463500D01*
X126293684Y-98470255D01*
X126157295Y-98521385D01*
X126040739Y-98608739D01*
X125953385Y-98725295D01*
X125950233Y-98733703D01*
X125908919Y-98843907D01*
X125866277Y-98900671D01*
X125799716Y-98925371D01*
X125730367Y-98910163D01*
X125697743Y-98884476D01*
X125647151Y-98828875D01*
X125647142Y-98828866D01*
X125643670Y-98825051D01*
X125639619Y-98821852D01*
X125639615Y-98821848D01*
X125472414Y-98689800D01*
X125472410Y-98689798D01*
X125468359Y-98686598D01*
X125432028Y-98666542D01*
X125379251Y-98637408D01*
X125272789Y-98578638D01*
X125267920Y-98576914D01*
X125267916Y-98576912D01*
X125067087Y-98505795D01*
X125067083Y-98505794D01*
X125062212Y-98504069D01*
X125057119Y-98503162D01*
X125057116Y-98503161D01*
X124847373Y-98465800D01*
X124847367Y-98465799D01*
X124842284Y-98464894D01*
X124768452Y-98463992D01*
X124624081Y-98462228D01*
X124624079Y-98462228D01*
X124618911Y-98462165D01*
X124398091Y-98495955D01*
X124185756Y-98565357D01*
X124147602Y-98585219D01*
X124022819Y-98650177D01*
X123987607Y-98668507D01*
X123983474Y-98671610D01*
X123983471Y-98671612D01*
X123837014Y-98781575D01*
X123808965Y-98802635D01*
X123783541Y-98829240D01*
X123715280Y-98900671D01*
X123654629Y-98964138D01*
X123547201Y-99121621D01*
X123492293Y-99166621D01*
X123421768Y-99174792D01*
X123358021Y-99143538D01*
X123337324Y-99119054D01*
X123256822Y-98994617D01*
X123256820Y-98994614D01*
X123254014Y-98990277D01*
X123103670Y-98825051D01*
X123099619Y-98821852D01*
X123099615Y-98821848D01*
X122932414Y-98689800D01*
X122932410Y-98689798D01*
X122928359Y-98686598D01*
X122892028Y-98666542D01*
X122839251Y-98637408D01*
X122732789Y-98578638D01*
X122727920Y-98576914D01*
X122727916Y-98576912D01*
X122527087Y-98505795D01*
X122527083Y-98505794D01*
X122522212Y-98504069D01*
X122517119Y-98503162D01*
X122517116Y-98503161D01*
X122307373Y-98465800D01*
X122307367Y-98465799D01*
X122302284Y-98464894D01*
X122228452Y-98463992D01*
X122084081Y-98462228D01*
X122084079Y-98462228D01*
X122078911Y-98462165D01*
X121858091Y-98495955D01*
X121645756Y-98565357D01*
X121607602Y-98585219D01*
X121482819Y-98650177D01*
X121447607Y-98668507D01*
X121443474Y-98671610D01*
X121443471Y-98671612D01*
X121297014Y-98781575D01*
X121268965Y-98802635D01*
X121243541Y-98829240D01*
X121175280Y-98900671D01*
X121114629Y-98964138D01*
X120988743Y-99148680D01*
X120894688Y-99351305D01*
X120834989Y-99566570D01*
X120811251Y-99788695D01*
X120824110Y-100011715D01*
X120825247Y-100016761D01*
X120825248Y-100016767D01*
X120836031Y-100064614D01*
X120873222Y-100229639D01*
X120957266Y-100436616D01*
X120994685Y-100497678D01*
X121071291Y-100622688D01*
X121073987Y-100627088D01*
X121220250Y-100795938D01*
X121392126Y-100938632D01*
X121436757Y-100964712D01*
X121485481Y-101016350D01*
X121498552Y-101086133D01*
X121471821Y-101151905D01*
X121413774Y-101192784D01*
X121373187Y-101199500D01*
X114118061Y-101199500D01*
X114049940Y-101179498D01*
X114003447Y-101125842D01*
X113993343Y-101055568D01*
X114017235Y-100997935D01*
X114021012Y-100992896D01*
X114076615Y-100918705D01*
X114127745Y-100782316D01*
X114134500Y-100720134D01*
X114134500Y-98923866D01*
X114127745Y-98861684D01*
X114076615Y-98725295D01*
X113989261Y-98608739D01*
X113872705Y-98521385D01*
X113834304Y-98506989D01*
X113768532Y-98482332D01*
X113711768Y-98439690D01*
X113687068Y-98373129D01*
X113686935Y-98357757D01*
X113687219Y-98352331D01*
X113688252Y-98345810D01*
X113684673Y-98277519D01*
X113684500Y-98270925D01*
X113684500Y-98250390D01*
X113682524Y-98231586D01*
X113682353Y-98229960D01*
X113681836Y-98223385D01*
X113678603Y-98161696D01*
X113678603Y-98161695D01*
X113678257Y-98155096D01*
X113674616Y-98141508D01*
X113671012Y-98122061D01*
X113670233Y-98114644D01*
X113670232Y-98114640D01*
X113669542Y-98108072D01*
X113648402Y-98043009D01*
X113646529Y-98036685D01*
X113630539Y-97977010D01*
X113630538Y-97977006D01*
X113628829Y-97970630D01*
X113622440Y-97958092D01*
X113614875Y-97939826D01*
X113612569Y-97932728D01*
X113612568Y-97932726D01*
X113610527Y-97926444D01*
X113576331Y-97867215D01*
X113573185Y-97861421D01*
X113571248Y-97857619D01*
X113542129Y-97800470D01*
X113533273Y-97789533D01*
X113522073Y-97773237D01*
X113518343Y-97766776D01*
X113518340Y-97766772D01*
X113515040Y-97761056D01*
X113510623Y-97756150D01*
X113510619Y-97756145D01*
X113469278Y-97710231D01*
X113464994Y-97705216D01*
X113454148Y-97691823D01*
X113452072Y-97689259D01*
X113437557Y-97674744D01*
X113433016Y-97669959D01*
X113391673Y-97624043D01*
X113387253Y-97619134D01*
X113375865Y-97610860D01*
X113360832Y-97598019D01*
X110531408Y-94768595D01*
X110497382Y-94706283D01*
X110502447Y-94635468D01*
X110544994Y-94578632D01*
X110611514Y-94553821D01*
X110620503Y-94553500D01*
X111287400Y-94553500D01*
X111290646Y-94553163D01*
X111290650Y-94553163D01*
X111386308Y-94543238D01*
X111386312Y-94543237D01*
X111393166Y-94542526D01*
X111399702Y-94540345D01*
X111399704Y-94540345D01*
X111548021Y-94490862D01*
X111560946Y-94486550D01*
X111711348Y-94393478D01*
X111797784Y-94306891D01*
X111860066Y-94272812D01*
X111930886Y-94277815D01*
X111975975Y-94306736D01*
X112016232Y-94346923D01*
X112063697Y-94394305D01*
X112069927Y-94398145D01*
X112069928Y-94398146D01*
X112207288Y-94482816D01*
X112214262Y-94487115D01*
X112225559Y-94490862D01*
X112375611Y-94540632D01*
X112375613Y-94540632D01*
X112382139Y-94542797D01*
X112388975Y-94543497D01*
X112388978Y-94543498D01*
X112432031Y-94547909D01*
X112486600Y-94553500D01*
X113287400Y-94553500D01*
X113290646Y-94553163D01*
X113290650Y-94553163D01*
X113386308Y-94543238D01*
X113386312Y-94543237D01*
X113393166Y-94542526D01*
X113399702Y-94540345D01*
X113399704Y-94540345D01*
X113548021Y-94490862D01*
X113560946Y-94486550D01*
X113711348Y-94393478D01*
X113728799Y-94375997D01*
X113791082Y-94341919D01*
X113861902Y-94346923D01*
X113887971Y-94360250D01*
X114022803Y-94450342D01*
X114028106Y-94452620D01*
X114028109Y-94452622D01*
X114117115Y-94490862D01*
X114209987Y-94530763D01*
X114265119Y-94543238D01*
X114403055Y-94574450D01*
X114403060Y-94574451D01*
X114408692Y-94575725D01*
X114414463Y-94575952D01*
X114414465Y-94575952D01*
X114477470Y-94578427D01*
X114612263Y-94583723D01*
X114813883Y-94554490D01*
X114819347Y-94552635D01*
X114819352Y-94552634D01*
X115001327Y-94490862D01*
X115001332Y-94490860D01*
X115006799Y-94489004D01*
X115017849Y-94482816D01*
X115169037Y-94398146D01*
X115184551Y-94389458D01*
X115284064Y-94306694D01*
X115349225Y-94278514D01*
X115419281Y-94290037D01*
X115453648Y-94314395D01*
X115533697Y-94394305D01*
X115539927Y-94398145D01*
X115539928Y-94398146D01*
X115677288Y-94482816D01*
X115684262Y-94487115D01*
X115695559Y-94490862D01*
X115845611Y-94540632D01*
X115845613Y-94540632D01*
X115852139Y-94542797D01*
X115858975Y-94543497D01*
X115858978Y-94543498D01*
X115902031Y-94547909D01*
X115956600Y-94553500D01*
X116757400Y-94553500D01*
X116760646Y-94553163D01*
X116760650Y-94553163D01*
X116856308Y-94543238D01*
X116856312Y-94543237D01*
X116863166Y-94542526D01*
X116869702Y-94540345D01*
X116869704Y-94540345D01*
X117018021Y-94490862D01*
X117030946Y-94486550D01*
X117181348Y-94393478D01*
X117237571Y-94337157D01*
X117268138Y-94306537D01*
X117330421Y-94272458D01*
X117401241Y-94277461D01*
X117446329Y-94306382D01*
X117528829Y-94388739D01*
X117540240Y-94397751D01*
X117678243Y-94482816D01*
X117691424Y-94488963D01*
X117845710Y-94540138D01*
X117859086Y-94543005D01*
X117953438Y-94552672D01*
X117959854Y-94553000D01*
X118084885Y-94553000D01*
X118100124Y-94548525D01*
X118101329Y-94547135D01*
X118103000Y-94539452D01*
X118103000Y-94534884D01*
X118611000Y-94534884D01*
X118615475Y-94550123D01*
X118616865Y-94551328D01*
X118624548Y-94552999D01*
X118754095Y-94552999D01*
X118760614Y-94552662D01*
X118856206Y-94542743D01*
X118869600Y-94539851D01*
X119023784Y-94488412D01*
X119036962Y-94482239D01*
X119174807Y-94396937D01*
X119186208Y-94387901D01*
X119300739Y-94273171D01*
X119309751Y-94261760D01*
X119394816Y-94123757D01*
X119400963Y-94110576D01*
X119452138Y-93956290D01*
X119455005Y-93942914D01*
X119464672Y-93848562D01*
X119465000Y-93842146D01*
X119465000Y-93617115D01*
X119460525Y-93601876D01*
X119459135Y-93600671D01*
X119451452Y-93599000D01*
X118629115Y-93599000D01*
X118613876Y-93603475D01*
X118612671Y-93604865D01*
X118611000Y-93612548D01*
X118611000Y-94534884D01*
X118103000Y-94534884D01*
X118103000Y-93072885D01*
X118611000Y-93072885D01*
X118615475Y-93088124D01*
X118616865Y-93089329D01*
X118624548Y-93091000D01*
X119446884Y-93091000D01*
X119462123Y-93086525D01*
X119463328Y-93085135D01*
X119464999Y-93077452D01*
X119464999Y-92847905D01*
X119464662Y-92841386D01*
X119454743Y-92745794D01*
X119451851Y-92732400D01*
X119400412Y-92578216D01*
X119394239Y-92565038D01*
X119308937Y-92427193D01*
X119299901Y-92415792D01*
X119185171Y-92301261D01*
X119173760Y-92292249D01*
X119035757Y-92207184D01*
X119022576Y-92201037D01*
X118868290Y-92149862D01*
X118854914Y-92146995D01*
X118760562Y-92137328D01*
X118754145Y-92137000D01*
X118629115Y-92137000D01*
X118613876Y-92141475D01*
X118612671Y-92142865D01*
X118611000Y-92150548D01*
X118611000Y-93072885D01*
X118103000Y-93072885D01*
X118103000Y-92155116D01*
X118098525Y-92139877D01*
X118097135Y-92138672D01*
X118089452Y-92137001D01*
X117959905Y-92137001D01*
X117953386Y-92137338D01*
X117857794Y-92147257D01*
X117844400Y-92150149D01*
X117690216Y-92201588D01*
X117677038Y-92207761D01*
X117539193Y-92293063D01*
X117527792Y-92302099D01*
X117446570Y-92383462D01*
X117384287Y-92417541D01*
X117313467Y-92412538D01*
X117268380Y-92383617D01*
X117185488Y-92300870D01*
X117185483Y-92300866D01*
X117180303Y-92295695D01*
X117174072Y-92291854D01*
X117035968Y-92206725D01*
X117035966Y-92206724D01*
X117029738Y-92202885D01*
X116924475Y-92167971D01*
X116868389Y-92149368D01*
X116868387Y-92149368D01*
X116861861Y-92147203D01*
X116855025Y-92146503D01*
X116855022Y-92146502D01*
X116811969Y-92142091D01*
X116757400Y-92136500D01*
X115956600Y-92136500D01*
X115953354Y-92136837D01*
X115953350Y-92136837D01*
X115857692Y-92146762D01*
X115857688Y-92146763D01*
X115850834Y-92147474D01*
X115844298Y-92149655D01*
X115844296Y-92149655D01*
X115756219Y-92179040D01*
X115683054Y-92203450D01*
X115532652Y-92296522D01*
X115527479Y-92301704D01*
X115429835Y-92399518D01*
X115367552Y-92433597D01*
X115340662Y-92436500D01*
X114974357Y-92436500D01*
X114927667Y-92427530D01*
X114875549Y-92406737D01*
X114870180Y-92404595D01*
X114670366Y-92364849D01*
X114664592Y-92364773D01*
X114664588Y-92364773D01*
X114561452Y-92363424D01*
X114466655Y-92362183D01*
X114460958Y-92363162D01*
X114460957Y-92363162D01*
X114278458Y-92394521D01*
X114265870Y-92396684D01*
X114209335Y-92417541D01*
X114179054Y-92428712D01*
X114135443Y-92436500D01*
X113903480Y-92436500D01*
X113835359Y-92416498D01*
X113814462Y-92399673D01*
X113813519Y-92398731D01*
X113710303Y-92295695D01*
X113704072Y-92291854D01*
X113565968Y-92206725D01*
X113565966Y-92206724D01*
X113559738Y-92202885D01*
X113454475Y-92167971D01*
X113398389Y-92149368D01*
X113398387Y-92149368D01*
X113391861Y-92147203D01*
X113385025Y-92146503D01*
X113385022Y-92146502D01*
X113341969Y-92142091D01*
X113287400Y-92136500D01*
X112486600Y-92136500D01*
X112483354Y-92136837D01*
X112483350Y-92136837D01*
X112387692Y-92146762D01*
X112387688Y-92146763D01*
X112380834Y-92147474D01*
X112374298Y-92149655D01*
X112374296Y-92149655D01*
X112286219Y-92179040D01*
X112213054Y-92203450D01*
X112062652Y-92296522D01*
X111980442Y-92378876D01*
X111976216Y-92383109D01*
X111913934Y-92417188D01*
X111843114Y-92412185D01*
X111798025Y-92383264D01*
X111715483Y-92300866D01*
X111710303Y-92295695D01*
X111704072Y-92291854D01*
X111588711Y-92220744D01*
X111541217Y-92167971D01*
X111529794Y-92097900D01*
X111544893Y-92051918D01*
X111631180Y-91897842D01*
X111631181Y-91897840D01*
X111634004Y-91892799D01*
X111635860Y-91887332D01*
X111635862Y-91887327D01*
X111697634Y-91705352D01*
X111697635Y-91705347D01*
X111699490Y-91699883D01*
X111728723Y-91498263D01*
X111730249Y-91440000D01*
X111711608Y-91237126D01*
X111710040Y-91231566D01*
X111709279Y-91227461D01*
X111716532Y-91156836D01*
X111760817Y-91101344D01*
X111833169Y-91078500D01*
X113210134Y-91078500D01*
X113272316Y-91071745D01*
X113408705Y-91020615D01*
X113525261Y-90933261D01*
X113612615Y-90816705D01*
X113663745Y-90680316D01*
X113670500Y-90618134D01*
X113670500Y-89721866D01*
X113663745Y-89659684D01*
X113633584Y-89579230D01*
X113628401Y-89508423D01*
X113633584Y-89490770D01*
X113647905Y-89452568D01*
X113663745Y-89410316D01*
X113670500Y-89348134D01*
X113670500Y-88451866D01*
X113663745Y-88389684D01*
X113633584Y-88309230D01*
X113628401Y-88238423D01*
X113633584Y-88220770D01*
X113643290Y-88194880D01*
X113663745Y-88140316D01*
X113670500Y-88078134D01*
X113670500Y-87181866D01*
X113663745Y-87119684D01*
X113633317Y-87038517D01*
X113628134Y-86967711D01*
X113633317Y-86950058D01*
X113660478Y-86877606D01*
X113664105Y-86862351D01*
X113669631Y-86811486D01*
X113670000Y-86804672D01*
X113670000Y-86632115D01*
X113665525Y-86616876D01*
X113664135Y-86615671D01*
X113656452Y-86614000D01*
X111222116Y-86614000D01*
X111206877Y-86618475D01*
X111205671Y-86619867D01*
X111205145Y-86622284D01*
X111171120Y-86684596D01*
X111108808Y-86718621D01*
X111082025Y-86721500D01*
X110863315Y-86721500D01*
X110795194Y-86701498D01*
X110748701Y-86647842D01*
X110738597Y-86577568D01*
X110768011Y-86513163D01*
X110769186Y-86512186D01*
X110899458Y-86355551D01*
X110985796Y-86201384D01*
X110996180Y-86182842D01*
X110996181Y-86182840D01*
X110999004Y-86177799D01*
X111000860Y-86172332D01*
X111000862Y-86172327D01*
X111005975Y-86157263D01*
X111046812Y-86099187D01*
X111112565Y-86072408D01*
X111182357Y-86085429D01*
X111207801Y-86102540D01*
X111209865Y-86104329D01*
X111217548Y-86106000D01*
X112164885Y-86106000D01*
X112180124Y-86101525D01*
X112181329Y-86100135D01*
X112183000Y-86092452D01*
X112183000Y-85470116D01*
X112178525Y-85454877D01*
X112177135Y-85453672D01*
X112169452Y-85452001D01*
X111667331Y-85452001D01*
X111660510Y-85452371D01*
X111609648Y-85457895D01*
X111594396Y-85461521D01*
X111473946Y-85506676D01*
X111458351Y-85515214D01*
X111356276Y-85591715D01*
X111343716Y-85604275D01*
X111308846Y-85650803D01*
X111251987Y-85693319D01*
X111181169Y-85698345D01*
X111118875Y-85664286D01*
X111084884Y-85601955D01*
X111082548Y-85586769D01*
X111077137Y-85527880D01*
X111077136Y-85527877D01*
X111076608Y-85522126D01*
X111064475Y-85479107D01*
X111022875Y-85331606D01*
X111022874Y-85331604D01*
X111021307Y-85326047D01*
X110999843Y-85282521D01*
X110933756Y-85148510D01*
X110931201Y-85143329D01*
X110809305Y-84980091D01*
X110675729Y-84856614D01*
X110668677Y-84850095D01*
X112675001Y-84850095D01*
X112675338Y-84856614D01*
X112685257Y-84952206D01*
X112688149Y-84965600D01*
X112739588Y-85119784D01*
X112745761Y-85132962D01*
X112824188Y-85259697D01*
X112843026Y-85328149D01*
X112821865Y-85395918D01*
X112767424Y-85441489D01*
X112717044Y-85452000D01*
X112709115Y-85452000D01*
X112693876Y-85456475D01*
X112692671Y-85457865D01*
X112691000Y-85465548D01*
X112691000Y-86087885D01*
X112695475Y-86103124D01*
X112696865Y-86104329D01*
X112704548Y-86106000D01*
X113651884Y-86106000D01*
X113667123Y-86101525D01*
X113668328Y-86100135D01*
X113669999Y-86092452D01*
X113669999Y-85915331D01*
X113669629Y-85908510D01*
X113664105Y-85857648D01*
X113660479Y-85842396D01*
X113615324Y-85721946D01*
X113606786Y-85706351D01*
X113541674Y-85619472D01*
X113516826Y-85552965D01*
X113516500Y-85543907D01*
X113516500Y-84600115D01*
X113512025Y-84584876D01*
X113510635Y-84583671D01*
X113502952Y-84582000D01*
X112693116Y-84582000D01*
X112677877Y-84586475D01*
X112676672Y-84587865D01*
X112675001Y-84595548D01*
X112675001Y-84850095D01*
X110668677Y-84850095D01*
X110663943Y-84845719D01*
X110663940Y-84845717D01*
X110659703Y-84841800D01*
X110613675Y-84812759D01*
X110492288Y-84736169D01*
X110492283Y-84736167D01*
X110487404Y-84733088D01*
X110298180Y-84657595D01*
X110249526Y-84647917D01*
X110217947Y-84641635D01*
X110155037Y-84608727D01*
X110155013Y-84608702D01*
X110152866Y-84605747D01*
X110147963Y-84601332D01*
X110147960Y-84601329D01*
X110102042Y-84559985D01*
X110097257Y-84555444D01*
X110082741Y-84540928D01*
X110075282Y-84534888D01*
X110066784Y-84528006D01*
X110061769Y-84523722D01*
X110015855Y-84482381D01*
X110015850Y-84482377D01*
X110010944Y-84477960D01*
X110005228Y-84474660D01*
X110005224Y-84474657D01*
X109998763Y-84470927D01*
X109982466Y-84459727D01*
X109976660Y-84455025D01*
X109976658Y-84455024D01*
X109971530Y-84450871D01*
X109910577Y-84419814D01*
X109904782Y-84416667D01*
X109851279Y-84385777D01*
X109851278Y-84385776D01*
X109845556Y-84382473D01*
X109839274Y-84380432D01*
X109839272Y-84380431D01*
X109832174Y-84378125D01*
X109813907Y-84370559D01*
X109801370Y-84364171D01*
X109735299Y-84346467D01*
X109728997Y-84344600D01*
X109705339Y-84336913D01*
X109646608Y-84296094D01*
X109644478Y-84292652D01*
X109519303Y-84167695D01*
X109513072Y-84163854D01*
X109374968Y-84078725D01*
X109374966Y-84078724D01*
X109368738Y-84074885D01*
X109311455Y-84055885D01*
X112675000Y-84055885D01*
X112679475Y-84071124D01*
X112680865Y-84072329D01*
X112688548Y-84074000D01*
X113498385Y-84074000D01*
X113513624Y-84069525D01*
X113514829Y-84068135D01*
X113516500Y-84060452D01*
X113516500Y-83113116D01*
X113512025Y-83097877D01*
X113510635Y-83096672D01*
X113502952Y-83095001D01*
X113385905Y-83095001D01*
X113379386Y-83095338D01*
X113283794Y-83105257D01*
X113270400Y-83108149D01*
X113116216Y-83159588D01*
X113103038Y-83165761D01*
X112965193Y-83251063D01*
X112953792Y-83260099D01*
X112839261Y-83374829D01*
X112830249Y-83386240D01*
X112745184Y-83524243D01*
X112739037Y-83537424D01*
X112687862Y-83691710D01*
X112684995Y-83705086D01*
X112675328Y-83799438D01*
X112675000Y-83805855D01*
X112675000Y-84055885D01*
X109311455Y-84055885D01*
X109208254Y-84021655D01*
X109207389Y-84021368D01*
X109207387Y-84021368D01*
X109200861Y-84019203D01*
X109194025Y-84018503D01*
X109194022Y-84018502D01*
X109150969Y-84014091D01*
X109096400Y-84008500D01*
X108295600Y-84008500D01*
X108292354Y-84008837D01*
X108292350Y-84008837D01*
X108196692Y-84018762D01*
X108196688Y-84018763D01*
X108189834Y-84019474D01*
X108183298Y-84021655D01*
X108183296Y-84021655D01*
X108080697Y-84055885D01*
X108022054Y-84075450D01*
X107871652Y-84168522D01*
X107866479Y-84173704D01*
X107785216Y-84255109D01*
X107722934Y-84289188D01*
X107652114Y-84284185D01*
X107607025Y-84255264D01*
X107524483Y-84172866D01*
X107519303Y-84167695D01*
X107513072Y-84163854D01*
X107374968Y-84078725D01*
X107374966Y-84078724D01*
X107368738Y-84074885D01*
X107208254Y-84021655D01*
X107207389Y-84021368D01*
X107207387Y-84021368D01*
X107200861Y-84019203D01*
X107194025Y-84018503D01*
X107194022Y-84018502D01*
X107150969Y-84014091D01*
X107096400Y-84008500D01*
X106295600Y-84008500D01*
X106292354Y-84008837D01*
X106292350Y-84008837D01*
X106196692Y-84018762D01*
X106196688Y-84018763D01*
X106189834Y-84019474D01*
X106183298Y-84021655D01*
X106183296Y-84021655D01*
X106080697Y-84055885D01*
X106022054Y-84075450D01*
X105871652Y-84168522D01*
X105746695Y-84293697D01*
X105742855Y-84299927D01*
X105742854Y-84299928D01*
X105694653Y-84378125D01*
X105653885Y-84444262D01*
X105642708Y-84477960D01*
X105608200Y-84582000D01*
X105598203Y-84612139D01*
X105597503Y-84618975D01*
X105597502Y-84618978D01*
X105595181Y-84641635D01*
X105587500Y-84716600D01*
X105587500Y-85717400D01*
X105587837Y-85720646D01*
X105587837Y-85720650D01*
X105594797Y-85787724D01*
X105598474Y-85823166D01*
X105600655Y-85829702D01*
X105600655Y-85829704D01*
X105634567Y-85931350D01*
X105654450Y-85990946D01*
X105730297Y-86113513D01*
X105743644Y-86135081D01*
X105762500Y-86201384D01*
X105762500Y-86741804D01*
X105742498Y-86809925D01*
X105693704Y-86854070D01*
X105680355Y-86860872D01*
X105680352Y-86860874D01*
X105674470Y-86863871D01*
X105669342Y-86868024D01*
X105669340Y-86868025D01*
X105663534Y-86872727D01*
X105647237Y-86883927D01*
X105640776Y-86887657D01*
X105640772Y-86887660D01*
X105635056Y-86890960D01*
X105630150Y-86895377D01*
X105630145Y-86895381D01*
X105584231Y-86936722D01*
X105579216Y-86941006D01*
X105570718Y-86947888D01*
X105563259Y-86953928D01*
X105548744Y-86968443D01*
X105543959Y-86972984D01*
X105493134Y-87018747D01*
X105489255Y-87024086D01*
X105489254Y-87024087D01*
X105484860Y-87030135D01*
X105472019Y-87045168D01*
X104317168Y-88200019D01*
X104302135Y-88212860D01*
X104299380Y-88214862D01*
X104290747Y-88221134D01*
X104261803Y-88253280D01*
X104244984Y-88271959D01*
X104240443Y-88276744D01*
X104225928Y-88291259D01*
X104223852Y-88293823D01*
X104213006Y-88307216D01*
X104208722Y-88312231D01*
X104167381Y-88358145D01*
X104167377Y-88358150D01*
X104162960Y-88363056D01*
X104159660Y-88368772D01*
X104159657Y-88368776D01*
X104155927Y-88375237D01*
X104144727Y-88391533D01*
X104135871Y-88402470D01*
X104107963Y-88457243D01*
X104104815Y-88463421D01*
X104101669Y-88469215D01*
X104067473Y-88528444D01*
X104065432Y-88534726D01*
X104065431Y-88534728D01*
X104063125Y-88541826D01*
X104055560Y-88560092D01*
X104049171Y-88572630D01*
X104038857Y-88611124D01*
X104031469Y-88638695D01*
X104029600Y-88645003D01*
X104008458Y-88710072D01*
X104007768Y-88716637D01*
X104007766Y-88716646D01*
X104006985Y-88724075D01*
X104003383Y-88743509D01*
X104002445Y-88747012D01*
X103999743Y-88757097D01*
X103999398Y-88763688D01*
X103999397Y-88763692D01*
X103996164Y-88825384D01*
X103995647Y-88831958D01*
X103994975Y-88838354D01*
X103993500Y-88852390D01*
X103993500Y-88872926D01*
X103993327Y-88879520D01*
X103990230Y-88938621D01*
X103989748Y-88947810D01*
X103990780Y-88954325D01*
X103991949Y-88961705D01*
X103993500Y-88981417D01*
X103993500Y-89033520D01*
X103973498Y-89101641D01*
X103956675Y-89122536D01*
X103852695Y-89226697D01*
X103848855Y-89232927D01*
X103848854Y-89232928D01*
X103777945Y-89347964D01*
X103759885Y-89377262D01*
X103757581Y-89384209D01*
X103757580Y-89384212D01*
X103751537Y-89402430D01*
X103711107Y-89460791D01*
X103645543Y-89488028D01*
X103575661Y-89475495D01*
X103523649Y-89427171D01*
X103512421Y-89402641D01*
X103505871Y-89383007D01*
X103505867Y-89382997D01*
X103503550Y-89376054D01*
X103422588Y-89245221D01*
X103414331Y-89231878D01*
X103414330Y-89231877D01*
X103410478Y-89225652D01*
X103405296Y-89220479D01*
X103400751Y-89214745D01*
X103403356Y-89212680D01*
X103376291Y-89163472D01*
X103380017Y-89095814D01*
X103381409Y-89091715D01*
X103411272Y-89003741D01*
X103442634Y-88911352D01*
X103442635Y-88911347D01*
X103444490Y-88905883D01*
X103473723Y-88704263D01*
X103475249Y-88646000D01*
X103459116Y-88470424D01*
X103457137Y-88448880D01*
X103457136Y-88448877D01*
X103456608Y-88443126D01*
X103434026Y-88363056D01*
X103402875Y-88252606D01*
X103402874Y-88252604D01*
X103401307Y-88247047D01*
X103397055Y-88238423D01*
X103313756Y-88069510D01*
X103311201Y-88064329D01*
X103306689Y-88058286D01*
X103192758Y-87905715D01*
X103192758Y-87905714D01*
X103189305Y-87901091D01*
X103096724Y-87815510D01*
X103043943Y-87766719D01*
X103043940Y-87766717D01*
X103039703Y-87762800D01*
X102904469Y-87677474D01*
X102872288Y-87657169D01*
X102872283Y-87657167D01*
X102867404Y-87654088D01*
X102678180Y-87578595D01*
X102478366Y-87538849D01*
X102472592Y-87538773D01*
X102472588Y-87538773D01*
X102369452Y-87537424D01*
X102274655Y-87536183D01*
X102268958Y-87537162D01*
X102268957Y-87537162D01*
X102088541Y-87568163D01*
X102073870Y-87570684D01*
X101882734Y-87641198D01*
X101877773Y-87644150D01*
X101877772Y-87644150D01*
X101721602Y-87737062D01*
X101707649Y-87745363D01*
X101554478Y-87879690D01*
X101550911Y-87884215D01*
X101550906Y-87884220D01*
X101498536Y-87950652D01*
X101428351Y-88039681D01*
X101425662Y-88044792D01*
X101425660Y-88044795D01*
X101400515Y-88092588D01*
X101333492Y-88219978D01*
X101273078Y-88414543D01*
X101249132Y-88616859D01*
X101262457Y-88820151D01*
X101277535Y-88879520D01*
X101310279Y-89008450D01*
X101312605Y-89017610D01*
X101319368Y-89032279D01*
X101341841Y-89081027D01*
X101352196Y-89151265D01*
X101322934Y-89215951D01*
X101318396Y-89220846D01*
X101317866Y-89221517D01*
X101312695Y-89226697D01*
X101308855Y-89232927D01*
X101308854Y-89232928D01*
X101237945Y-89347964D01*
X101219885Y-89377262D01*
X101203331Y-89427171D01*
X101171599Y-89522842D01*
X101164203Y-89545139D01*
X101153500Y-89649600D01*
X101153500Y-90450400D01*
X101153837Y-90453646D01*
X101153837Y-90453650D01*
X101163640Y-90548124D01*
X101164474Y-90556166D01*
X101166655Y-90562702D01*
X101166655Y-90562704D01*
X101200107Y-90662971D01*
X101220450Y-90723946D01*
X101313522Y-90874348D01*
X101318704Y-90879521D01*
X101400109Y-90960784D01*
X101434188Y-91023066D01*
X101429185Y-91093886D01*
X101400264Y-91138975D01*
X101382434Y-91156836D01*
X101312695Y-91226697D01*
X101308855Y-91232927D01*
X101308854Y-91232928D01*
X101264182Y-91305400D01*
X101219885Y-91377262D01*
X101208724Y-91410913D01*
X101166540Y-91538094D01*
X101164203Y-91545139D01*
X101153500Y-91649600D01*
X101153500Y-92450400D01*
X101153837Y-92453646D01*
X101153837Y-92453650D01*
X101163649Y-92548212D01*
X101164474Y-92556166D01*
X101166655Y-92562702D01*
X101166655Y-92562704D01*
X101193895Y-92644352D01*
X101220450Y-92723946D01*
X101313522Y-92874348D01*
X101318704Y-92879521D01*
X101420680Y-92981320D01*
X101454759Y-93043603D01*
X101457489Y-93063898D01*
X101458910Y-93091000D01*
X101459743Y-93106903D01*
X101461453Y-93113284D01*
X101461453Y-93113286D01*
X101463383Y-93120491D01*
X101466985Y-93139925D01*
X101467766Y-93147354D01*
X101467768Y-93147363D01*
X101468458Y-93153928D01*
X101489600Y-93218997D01*
X101491467Y-93225299D01*
X101509171Y-93291370D01*
X101515559Y-93303907D01*
X101523125Y-93322173D01*
X101527473Y-93335556D01*
X101530776Y-93341278D01*
X101530777Y-93341279D01*
X101561667Y-93394782D01*
X101564814Y-93400577D01*
X101595871Y-93461530D01*
X101600024Y-93466658D01*
X101600025Y-93466660D01*
X101604727Y-93472466D01*
X101615927Y-93488763D01*
X101619657Y-93495224D01*
X101619660Y-93495228D01*
X101622960Y-93500944D01*
X101627377Y-93505850D01*
X101627381Y-93505855D01*
X101668722Y-93551769D01*
X101673006Y-93556784D01*
X101685928Y-93572741D01*
X101700443Y-93587256D01*
X101704984Y-93592041D01*
X101750747Y-93642866D01*
X101756086Y-93646745D01*
X101756087Y-93646746D01*
X101762135Y-93651140D01*
X101777168Y-93663981D01*
X106750595Y-98637408D01*
X106784621Y-98699720D01*
X106787500Y-98726503D01*
X106787500Y-98755737D01*
X106767498Y-98823858D01*
X106752594Y-98842788D01*
X106642756Y-98957727D01*
X106636629Y-98964138D01*
X106529201Y-99121621D01*
X106474293Y-99166621D01*
X106403768Y-99174792D01*
X106340021Y-99143538D01*
X106319324Y-99119054D01*
X106238822Y-98994617D01*
X106238820Y-98994614D01*
X106236014Y-98990277D01*
X106085670Y-98825051D01*
X106081619Y-98821852D01*
X106081615Y-98821848D01*
X105914414Y-98689800D01*
X105914410Y-98689798D01*
X105910359Y-98686598D01*
X105874028Y-98666542D01*
X105821251Y-98637408D01*
X105714789Y-98578638D01*
X105709920Y-98576914D01*
X105709916Y-98576912D01*
X105509087Y-98505795D01*
X105509083Y-98505794D01*
X105504212Y-98504069D01*
X105499119Y-98503162D01*
X105499116Y-98503161D01*
X105289373Y-98465800D01*
X105289367Y-98465799D01*
X105284284Y-98464894D01*
X105210452Y-98463992D01*
X105066081Y-98462228D01*
X105066079Y-98462228D01*
X105060911Y-98462165D01*
X104840091Y-98495955D01*
X104627756Y-98565357D01*
X104589602Y-98585219D01*
X104464819Y-98650177D01*
X104429607Y-98668507D01*
X104425474Y-98671610D01*
X104425471Y-98671612D01*
X104279014Y-98781575D01*
X104250965Y-98802635D01*
X104225541Y-98829240D01*
X104157280Y-98900671D01*
X104096629Y-98964138D01*
X103970743Y-99148680D01*
X103876688Y-99351305D01*
X103816989Y-99566570D01*
X103793251Y-99788695D01*
X103806110Y-100011715D01*
X103807247Y-100016761D01*
X103807248Y-100016767D01*
X103818031Y-100064614D01*
X103855222Y-100229639D01*
X103939266Y-100436616D01*
X103976685Y-100497678D01*
X104053291Y-100622688D01*
X104055987Y-100627088D01*
X104202250Y-100795938D01*
X104374126Y-100938632D01*
X104567000Y-101051338D01*
X104775692Y-101131030D01*
X104780760Y-101132061D01*
X104780763Y-101132062D01*
X104878295Y-101151905D01*
X104994597Y-101175567D01*
X104999772Y-101175757D01*
X104999774Y-101175757D01*
X105184043Y-101182514D01*
X105251385Y-101204999D01*
X105268521Y-101219334D01*
X106742019Y-102692832D01*
X106754860Y-102707865D01*
X106763134Y-102719253D01*
X106768043Y-102723673D01*
X106813959Y-102765016D01*
X106818744Y-102769557D01*
X106833259Y-102784072D01*
X106835823Y-102786148D01*
X106849216Y-102796994D01*
X106854231Y-102801278D01*
X106900145Y-102842619D01*
X106900150Y-102842623D01*
X106905056Y-102847040D01*
X106910772Y-102850340D01*
X106910776Y-102850343D01*
X106917237Y-102854073D01*
X106933533Y-102865273D01*
X106944470Y-102874129D01*
X106965169Y-102884676D01*
X106967244Y-102885733D01*
X107018859Y-102934482D01*
X107035925Y-103003396D01*
X107013024Y-103070598D01*
X106957426Y-103114750D01*
X106910041Y-103124000D01*
X97408000Y-103124000D01*
X97339879Y-103103998D01*
X97293386Y-103050342D01*
X97282000Y-102998000D01*
X97282000Y-85998343D01*
X97302002Y-85930222D01*
X97355658Y-85883729D01*
X97425932Y-85873625D01*
X97455096Y-85883350D01*
X97455538Y-85882172D01*
X97584394Y-85930478D01*
X97599649Y-85934105D01*
X97650514Y-85939631D01*
X97657328Y-85940000D01*
X98279885Y-85940000D01*
X98295124Y-85935525D01*
X98296329Y-85934135D01*
X98298000Y-85926452D01*
X98298000Y-85921884D01*
X98806000Y-85921884D01*
X98810475Y-85937123D01*
X98811865Y-85938328D01*
X98819548Y-85939999D01*
X99446669Y-85939999D01*
X99453490Y-85939629D01*
X99504352Y-85934105D01*
X99519604Y-85930479D01*
X99640054Y-85885324D01*
X99655649Y-85876786D01*
X99757724Y-85800285D01*
X99770285Y-85787724D01*
X99846786Y-85685649D01*
X99855326Y-85670050D01*
X99900478Y-85549606D01*
X99904105Y-85534351D01*
X99909631Y-85483486D01*
X99910000Y-85476672D01*
X99910000Y-84854115D01*
X99905525Y-84838876D01*
X99904135Y-84837671D01*
X99896452Y-84836000D01*
X98824115Y-84836000D01*
X98808876Y-84840475D01*
X98807671Y-84841865D01*
X98806000Y-84849548D01*
X98806000Y-85921884D01*
X98298000Y-85921884D01*
X98298000Y-84309885D01*
X98806000Y-84309885D01*
X98810475Y-84325124D01*
X98811865Y-84326329D01*
X98819548Y-84328000D01*
X99891884Y-84328000D01*
X99907123Y-84323525D01*
X99908328Y-84322135D01*
X99909999Y-84314452D01*
X99909999Y-83687331D01*
X99909629Y-83680510D01*
X99904105Y-83629648D01*
X99900479Y-83614396D01*
X99855324Y-83493946D01*
X99846786Y-83478351D01*
X99770285Y-83376276D01*
X99757724Y-83363715D01*
X99655649Y-83287214D01*
X99640054Y-83278676D01*
X99529297Y-83237155D01*
X99472533Y-83194513D01*
X99447833Y-83127952D01*
X99463040Y-83058603D01*
X99484587Y-83029922D01*
X99586057Y-82928805D01*
X99592730Y-82920965D01*
X99717003Y-82748020D01*
X99722313Y-82739183D01*
X99816670Y-82548267D01*
X99820469Y-82538672D01*
X99882377Y-82334910D01*
X99884555Y-82324837D01*
X99885986Y-82313962D01*
X99883775Y-82299778D01*
X99870617Y-82296000D01*
X98824115Y-82296000D01*
X98808876Y-82300475D01*
X98807671Y-82301865D01*
X98806000Y-82309548D01*
X98806000Y-84309885D01*
X98298000Y-84309885D01*
X98298000Y-81769885D01*
X98806000Y-81769885D01*
X98810475Y-81785124D01*
X98811865Y-81786329D01*
X98819548Y-81788000D01*
X99870344Y-81788000D01*
X99883875Y-81784027D01*
X99885180Y-81774947D01*
X99884440Y-81772000D01*
X107092502Y-81772000D01*
X107112457Y-82000087D01*
X107171716Y-82221243D01*
X107174039Y-82226224D01*
X107174039Y-82226225D01*
X107266151Y-82423762D01*
X107266154Y-82423767D01*
X107268477Y-82428749D01*
X107399802Y-82616300D01*
X107561700Y-82778198D01*
X107566208Y-82781355D01*
X107566211Y-82781357D01*
X107644389Y-82836098D01*
X107749251Y-82909523D01*
X107754233Y-82911846D01*
X107754238Y-82911849D01*
X107866054Y-82963989D01*
X107956757Y-83006284D01*
X107962065Y-83007706D01*
X107962067Y-83007707D01*
X108172598Y-83064119D01*
X108172600Y-83064119D01*
X108177913Y-83065543D01*
X108406000Y-83085498D01*
X108634087Y-83065543D01*
X108639400Y-83064119D01*
X108639402Y-83064119D01*
X108849933Y-83007707D01*
X108849935Y-83007706D01*
X108855243Y-83006284D01*
X108945946Y-82963989D01*
X109057762Y-82911849D01*
X109057767Y-82911846D01*
X109062749Y-82909523D01*
X109167611Y-82836098D01*
X109245789Y-82781357D01*
X109245792Y-82781355D01*
X109250300Y-82778198D01*
X109412198Y-82616300D01*
X109543523Y-82428749D01*
X109545846Y-82423767D01*
X109545849Y-82423762D01*
X109637961Y-82226225D01*
X109637961Y-82226224D01*
X109640284Y-82221243D01*
X109699543Y-82000087D01*
X109719498Y-81772000D01*
X109699543Y-81543913D01*
X109698119Y-81538598D01*
X109641707Y-81328067D01*
X109641706Y-81328065D01*
X109640284Y-81322757D01*
X109586193Y-81206757D01*
X109545849Y-81120238D01*
X109545846Y-81120233D01*
X109543523Y-81115251D01*
X109426560Y-80948211D01*
X109415357Y-80932211D01*
X109415355Y-80932208D01*
X109412198Y-80927700D01*
X109403405Y-80918907D01*
X109369379Y-80856595D01*
X109366500Y-80829812D01*
X109366500Y-80747480D01*
X109386502Y-80679359D01*
X109403327Y-80658462D01*
X109502134Y-80559483D01*
X109507305Y-80554303D01*
X109584435Y-80429176D01*
X109596275Y-80409968D01*
X109596276Y-80409966D01*
X109600115Y-80403738D01*
X109647225Y-80261704D01*
X109653632Y-80242389D01*
X109653632Y-80242387D01*
X109655797Y-80235861D01*
X109666500Y-80131400D01*
X109666500Y-79380600D01*
X109658239Y-79300978D01*
X109656238Y-79281692D01*
X109656237Y-79281688D01*
X109655526Y-79274834D01*
X109599550Y-79107054D01*
X109506478Y-78956652D01*
X109381303Y-78831695D01*
X109377084Y-78829094D01*
X109336583Y-78771970D01*
X109333351Y-78701047D01*
X109368976Y-78639635D01*
X109376530Y-78633078D01*
X109382348Y-78629478D01*
X109507305Y-78504303D01*
X109584435Y-78379176D01*
X109596275Y-78359968D01*
X109596276Y-78359966D01*
X109600115Y-78353738D01*
X109647225Y-78211704D01*
X109653632Y-78192389D01*
X109653632Y-78192387D01*
X109655797Y-78185861D01*
X109666500Y-78081400D01*
X109666500Y-77330600D01*
X109658239Y-77250978D01*
X109656238Y-77231692D01*
X109656237Y-77231688D01*
X109655526Y-77224834D01*
X109599550Y-77057054D01*
X109506478Y-76906652D01*
X109403482Y-76803835D01*
X109369403Y-76741552D01*
X109366500Y-76714662D01*
X109366500Y-75094188D01*
X109386502Y-75026067D01*
X109403405Y-75005093D01*
X109412198Y-74996300D01*
X109543523Y-74808749D01*
X109545846Y-74803767D01*
X109545849Y-74803762D01*
X109637961Y-74606225D01*
X109637961Y-74606224D01*
X109640284Y-74601243D01*
X109660577Y-74525511D01*
X109698119Y-74385402D01*
X109698119Y-74385400D01*
X109699543Y-74380087D01*
X109719498Y-74152000D01*
X109699543Y-73923913D01*
X109671298Y-73818502D01*
X109641707Y-73708067D01*
X109641706Y-73708065D01*
X109640284Y-73702757D01*
X109582939Y-73579779D01*
X109545849Y-73500238D01*
X109545846Y-73500233D01*
X109543523Y-73495251D01*
X109426560Y-73328211D01*
X109415357Y-73312211D01*
X109415355Y-73312208D01*
X109412198Y-73307700D01*
X109250300Y-73145802D01*
X109245792Y-73142645D01*
X109245789Y-73142643D01*
X109157853Y-73081070D01*
X109062749Y-73014477D01*
X109057767Y-73012154D01*
X109057762Y-73012151D01*
X108860225Y-72920039D01*
X108860224Y-72920039D01*
X108855243Y-72917716D01*
X108849935Y-72916294D01*
X108849933Y-72916293D01*
X108639402Y-72859881D01*
X108639400Y-72859881D01*
X108634087Y-72858457D01*
X108406000Y-72838502D01*
X108177913Y-72858457D01*
X108172600Y-72859881D01*
X108172598Y-72859881D01*
X107962067Y-72916293D01*
X107962065Y-72916294D01*
X107956757Y-72917716D01*
X107951776Y-72920039D01*
X107951775Y-72920039D01*
X107754238Y-73012151D01*
X107754233Y-73012154D01*
X107749251Y-73014477D01*
X107654147Y-73081070D01*
X107566211Y-73142643D01*
X107566208Y-73142645D01*
X107561700Y-73145802D01*
X107399802Y-73307700D01*
X107396645Y-73312208D01*
X107396643Y-73312211D01*
X107385440Y-73328211D01*
X107268477Y-73495251D01*
X107266154Y-73500233D01*
X107266151Y-73500238D01*
X107229061Y-73579779D01*
X107171716Y-73702757D01*
X107170294Y-73708065D01*
X107170293Y-73708067D01*
X107140702Y-73818502D01*
X107112457Y-73923913D01*
X107092502Y-74152000D01*
X107112457Y-74380087D01*
X107113881Y-74385400D01*
X107113881Y-74385402D01*
X107151424Y-74525511D01*
X107171716Y-74601243D01*
X107174039Y-74606224D01*
X107174039Y-74606225D01*
X107266151Y-74803762D01*
X107266154Y-74803767D01*
X107268477Y-74808749D01*
X107399802Y-74996300D01*
X107512595Y-75109093D01*
X107546621Y-75171405D01*
X107549500Y-75198188D01*
X107549500Y-76714520D01*
X107529498Y-76782641D01*
X107512675Y-76803536D01*
X107408695Y-76907697D01*
X107404855Y-76913927D01*
X107404854Y-76913928D01*
X107397600Y-76925697D01*
X107315885Y-77058262D01*
X107260203Y-77226139D01*
X107259503Y-77232975D01*
X107259502Y-77232978D01*
X107258492Y-77242834D01*
X107249500Y-77330600D01*
X107249500Y-78081400D01*
X107249837Y-78084646D01*
X107249837Y-78084650D01*
X107251368Y-78099400D01*
X107260474Y-78187166D01*
X107262655Y-78193702D01*
X107262655Y-78193704D01*
X107306728Y-78325806D01*
X107316450Y-78354946D01*
X107409522Y-78505348D01*
X107534697Y-78630305D01*
X107538916Y-78632906D01*
X107579417Y-78690030D01*
X107582649Y-78760953D01*
X107547024Y-78822365D01*
X107539470Y-78828922D01*
X107533652Y-78832522D01*
X107528479Y-78837704D01*
X107518314Y-78847887D01*
X107408695Y-78957697D01*
X107404855Y-78963927D01*
X107404854Y-78963928D01*
X107397600Y-78975697D01*
X107315885Y-79108262D01*
X107260203Y-79276139D01*
X107259503Y-79282975D01*
X107259502Y-79282978D01*
X107258492Y-79292834D01*
X107249500Y-79380600D01*
X107249500Y-80131400D01*
X107249837Y-80134646D01*
X107249837Y-80134650D01*
X107251368Y-80149400D01*
X107260474Y-80237166D01*
X107262655Y-80243702D01*
X107262655Y-80243704D01*
X107306728Y-80375806D01*
X107316450Y-80404946D01*
X107409522Y-80555348D01*
X107414704Y-80560521D01*
X107501746Y-80647411D01*
X107535825Y-80709693D01*
X107530822Y-80780513D01*
X107501823Y-80825679D01*
X107399802Y-80927700D01*
X107396645Y-80932208D01*
X107396643Y-80932211D01*
X107385440Y-80948211D01*
X107268477Y-81115251D01*
X107266154Y-81120233D01*
X107266151Y-81120238D01*
X107225807Y-81206757D01*
X107171716Y-81322757D01*
X107170294Y-81328065D01*
X107170293Y-81328067D01*
X107113881Y-81538598D01*
X107112457Y-81543913D01*
X107092502Y-81772000D01*
X99884440Y-81772000D01*
X99843214Y-81607875D01*
X99839894Y-81598124D01*
X99754972Y-81402814D01*
X99750105Y-81393739D01*
X99634426Y-81214926D01*
X99628136Y-81206757D01*
X99484806Y-81049240D01*
X99477273Y-81042215D01*
X99310139Y-80910222D01*
X99301552Y-80904517D01*
X99115117Y-80801599D01*
X99105705Y-80797369D01*
X98904959Y-80726280D01*
X98894988Y-80723646D01*
X98823837Y-80710972D01*
X98810540Y-80712432D01*
X98806000Y-80726989D01*
X98806000Y-81769885D01*
X98298000Y-81769885D01*
X98298000Y-80725102D01*
X98294082Y-80711758D01*
X98279806Y-80709771D01*
X98241324Y-80715660D01*
X98231288Y-80718051D01*
X98028868Y-80784212D01*
X98019359Y-80788209D01*
X97830463Y-80886542D01*
X97821738Y-80892036D01*
X97651433Y-81019905D01*
X97643726Y-81026748D01*
X97499094Y-81178097D01*
X97437570Y-81213527D01*
X97366657Y-81210070D01*
X97308871Y-81168824D01*
X97282557Y-81102884D01*
X97282000Y-81091046D01*
X97282000Y-70816000D01*
X107197888Y-70816000D01*
X107216303Y-71026481D01*
X107217727Y-71031795D01*
X107217727Y-71031796D01*
X107257024Y-71178454D01*
X107270987Y-71230567D01*
X107360280Y-71422056D01*
X107481468Y-71595131D01*
X107630869Y-71744532D01*
X107803944Y-71865720D01*
X107808922Y-71868041D01*
X107808925Y-71868043D01*
X107990451Y-71952690D01*
X107995433Y-71955013D01*
X108000741Y-71956435D01*
X108000743Y-71956436D01*
X108194204Y-72008273D01*
X108199519Y-72009697D01*
X108410000Y-72028112D01*
X108620481Y-72009697D01*
X108625796Y-72008273D01*
X108819257Y-71956436D01*
X108819259Y-71956435D01*
X108824567Y-71955013D01*
X108829549Y-71952690D01*
X109011075Y-71868043D01*
X109011078Y-71868041D01*
X109016056Y-71865720D01*
X109189131Y-71744532D01*
X109338532Y-71595131D01*
X109459720Y-71422056D01*
X109549013Y-71230567D01*
X109562977Y-71178454D01*
X109602273Y-71031796D01*
X109602273Y-71031795D01*
X109603697Y-71026481D01*
X109622112Y-70816000D01*
X113897888Y-70816000D01*
X113916303Y-71026481D01*
X113917727Y-71031795D01*
X113917727Y-71031796D01*
X113957024Y-71178454D01*
X113970987Y-71230567D01*
X114060280Y-71422056D01*
X114181468Y-71595131D01*
X114330869Y-71744532D01*
X114503944Y-71865720D01*
X114508922Y-71868041D01*
X114508925Y-71868043D01*
X114690451Y-71952690D01*
X114695433Y-71955013D01*
X114700741Y-71956435D01*
X114700743Y-71956436D01*
X114894204Y-72008273D01*
X114899519Y-72009697D01*
X115110000Y-72028112D01*
X115320481Y-72009697D01*
X115325796Y-72008273D01*
X115519257Y-71956436D01*
X115519259Y-71956435D01*
X115524567Y-71955013D01*
X115529549Y-71952690D01*
X115711075Y-71868043D01*
X115711078Y-71868041D01*
X115716056Y-71865720D01*
X115889131Y-71744532D01*
X116038532Y-71595131D01*
X116159720Y-71422056D01*
X116249013Y-71230567D01*
X116262977Y-71178454D01*
X116302273Y-71031796D01*
X116302273Y-71031795D01*
X116303697Y-71026481D01*
X116322112Y-70816000D01*
X116303697Y-70605519D01*
X116284635Y-70534376D01*
X116250436Y-70406743D01*
X116250435Y-70406741D01*
X116249013Y-70401433D01*
X116246690Y-70396451D01*
X116162043Y-70214925D01*
X116162041Y-70214922D01*
X116159720Y-70209944D01*
X116038532Y-70036869D01*
X115889131Y-69887468D01*
X115716056Y-69766280D01*
X115711078Y-69763959D01*
X115711075Y-69763957D01*
X115541578Y-69684919D01*
X115488293Y-69638001D01*
X115468832Y-69569724D01*
X115489374Y-69501764D01*
X115541579Y-69456529D01*
X115710817Y-69377613D01*
X115720311Y-69372131D01*
X115750532Y-69350971D01*
X115758906Y-69340495D01*
X115751838Y-69327048D01*
X115122812Y-68698022D01*
X115108868Y-68690408D01*
X115107035Y-68690539D01*
X115100420Y-68694790D01*
X114467441Y-69327769D01*
X114461011Y-69339543D01*
X114470306Y-69351558D01*
X114499689Y-69372131D01*
X114509183Y-69377613D01*
X114678421Y-69456529D01*
X114731707Y-69503446D01*
X114751168Y-69571723D01*
X114730626Y-69639683D01*
X114678422Y-69684919D01*
X114508925Y-69763957D01*
X114508922Y-69763959D01*
X114503944Y-69766280D01*
X114330869Y-69887468D01*
X114181468Y-70036869D01*
X114060280Y-70209944D01*
X114057959Y-70214922D01*
X114057957Y-70214925D01*
X113973310Y-70396451D01*
X113970987Y-70401433D01*
X113969565Y-70406741D01*
X113969564Y-70406743D01*
X113935365Y-70534376D01*
X113916303Y-70605519D01*
X113897888Y-70816000D01*
X109622112Y-70816000D01*
X109603697Y-70605519D01*
X109584635Y-70534376D01*
X109550436Y-70406743D01*
X109550435Y-70406741D01*
X109549013Y-70401433D01*
X109546690Y-70396451D01*
X109462043Y-70214925D01*
X109462041Y-70214922D01*
X109459720Y-70209944D01*
X109338532Y-70036869D01*
X109189131Y-69887468D01*
X109028024Y-69774660D01*
X109020562Y-69769435D01*
X109020561Y-69769434D01*
X109016056Y-69766280D01*
X109016255Y-69765996D01*
X108969284Y-69716729D01*
X108955852Y-69647014D01*
X108982243Y-69581105D01*
X109040078Y-69539926D01*
X109081281Y-69532999D01*
X109153669Y-69532999D01*
X109160490Y-69532629D01*
X109211352Y-69527105D01*
X109226604Y-69523479D01*
X109347054Y-69478324D01*
X109362649Y-69469786D01*
X109464724Y-69393285D01*
X109477285Y-69380724D01*
X109553786Y-69278649D01*
X109562324Y-69263054D01*
X109607478Y-69142606D01*
X109611105Y-69127351D01*
X109616631Y-69076486D01*
X109617000Y-69069672D01*
X109617000Y-68598115D01*
X109612525Y-68582876D01*
X109611135Y-68581671D01*
X109603452Y-68580000D01*
X107221116Y-68580000D01*
X107205877Y-68584475D01*
X107204672Y-68585865D01*
X107203001Y-68593548D01*
X107203001Y-69069669D01*
X107203371Y-69076490D01*
X107208895Y-69127352D01*
X107212521Y-69142604D01*
X107257676Y-69263054D01*
X107266214Y-69278649D01*
X107342715Y-69380724D01*
X107355276Y-69393285D01*
X107457351Y-69469786D01*
X107472946Y-69478324D01*
X107593394Y-69523478D01*
X107608649Y-69527105D01*
X107659514Y-69532631D01*
X107666328Y-69533000D01*
X107738718Y-69533000D01*
X107806839Y-69553002D01*
X107853332Y-69606658D01*
X107863436Y-69676932D01*
X107833942Y-69741512D01*
X107803949Y-69766278D01*
X107803944Y-69766280D01*
X107630869Y-69887468D01*
X107481468Y-70036869D01*
X107360280Y-70209944D01*
X107357959Y-70214922D01*
X107357957Y-70214925D01*
X107273310Y-70396451D01*
X107270987Y-70401433D01*
X107269565Y-70406741D01*
X107269564Y-70406743D01*
X107235365Y-70534376D01*
X107216303Y-70605519D01*
X107197888Y-70816000D01*
X97282000Y-70816000D01*
X97282000Y-68331475D01*
X113898868Y-68331475D01*
X113916317Y-68530914D01*
X113918220Y-68541709D01*
X113970035Y-68735085D01*
X113973781Y-68745377D01*
X114058388Y-68926818D01*
X114063871Y-68936313D01*
X114085029Y-68966530D01*
X114095506Y-68974905D01*
X114108953Y-68967837D01*
X114737978Y-68338812D01*
X114744356Y-68327132D01*
X115474408Y-68327132D01*
X115474539Y-68328965D01*
X115478790Y-68335580D01*
X116111768Y-68968558D01*
X116123543Y-68974988D01*
X116135558Y-68965692D01*
X116156129Y-68936313D01*
X116161612Y-68926818D01*
X116246219Y-68745377D01*
X116249965Y-68735085D01*
X116301780Y-68541709D01*
X116303683Y-68530914D01*
X116321132Y-68331475D01*
X116321132Y-68320525D01*
X116303683Y-68121086D01*
X116301780Y-68110291D01*
X116249965Y-67916915D01*
X116246219Y-67906623D01*
X116161612Y-67725182D01*
X116156129Y-67715687D01*
X116134971Y-67685470D01*
X116124494Y-67677095D01*
X116111047Y-67684163D01*
X115482022Y-68313188D01*
X115474408Y-68327132D01*
X114744356Y-68327132D01*
X114745592Y-68324868D01*
X114745461Y-68323035D01*
X114741210Y-68316420D01*
X114108232Y-67683442D01*
X114096457Y-67677012D01*
X114084442Y-67686308D01*
X114063871Y-67715687D01*
X114058388Y-67725182D01*
X113973781Y-67906623D01*
X113970035Y-67916915D01*
X113918220Y-68110291D01*
X113916317Y-68121086D01*
X113898868Y-68320525D01*
X113898868Y-68331475D01*
X97282000Y-68331475D01*
X97282000Y-68053885D01*
X107203000Y-68053885D01*
X107207475Y-68069124D01*
X107208865Y-68070329D01*
X107216548Y-68072000D01*
X108137885Y-68072000D01*
X108153124Y-68067525D01*
X108154329Y-68066135D01*
X108156000Y-68058452D01*
X108156000Y-68053885D01*
X108664000Y-68053885D01*
X108668475Y-68069124D01*
X108669865Y-68070329D01*
X108677548Y-68072000D01*
X109598884Y-68072000D01*
X109614123Y-68067525D01*
X109615328Y-68066135D01*
X109616999Y-68058452D01*
X109616999Y-67582331D01*
X109616629Y-67575510D01*
X109611105Y-67524648D01*
X109607479Y-67509396D01*
X109562324Y-67388946D01*
X109553786Y-67373351D01*
X109507436Y-67311506D01*
X114461095Y-67311506D01*
X114468163Y-67324953D01*
X115097188Y-67953978D01*
X115111132Y-67961592D01*
X115112965Y-67961461D01*
X115119580Y-67957210D01*
X115752559Y-67324231D01*
X115758989Y-67312457D01*
X115749694Y-67300442D01*
X115720311Y-67279869D01*
X115710821Y-67274390D01*
X115529377Y-67189781D01*
X115519085Y-67186035D01*
X115325709Y-67134220D01*
X115314914Y-67132317D01*
X115115475Y-67114868D01*
X115104525Y-67114868D01*
X114905086Y-67132317D01*
X114894291Y-67134220D01*
X114700915Y-67186035D01*
X114690623Y-67189781D01*
X114509182Y-67274388D01*
X114499687Y-67279871D01*
X114469470Y-67301029D01*
X114461095Y-67311506D01*
X109507436Y-67311506D01*
X109477285Y-67271276D01*
X109464724Y-67258715D01*
X109362649Y-67182214D01*
X109347054Y-67173676D01*
X109226606Y-67128522D01*
X109211351Y-67124895D01*
X109160486Y-67119369D01*
X109153672Y-67119000D01*
X108682115Y-67119000D01*
X108666876Y-67123475D01*
X108665671Y-67124865D01*
X108664000Y-67132548D01*
X108664000Y-68053885D01*
X108156000Y-68053885D01*
X108156000Y-67137116D01*
X108151525Y-67121877D01*
X108150135Y-67120672D01*
X108142452Y-67119001D01*
X107666331Y-67119001D01*
X107659510Y-67119371D01*
X107608648Y-67124895D01*
X107593396Y-67128521D01*
X107472946Y-67173676D01*
X107457351Y-67182214D01*
X107355276Y-67258715D01*
X107342715Y-67271276D01*
X107266214Y-67373351D01*
X107257676Y-67388946D01*
X107212522Y-67509394D01*
X107208895Y-67524649D01*
X107203369Y-67575514D01*
X107203000Y-67582328D01*
X107203000Y-68053885D01*
X97282000Y-68053885D01*
X97282000Y-65303312D01*
X102833568Y-65303312D01*
X102850533Y-65597541D01*
X102851358Y-65601746D01*
X102851359Y-65601754D01*
X102877531Y-65735152D01*
X102907272Y-65886745D01*
X102908659Y-65890795D01*
X102908660Y-65890800D01*
X102962984Y-66049466D01*
X103002736Y-66165572D01*
X103004658Y-66169393D01*
X103004659Y-66169396D01*
X103045370Y-66250340D01*
X103135159Y-66428864D01*
X103172972Y-66483883D01*
X103292880Y-66658350D01*
X103302088Y-66671748D01*
X103500437Y-66889730D01*
X103503726Y-66892480D01*
X103723241Y-67076025D01*
X103723246Y-67076029D01*
X103726533Y-67078777D01*
X103812252Y-67132548D01*
X103972555Y-67233106D01*
X103972559Y-67233108D01*
X103976195Y-67235389D01*
X104244801Y-67356669D01*
X104248921Y-67357889D01*
X104248920Y-67357889D01*
X104523269Y-67439155D01*
X104523273Y-67439156D01*
X104527382Y-67440373D01*
X104531619Y-67441021D01*
X104531622Y-67441022D01*
X104781431Y-67479249D01*
X104818708Y-67484953D01*
X104968769Y-67487310D01*
X105109098Y-67489515D01*
X105109104Y-67489515D01*
X105113389Y-67489582D01*
X105117641Y-67489067D01*
X105117649Y-67489067D01*
X105344870Y-67461569D01*
X105405971Y-67454175D01*
X105410120Y-67453087D01*
X105410123Y-67453086D01*
X105686891Y-67380478D01*
X105691042Y-67379389D01*
X105963325Y-67266605D01*
X106122354Y-67173676D01*
X106214079Y-67120076D01*
X106214080Y-67120075D01*
X106217782Y-67117912D01*
X106449706Y-66936061D01*
X106459439Y-66926018D01*
X106582284Y-66799251D01*
X106654803Y-66724417D01*
X106657336Y-66720969D01*
X106657340Y-66720964D01*
X106826742Y-66490351D01*
X106829280Y-66486896D01*
X106854652Y-66440166D01*
X106967856Y-66231670D01*
X106967857Y-66231668D01*
X106969906Y-66227894D01*
X107069800Y-65963534D01*
X107072564Y-65956220D01*
X107072565Y-65956216D01*
X107074082Y-65952202D01*
X107139877Y-65664923D01*
X107141745Y-65644000D01*
X107165856Y-65373837D01*
X107166076Y-65371373D01*
X107166551Y-65326000D01*
X107164713Y-65299041D01*
X107146798Y-65036242D01*
X107146797Y-65036236D01*
X107146506Y-65031965D01*
X107139223Y-64996794D01*
X107087610Y-64747568D01*
X107086741Y-64743371D01*
X106998190Y-64493312D01*
X109593568Y-64493312D01*
X109610533Y-64787541D01*
X109611358Y-64791746D01*
X109611359Y-64791754D01*
X109626537Y-64869116D01*
X109667272Y-65076745D01*
X109668659Y-65080795D01*
X109668660Y-65080800D01*
X109751471Y-65322671D01*
X109762736Y-65355572D01*
X109895159Y-65618864D01*
X109935043Y-65676896D01*
X110040610Y-65830497D01*
X110062088Y-65861748D01*
X110064975Y-65864921D01*
X110064976Y-65864922D01*
X110084834Y-65886745D01*
X110260437Y-66079730D01*
X110263726Y-66082480D01*
X110483241Y-66266025D01*
X110483246Y-66266029D01*
X110486533Y-66268777D01*
X110544697Y-66305263D01*
X110732555Y-66423106D01*
X110732559Y-66423108D01*
X110736195Y-66425389D01*
X110740105Y-66427154D01*
X110740106Y-66427155D01*
X110768922Y-66440166D01*
X111004801Y-66546669D01*
X111008921Y-66547889D01*
X111008920Y-66547889D01*
X111283269Y-66629155D01*
X111283273Y-66629156D01*
X111287382Y-66630373D01*
X111291619Y-66631021D01*
X111291622Y-66631022D01*
X111470209Y-66658350D01*
X111578708Y-66674953D01*
X111728769Y-66677310D01*
X111869098Y-66679515D01*
X111869104Y-66679515D01*
X111873389Y-66679582D01*
X111877641Y-66679067D01*
X111877649Y-66679067D01*
X112104870Y-66651569D01*
X112165971Y-66644175D01*
X112170120Y-66643087D01*
X112170123Y-66643086D01*
X112446891Y-66570478D01*
X112451042Y-66569389D01*
X112723325Y-66456605D01*
X112977782Y-66307912D01*
X113209706Y-66126061D01*
X113224353Y-66110947D01*
X113411820Y-65917495D01*
X113414803Y-65914417D01*
X113417336Y-65910969D01*
X113417340Y-65910964D01*
X113586742Y-65680351D01*
X113589280Y-65676896D01*
X113607141Y-65644000D01*
X113727856Y-65421670D01*
X113727857Y-65421668D01*
X113729906Y-65417894D01*
X113773203Y-65303312D01*
X116353568Y-65303312D01*
X116370533Y-65597541D01*
X116371358Y-65601746D01*
X116371359Y-65601754D01*
X116397531Y-65735152D01*
X116427272Y-65886745D01*
X116428659Y-65890795D01*
X116428660Y-65890800D01*
X116482984Y-66049466D01*
X116522736Y-66165572D01*
X116524658Y-66169393D01*
X116524659Y-66169396D01*
X116565370Y-66250340D01*
X116655159Y-66428864D01*
X116692972Y-66483883D01*
X116812880Y-66658350D01*
X116822088Y-66671748D01*
X117020437Y-66889730D01*
X117023726Y-66892480D01*
X117243241Y-67076025D01*
X117243246Y-67076029D01*
X117246533Y-67078777D01*
X117332252Y-67132548D01*
X117492555Y-67233106D01*
X117492559Y-67233108D01*
X117496195Y-67235389D01*
X117764801Y-67356669D01*
X117768921Y-67357889D01*
X117768920Y-67357889D01*
X118043269Y-67439155D01*
X118043273Y-67439156D01*
X118047382Y-67440373D01*
X118051619Y-67441021D01*
X118051622Y-67441022D01*
X118301431Y-67479249D01*
X118338708Y-67484953D01*
X118488769Y-67487310D01*
X118629098Y-67489515D01*
X118629104Y-67489515D01*
X118633389Y-67489582D01*
X118637641Y-67489067D01*
X118637649Y-67489067D01*
X118864870Y-67461569D01*
X118925971Y-67454175D01*
X118930120Y-67453087D01*
X118930123Y-67453086D01*
X119206891Y-67380478D01*
X119211042Y-67379389D01*
X119483325Y-67266605D01*
X119642354Y-67173676D01*
X119734079Y-67120076D01*
X119734080Y-67120075D01*
X119737782Y-67117912D01*
X119969706Y-66936061D01*
X119979439Y-66926018D01*
X120102284Y-66799251D01*
X120174803Y-66724417D01*
X120177336Y-66720969D01*
X120177340Y-66720964D01*
X120346742Y-66490351D01*
X120349280Y-66486896D01*
X120374652Y-66440166D01*
X120487856Y-66231670D01*
X120487857Y-66231668D01*
X120489906Y-66227894D01*
X120589800Y-65963534D01*
X120592564Y-65956220D01*
X120592565Y-65956216D01*
X120594082Y-65952202D01*
X120659877Y-65664923D01*
X120661745Y-65644000D01*
X120685856Y-65373837D01*
X120686076Y-65371373D01*
X120686551Y-65326000D01*
X120684713Y-65299041D01*
X120666798Y-65036242D01*
X120666797Y-65036236D01*
X120666506Y-65031965D01*
X120659223Y-64996794D01*
X120607610Y-64747568D01*
X120606741Y-64743371D01*
X120508362Y-64465559D01*
X120373190Y-64203668D01*
X120370264Y-64199504D01*
X120263489Y-64047579D01*
X120203726Y-63962545D01*
X120003106Y-63746652D01*
X119775042Y-63559984D01*
X119523754Y-63405995D01*
X119519818Y-63404267D01*
X119257821Y-63289258D01*
X119257818Y-63289257D01*
X119253893Y-63287534D01*
X118970451Y-63206793D01*
X118966209Y-63206189D01*
X118966203Y-63206188D01*
X118682925Y-63165872D01*
X118678674Y-63165267D01*
X118523275Y-63164453D01*
X118388247Y-63163746D01*
X118388241Y-63163746D01*
X118383961Y-63163724D01*
X118379716Y-63164283D01*
X118379714Y-63164283D01*
X118320074Y-63172135D01*
X118091765Y-63202193D01*
X117807494Y-63279960D01*
X117803546Y-63281644D01*
X117540358Y-63393903D01*
X117540354Y-63393905D01*
X117536406Y-63395589D01*
X117491042Y-63422739D01*
X117287202Y-63544734D01*
X117287198Y-63544737D01*
X117283520Y-63546938D01*
X117280177Y-63549616D01*
X117280173Y-63549619D01*
X117178610Y-63630987D01*
X117053514Y-63731208D01*
X117050570Y-63734310D01*
X117050566Y-63734314D01*
X117011825Y-63775139D01*
X116850644Y-63944988D01*
X116678664Y-64184323D01*
X116540757Y-64444784D01*
X116502451Y-64549460D01*
X116440993Y-64717405D01*
X116439475Y-64721552D01*
X116376691Y-65009504D01*
X116376355Y-65013774D01*
X116366248Y-65142202D01*
X116353568Y-65303312D01*
X113773203Y-65303312D01*
X113828810Y-65156155D01*
X113832564Y-65146220D01*
X113832565Y-65146216D01*
X113834082Y-65142202D01*
X113882527Y-64930680D01*
X113898919Y-64859107D01*
X113898920Y-64859103D01*
X113899877Y-64854923D01*
X113906274Y-64783254D01*
X113925856Y-64563837D01*
X113926076Y-64561373D01*
X113926119Y-64557316D01*
X113926525Y-64518485D01*
X113926551Y-64516000D01*
X113923388Y-64469600D01*
X113906798Y-64226242D01*
X113906797Y-64226236D01*
X113906506Y-64221965D01*
X113846741Y-63933371D01*
X113748362Y-63655559D01*
X113613190Y-63393668D01*
X113576014Y-63340771D01*
X113478619Y-63202193D01*
X113443726Y-63152545D01*
X113325627Y-63025455D01*
X113307517Y-63005966D01*
X122112257Y-63005966D01*
X122142565Y-63140446D01*
X122145645Y-63150275D01*
X122225770Y-63347603D01*
X122230413Y-63356794D01*
X122341694Y-63538388D01*
X122347777Y-63546699D01*
X122487213Y-63707667D01*
X122494580Y-63714883D01*
X122658434Y-63850916D01*
X122666881Y-63856831D01*
X122850756Y-63964279D01*
X122860042Y-63968729D01*
X123059001Y-64044703D01*
X123068899Y-64047579D01*
X123172250Y-64068606D01*
X123186299Y-64067410D01*
X123190000Y-64057065D01*
X123190000Y-64056517D01*
X123698000Y-64056517D01*
X123702064Y-64070359D01*
X123715478Y-64072393D01*
X123722184Y-64071534D01*
X123732262Y-64069392D01*
X123936255Y-64008191D01*
X123945842Y-64004433D01*
X124137095Y-63910739D01*
X124145945Y-63905464D01*
X124319328Y-63781792D01*
X124327200Y-63775139D01*
X124432286Y-63670418D01*
X124494657Y-63636501D01*
X124565464Y-63641689D01*
X124622226Y-63684335D01*
X124639208Y-63715439D01*
X124680675Y-63826052D01*
X124689214Y-63841649D01*
X124765715Y-63943724D01*
X124778276Y-63956285D01*
X124880351Y-64032786D01*
X124895946Y-64041324D01*
X125016394Y-64086478D01*
X125031649Y-64090105D01*
X125082514Y-64095631D01*
X125089328Y-64096000D01*
X125711885Y-64096000D01*
X125727124Y-64091525D01*
X125728329Y-64090135D01*
X125730000Y-64082452D01*
X125730000Y-64077884D01*
X126238000Y-64077884D01*
X126242475Y-64093123D01*
X126243865Y-64094328D01*
X126251548Y-64095999D01*
X126878669Y-64095999D01*
X126885490Y-64095629D01*
X126936352Y-64090105D01*
X126951604Y-64086479D01*
X127072054Y-64041324D01*
X127087649Y-64032786D01*
X127189724Y-63956285D01*
X127202285Y-63943724D01*
X127278786Y-63841649D01*
X127287324Y-63826054D01*
X127332478Y-63705606D01*
X127336105Y-63690351D01*
X127341631Y-63639486D01*
X127342000Y-63632672D01*
X127342000Y-63010115D01*
X127337525Y-62994876D01*
X127336135Y-62993671D01*
X127328452Y-62992000D01*
X126256115Y-62992000D01*
X126240876Y-62996475D01*
X126239671Y-62997865D01*
X126238000Y-63005548D01*
X126238000Y-64077884D01*
X125730000Y-64077884D01*
X125730000Y-63010115D01*
X125725525Y-62994876D01*
X125724135Y-62993671D01*
X125716452Y-62992000D01*
X123716115Y-62992000D01*
X123700876Y-62996475D01*
X123699671Y-62997865D01*
X123698000Y-63005548D01*
X123698000Y-64056517D01*
X123190000Y-64056517D01*
X123190000Y-63010115D01*
X123185525Y-62994876D01*
X123184135Y-62993671D01*
X123176452Y-62992000D01*
X122127225Y-62992000D01*
X122113694Y-62995973D01*
X122112257Y-63005966D01*
X113307517Y-63005966D01*
X113246027Y-62939795D01*
X113246024Y-62939792D01*
X113243106Y-62936652D01*
X113015042Y-62749984D01*
X112763754Y-62595995D01*
X112746680Y-62588500D01*
X112497821Y-62479258D01*
X112497818Y-62479257D01*
X112493893Y-62477534D01*
X112475108Y-62472183D01*
X122108389Y-62472183D01*
X122109912Y-62480607D01*
X122122292Y-62484000D01*
X123171885Y-62484000D01*
X123187124Y-62479525D01*
X123188329Y-62478135D01*
X123190000Y-62470452D01*
X123190000Y-62465885D01*
X123698000Y-62465885D01*
X123702475Y-62481124D01*
X123703865Y-62482329D01*
X123711548Y-62484000D01*
X125711885Y-62484000D01*
X125727124Y-62479525D01*
X125728329Y-62478135D01*
X125730000Y-62470452D01*
X125730000Y-62465885D01*
X126238000Y-62465885D01*
X126242475Y-62481124D01*
X126243865Y-62482329D01*
X126251548Y-62484000D01*
X127323884Y-62484000D01*
X127339123Y-62479525D01*
X127340328Y-62478135D01*
X127341999Y-62470452D01*
X127341999Y-61843331D01*
X127341629Y-61836510D01*
X127336105Y-61785648D01*
X127332479Y-61770396D01*
X127287324Y-61649946D01*
X127278786Y-61634351D01*
X127202285Y-61532276D01*
X127189724Y-61519715D01*
X127087649Y-61443214D01*
X127072054Y-61434676D01*
X126951606Y-61389522D01*
X126936351Y-61385895D01*
X126885486Y-61380369D01*
X126878672Y-61380000D01*
X126256115Y-61380000D01*
X126240876Y-61384475D01*
X126239671Y-61385865D01*
X126238000Y-61393548D01*
X126238000Y-62465885D01*
X125730000Y-62465885D01*
X125730000Y-61398116D01*
X125725525Y-61382877D01*
X125724135Y-61381672D01*
X125716452Y-61380001D01*
X125089331Y-61380001D01*
X125082510Y-61380371D01*
X125031648Y-61385895D01*
X125016396Y-61389521D01*
X124895946Y-61434676D01*
X124880351Y-61443214D01*
X124778276Y-61519715D01*
X124765715Y-61532276D01*
X124689214Y-61634351D01*
X124680676Y-61649946D01*
X124639100Y-61760849D01*
X124596458Y-61817613D01*
X124529897Y-61842313D01*
X124460548Y-61827105D01*
X124427925Y-61801419D01*
X124376806Y-61745240D01*
X124369273Y-61738215D01*
X124202139Y-61606222D01*
X124193552Y-61600517D01*
X124007117Y-61497599D01*
X123997705Y-61493369D01*
X123796959Y-61422280D01*
X123786988Y-61419646D01*
X123715837Y-61406972D01*
X123702540Y-61408432D01*
X123698000Y-61422989D01*
X123698000Y-62465885D01*
X123190000Y-62465885D01*
X123190000Y-61421102D01*
X123186082Y-61407758D01*
X123171806Y-61405771D01*
X123133324Y-61411660D01*
X123123288Y-61414051D01*
X122920868Y-61480212D01*
X122911359Y-61484209D01*
X122722463Y-61582542D01*
X122713738Y-61588036D01*
X122543433Y-61715905D01*
X122535726Y-61722748D01*
X122388590Y-61876717D01*
X122382104Y-61884727D01*
X122262098Y-62060649D01*
X122257000Y-62069623D01*
X122167338Y-62262783D01*
X122163775Y-62272470D01*
X122108389Y-62472183D01*
X112475108Y-62472183D01*
X112210451Y-62396793D01*
X112206209Y-62396189D01*
X112206203Y-62396188D01*
X111922925Y-62355872D01*
X111918674Y-62355267D01*
X111763275Y-62354453D01*
X111628247Y-62353746D01*
X111628241Y-62353746D01*
X111623961Y-62353724D01*
X111619716Y-62354283D01*
X111619714Y-62354283D01*
X111553683Y-62362976D01*
X111331765Y-62392193D01*
X111047494Y-62469960D01*
X111021320Y-62481124D01*
X110780358Y-62583903D01*
X110780354Y-62583905D01*
X110776406Y-62585589D01*
X110674823Y-62646385D01*
X110527202Y-62734734D01*
X110527198Y-62734737D01*
X110523520Y-62736938D01*
X110520177Y-62739616D01*
X110520173Y-62739619D01*
X110407809Y-62829640D01*
X110293514Y-62921208D01*
X110290570Y-62924310D01*
X110290566Y-62924314D01*
X110209144Y-63010115D01*
X110090644Y-63134988D01*
X109918664Y-63374323D01*
X109916655Y-63378118D01*
X109916654Y-63378119D01*
X109900706Y-63408239D01*
X109780757Y-63634784D01*
X109679475Y-63911552D01*
X109616691Y-64199504D01*
X109593568Y-64493312D01*
X106998190Y-64493312D01*
X106988362Y-64465559D01*
X106853190Y-64203668D01*
X106850264Y-64199504D01*
X106743489Y-64047579D01*
X106683726Y-63962545D01*
X106483106Y-63746652D01*
X106255042Y-63559984D01*
X106003754Y-63405995D01*
X105999818Y-63404267D01*
X105737821Y-63289258D01*
X105737818Y-63289257D01*
X105733893Y-63287534D01*
X105450451Y-63206793D01*
X105446209Y-63206189D01*
X105446203Y-63206188D01*
X105162925Y-63165872D01*
X105158674Y-63165267D01*
X105003275Y-63164453D01*
X104868247Y-63163746D01*
X104868241Y-63163746D01*
X104863961Y-63163724D01*
X104859716Y-63164283D01*
X104859714Y-63164283D01*
X104800074Y-63172135D01*
X104571765Y-63202193D01*
X104287494Y-63279960D01*
X104283546Y-63281644D01*
X104020358Y-63393903D01*
X104020354Y-63393905D01*
X104016406Y-63395589D01*
X103971042Y-63422739D01*
X103767202Y-63544734D01*
X103767198Y-63544737D01*
X103763520Y-63546938D01*
X103760177Y-63549616D01*
X103760173Y-63549619D01*
X103658610Y-63630987D01*
X103533514Y-63731208D01*
X103530570Y-63734310D01*
X103530566Y-63734314D01*
X103491825Y-63775139D01*
X103330644Y-63944988D01*
X103158664Y-64184323D01*
X103020757Y-64444784D01*
X102982451Y-64549460D01*
X102920993Y-64717405D01*
X102919475Y-64721552D01*
X102856691Y-65009504D01*
X102856355Y-65013774D01*
X102846248Y-65142202D01*
X102833568Y-65303312D01*
X97282000Y-65303312D01*
X97282000Y-60324000D01*
X97302002Y-60255879D01*
X97355658Y-60209386D01*
X97408000Y-60198000D01*
X136034533Y-60198000D01*
X136102654Y-60218002D01*
G37*
G04 #@! TD.AperFunction*
G04 #@! TA.AperFunction,Conductor*
G36*
X152088121Y-60218002D02*
G01*
X152134614Y-60271658D01*
X152146000Y-60324000D01*
X152146000Y-81094121D01*
X152125998Y-81162242D01*
X152072342Y-81208735D01*
X152002068Y-81218839D01*
X151937488Y-81189345D01*
X151926807Y-81178921D01*
X151808806Y-81049240D01*
X151801273Y-81042215D01*
X151634139Y-80910222D01*
X151625552Y-80904517D01*
X151439117Y-80801599D01*
X151429705Y-80797369D01*
X151228959Y-80726280D01*
X151218988Y-80723646D01*
X151147837Y-80710972D01*
X151134540Y-80712432D01*
X151130000Y-80726989D01*
X151130000Y-85921884D01*
X151134475Y-85937123D01*
X151135865Y-85938328D01*
X151143548Y-85939999D01*
X151770669Y-85939999D01*
X151777490Y-85939629D01*
X151828352Y-85934105D01*
X151843604Y-85930479D01*
X151972462Y-85882172D01*
X151973437Y-85884772D01*
X152028851Y-85872654D01*
X152095399Y-85897392D01*
X152138007Y-85954182D01*
X152146000Y-85998343D01*
X152146000Y-102998000D01*
X152125998Y-103066121D01*
X152072342Y-103112614D01*
X152020000Y-103124000D01*
X146835959Y-103124000D01*
X146767838Y-103103998D01*
X146721345Y-103050342D01*
X146711241Y-102980068D01*
X146740735Y-102915488D01*
X146778756Y-102885733D01*
X146780831Y-102884676D01*
X146801530Y-102874129D01*
X146812467Y-102865273D01*
X146828763Y-102854073D01*
X146835224Y-102850343D01*
X146835228Y-102850340D01*
X146840944Y-102847040D01*
X146845850Y-102842623D01*
X146845855Y-102842619D01*
X146891769Y-102801278D01*
X146896784Y-102796994D01*
X146910177Y-102786148D01*
X146912741Y-102784072D01*
X146927256Y-102769557D01*
X146932041Y-102765016D01*
X146977957Y-102723673D01*
X146982866Y-102719253D01*
X146991140Y-102707865D01*
X147003981Y-102692832D01*
X150952832Y-98743981D01*
X150967865Y-98731140D01*
X150973913Y-98726746D01*
X150973914Y-98726745D01*
X150979253Y-98722866D01*
X151025021Y-98672036D01*
X151029557Y-98667256D01*
X151044072Y-98652741D01*
X151050112Y-98645282D01*
X151056994Y-98636784D01*
X151061278Y-98631769D01*
X151102619Y-98585855D01*
X151102623Y-98585850D01*
X151107040Y-98580944D01*
X151110340Y-98575228D01*
X151110343Y-98575224D01*
X151114073Y-98568763D01*
X151125273Y-98552466D01*
X151129975Y-98546660D01*
X151129976Y-98546658D01*
X151134129Y-98541530D01*
X151139230Y-98531520D01*
X151165188Y-98480574D01*
X151168336Y-98474777D01*
X151199224Y-98421277D01*
X151202527Y-98415556D01*
X151206875Y-98402174D01*
X151214438Y-98383915D01*
X151220830Y-98371370D01*
X151223322Y-98362072D01*
X151238535Y-98305294D01*
X151240409Y-98298969D01*
X151259501Y-98240210D01*
X151259501Y-98240209D01*
X151261542Y-98233928D01*
X151263014Y-98219925D01*
X151266615Y-98200496D01*
X151270257Y-98186903D01*
X151271924Y-98155096D01*
X151273836Y-98118616D01*
X151274353Y-98112042D01*
X151276156Y-98094884D01*
X151276156Y-98094882D01*
X151276500Y-98091610D01*
X151276500Y-98071074D01*
X151276673Y-98064480D01*
X151279907Y-98002782D01*
X151279907Y-98002777D01*
X151280252Y-97996190D01*
X151278051Y-97982292D01*
X151276500Y-97962583D01*
X151276500Y-87054439D01*
X151278051Y-87034727D01*
X151278779Y-87030135D01*
X151280252Y-87020832D01*
X151279893Y-87013968D01*
X151276673Y-86952542D01*
X151276500Y-86945948D01*
X151276500Y-86925412D01*
X151276156Y-86922138D01*
X151274353Y-86904980D01*
X151273836Y-86898406D01*
X151270603Y-86836714D01*
X151270602Y-86836710D01*
X151270257Y-86830119D01*
X151266844Y-86817380D01*
X151266617Y-86816531D01*
X151263015Y-86797097D01*
X151262234Y-86789668D01*
X151262232Y-86789659D01*
X151261542Y-86783094D01*
X151240400Y-86718025D01*
X151238531Y-86711717D01*
X151222537Y-86652026D01*
X151222537Y-86652025D01*
X151220829Y-86645652D01*
X151214440Y-86633114D01*
X151206875Y-86614848D01*
X151204569Y-86607750D01*
X151204568Y-86607748D01*
X151202527Y-86601466D01*
X151168331Y-86542237D01*
X151165185Y-86536443D01*
X151153234Y-86512988D01*
X151134129Y-86475492D01*
X151125273Y-86464555D01*
X151114073Y-86448259D01*
X151110343Y-86441798D01*
X151110340Y-86441794D01*
X151107040Y-86436078D01*
X151102623Y-86431172D01*
X151102619Y-86431167D01*
X151061278Y-86385253D01*
X151056994Y-86380238D01*
X151046148Y-86366845D01*
X151044072Y-86364281D01*
X151029557Y-86349766D01*
X151025016Y-86344981D01*
X150983673Y-86299065D01*
X150979253Y-86294156D01*
X150973718Y-86290134D01*
X150967865Y-86285882D01*
X150952832Y-86273041D01*
X150658905Y-85979114D01*
X150624879Y-85916802D01*
X150622000Y-85890019D01*
X150622000Y-80725102D01*
X150618082Y-80711758D01*
X150603806Y-80709771D01*
X150565324Y-80715660D01*
X150555288Y-80718051D01*
X150425645Y-80760425D01*
X150354681Y-80762576D01*
X150293819Y-80726020D01*
X150262383Y-80662362D01*
X150260500Y-80640660D01*
X150260500Y-70504503D01*
X150280502Y-70436382D01*
X150297405Y-70415408D01*
X150740832Y-69971981D01*
X150755865Y-69959140D01*
X150761913Y-69954746D01*
X150761914Y-69954745D01*
X150767253Y-69950866D01*
X150813016Y-69900041D01*
X150817557Y-69895256D01*
X150832072Y-69880741D01*
X150844994Y-69864784D01*
X150849278Y-69859769D01*
X150890619Y-69813855D01*
X150890623Y-69813850D01*
X150895040Y-69808944D01*
X150898340Y-69803228D01*
X150898343Y-69803224D01*
X150902073Y-69796763D01*
X150913273Y-69780466D01*
X150917975Y-69774660D01*
X150917976Y-69774658D01*
X150922129Y-69769530D01*
X150953186Y-69708577D01*
X150956333Y-69702782D01*
X150987223Y-69649279D01*
X150987224Y-69649278D01*
X150990527Y-69643556D01*
X150994875Y-69630173D01*
X151002441Y-69611907D01*
X151005832Y-69605252D01*
X151008829Y-69599370D01*
X151013724Y-69581105D01*
X151026529Y-69533315D01*
X151028402Y-69526991D01*
X151036599Y-69501764D01*
X151049542Y-69461928D01*
X151051012Y-69447939D01*
X151054617Y-69428486D01*
X151056547Y-69421285D01*
X151058257Y-69414904D01*
X151061577Y-69351558D01*
X151061836Y-69346615D01*
X151062353Y-69340040D01*
X151064156Y-69322882D01*
X151064500Y-69319610D01*
X151064500Y-69299075D01*
X151064673Y-69292481D01*
X151067907Y-69230783D01*
X151067907Y-69230778D01*
X151068252Y-69224191D01*
X151066051Y-69210293D01*
X151064500Y-69190584D01*
X151064500Y-66576169D01*
X151084502Y-66508048D01*
X151093626Y-66495600D01*
X151111529Y-66474074D01*
X151135532Y-66445213D01*
X151234341Y-66268777D01*
X151238989Y-66260478D01*
X151238990Y-66260476D01*
X151241813Y-66255435D01*
X151243669Y-66249968D01*
X151243671Y-66249963D01*
X151309874Y-66054935D01*
X151309875Y-66054930D01*
X151311730Y-66049466D01*
X151342941Y-65834205D01*
X151344570Y-65772000D01*
X151324667Y-65555400D01*
X151317331Y-65529386D01*
X151286951Y-65421670D01*
X151265626Y-65346055D01*
X151169423Y-65150974D01*
X151090465Y-65045236D01*
X151065733Y-64978686D01*
X151080907Y-64909330D01*
X151115858Y-64869021D01*
X151187080Y-64815643D01*
X151187081Y-64815642D01*
X151194261Y-64810261D01*
X151281615Y-64693705D01*
X151332745Y-64557316D01*
X151339500Y-64495134D01*
X151339500Y-63048866D01*
X151332745Y-62986684D01*
X151281615Y-62850295D01*
X151194261Y-62733739D01*
X151077705Y-62646385D01*
X150941316Y-62595255D01*
X150879134Y-62588500D01*
X149432866Y-62588500D01*
X149370684Y-62595255D01*
X149320874Y-62613928D01*
X149242697Y-62643235D01*
X149242696Y-62643236D01*
X149234295Y-62646385D01*
X149228249Y-62650917D01*
X149159589Y-62665934D01*
X149093041Y-62641198D01*
X149048603Y-62579181D01*
X149028402Y-62517009D01*
X149026529Y-62510685D01*
X149010539Y-62451010D01*
X149010538Y-62451006D01*
X149008829Y-62444630D01*
X149002440Y-62432092D01*
X148994875Y-62413826D01*
X148992569Y-62406728D01*
X148992568Y-62406726D01*
X148990527Y-62400444D01*
X148956331Y-62341215D01*
X148953185Y-62335421D01*
X148922129Y-62274470D01*
X148913273Y-62263533D01*
X148902073Y-62247237D01*
X148898343Y-62240776D01*
X148898340Y-62240772D01*
X148895040Y-62235056D01*
X148890623Y-62230150D01*
X148890619Y-62230145D01*
X148849278Y-62184231D01*
X148844994Y-62179216D01*
X148834148Y-62165823D01*
X148832072Y-62163259D01*
X148817557Y-62148744D01*
X148813016Y-62143959D01*
X148771673Y-62098043D01*
X148767253Y-62093134D01*
X148755865Y-62084860D01*
X148740832Y-62072019D01*
X147969981Y-61301168D01*
X147957140Y-61286135D01*
X147952746Y-61280087D01*
X147952745Y-61280086D01*
X147948866Y-61274747D01*
X147898041Y-61228984D01*
X147893256Y-61224443D01*
X147878741Y-61209928D01*
X147871282Y-61203888D01*
X147862784Y-61197006D01*
X147857769Y-61192722D01*
X147811855Y-61151381D01*
X147811850Y-61151377D01*
X147806944Y-61146960D01*
X147801228Y-61143660D01*
X147801224Y-61143657D01*
X147794763Y-61139927D01*
X147778466Y-61128727D01*
X147772660Y-61124025D01*
X147772658Y-61124024D01*
X147767530Y-61119871D01*
X147706577Y-61088814D01*
X147700782Y-61085667D01*
X147647279Y-61054777D01*
X147647278Y-61054776D01*
X147641556Y-61051473D01*
X147635274Y-61049432D01*
X147635272Y-61049431D01*
X147628174Y-61047125D01*
X147609907Y-61039559D01*
X147597370Y-61033171D01*
X147531299Y-61015467D01*
X147524997Y-61013600D01*
X147459928Y-60992458D01*
X147453363Y-60991768D01*
X147453354Y-60991766D01*
X147445925Y-60990985D01*
X147426491Y-60987383D01*
X147419286Y-60985453D01*
X147419284Y-60985453D01*
X147412903Y-60983743D01*
X147406312Y-60983398D01*
X147406308Y-60983397D01*
X147344616Y-60980164D01*
X147338042Y-60979647D01*
X147320884Y-60977844D01*
X147320882Y-60977844D01*
X147317610Y-60977500D01*
X147297074Y-60977500D01*
X147290480Y-60977327D01*
X147228782Y-60974093D01*
X147228777Y-60974093D01*
X147222190Y-60973748D01*
X147208292Y-60975949D01*
X147188583Y-60977500D01*
X139993472Y-60977500D01*
X139925351Y-60957498D01*
X139897661Y-60933331D01*
X139740106Y-60748858D01*
X139736898Y-60745102D01*
X139544376Y-60580672D01*
X139328502Y-60448384D01*
X139309247Y-60440408D01*
X139253968Y-60395860D01*
X139231547Y-60328496D01*
X139249106Y-60259705D01*
X139301068Y-60211327D01*
X139357467Y-60198000D01*
X152020000Y-60198000D01*
X152088121Y-60218002D01*
G37*
G04 #@! TD.AperFunction*
G04 #@! TA.AperFunction,Conductor*
G36*
X126208458Y-87287240D02*
G01*
X126348032Y-87373275D01*
X126354262Y-87377115D01*
X126423524Y-87400088D01*
X126515611Y-87430632D01*
X126515613Y-87430632D01*
X126522139Y-87432797D01*
X126528975Y-87433497D01*
X126528978Y-87433498D01*
X126566400Y-87437332D01*
X126626600Y-87443500D01*
X127627400Y-87443500D01*
X127630646Y-87443163D01*
X127630650Y-87443163D01*
X127726308Y-87433238D01*
X127726312Y-87433237D01*
X127733166Y-87432526D01*
X127739702Y-87430345D01*
X127739704Y-87430345D01*
X127871806Y-87386272D01*
X127900946Y-87376550D01*
X128045081Y-87287356D01*
X128111384Y-87268500D01*
X130190520Y-87268500D01*
X130258641Y-87288502D01*
X130279536Y-87305325D01*
X130383697Y-87409305D01*
X130389927Y-87413145D01*
X130389928Y-87413146D01*
X130527090Y-87497694D01*
X130534262Y-87502115D01*
X130596198Y-87522658D01*
X130695611Y-87555632D01*
X130695613Y-87555632D01*
X130702139Y-87557797D01*
X130708975Y-87558497D01*
X130708978Y-87558498D01*
X130752031Y-87562909D01*
X130806600Y-87568500D01*
X131607400Y-87568500D01*
X131610646Y-87568163D01*
X131610650Y-87568163D01*
X131706308Y-87558238D01*
X131706312Y-87558237D01*
X131713166Y-87557526D01*
X131719702Y-87555345D01*
X131719704Y-87555345D01*
X131868453Y-87505718D01*
X131880946Y-87501550D01*
X132031348Y-87408478D01*
X132052591Y-87387198D01*
X132108327Y-87331365D01*
X132170610Y-87297286D01*
X132241430Y-87302289D01*
X132298302Y-87344786D01*
X132323171Y-87411285D01*
X132323500Y-87420383D01*
X132323500Y-88573583D01*
X132321949Y-88593292D01*
X132319748Y-88607190D01*
X132320093Y-88613777D01*
X132320093Y-88613782D01*
X132323327Y-88675480D01*
X132323500Y-88682074D01*
X132323500Y-88702610D01*
X132323844Y-88705882D01*
X132323844Y-88705884D01*
X132325647Y-88723042D01*
X132326164Y-88729616D01*
X132329307Y-88789579D01*
X132329743Y-88797903D01*
X132331453Y-88804284D01*
X132331453Y-88804286D01*
X132333383Y-88811491D01*
X132336985Y-88830925D01*
X132337766Y-88838354D01*
X132337768Y-88838363D01*
X132338458Y-88844928D01*
X132359600Y-88909997D01*
X132361467Y-88916299D01*
X132379171Y-88982370D01*
X132385559Y-88994907D01*
X132393125Y-89013173D01*
X132397473Y-89026556D01*
X132400776Y-89032278D01*
X132400777Y-89032279D01*
X132431667Y-89085782D01*
X132434814Y-89091577D01*
X132465871Y-89152530D01*
X132470024Y-89157658D01*
X132470025Y-89157660D01*
X132474727Y-89163466D01*
X132485927Y-89179763D01*
X132489657Y-89186224D01*
X132489660Y-89186228D01*
X132492960Y-89191944D01*
X132497377Y-89196850D01*
X132497381Y-89196855D01*
X132538722Y-89242769D01*
X132543006Y-89247784D01*
X132549111Y-89255323D01*
X132555928Y-89263741D01*
X132570443Y-89278256D01*
X132574984Y-89283041D01*
X132620747Y-89333866D01*
X132626086Y-89337745D01*
X132626087Y-89337746D01*
X132632135Y-89342140D01*
X132647168Y-89354981D01*
X134682019Y-91389832D01*
X134694860Y-91404865D01*
X134703134Y-91416253D01*
X134753959Y-91462016D01*
X134758744Y-91466557D01*
X134773259Y-91481072D01*
X134775823Y-91483148D01*
X134789216Y-91493994D01*
X134794231Y-91498278D01*
X134840145Y-91539619D01*
X134840150Y-91539623D01*
X134845056Y-91544040D01*
X134850772Y-91547340D01*
X134850776Y-91547343D01*
X134857237Y-91551073D01*
X134873533Y-91562273D01*
X134884470Y-91571129D01*
X134945421Y-91602185D01*
X134951215Y-91605331D01*
X135010444Y-91639527D01*
X135016726Y-91641568D01*
X135016728Y-91641569D01*
X135023826Y-91643875D01*
X135042092Y-91651440D01*
X135054630Y-91657829D01*
X135061006Y-91659538D01*
X135061010Y-91659539D01*
X135120685Y-91675529D01*
X135127010Y-91677402D01*
X135192072Y-91698542D01*
X135198640Y-91699232D01*
X135198644Y-91699233D01*
X135206061Y-91700012D01*
X135225508Y-91703616D01*
X135239096Y-91707257D01*
X135245695Y-91707603D01*
X135245696Y-91707603D01*
X135307385Y-91710836D01*
X135313960Y-91711353D01*
X135328222Y-91712852D01*
X135334390Y-91713500D01*
X135354925Y-91713500D01*
X135361519Y-91713673D01*
X135423217Y-91716907D01*
X135423222Y-91716907D01*
X135429809Y-91717252D01*
X135443707Y-91715051D01*
X135463416Y-91713500D01*
X135617500Y-91713500D01*
X135685621Y-91733502D01*
X135732114Y-91787158D01*
X135743500Y-91839500D01*
X135743500Y-93390583D01*
X135741949Y-93410292D01*
X135739748Y-93424190D01*
X135740093Y-93430777D01*
X135740093Y-93430782D01*
X135743327Y-93492480D01*
X135743500Y-93499074D01*
X135743500Y-93519610D01*
X135743844Y-93522882D01*
X135743844Y-93522884D01*
X135745647Y-93540042D01*
X135746164Y-93546616D01*
X135748910Y-93599000D01*
X135749743Y-93614903D01*
X135751453Y-93621284D01*
X135751453Y-93621286D01*
X135753383Y-93628491D01*
X135756985Y-93647925D01*
X135757766Y-93655354D01*
X135757768Y-93655363D01*
X135758458Y-93661928D01*
X135779600Y-93726997D01*
X135781467Y-93733299D01*
X135799171Y-93799370D01*
X135805559Y-93811907D01*
X135813125Y-93830173D01*
X135817473Y-93843556D01*
X135820776Y-93849278D01*
X135820777Y-93849279D01*
X135851667Y-93902782D01*
X135854814Y-93908577D01*
X135885871Y-93969530D01*
X135890024Y-93974658D01*
X135890025Y-93974660D01*
X135894727Y-93980466D01*
X135905927Y-93996763D01*
X135909657Y-94003224D01*
X135909660Y-94003228D01*
X135912960Y-94008944D01*
X135917377Y-94013850D01*
X135917381Y-94013855D01*
X135958722Y-94059769D01*
X135963006Y-94064784D01*
X135975928Y-94080741D01*
X135990443Y-94095256D01*
X135994984Y-94100041D01*
X136040747Y-94150866D01*
X136046086Y-94154745D01*
X136046087Y-94154746D01*
X136052135Y-94159140D01*
X136067168Y-94171981D01*
X140676762Y-98781575D01*
X140710788Y-98843887D01*
X140705723Y-98914702D01*
X140678757Y-98957726D01*
X140672629Y-98964138D01*
X140565204Y-99121618D01*
X140564898Y-99122066D01*
X140509987Y-99167069D01*
X140439462Y-99175240D01*
X140375715Y-99143986D01*
X140355018Y-99119502D01*
X140274426Y-98994926D01*
X140268136Y-98986757D01*
X140124806Y-98829240D01*
X140117273Y-98822215D01*
X139950139Y-98690222D01*
X139941552Y-98684517D01*
X139755117Y-98581599D01*
X139745705Y-98577369D01*
X139544959Y-98506280D01*
X139534988Y-98503646D01*
X139463837Y-98490972D01*
X139450540Y-98492432D01*
X139446000Y-98506989D01*
X139446000Y-99950000D01*
X139425998Y-100018121D01*
X139372342Y-100064614D01*
X139320000Y-100076000D01*
X139064000Y-100076000D01*
X138995879Y-100055998D01*
X138949386Y-100002342D01*
X138938000Y-99950000D01*
X138938000Y-98505102D01*
X138934082Y-98491758D01*
X138919806Y-98489771D01*
X138881324Y-98495660D01*
X138871288Y-98498051D01*
X138668868Y-98564212D01*
X138659359Y-98568209D01*
X138470463Y-98666542D01*
X138461738Y-98672036D01*
X138291433Y-98799905D01*
X138283726Y-98806748D01*
X138136590Y-98960717D01*
X138130109Y-98968722D01*
X138025498Y-99122074D01*
X137970587Y-99167076D01*
X137900062Y-99175247D01*
X137836315Y-99143993D01*
X137815618Y-99119509D01*
X137734822Y-98994617D01*
X137734820Y-98994614D01*
X137732014Y-98990277D01*
X137728532Y-98986450D01*
X137593307Y-98837839D01*
X137562255Y-98773993D01*
X137560500Y-98753039D01*
X137560500Y-98125417D01*
X137562051Y-98105707D01*
X137563220Y-98098327D01*
X137563220Y-98098326D01*
X137564252Y-98091810D01*
X137563166Y-98071074D01*
X137560673Y-98023520D01*
X137560500Y-98016926D01*
X137560500Y-97996390D01*
X137558960Y-97981737D01*
X137558353Y-97975958D01*
X137557836Y-97969384D01*
X137554603Y-97907696D01*
X137554603Y-97907694D01*
X137554257Y-97901097D01*
X137550615Y-97887504D01*
X137547014Y-97868075D01*
X137546623Y-97864353D01*
X137545542Y-97854072D01*
X137524407Y-97789025D01*
X137522535Y-97782706D01*
X137522300Y-97781827D01*
X137508639Y-97730846D01*
X137506538Y-97723003D01*
X137506537Y-97723000D01*
X137504830Y-97716630D01*
X137498438Y-97704085D01*
X137490874Y-97685823D01*
X137489310Y-97681008D01*
X137486527Y-97672444D01*
X137483224Y-97666723D01*
X137452336Y-97613223D01*
X137449188Y-97607426D01*
X137421126Y-97552351D01*
X137421124Y-97552348D01*
X137418129Y-97546470D01*
X137409273Y-97535533D01*
X137398073Y-97519237D01*
X137394343Y-97512776D01*
X137394340Y-97512772D01*
X137391040Y-97507056D01*
X137386623Y-97502150D01*
X137386619Y-97502145D01*
X137345278Y-97456231D01*
X137340994Y-97451216D01*
X137330148Y-97437823D01*
X137328072Y-97435259D01*
X137313557Y-97420744D01*
X137309016Y-97415959D01*
X137267673Y-97370043D01*
X137263253Y-97365134D01*
X137251865Y-97356860D01*
X137236832Y-97344019D01*
X132652981Y-92760168D01*
X132640140Y-92745135D01*
X132635746Y-92739087D01*
X132635745Y-92739086D01*
X132631866Y-92733747D01*
X132581041Y-92687984D01*
X132576256Y-92683443D01*
X132561741Y-92668928D01*
X132550227Y-92659604D01*
X132545784Y-92656006D01*
X132540769Y-92651722D01*
X132494855Y-92610381D01*
X132494850Y-92610377D01*
X132489944Y-92605960D01*
X132484228Y-92602660D01*
X132484224Y-92602657D01*
X132477763Y-92598927D01*
X132461466Y-92587727D01*
X132455660Y-92583025D01*
X132455658Y-92583024D01*
X132450530Y-92578871D01*
X132389577Y-92547814D01*
X132383782Y-92544667D01*
X132376766Y-92540616D01*
X132362978Y-92532656D01*
X132330279Y-92513777D01*
X132330278Y-92513776D01*
X132324556Y-92510473D01*
X132318274Y-92508432D01*
X132318272Y-92508431D01*
X132311174Y-92506125D01*
X132292907Y-92498559D01*
X132280370Y-92492171D01*
X132214299Y-92474467D01*
X132207997Y-92472600D01*
X132142928Y-92451458D01*
X132136363Y-92450768D01*
X132136354Y-92450766D01*
X132128925Y-92449985D01*
X132109491Y-92446383D01*
X132102286Y-92444453D01*
X132102284Y-92444453D01*
X132095903Y-92442743D01*
X132089312Y-92442398D01*
X132089308Y-92442397D01*
X132027616Y-92439164D01*
X132021042Y-92438647D01*
X132003884Y-92436844D01*
X132003882Y-92436844D01*
X132000610Y-92436500D01*
X131980074Y-92436500D01*
X131973480Y-92436327D01*
X131911782Y-92433093D01*
X131911777Y-92433093D01*
X131905190Y-92432748D01*
X131891292Y-92434949D01*
X131871583Y-92436500D01*
X129143480Y-92436500D01*
X129075359Y-92416498D01*
X129054462Y-92399673D01*
X129053519Y-92398731D01*
X128950303Y-92295695D01*
X128944072Y-92291854D01*
X128805968Y-92206725D01*
X128805966Y-92206724D01*
X128799738Y-92202885D01*
X128782519Y-92197174D01*
X128773777Y-92194274D01*
X128715416Y-92153844D01*
X128688179Y-92088280D01*
X128700712Y-92018398D01*
X128749036Y-91966386D01*
X128773567Y-91955157D01*
X128793784Y-91948412D01*
X128806962Y-91942239D01*
X128944807Y-91856937D01*
X128956208Y-91847901D01*
X129070739Y-91733171D01*
X129079751Y-91721760D01*
X129164816Y-91583757D01*
X129170963Y-91570576D01*
X129222138Y-91416290D01*
X129225005Y-91402914D01*
X129234672Y-91308562D01*
X129235000Y-91302146D01*
X129235000Y-91077115D01*
X129230525Y-91061876D01*
X129229135Y-91060671D01*
X129221452Y-91059000D01*
X127999000Y-91059000D01*
X127930879Y-91038998D01*
X127884386Y-90985342D01*
X127873000Y-90933000D01*
X127873000Y-90532885D01*
X128381000Y-90532885D01*
X128385475Y-90548124D01*
X128386865Y-90549329D01*
X128394548Y-90551000D01*
X129216884Y-90551000D01*
X129232123Y-90546525D01*
X129233328Y-90545135D01*
X129234999Y-90537452D01*
X129234999Y-90307905D01*
X129234662Y-90301386D01*
X129224743Y-90205794D01*
X129221851Y-90192400D01*
X129170412Y-90038216D01*
X129164239Y-90025038D01*
X129078937Y-89887193D01*
X129069901Y-89875792D01*
X128955171Y-89761261D01*
X128943760Y-89752249D01*
X128805757Y-89667184D01*
X128792576Y-89661037D01*
X128638290Y-89609862D01*
X128624914Y-89606995D01*
X128530562Y-89597328D01*
X128524145Y-89597000D01*
X128399115Y-89597000D01*
X128383876Y-89601475D01*
X128382671Y-89602865D01*
X128381000Y-89610548D01*
X128381000Y-90532885D01*
X127873000Y-90532885D01*
X127873000Y-89615116D01*
X127868525Y-89599877D01*
X127867135Y-89598672D01*
X127859452Y-89597001D01*
X127729905Y-89597001D01*
X127723386Y-89597338D01*
X127627794Y-89607257D01*
X127614400Y-89610149D01*
X127460216Y-89661588D01*
X127447038Y-89667761D01*
X127309193Y-89753063D01*
X127297792Y-89762099D01*
X127216570Y-89843462D01*
X127154287Y-89877541D01*
X127083467Y-89872538D01*
X127038380Y-89843617D01*
X126955488Y-89760870D01*
X126955483Y-89760866D01*
X126950303Y-89755695D01*
X126944072Y-89751854D01*
X126805968Y-89666725D01*
X126805966Y-89666724D01*
X126799738Y-89662885D01*
X126681297Y-89623600D01*
X126638389Y-89609368D01*
X126638387Y-89609368D01*
X126631861Y-89607203D01*
X126625025Y-89606503D01*
X126625022Y-89606502D01*
X126581969Y-89602091D01*
X126527400Y-89596500D01*
X125822857Y-89596500D01*
X125754736Y-89576498D01*
X125708243Y-89522842D01*
X125698139Y-89452568D01*
X125727633Y-89387988D01*
X125761287Y-89360569D01*
X125852551Y-89309458D01*
X126009186Y-89179186D01*
X126139458Y-89022551D01*
X126226107Y-88867829D01*
X126236180Y-88849842D01*
X126236181Y-88849840D01*
X126239004Y-88844799D01*
X126240860Y-88839332D01*
X126240862Y-88839327D01*
X126302634Y-88657352D01*
X126302635Y-88657347D01*
X126304490Y-88651883D01*
X126333723Y-88450263D01*
X126335249Y-88392000D01*
X126316608Y-88189126D01*
X126298863Y-88126209D01*
X126262875Y-87998606D01*
X126262874Y-87998604D01*
X126261307Y-87993047D01*
X126242804Y-87955525D01*
X126173756Y-87815510D01*
X126171201Y-87810329D01*
X126152796Y-87785681D01*
X126052758Y-87651715D01*
X126052758Y-87651714D01*
X126049305Y-87647091D01*
X125952414Y-87557526D01*
X125903943Y-87512719D01*
X125903940Y-87512717D01*
X125899703Y-87508800D01*
X125887439Y-87501062D01*
X125840500Y-87447795D01*
X125829811Y-87377608D01*
X125858766Y-87312784D01*
X125918170Y-87273904D01*
X125954674Y-87268500D01*
X126142342Y-87268500D01*
X126208458Y-87287240D01*
G37*
G04 #@! TD.AperFunction*
G04 #@! TA.AperFunction,Conductor*
G36*
X148352121Y-65538002D02*
G01*
X148398614Y-65591658D01*
X148410000Y-65644000D01*
X148410000Y-66912512D01*
X148413966Y-66926018D01*
X148427883Y-66928011D01*
X148438817Y-66925386D01*
X148633763Y-66859210D01*
X148644272Y-66854531D01*
X148823882Y-66753944D01*
X148833375Y-66747420D01*
X148991653Y-66615782D01*
X148999776Y-66607659D01*
X149024625Y-66577781D01*
X149083563Y-66538197D01*
X149154545Y-66536760D01*
X149215035Y-66573928D01*
X149245829Y-66637898D01*
X149247500Y-66658350D01*
X149247500Y-68843497D01*
X149227498Y-68911618D01*
X149210595Y-68932592D01*
X149087081Y-69056106D01*
X149024769Y-69090132D01*
X148997986Y-69093011D01*
X148314014Y-69093011D01*
X148245893Y-69073009D01*
X148224919Y-69056106D01*
X147101405Y-67932592D01*
X147067379Y-67870280D01*
X147064500Y-67843497D01*
X147064500Y-66659010D01*
X147084502Y-66590889D01*
X147138158Y-66544396D01*
X147208432Y-66534292D01*
X147273012Y-66563786D01*
X147278422Y-66568756D01*
X147404191Y-66691275D01*
X147413124Y-66698509D01*
X147584299Y-66812884D01*
X147594409Y-66818374D01*
X147783566Y-66899642D01*
X147794499Y-66903194D01*
X147884332Y-66923521D01*
X147898405Y-66922632D01*
X147902000Y-66913233D01*
X147902000Y-65644000D01*
X147922002Y-65575879D01*
X147975658Y-65529386D01*
X148028000Y-65518000D01*
X148284000Y-65518000D01*
X148352121Y-65538002D01*
G37*
G04 #@! TD.AperFunction*
M02*
