M48
; DRILL file {KiCad (6.0.0)} date Mon Feb 21 16:40:57 2022
; FORMAT={-:-/ absolute / metric / decimal}
; #@! TF.CreationDate,2022-02-21T16:40:57+01:00
; #@! TF.GenerationSoftware,Kicad,Pcbnew,(6.0.0)
; #@! TF.FileFunction,Plated,1,2,PTH
FMAT,2
METRIC
; #@! TA.AperFunction,Plated,PTH,ViaDrill
T1C0.400
; #@! TA.AperFunction,Plated,PTH,ViaDrill
T2C0.800
; #@! TA.AperFunction,Plated,PTH,ComponentDrill
T3C0.800
; #@! TA.AperFunction,Plated,PTH,ComponentDrill
T4C0.890
; #@! TA.AperFunction,Plated,PTH,ComponentDrill
T5C1.000
; #@! TA.AperFunction,Plated,PTH,ComponentDrill
T6C1.300
; #@! TA.AperFunction,Plated,PTH,ComponentDrill
T7C2.290
%
G90
G05
T1
X98.044Y-60.96
X98.044Y-74.168
X98.044Y-91.694
X98.044Y-102.362
X102.362Y-97.536
X111.76Y-70.612
X111.76Y-77.724
X117.348Y-97.536
X124.714Y-70.612
X124.714Y-77.724
X128.651Y-88.392
X132.08Y-97.536
X135.636Y-77.724
X141.986Y-94.742
X148.156Y-67.272
X151.384Y-60.96
X151.384Y-74.168
X151.384Y-91.694
X151.384Y-102.362
T2
X102.362Y-88.646
X109.982Y-85.725
X110.617Y-91.44
X111.887Y-84.455
X114.554Y-93.472
X120.142Y-93.345
X125.222Y-88.392
T3
X108.406Y-74.152
X108.406Y-81.772
X115.062Y-74.168
X115.062Y-81.788
X146.156Y-63.772
X146.156Y-65.772
X148.156Y-63.772
X148.156Y-65.772
X150.156Y-63.772
X150.156Y-65.772
T4
X108.41Y-68.326
X108.41Y-70.816
X115.11Y-68.326
X115.11Y-70.816
T5
X98.552Y-82.042
X98.552Y-84.582
X105.156Y-99.822
X107.696Y-99.822
X110.236Y-99.822
X112.776Y-99.822
X122.174Y-99.822
X123.444Y-62.738
X124.714Y-99.822
X125.984Y-62.738
X127.254Y-99.822
X136.652Y-99.822
X139.192Y-99.822
X141.732Y-99.822
X144.272Y-99.822
X150.876Y-82.042
X150.876Y-84.582
T6
X133.096Y-65.786
X133.596Y-73.086
X137.696Y-61.886
X140.196Y-68.686
X142.896Y-69.886
T7
X105.0Y-65.326
X111.76Y-64.516
X118.52Y-65.326
T0
M30
