G04 #@! TF.GenerationSoftware,KiCad,Pcbnew,(6.0.0)*
G04 #@! TF.CreationDate,2022-02-21T16:40:38+01:00*
G04 #@! TF.ProjectId,rfreplacement,72667265-706c-4616-9365-6d656e742e6b,rev?*
G04 #@! TF.SameCoordinates,Original*
G04 #@! TF.FileFunction,Copper,L2,Bot*
G04 #@! TF.FilePolarity,Positive*
%FSLAX46Y46*%
G04 Gerber Fmt 4.6, Leading zero omitted, Abs format (unit mm)*
G04 Created by KiCad (PCBNEW (6.0.0)) date 2022-02-21 16:40:38*
%MOMM*%
%LPD*%
G01*
G04 APERTURE LIST*
G04 #@! TA.AperFunction,ComponentPad*
%ADD10R,1.700000X1.700000*%
G04 #@! TD*
G04 #@! TA.AperFunction,ComponentPad*
%ADD11O,1.700000X1.700000*%
G04 #@! TD*
G04 #@! TA.AperFunction,ComponentPad*
%ADD12O,2.200000X4.000000*%
G04 #@! TD*
G04 #@! TA.AperFunction,ComponentPad*
%ADD13O,4.000000X2.200000*%
G04 #@! TD*
G04 #@! TA.AperFunction,ComponentPad*
%ADD14R,2.200000X4.000000*%
G04 #@! TD*
G04 #@! TA.AperFunction,ComponentPad*
%ADD15R,1.398000X1.398000*%
G04 #@! TD*
G04 #@! TA.AperFunction,ComponentPad*
%ADD16C,1.398000*%
G04 #@! TD*
G04 #@! TA.AperFunction,ComponentPad*
%ADD17C,3.306000*%
G04 #@! TD*
G04 #@! TA.AperFunction,ComponentPad*
%ADD18R,1.350000X1.350000*%
G04 #@! TD*
G04 #@! TA.AperFunction,ComponentPad*
%ADD19O,1.350000X1.350000*%
G04 #@! TD*
G04 #@! TA.AperFunction,ComponentPad*
%ADD20C,1.600000*%
G04 #@! TD*
G04 #@! TA.AperFunction,ComponentPad*
%ADD21O,1.600000X1.600000*%
G04 #@! TD*
G04 #@! TA.AperFunction,ViaPad*
%ADD22C,1.200000*%
G04 #@! TD*
G04 #@! TA.AperFunction,ViaPad*
%ADD23C,0.600000*%
G04 #@! TD*
G04 #@! TA.AperFunction,Conductor*
%ADD24C,0.800000*%
G04 #@! TD*
G04 APERTURE END LIST*
D10*
X144272000Y-99822000D03*
D11*
X141732000Y-99822000D03*
X139192000Y-99822000D03*
X136652000Y-99822000D03*
D10*
X127254000Y-99822000D03*
D11*
X124714000Y-99822000D03*
X122174000Y-99822000D03*
D10*
X112776000Y-99822000D03*
D11*
X110236000Y-99822000D03*
X107696000Y-99822000D03*
X105156000Y-99822000D03*
D12*
X142896000Y-69886000D03*
X140196000Y-68686000D03*
D13*
X137696000Y-61886000D03*
D14*
X133096000Y-65786000D03*
D13*
X133596000Y-73086000D03*
D15*
X108410000Y-68326000D03*
D16*
X115110000Y-68326000D03*
X108410000Y-70816000D03*
X115110000Y-70816000D03*
D17*
X111760000Y-64516000D03*
X118520000Y-65326000D03*
X105000000Y-65326000D03*
D18*
X146156000Y-63772000D03*
D19*
X146156000Y-65772000D03*
D18*
X148156000Y-63772000D03*
D19*
X148156000Y-65772000D03*
D18*
X150156000Y-63772000D03*
D19*
X150156000Y-65772000D03*
D10*
X125984000Y-62738000D03*
D11*
X123444000Y-62738000D03*
D10*
X150876000Y-84582000D03*
D11*
X150876000Y-82042000D03*
D10*
X98552000Y-84582000D03*
D11*
X98552000Y-82042000D03*
D20*
X108406000Y-74152000D03*
D21*
X108406000Y-81772000D03*
D20*
X115062000Y-74168000D03*
D21*
X115062000Y-81788000D03*
D22*
X110617000Y-91440000D03*
X102362000Y-88646000D03*
X114554000Y-93472000D03*
X125222000Y-88392000D03*
X109982000Y-85725000D03*
D23*
X151384000Y-74168000D03*
X128651000Y-88392000D03*
X135636000Y-77724000D03*
D22*
X111887000Y-84455000D03*
D23*
X98044000Y-74168000D03*
X151384000Y-91694000D03*
X148156000Y-67272000D03*
X141986000Y-94742000D03*
D22*
X120142000Y-93345000D03*
D23*
X124714000Y-70612000D03*
X98044000Y-102362000D03*
X111760000Y-77724000D03*
X151384000Y-60960000D03*
X151384000Y-102362000D03*
X132080000Y-97536000D03*
X117348000Y-97536000D03*
X124714000Y-77724000D03*
X111760000Y-70612000D03*
X102362000Y-97536000D03*
X98044000Y-91694000D03*
X98044000Y-60960000D03*
D24*
X109220000Y-90043000D02*
X103759000Y-90043000D01*
X110617000Y-91440000D02*
X109220000Y-90043000D01*
X103759000Y-90043000D02*
X102362000Y-88646000D01*
X112649000Y-88392000D02*
X125222000Y-88392000D01*
X112649000Y-88392000D02*
X109982000Y-85725000D01*
X114554000Y-93472000D02*
X119634000Y-88392000D01*
X115062000Y-81788000D02*
X111252000Y-81788000D01*
X109728000Y-83312000D02*
X111252000Y-81788000D01*
X101092000Y-86360000D02*
X104140000Y-83312000D01*
X107696000Y-99822000D02*
X101092000Y-93218000D01*
X101092000Y-93218000D02*
X101092000Y-86360000D01*
X104140000Y-83312000D02*
X109728000Y-83312000D01*
X103378000Y-81788000D02*
X108458000Y-81788000D01*
X103378000Y-81788000D02*
X100001511Y-85164489D01*
X100001511Y-100509511D02*
X101854000Y-102362000D01*
X108966000Y-102362000D02*
X110236000Y-101092000D01*
X100001511Y-85164489D02*
X100001511Y-100509511D01*
X101854000Y-102362000D02*
X108966000Y-102362000D01*
X110236000Y-101092000D02*
X110236000Y-99822000D01*
X122174000Y-99822000D02*
X122174000Y-98044000D01*
X122174000Y-98044000D02*
X133596000Y-86622000D01*
X133596000Y-86622000D02*
X133596000Y-73086000D01*
X133596000Y-73086000D02*
X133596000Y-66286000D01*
X115110000Y-70816000D02*
X115110000Y-74120000D01*
X148631000Y-60772000D02*
X144656000Y-60772000D01*
X150156000Y-63772000D02*
X150156000Y-62297000D01*
X142896000Y-62532000D02*
X142896000Y-69886000D01*
X150156000Y-62297000D02*
X148631000Y-60772000D01*
X144656000Y-60772000D02*
X142896000Y-62532000D01*
X141396000Y-69886000D02*
X140196000Y-68686000D01*
X127254000Y-99822000D02*
X127254000Y-98044000D01*
X127254000Y-98044000D02*
X140196000Y-85102000D01*
X140196000Y-85102000D02*
X140196000Y-68686000D01*
X142896000Y-69886000D02*
X141396000Y-69886000D01*
X108410000Y-70816000D02*
X108410000Y-74120000D01*
X124714000Y-98214000D02*
X137696000Y-85232000D01*
X137696000Y-85232000D02*
X137696000Y-61886000D01*
X124714000Y-99822000D02*
X124714000Y-98214000D01*
G04 #@! TA.AperFunction,Conductor*
G36*
X136102654Y-60218002D02*
G01*
X136149147Y-60271658D01*
X136159251Y-60341932D01*
X136129757Y-60406512D01*
X136082753Y-60440408D01*
X136063498Y-60448384D01*
X135847624Y-60580672D01*
X135655102Y-60745102D01*
X135490672Y-60937624D01*
X135358384Y-61153498D01*
X135261495Y-61387409D01*
X135256610Y-61407758D01*
X135204925Y-61623043D01*
X135202391Y-61633597D01*
X135182526Y-61886000D01*
X135202391Y-62138403D01*
X135203545Y-62143210D01*
X135203546Y-62143216D01*
X135224131Y-62228958D01*
X135261495Y-62384591D01*
X135263388Y-62389162D01*
X135263389Y-62389164D01*
X135356278Y-62613417D01*
X135358384Y-62618502D01*
X135490672Y-62834376D01*
X135655102Y-63026898D01*
X135847624Y-63191328D01*
X136063498Y-63323616D01*
X136068068Y-63325509D01*
X136068072Y-63325511D01*
X136267796Y-63408239D01*
X136297409Y-63420505D01*
X136382032Y-63440821D01*
X136538784Y-63478454D01*
X136538790Y-63478455D01*
X136543597Y-63479609D01*
X136671387Y-63489667D01*
X136737727Y-63514951D01*
X136779867Y-63572089D01*
X136787500Y-63615278D01*
X136787500Y-84803497D01*
X136767498Y-84871618D01*
X136750595Y-84892592D01*
X134696180Y-86947007D01*
X134633868Y-86981033D01*
X134563053Y-86975968D01*
X134506217Y-86933421D01*
X134481406Y-86866901D01*
X134486547Y-86824757D01*
X134486128Y-86824668D01*
X134487136Y-86819924D01*
X134487252Y-86818976D01*
X134487500Y-86818212D01*
X134489542Y-86811928D01*
X134491012Y-86797939D01*
X134494617Y-86778486D01*
X134496547Y-86771285D01*
X134498257Y-86764904D01*
X134498603Y-86758304D01*
X134501836Y-86696615D01*
X134502353Y-86690040D01*
X134504156Y-86672882D01*
X134504500Y-86669610D01*
X134504500Y-86649075D01*
X134504673Y-86642481D01*
X134507907Y-86580783D01*
X134507907Y-86580778D01*
X134508252Y-86574191D01*
X134506051Y-86560293D01*
X134504500Y-86540584D01*
X134504500Y-74815278D01*
X134524502Y-74747157D01*
X134578158Y-74700664D01*
X134620612Y-74689667D01*
X134748403Y-74679609D01*
X134753210Y-74678455D01*
X134753216Y-74678454D01*
X134909968Y-74640821D01*
X134994591Y-74620505D01*
X134999164Y-74618611D01*
X135223928Y-74525511D01*
X135223932Y-74525509D01*
X135228502Y-74523616D01*
X135444376Y-74391328D01*
X135636898Y-74226898D01*
X135801328Y-74034376D01*
X135933616Y-73818502D01*
X135972733Y-73724067D01*
X136028611Y-73589164D01*
X136028612Y-73589162D01*
X136030505Y-73584591D01*
X136089609Y-73338403D01*
X136109474Y-73086000D01*
X136089609Y-72833597D01*
X136030505Y-72587409D01*
X135952660Y-72399474D01*
X135935511Y-72358072D01*
X135935509Y-72358068D01*
X135933616Y-72353498D01*
X135801328Y-72137624D01*
X135636898Y-71945102D01*
X135444376Y-71780672D01*
X135228502Y-71648384D01*
X135223932Y-71646491D01*
X135223928Y-71646489D01*
X134999164Y-71553389D01*
X134999162Y-71553388D01*
X134994591Y-71551495D01*
X134874742Y-71522722D01*
X134753216Y-71493546D01*
X134753210Y-71493545D01*
X134748403Y-71492391D01*
X134620613Y-71482333D01*
X134554273Y-71457049D01*
X134512133Y-71399911D01*
X134504500Y-71356722D01*
X134504500Y-68253329D01*
X134524502Y-68185208D01*
X134546407Y-68161668D01*
X134545731Y-68160992D01*
X134552081Y-68154642D01*
X134559261Y-68149261D01*
X134646615Y-68032705D01*
X134697745Y-67896316D01*
X134704500Y-67834134D01*
X134704500Y-63737866D01*
X134697745Y-63675684D01*
X134646615Y-63539295D01*
X134559261Y-63422739D01*
X134442705Y-63335385D01*
X134306316Y-63284255D01*
X134244134Y-63277500D01*
X131947866Y-63277500D01*
X131885684Y-63284255D01*
X131749295Y-63335385D01*
X131632739Y-63422739D01*
X131545385Y-63539295D01*
X131494255Y-63675684D01*
X131487500Y-63737866D01*
X131487500Y-67834134D01*
X131494255Y-67896316D01*
X131545385Y-68032705D01*
X131632739Y-68149261D01*
X131749295Y-68236615D01*
X131885684Y-68287745D01*
X131947866Y-68294500D01*
X132561500Y-68294500D01*
X132629621Y-68314502D01*
X132676114Y-68368158D01*
X132687500Y-68420500D01*
X132687500Y-71356722D01*
X132667498Y-71424843D01*
X132613842Y-71471336D01*
X132571388Y-71482333D01*
X132443597Y-71492391D01*
X132438790Y-71493545D01*
X132438784Y-71493546D01*
X132317258Y-71522722D01*
X132197409Y-71551495D01*
X132192838Y-71553388D01*
X132192836Y-71553389D01*
X131968072Y-71646489D01*
X131968068Y-71646491D01*
X131963498Y-71648384D01*
X131747624Y-71780672D01*
X131555102Y-71945102D01*
X131390672Y-72137624D01*
X131258384Y-72353498D01*
X131256491Y-72358068D01*
X131256489Y-72358072D01*
X131239340Y-72399474D01*
X131161495Y-72587409D01*
X131102391Y-72833597D01*
X131082526Y-73086000D01*
X131102391Y-73338403D01*
X131161495Y-73584591D01*
X131163388Y-73589162D01*
X131163389Y-73589164D01*
X131219268Y-73724067D01*
X131258384Y-73818502D01*
X131390672Y-74034376D01*
X131555102Y-74226898D01*
X131747624Y-74391328D01*
X131963498Y-74523616D01*
X131968068Y-74525509D01*
X131968072Y-74525511D01*
X132192836Y-74618611D01*
X132197409Y-74620505D01*
X132282032Y-74640821D01*
X132438784Y-74678454D01*
X132438790Y-74678455D01*
X132443597Y-74679609D01*
X132571387Y-74689667D01*
X132637727Y-74714951D01*
X132679867Y-74772089D01*
X132687500Y-74815278D01*
X132687500Y-86193497D01*
X132667498Y-86261618D01*
X132650595Y-86282592D01*
X121589168Y-97344019D01*
X121574135Y-97356860D01*
X121562747Y-97365134D01*
X121558327Y-97370043D01*
X121516984Y-97415959D01*
X121512443Y-97420744D01*
X121497928Y-97435259D01*
X121495852Y-97437823D01*
X121485006Y-97451216D01*
X121480722Y-97456231D01*
X121439381Y-97502145D01*
X121439377Y-97502150D01*
X121434960Y-97507056D01*
X121431660Y-97512772D01*
X121431657Y-97512776D01*
X121427927Y-97519237D01*
X121416727Y-97535533D01*
X121407871Y-97546470D01*
X121386502Y-97588409D01*
X121376815Y-97607421D01*
X121373669Y-97613215D01*
X121339473Y-97672444D01*
X121337432Y-97678726D01*
X121337431Y-97678728D01*
X121335125Y-97685826D01*
X121327560Y-97704092D01*
X121321171Y-97716630D01*
X121304097Y-97780353D01*
X121303469Y-97782695D01*
X121301600Y-97789003D01*
X121280458Y-97854072D01*
X121279768Y-97860637D01*
X121279766Y-97860646D01*
X121278985Y-97868075D01*
X121275383Y-97887509D01*
X121273453Y-97894714D01*
X121271743Y-97901097D01*
X121271398Y-97907688D01*
X121271397Y-97907692D01*
X121268164Y-97969384D01*
X121267647Y-97975958D01*
X121265844Y-97993116D01*
X121265500Y-97996390D01*
X121265500Y-98016926D01*
X121265327Y-98023520D01*
X121262241Y-98082408D01*
X121261748Y-98091810D01*
X121262780Y-98098325D01*
X121263949Y-98105705D01*
X121265500Y-98125417D01*
X121265500Y-98755737D01*
X121245498Y-98823858D01*
X121230594Y-98842788D01*
X121149849Y-98927283D01*
X121114629Y-98964138D01*
X120988743Y-99148680D01*
X120894688Y-99351305D01*
X120834989Y-99566570D01*
X120811251Y-99788695D01*
X120824110Y-100011715D01*
X120825247Y-100016761D01*
X120825248Y-100016767D01*
X120839726Y-100081008D01*
X120873222Y-100229639D01*
X120905723Y-100309680D01*
X120953806Y-100428094D01*
X120957266Y-100436616D01*
X120994685Y-100497678D01*
X121071291Y-100622688D01*
X121073987Y-100627088D01*
X121220250Y-100795938D01*
X121392126Y-100938632D01*
X121585000Y-101051338D01*
X121793692Y-101131030D01*
X121798760Y-101132061D01*
X121798763Y-101132062D01*
X121893862Y-101151410D01*
X122012597Y-101175567D01*
X122017772Y-101175757D01*
X122017774Y-101175757D01*
X122230673Y-101183564D01*
X122230677Y-101183564D01*
X122235837Y-101183753D01*
X122240957Y-101183097D01*
X122240959Y-101183097D01*
X122452288Y-101156025D01*
X122452289Y-101156025D01*
X122457416Y-101155368D01*
X122462366Y-101153883D01*
X122666429Y-101092661D01*
X122666434Y-101092659D01*
X122671384Y-101091174D01*
X122871994Y-100992896D01*
X123053860Y-100863173D01*
X123074345Y-100842760D01*
X123152888Y-100764490D01*
X123212096Y-100705489D01*
X123216444Y-100699439D01*
X123342453Y-100524077D01*
X123343776Y-100525028D01*
X123390645Y-100481857D01*
X123460580Y-100469625D01*
X123526026Y-100497144D01*
X123553875Y-100528994D01*
X123613987Y-100627088D01*
X123760250Y-100795938D01*
X123932126Y-100938632D01*
X124125000Y-101051338D01*
X124333692Y-101131030D01*
X124338760Y-101132061D01*
X124338763Y-101132062D01*
X124433862Y-101151410D01*
X124552597Y-101175567D01*
X124557772Y-101175757D01*
X124557774Y-101175757D01*
X124770673Y-101183564D01*
X124770677Y-101183564D01*
X124775837Y-101183753D01*
X124780957Y-101183097D01*
X124780959Y-101183097D01*
X124992288Y-101156025D01*
X124992289Y-101156025D01*
X124997416Y-101155368D01*
X125002366Y-101153883D01*
X125206429Y-101092661D01*
X125206434Y-101092659D01*
X125211384Y-101091174D01*
X125411994Y-100992896D01*
X125593860Y-100863173D01*
X125702091Y-100755319D01*
X125764462Y-100721404D01*
X125835268Y-100726592D01*
X125892030Y-100769238D01*
X125909012Y-100800341D01*
X125924914Y-100842760D01*
X125953385Y-100918705D01*
X126040739Y-101035261D01*
X126157295Y-101122615D01*
X126293684Y-101173745D01*
X126355866Y-101180500D01*
X128152134Y-101180500D01*
X128214316Y-101173745D01*
X128350705Y-101122615D01*
X128467261Y-101035261D01*
X128554615Y-100918705D01*
X128605745Y-100782316D01*
X128612500Y-100720134D01*
X128612500Y-99788695D01*
X135289251Y-99788695D01*
X135302110Y-100011715D01*
X135303247Y-100016761D01*
X135303248Y-100016767D01*
X135317726Y-100081008D01*
X135351222Y-100229639D01*
X135383723Y-100309680D01*
X135431806Y-100428094D01*
X135435266Y-100436616D01*
X135472685Y-100497678D01*
X135549291Y-100622688D01*
X135551987Y-100627088D01*
X135698250Y-100795938D01*
X135870126Y-100938632D01*
X136063000Y-101051338D01*
X136271692Y-101131030D01*
X136276760Y-101132061D01*
X136276763Y-101132062D01*
X136371862Y-101151410D01*
X136490597Y-101175567D01*
X136495772Y-101175757D01*
X136495774Y-101175757D01*
X136708673Y-101183564D01*
X136708677Y-101183564D01*
X136713837Y-101183753D01*
X136718957Y-101183097D01*
X136718959Y-101183097D01*
X136930288Y-101156025D01*
X136930289Y-101156025D01*
X136935416Y-101155368D01*
X136940366Y-101153883D01*
X137144429Y-101092661D01*
X137144434Y-101092659D01*
X137149384Y-101091174D01*
X137349994Y-100992896D01*
X137531860Y-100863173D01*
X137552345Y-100842760D01*
X137630888Y-100764490D01*
X137690096Y-100705489D01*
X137694444Y-100699439D01*
X137820453Y-100524077D01*
X137821640Y-100524930D01*
X137868960Y-100481362D01*
X137938897Y-100469145D01*
X138004338Y-100496678D01*
X138032166Y-100528511D01*
X138089694Y-100622388D01*
X138095777Y-100630699D01*
X138235213Y-100791667D01*
X138242580Y-100798883D01*
X138406434Y-100934916D01*
X138414881Y-100940831D01*
X138598756Y-101048279D01*
X138608042Y-101052729D01*
X138807001Y-101128703D01*
X138816899Y-101131579D01*
X138920250Y-101152606D01*
X138934299Y-101151410D01*
X138938000Y-101141065D01*
X138938000Y-101140517D01*
X139446000Y-101140517D01*
X139450064Y-101154359D01*
X139463478Y-101156393D01*
X139470184Y-101155534D01*
X139480262Y-101153392D01*
X139684255Y-101092191D01*
X139693842Y-101088433D01*
X139885095Y-100994739D01*
X139893945Y-100989464D01*
X140067328Y-100865792D01*
X140075200Y-100859139D01*
X140226052Y-100708812D01*
X140232730Y-100700965D01*
X140360022Y-100523819D01*
X140361279Y-100524722D01*
X140408373Y-100481362D01*
X140478311Y-100469145D01*
X140543751Y-100496678D01*
X140571579Y-100528511D01*
X140631987Y-100627088D01*
X140778250Y-100795938D01*
X140950126Y-100938632D01*
X141143000Y-101051338D01*
X141351692Y-101131030D01*
X141356760Y-101132061D01*
X141356763Y-101132062D01*
X141451862Y-101151410D01*
X141570597Y-101175567D01*
X141575772Y-101175757D01*
X141575774Y-101175757D01*
X141788673Y-101183564D01*
X141788677Y-101183564D01*
X141793837Y-101183753D01*
X141798957Y-101183097D01*
X141798959Y-101183097D01*
X142010288Y-101156025D01*
X142010289Y-101156025D01*
X142015416Y-101155368D01*
X142020366Y-101153883D01*
X142224429Y-101092661D01*
X142224434Y-101092659D01*
X142229384Y-101091174D01*
X142429994Y-100992896D01*
X142611860Y-100863173D01*
X142720091Y-100755319D01*
X142782462Y-100721404D01*
X142853268Y-100726592D01*
X142910030Y-100769238D01*
X142927012Y-100800341D01*
X142942914Y-100842760D01*
X142971385Y-100918705D01*
X143058739Y-101035261D01*
X143175295Y-101122615D01*
X143311684Y-101173745D01*
X143373866Y-101180500D01*
X145170134Y-101180500D01*
X145232316Y-101173745D01*
X145368705Y-101122615D01*
X145485261Y-101035261D01*
X145572615Y-100918705D01*
X145623745Y-100782316D01*
X145630500Y-100720134D01*
X145630500Y-98923866D01*
X145623745Y-98861684D01*
X145572615Y-98725295D01*
X145485261Y-98608739D01*
X145368705Y-98521385D01*
X145232316Y-98470255D01*
X145170134Y-98463500D01*
X143373866Y-98463500D01*
X143311684Y-98470255D01*
X143175295Y-98521385D01*
X143058739Y-98608739D01*
X142971385Y-98725295D01*
X142968233Y-98733703D01*
X142926919Y-98843907D01*
X142884277Y-98900671D01*
X142817716Y-98925371D01*
X142748367Y-98910163D01*
X142715743Y-98884476D01*
X142665151Y-98828875D01*
X142665142Y-98828866D01*
X142661670Y-98825051D01*
X142657619Y-98821852D01*
X142657615Y-98821848D01*
X142490414Y-98689800D01*
X142490410Y-98689798D01*
X142486359Y-98686598D01*
X142450028Y-98666542D01*
X142406481Y-98642503D01*
X142290789Y-98578638D01*
X142285920Y-98576914D01*
X142285916Y-98576912D01*
X142085087Y-98505795D01*
X142085083Y-98505794D01*
X142080212Y-98504069D01*
X142075119Y-98503162D01*
X142075116Y-98503161D01*
X141865373Y-98465800D01*
X141865367Y-98465799D01*
X141860284Y-98464894D01*
X141786452Y-98463992D01*
X141642081Y-98462228D01*
X141642079Y-98462228D01*
X141636911Y-98462165D01*
X141416091Y-98495955D01*
X141203756Y-98565357D01*
X141005607Y-98668507D01*
X141001474Y-98671610D01*
X141001471Y-98671612D01*
X140831100Y-98799530D01*
X140826965Y-98802635D01*
X140801541Y-98829240D01*
X140733280Y-98900671D01*
X140672629Y-98964138D01*
X140565204Y-99121618D01*
X140564898Y-99122066D01*
X140509987Y-99167069D01*
X140439462Y-99175240D01*
X140375715Y-99143986D01*
X140355018Y-99119502D01*
X140274426Y-98994926D01*
X140268136Y-98986757D01*
X140124806Y-98829240D01*
X140117273Y-98822215D01*
X139950139Y-98690222D01*
X139941552Y-98684517D01*
X139755117Y-98581599D01*
X139745705Y-98577369D01*
X139544959Y-98506280D01*
X139534988Y-98503646D01*
X139463837Y-98490972D01*
X139450540Y-98492432D01*
X139446000Y-98506989D01*
X139446000Y-101140517D01*
X138938000Y-101140517D01*
X138938000Y-98505102D01*
X138934082Y-98491758D01*
X138919806Y-98489771D01*
X138881324Y-98495660D01*
X138871288Y-98498051D01*
X138668868Y-98564212D01*
X138659359Y-98568209D01*
X138470463Y-98666542D01*
X138461738Y-98672036D01*
X138291433Y-98799905D01*
X138283726Y-98806748D01*
X138136590Y-98960717D01*
X138130109Y-98968722D01*
X138025498Y-99122074D01*
X137970587Y-99167076D01*
X137900062Y-99175247D01*
X137836315Y-99143993D01*
X137815618Y-99119509D01*
X137734822Y-98994617D01*
X137734820Y-98994614D01*
X137732014Y-98990277D01*
X137581670Y-98825051D01*
X137577619Y-98821852D01*
X137577615Y-98821848D01*
X137410414Y-98689800D01*
X137410410Y-98689798D01*
X137406359Y-98686598D01*
X137370028Y-98666542D01*
X137326481Y-98642503D01*
X137210789Y-98578638D01*
X137205920Y-98576914D01*
X137205916Y-98576912D01*
X137005087Y-98505795D01*
X137005083Y-98505794D01*
X137000212Y-98504069D01*
X136995119Y-98503162D01*
X136995116Y-98503161D01*
X136785373Y-98465800D01*
X136785367Y-98465799D01*
X136780284Y-98464894D01*
X136706452Y-98463992D01*
X136562081Y-98462228D01*
X136562079Y-98462228D01*
X136556911Y-98462165D01*
X136336091Y-98495955D01*
X136123756Y-98565357D01*
X135925607Y-98668507D01*
X135921474Y-98671610D01*
X135921471Y-98671612D01*
X135751100Y-98799530D01*
X135746965Y-98802635D01*
X135721541Y-98829240D01*
X135653280Y-98900671D01*
X135592629Y-98964138D01*
X135466743Y-99148680D01*
X135372688Y-99351305D01*
X135312989Y-99566570D01*
X135289251Y-99788695D01*
X128612500Y-99788695D01*
X128612500Y-98923866D01*
X128605745Y-98861684D01*
X128554615Y-98725295D01*
X128467261Y-98608739D01*
X128350705Y-98521385D01*
X128323550Y-98511205D01*
X128266786Y-98468563D01*
X128242086Y-98402002D01*
X128257293Y-98332653D01*
X128278685Y-98304128D01*
X140780832Y-85801981D01*
X140795865Y-85789140D01*
X140801913Y-85784746D01*
X140801914Y-85784745D01*
X140807253Y-85780866D01*
X140853016Y-85730041D01*
X140857557Y-85725256D01*
X140872072Y-85710741D01*
X140884994Y-85694784D01*
X140889278Y-85689769D01*
X140930619Y-85643855D01*
X140930623Y-85643850D01*
X140935040Y-85638944D01*
X140938340Y-85633228D01*
X140938343Y-85633224D01*
X140942073Y-85626763D01*
X140953273Y-85610466D01*
X140957975Y-85604660D01*
X140957976Y-85604658D01*
X140962129Y-85599530D01*
X140980732Y-85563021D01*
X140993188Y-85538574D01*
X140996336Y-85532777D01*
X141027224Y-85479277D01*
X141028730Y-85476669D01*
X149518001Y-85476669D01*
X149518371Y-85483490D01*
X149523895Y-85534352D01*
X149527521Y-85549604D01*
X149572676Y-85670054D01*
X149581214Y-85685649D01*
X149657715Y-85787724D01*
X149670276Y-85800285D01*
X149772351Y-85876786D01*
X149787946Y-85885324D01*
X149908394Y-85930478D01*
X149923649Y-85934105D01*
X149974514Y-85939631D01*
X149981328Y-85940000D01*
X150603885Y-85940000D01*
X150619124Y-85935525D01*
X150620329Y-85934135D01*
X150622000Y-85926452D01*
X150622000Y-84854115D01*
X150617525Y-84838876D01*
X150616135Y-84837671D01*
X150608452Y-84836000D01*
X149536116Y-84836000D01*
X149520877Y-84840475D01*
X149519672Y-84841865D01*
X149518001Y-84849548D01*
X149518001Y-85476669D01*
X141028730Y-85476669D01*
X141030527Y-85473556D01*
X141034875Y-85460174D01*
X141042438Y-85441915D01*
X141048830Y-85429370D01*
X141066537Y-85363288D01*
X141068409Y-85356969D01*
X141087501Y-85298210D01*
X141087501Y-85298209D01*
X141089542Y-85291928D01*
X141091014Y-85277925D01*
X141094615Y-85258496D01*
X141098257Y-85244903D01*
X141101836Y-85176616D01*
X141102353Y-85170042D01*
X141104156Y-85152884D01*
X141104156Y-85152882D01*
X141104500Y-85149610D01*
X141104500Y-85129074D01*
X141104673Y-85122480D01*
X141107907Y-85060782D01*
X141107907Y-85060777D01*
X141108252Y-85054190D01*
X141106051Y-85040292D01*
X141104500Y-85020583D01*
X141104500Y-84309885D01*
X149518000Y-84309885D01*
X149522475Y-84325124D01*
X149523865Y-84326329D01*
X149531548Y-84328000D01*
X150603885Y-84328000D01*
X150619124Y-84323525D01*
X150620329Y-84322135D01*
X150622000Y-84314452D01*
X150622000Y-82314115D01*
X150617525Y-82298876D01*
X150616135Y-82297671D01*
X150608452Y-82296000D01*
X149559225Y-82296000D01*
X149545694Y-82299973D01*
X149544257Y-82309966D01*
X149574565Y-82444446D01*
X149577645Y-82454275D01*
X149657770Y-82651603D01*
X149662413Y-82660794D01*
X149773694Y-82842388D01*
X149779777Y-82850699D01*
X149919213Y-83011667D01*
X149926578Y-83018881D01*
X149931966Y-83023354D01*
X149971599Y-83082258D01*
X149973095Y-83153239D01*
X149935978Y-83213761D01*
X149895707Y-83238278D01*
X149787948Y-83278675D01*
X149772351Y-83287214D01*
X149670276Y-83363715D01*
X149657715Y-83376276D01*
X149581214Y-83478351D01*
X149572676Y-83493946D01*
X149527522Y-83614394D01*
X149523895Y-83629649D01*
X149518369Y-83680514D01*
X149518000Y-83687328D01*
X149518000Y-84309885D01*
X141104500Y-84309885D01*
X141104500Y-81776183D01*
X149540389Y-81776183D01*
X149541912Y-81784607D01*
X149554292Y-81788000D01*
X150603885Y-81788000D01*
X150619124Y-81783525D01*
X150620329Y-81782135D01*
X150622000Y-81774452D01*
X150622000Y-80725102D01*
X150618082Y-80711758D01*
X150603806Y-80709771D01*
X150565324Y-80715660D01*
X150555288Y-80718051D01*
X150352868Y-80784212D01*
X150343359Y-80788209D01*
X150154463Y-80886542D01*
X150145738Y-80892036D01*
X149975433Y-81019905D01*
X149967726Y-81026748D01*
X149820590Y-81180717D01*
X149814104Y-81188727D01*
X149694098Y-81364649D01*
X149689000Y-81373623D01*
X149599338Y-81566783D01*
X149595775Y-81576470D01*
X149540389Y-81776183D01*
X141104500Y-81776183D01*
X141104500Y-71278700D01*
X141124502Y-71210579D01*
X141178158Y-71164086D01*
X141248432Y-71153982D01*
X141313012Y-71183476D01*
X141353019Y-71249286D01*
X141361495Y-71284591D01*
X141363388Y-71289162D01*
X141363389Y-71289164D01*
X141447408Y-71492003D01*
X141458384Y-71518502D01*
X141590672Y-71734376D01*
X141755102Y-71926898D01*
X141947624Y-72091328D01*
X142163498Y-72223616D01*
X142168068Y-72225509D01*
X142168072Y-72225511D01*
X142392836Y-72318611D01*
X142397409Y-72320505D01*
X142482032Y-72340821D01*
X142638784Y-72378454D01*
X142638790Y-72378455D01*
X142643597Y-72379609D01*
X142896000Y-72399474D01*
X143148403Y-72379609D01*
X143153210Y-72378455D01*
X143153216Y-72378454D01*
X143309968Y-72340821D01*
X143394591Y-72320505D01*
X143399164Y-72318611D01*
X143623928Y-72225511D01*
X143623932Y-72225509D01*
X143628502Y-72223616D01*
X143844376Y-72091328D01*
X144036898Y-71926898D01*
X144201328Y-71734376D01*
X144333616Y-71518502D01*
X144344593Y-71492003D01*
X144428611Y-71289164D01*
X144428612Y-71289162D01*
X144430505Y-71284591D01*
X144454780Y-71183476D01*
X144488454Y-71043216D01*
X144488455Y-71043210D01*
X144489609Y-71038403D01*
X144504500Y-70849199D01*
X144504500Y-68922801D01*
X144489609Y-68733597D01*
X144481069Y-68698022D01*
X144443541Y-68541709D01*
X144430505Y-68487409D01*
X144428611Y-68482836D01*
X144335511Y-68258072D01*
X144335509Y-68258068D01*
X144333616Y-68253498D01*
X144201328Y-68037624D01*
X144036898Y-67845102D01*
X143848668Y-67684338D01*
X143809860Y-67624888D01*
X143804500Y-67588528D01*
X143804500Y-62960503D01*
X143824502Y-62892382D01*
X143841405Y-62871408D01*
X144995408Y-61717405D01*
X145057720Y-61683379D01*
X145084503Y-61680500D01*
X148202497Y-61680500D01*
X148270618Y-61700502D01*
X148291592Y-61717405D01*
X148947592Y-62373405D01*
X148981618Y-62435717D01*
X148976553Y-62506532D01*
X148934006Y-62563368D01*
X148867486Y-62588179D01*
X148858497Y-62588500D01*
X147432866Y-62588500D01*
X147370684Y-62595255D01*
X147234295Y-62646385D01*
X147227109Y-62651771D01*
X147219240Y-62656079D01*
X147217857Y-62653553D01*
X147165058Y-62673279D01*
X147095676Y-62658226D01*
X147089888Y-62654507D01*
X147084893Y-62651772D01*
X147077705Y-62646385D01*
X146941316Y-62595255D01*
X146879134Y-62588500D01*
X145432866Y-62588500D01*
X145370684Y-62595255D01*
X145234295Y-62646385D01*
X145117739Y-62733739D01*
X145030385Y-62850295D01*
X144979255Y-62986684D01*
X144972500Y-63048866D01*
X144972500Y-64495134D01*
X144979255Y-64557316D01*
X145030385Y-64693705D01*
X145117739Y-64810261D01*
X145124919Y-64815642D01*
X145196269Y-64869116D01*
X145238784Y-64925975D01*
X145243810Y-64996794D01*
X145219654Y-65047948D01*
X145193756Y-65080800D01*
X145159181Y-65124658D01*
X145057905Y-65317154D01*
X145056192Y-65322671D01*
X145025452Y-65421670D01*
X144993403Y-65524882D01*
X144967837Y-65740887D01*
X144982063Y-65957933D01*
X144983484Y-65963529D01*
X144983485Y-65963534D01*
X145025436Y-66128712D01*
X145035605Y-66168753D01*
X145038022Y-66173996D01*
X145075566Y-66255435D01*
X145126668Y-66366285D01*
X145130001Y-66371001D01*
X145211908Y-66486896D01*
X145252204Y-66543914D01*
X145408009Y-66695692D01*
X145588863Y-66816536D01*
X145594171Y-66818817D01*
X145594172Y-66818817D01*
X145783409Y-66900119D01*
X145783412Y-66900120D01*
X145788712Y-66902397D01*
X145794342Y-66903671D01*
X145949199Y-66938712D01*
X146000860Y-66950402D01*
X146006631Y-66950629D01*
X146006633Y-66950629D01*
X146079620Y-66953496D01*
X146218205Y-66958941D01*
X146433466Y-66927730D01*
X146438930Y-66925875D01*
X146438935Y-66925874D01*
X146633963Y-66859671D01*
X146633968Y-66859669D01*
X146639435Y-66857813D01*
X146645296Y-66854531D01*
X146719661Y-66812884D01*
X146829213Y-66751532D01*
X146996446Y-66612446D01*
X147056578Y-66540145D01*
X147115515Y-66500561D01*
X147186497Y-66499125D01*
X147249264Y-66538885D01*
X147256720Y-66547615D01*
X147404191Y-66691275D01*
X147413124Y-66698509D01*
X147584299Y-66812884D01*
X147594409Y-66818374D01*
X147783566Y-66899642D01*
X147794499Y-66903194D01*
X147884332Y-66923521D01*
X147898405Y-66922632D01*
X147902000Y-66913233D01*
X147902000Y-65644000D01*
X147922002Y-65575879D01*
X147975658Y-65529386D01*
X148028000Y-65518000D01*
X148284000Y-65518000D01*
X148352121Y-65538002D01*
X148398614Y-65591658D01*
X148410000Y-65644000D01*
X148410000Y-66912512D01*
X148413966Y-66926018D01*
X148427883Y-66928011D01*
X148438817Y-66925386D01*
X148633763Y-66859210D01*
X148644272Y-66854531D01*
X148823882Y-66753944D01*
X148833375Y-66747420D01*
X148991653Y-66615782D01*
X148999782Y-66607653D01*
X149055923Y-66540151D01*
X149114861Y-66500567D01*
X149185843Y-66499131D01*
X149248607Y-66538888D01*
X149248868Y-66539193D01*
X149252204Y-66543914D01*
X149408009Y-66695692D01*
X149588863Y-66816536D01*
X149594171Y-66818817D01*
X149594172Y-66818817D01*
X149783409Y-66900119D01*
X149783412Y-66900120D01*
X149788712Y-66902397D01*
X149794342Y-66903671D01*
X149949199Y-66938712D01*
X150000860Y-66950402D01*
X150006631Y-66950629D01*
X150006633Y-66950629D01*
X150079620Y-66953496D01*
X150218205Y-66958941D01*
X150433466Y-66927730D01*
X150438930Y-66925875D01*
X150438935Y-66925874D01*
X150633963Y-66859671D01*
X150633968Y-66859669D01*
X150639435Y-66857813D01*
X150645296Y-66854531D01*
X150719661Y-66812884D01*
X150829213Y-66751532D01*
X150996446Y-66612446D01*
X151135532Y-66445213D01*
X151234341Y-66268777D01*
X151238989Y-66260478D01*
X151238990Y-66260476D01*
X151241813Y-66255435D01*
X151243669Y-66249968D01*
X151243671Y-66249963D01*
X151309874Y-66054935D01*
X151309875Y-66054930D01*
X151311730Y-66049466D01*
X151342941Y-65834205D01*
X151344570Y-65772000D01*
X151324667Y-65555400D01*
X151317331Y-65529386D01*
X151286951Y-65421670D01*
X151265626Y-65346055D01*
X151169423Y-65150974D01*
X151090465Y-65045236D01*
X151065733Y-64978686D01*
X151080907Y-64909330D01*
X151115858Y-64869021D01*
X151187080Y-64815643D01*
X151187081Y-64815642D01*
X151194261Y-64810261D01*
X151281615Y-64693705D01*
X151332745Y-64557316D01*
X151339500Y-64495134D01*
X151339500Y-63048866D01*
X151332745Y-62986684D01*
X151281615Y-62850295D01*
X151194261Y-62733739D01*
X151156000Y-62705064D01*
X151114935Y-62674287D01*
X151072420Y-62617427D01*
X151064500Y-62573461D01*
X151064500Y-62378417D01*
X151066051Y-62358707D01*
X151067220Y-62351327D01*
X151067220Y-62351326D01*
X151068252Y-62344810D01*
X151064673Y-62276520D01*
X151064500Y-62269926D01*
X151064500Y-62249390D01*
X151064156Y-62246116D01*
X151062353Y-62228958D01*
X151061836Y-62222384D01*
X151058603Y-62160696D01*
X151058603Y-62160694D01*
X151058257Y-62154097D01*
X151054615Y-62140504D01*
X151051014Y-62121075D01*
X151050232Y-62113639D01*
X151049542Y-62107072D01*
X151045757Y-62095421D01*
X151028409Y-62042031D01*
X151026535Y-62035706D01*
X151010538Y-61976003D01*
X151010537Y-61976000D01*
X151008830Y-61969630D01*
X151002438Y-61957085D01*
X150994874Y-61938823D01*
X150992568Y-61931726D01*
X150990527Y-61925444D01*
X150964908Y-61881070D01*
X150956336Y-61866223D01*
X150953188Y-61860426D01*
X150925126Y-61805351D01*
X150925124Y-61805348D01*
X150922129Y-61799470D01*
X150913273Y-61788533D01*
X150902073Y-61772237D01*
X150898343Y-61765776D01*
X150898340Y-61765772D01*
X150895040Y-61760056D01*
X150890623Y-61755150D01*
X150890619Y-61755145D01*
X150849278Y-61709231D01*
X150844994Y-61704216D01*
X150834148Y-61690823D01*
X150832072Y-61688259D01*
X150817557Y-61673744D01*
X150813016Y-61668959D01*
X150795897Y-61649946D01*
X150767253Y-61618134D01*
X150755865Y-61609860D01*
X150740832Y-61597019D01*
X149556908Y-60413095D01*
X149522882Y-60350783D01*
X149527947Y-60279968D01*
X149570494Y-60223132D01*
X149637014Y-60198321D01*
X149646003Y-60198000D01*
X152020000Y-60198000D01*
X152088121Y-60218002D01*
X152134614Y-60271658D01*
X152146000Y-60324000D01*
X152146000Y-81094121D01*
X152125998Y-81162242D01*
X152072342Y-81208735D01*
X152002068Y-81218839D01*
X151937488Y-81189345D01*
X151926807Y-81178921D01*
X151808806Y-81049240D01*
X151801273Y-81042215D01*
X151634139Y-80910222D01*
X151625552Y-80904517D01*
X151439117Y-80801599D01*
X151429705Y-80797369D01*
X151228959Y-80726280D01*
X151218988Y-80723646D01*
X151147837Y-80710972D01*
X151134540Y-80712432D01*
X151130000Y-80726989D01*
X151130000Y-85921884D01*
X151134475Y-85937123D01*
X151135865Y-85938328D01*
X151143548Y-85939999D01*
X151770669Y-85939999D01*
X151777490Y-85939629D01*
X151828352Y-85934105D01*
X151843604Y-85930479D01*
X151972462Y-85882172D01*
X151973437Y-85884772D01*
X152028851Y-85872654D01*
X152095399Y-85897392D01*
X152138007Y-85954182D01*
X152146000Y-85998343D01*
X152146000Y-102998000D01*
X152125998Y-103066121D01*
X152072342Y-103112614D01*
X152020000Y-103124000D01*
X109793003Y-103124000D01*
X109724882Y-103103998D01*
X109678389Y-103050342D01*
X109668285Y-102980068D01*
X109697779Y-102915488D01*
X109703908Y-102908905D01*
X110820832Y-101791981D01*
X110835865Y-101779140D01*
X110841913Y-101774746D01*
X110841914Y-101774745D01*
X110847253Y-101770866D01*
X110893016Y-101720041D01*
X110897557Y-101715256D01*
X110912072Y-101700741D01*
X110924994Y-101684784D01*
X110929278Y-101679769D01*
X110970619Y-101633855D01*
X110970623Y-101633850D01*
X110975040Y-101628944D01*
X110978340Y-101623228D01*
X110978343Y-101623224D01*
X110982073Y-101616763D01*
X110993273Y-101600466D01*
X110997975Y-101594660D01*
X110997976Y-101594658D01*
X111002129Y-101589530D01*
X111033186Y-101528577D01*
X111036333Y-101522782D01*
X111067223Y-101469279D01*
X111067224Y-101469278D01*
X111070527Y-101463556D01*
X111074875Y-101450173D01*
X111082441Y-101431907D01*
X111085832Y-101425252D01*
X111088829Y-101419370D01*
X111106529Y-101353315D01*
X111108402Y-101346991D01*
X111127500Y-101288212D01*
X111129542Y-101281928D01*
X111131012Y-101267939D01*
X111134617Y-101248486D01*
X111136547Y-101241285D01*
X111138257Y-101234904D01*
X111139589Y-101209492D01*
X111141836Y-101166615D01*
X111142353Y-101160040D01*
X111144156Y-101142882D01*
X111144500Y-101139610D01*
X111144500Y-101119075D01*
X111144673Y-101112481D01*
X111147907Y-101050783D01*
X111147907Y-101050778D01*
X111148252Y-101044191D01*
X111146051Y-101030293D01*
X111144500Y-101010584D01*
X111144500Y-100886953D01*
X111164502Y-100818832D01*
X111181560Y-100797702D01*
X111202151Y-100777183D01*
X111224091Y-100755319D01*
X111286461Y-100721404D01*
X111357268Y-100726592D01*
X111414030Y-100769238D01*
X111431012Y-100800341D01*
X111446914Y-100842760D01*
X111475385Y-100918705D01*
X111562739Y-101035261D01*
X111679295Y-101122615D01*
X111815684Y-101173745D01*
X111877866Y-101180500D01*
X113674134Y-101180500D01*
X113736316Y-101173745D01*
X113872705Y-101122615D01*
X113989261Y-101035261D01*
X114076615Y-100918705D01*
X114127745Y-100782316D01*
X114134500Y-100720134D01*
X114134500Y-98923866D01*
X114127745Y-98861684D01*
X114076615Y-98725295D01*
X113989261Y-98608739D01*
X113872705Y-98521385D01*
X113736316Y-98470255D01*
X113674134Y-98463500D01*
X111877866Y-98463500D01*
X111815684Y-98470255D01*
X111679295Y-98521385D01*
X111562739Y-98608739D01*
X111475385Y-98725295D01*
X111472233Y-98733703D01*
X111430919Y-98843907D01*
X111388277Y-98900671D01*
X111321716Y-98925371D01*
X111252367Y-98910163D01*
X111219743Y-98884476D01*
X111169151Y-98828875D01*
X111169142Y-98828866D01*
X111165670Y-98825051D01*
X111161619Y-98821852D01*
X111161615Y-98821848D01*
X110994414Y-98689800D01*
X110994410Y-98689798D01*
X110990359Y-98686598D01*
X110954028Y-98666542D01*
X110910481Y-98642503D01*
X110794789Y-98578638D01*
X110789920Y-98576914D01*
X110789916Y-98576912D01*
X110589087Y-98505795D01*
X110589083Y-98505794D01*
X110584212Y-98504069D01*
X110579119Y-98503162D01*
X110579116Y-98503161D01*
X110369373Y-98465800D01*
X110369367Y-98465799D01*
X110364284Y-98464894D01*
X110290452Y-98463992D01*
X110146081Y-98462228D01*
X110146079Y-98462228D01*
X110140911Y-98462165D01*
X109920091Y-98495955D01*
X109707756Y-98565357D01*
X109509607Y-98668507D01*
X109505474Y-98671610D01*
X109505471Y-98671612D01*
X109335100Y-98799530D01*
X109330965Y-98802635D01*
X109305541Y-98829240D01*
X109237280Y-98900671D01*
X109176629Y-98964138D01*
X109069201Y-99121621D01*
X109014293Y-99166621D01*
X108943768Y-99174792D01*
X108880021Y-99143538D01*
X108859324Y-99119054D01*
X108778822Y-98994617D01*
X108778820Y-98994614D01*
X108776014Y-98990277D01*
X108625670Y-98825051D01*
X108621619Y-98821852D01*
X108621615Y-98821848D01*
X108454414Y-98689800D01*
X108454410Y-98689798D01*
X108450359Y-98686598D01*
X108414028Y-98666542D01*
X108370481Y-98642503D01*
X108254789Y-98578638D01*
X108249920Y-98576914D01*
X108249916Y-98576912D01*
X108049087Y-98505795D01*
X108049083Y-98505794D01*
X108044212Y-98504069D01*
X108039119Y-98503162D01*
X108039116Y-98503161D01*
X107829373Y-98465800D01*
X107829367Y-98465799D01*
X107824284Y-98464894D01*
X107672512Y-98463040D01*
X107604642Y-98442207D01*
X107584957Y-98426144D01*
X102037405Y-92878592D01*
X102003379Y-92816280D01*
X102000500Y-92789497D01*
X102000500Y-89873503D01*
X102020502Y-89805382D01*
X102074158Y-89758889D01*
X102144432Y-89748785D01*
X102209012Y-89778279D01*
X102215595Y-89784408D01*
X103059019Y-90627832D01*
X103071860Y-90642865D01*
X103080134Y-90654253D01*
X103085043Y-90658673D01*
X103130959Y-90700016D01*
X103135744Y-90704557D01*
X103150259Y-90719072D01*
X103152823Y-90721148D01*
X103166216Y-90731994D01*
X103171231Y-90736278D01*
X103217145Y-90777619D01*
X103217150Y-90777623D01*
X103222056Y-90782040D01*
X103227772Y-90785340D01*
X103227776Y-90785343D01*
X103234237Y-90789073D01*
X103250533Y-90800273D01*
X103261470Y-90809129D01*
X103322421Y-90840185D01*
X103328215Y-90843331D01*
X103387444Y-90877527D01*
X103393726Y-90879568D01*
X103393728Y-90879569D01*
X103400826Y-90881875D01*
X103419092Y-90889440D01*
X103431630Y-90895829D01*
X103438006Y-90897538D01*
X103438010Y-90897539D01*
X103497685Y-90913529D01*
X103504010Y-90915402D01*
X103569072Y-90936542D01*
X103575640Y-90937232D01*
X103575644Y-90937233D01*
X103583061Y-90938012D01*
X103602508Y-90941616D01*
X103616096Y-90945257D01*
X103622695Y-90945603D01*
X103622696Y-90945603D01*
X103684385Y-90948836D01*
X103690960Y-90949353D01*
X103705222Y-90950852D01*
X103711390Y-90951500D01*
X103731925Y-90951500D01*
X103738519Y-90951673D01*
X103800217Y-90954907D01*
X103800222Y-90954907D01*
X103806809Y-90955252D01*
X103820707Y-90953051D01*
X103840416Y-90951500D01*
X108791497Y-90951500D01*
X108859618Y-90971502D01*
X108880592Y-90988405D01*
X109496742Y-91604555D01*
X109529770Y-91662635D01*
X109567605Y-91811610D01*
X109652898Y-91996624D01*
X109770479Y-92162997D01*
X109916410Y-92305157D01*
X109921206Y-92308362D01*
X109921209Y-92308364D01*
X109989149Y-92353760D01*
X110085803Y-92418342D01*
X110091106Y-92420620D01*
X110091109Y-92420622D01*
X110267680Y-92496483D01*
X110272987Y-92498763D01*
X110345817Y-92515243D01*
X110466055Y-92542450D01*
X110466060Y-92542451D01*
X110471692Y-92543725D01*
X110477463Y-92543952D01*
X110477465Y-92543952D01*
X110540470Y-92546427D01*
X110675263Y-92551723D01*
X110876883Y-92522490D01*
X110882347Y-92520635D01*
X110882352Y-92520634D01*
X111064327Y-92458862D01*
X111064332Y-92458860D01*
X111069799Y-92457004D01*
X111247551Y-92357458D01*
X111404186Y-92227186D01*
X111534458Y-92070551D01*
X111634004Y-91892799D01*
X111635860Y-91887332D01*
X111635862Y-91887327D01*
X111697634Y-91705352D01*
X111697635Y-91705347D01*
X111699490Y-91699883D01*
X111728723Y-91498263D01*
X111730249Y-91440000D01*
X111711608Y-91237126D01*
X111656307Y-91041047D01*
X111622012Y-90971502D01*
X111568756Y-90863510D01*
X111566201Y-90858329D01*
X111529462Y-90809129D01*
X111447758Y-90699715D01*
X111447758Y-90699714D01*
X111444305Y-90695091D01*
X111294703Y-90556800D01*
X111248675Y-90527759D01*
X111127288Y-90451169D01*
X111127283Y-90451167D01*
X111122404Y-90448088D01*
X110933180Y-90372595D01*
X110883847Y-90362782D01*
X110847367Y-90355525D01*
X110782854Y-90321041D01*
X109919981Y-89458168D01*
X109907140Y-89443135D01*
X109902746Y-89437087D01*
X109902745Y-89437086D01*
X109898866Y-89431747D01*
X109848041Y-89385984D01*
X109843256Y-89381443D01*
X109828741Y-89366928D01*
X109821282Y-89360888D01*
X109812784Y-89354006D01*
X109807769Y-89349722D01*
X109761855Y-89308381D01*
X109761850Y-89308377D01*
X109756944Y-89303960D01*
X109751228Y-89300660D01*
X109751224Y-89300657D01*
X109744763Y-89296927D01*
X109728466Y-89285727D01*
X109722660Y-89281025D01*
X109722658Y-89281024D01*
X109717530Y-89276871D01*
X109656577Y-89245814D01*
X109650782Y-89242667D01*
X109649345Y-89241837D01*
X109591556Y-89208473D01*
X109585274Y-89206432D01*
X109585272Y-89206431D01*
X109578174Y-89204125D01*
X109559907Y-89196559D01*
X109547370Y-89190171D01*
X109481299Y-89172467D01*
X109474997Y-89170600D01*
X109409928Y-89149458D01*
X109403363Y-89148768D01*
X109403354Y-89148766D01*
X109395925Y-89147985D01*
X109376491Y-89144383D01*
X109369286Y-89142453D01*
X109369284Y-89142453D01*
X109362903Y-89140743D01*
X109356312Y-89140398D01*
X109356308Y-89140397D01*
X109294616Y-89137164D01*
X109288042Y-89136647D01*
X109270884Y-89134844D01*
X109270882Y-89134844D01*
X109267610Y-89134500D01*
X109247074Y-89134500D01*
X109240480Y-89134327D01*
X109178782Y-89131093D01*
X109178777Y-89131093D01*
X109172190Y-89130748D01*
X109158292Y-89132949D01*
X109138583Y-89134500D01*
X104187503Y-89134500D01*
X104119382Y-89114498D01*
X104098408Y-89097595D01*
X103484834Y-88484021D01*
X103452660Y-88429128D01*
X103402875Y-88252606D01*
X103402874Y-88252604D01*
X103401307Y-88247047D01*
X103375582Y-88194880D01*
X103313756Y-88069510D01*
X103311201Y-88064329D01*
X103189305Y-87901091D01*
X103096724Y-87815510D01*
X103043943Y-87766719D01*
X103043940Y-87766717D01*
X103039703Y-87762800D01*
X102993675Y-87733759D01*
X102872288Y-87657169D01*
X102872283Y-87657167D01*
X102867404Y-87654088D01*
X102678180Y-87578595D01*
X102478366Y-87538849D01*
X102472592Y-87538773D01*
X102472588Y-87538773D01*
X102369452Y-87537424D01*
X102274655Y-87536183D01*
X102268958Y-87537162D01*
X102268957Y-87537162D01*
X102147838Y-87557974D01*
X102077314Y-87549797D01*
X102022406Y-87504790D01*
X102000500Y-87433794D01*
X102000500Y-86788503D01*
X102020502Y-86720382D01*
X102037405Y-86699408D01*
X103040954Y-85695859D01*
X108869132Y-85695859D01*
X108882457Y-85899151D01*
X108932605Y-86096610D01*
X109017898Y-86281624D01*
X109135479Y-86447997D01*
X109281410Y-86590157D01*
X109286206Y-86593362D01*
X109286209Y-86593364D01*
X109405216Y-86672882D01*
X109450803Y-86703342D01*
X109456106Y-86705620D01*
X109456109Y-86705622D01*
X109632680Y-86781483D01*
X109637987Y-86783763D01*
X109700637Y-86797939D01*
X109754920Y-86810222D01*
X109816207Y-86844020D01*
X111949019Y-88976832D01*
X111961860Y-88991865D01*
X111970134Y-89003253D01*
X111975043Y-89007673D01*
X112020959Y-89049016D01*
X112025744Y-89053557D01*
X112040259Y-89068072D01*
X112042823Y-89070148D01*
X112056216Y-89080994D01*
X112061231Y-89085278D01*
X112107145Y-89126619D01*
X112107150Y-89126623D01*
X112112056Y-89131040D01*
X112117772Y-89134340D01*
X112117776Y-89134343D01*
X112124237Y-89138073D01*
X112140534Y-89149273D01*
X112143282Y-89151498D01*
X112151470Y-89158129D01*
X112157348Y-89161124D01*
X112157351Y-89161126D01*
X112212426Y-89189188D01*
X112218223Y-89192336D01*
X112251896Y-89211777D01*
X112277444Y-89226527D01*
X112290826Y-89230875D01*
X112309085Y-89238438D01*
X112321630Y-89244830D01*
X112328000Y-89246537D01*
X112328003Y-89246538D01*
X112367074Y-89257007D01*
X112387712Y-89262537D01*
X112394025Y-89264407D01*
X112459072Y-89285542D01*
X112473075Y-89287014D01*
X112492504Y-89290615D01*
X112506097Y-89294257D01*
X112512694Y-89294603D01*
X112512696Y-89294603D01*
X112574384Y-89297836D01*
X112580958Y-89298353D01*
X112598116Y-89300156D01*
X112598118Y-89300156D01*
X112601390Y-89300500D01*
X112621926Y-89300500D01*
X112628520Y-89300673D01*
X112690218Y-89303907D01*
X112690223Y-89303907D01*
X112696810Y-89304252D01*
X112703326Y-89303220D01*
X112703327Y-89303220D01*
X112710707Y-89302051D01*
X112730417Y-89300500D01*
X117136497Y-89300500D01*
X117204618Y-89320502D01*
X117251111Y-89374158D01*
X117261215Y-89444432D01*
X117231721Y-89509012D01*
X117225592Y-89515595D01*
X114389124Y-92352063D01*
X114321367Y-92387148D01*
X114265870Y-92396684D01*
X114074734Y-92467198D01*
X114069773Y-92470150D01*
X114069772Y-92470150D01*
X113945723Y-92543952D01*
X113899649Y-92571363D01*
X113746478Y-92705690D01*
X113742911Y-92710215D01*
X113742906Y-92710220D01*
X113680410Y-92789497D01*
X113620351Y-92865681D01*
X113525492Y-93045978D01*
X113465078Y-93240543D01*
X113441132Y-93442859D01*
X113454457Y-93646151D01*
X113504605Y-93843610D01*
X113589898Y-94028624D01*
X113707479Y-94194997D01*
X113853410Y-94337157D01*
X113858206Y-94340362D01*
X113858209Y-94340364D01*
X113926149Y-94385760D01*
X114022803Y-94450342D01*
X114028106Y-94452620D01*
X114028109Y-94452622D01*
X114117115Y-94490862D01*
X114209987Y-94530763D01*
X114282817Y-94547243D01*
X114403055Y-94574450D01*
X114403060Y-94574451D01*
X114408692Y-94575725D01*
X114414463Y-94575952D01*
X114414465Y-94575952D01*
X114477470Y-94578427D01*
X114612263Y-94583723D01*
X114813883Y-94554490D01*
X114819347Y-94552635D01*
X114819352Y-94552634D01*
X115001327Y-94490862D01*
X115001332Y-94490860D01*
X115006799Y-94489004D01*
X115184551Y-94389458D01*
X115341186Y-94259186D01*
X115471458Y-94102551D01*
X115571004Y-93924799D01*
X115572860Y-93919332D01*
X115572862Y-93919327D01*
X115634634Y-93737352D01*
X115634635Y-93737347D01*
X115636490Y-93731883D01*
X115640246Y-93705979D01*
X115669817Y-93641434D01*
X115675847Y-93634966D01*
X119973408Y-89337405D01*
X120035720Y-89303379D01*
X120062503Y-89300500D01*
X124548055Y-89300500D01*
X124618058Y-89321735D01*
X124690803Y-89370342D01*
X124696106Y-89372620D01*
X124696109Y-89372622D01*
X124833726Y-89431747D01*
X124877987Y-89450763D01*
X124910713Y-89458168D01*
X125071055Y-89494450D01*
X125071060Y-89494451D01*
X125076692Y-89495725D01*
X125082463Y-89495952D01*
X125082465Y-89495952D01*
X125145470Y-89498427D01*
X125280263Y-89503723D01*
X125481883Y-89474490D01*
X125487347Y-89472635D01*
X125487352Y-89472634D01*
X125669327Y-89410862D01*
X125669332Y-89410860D01*
X125674799Y-89409004D01*
X125852551Y-89309458D01*
X126009186Y-89179186D01*
X126139458Y-89022551D01*
X126239004Y-88844799D01*
X126240860Y-88839332D01*
X126240862Y-88839327D01*
X126302634Y-88657352D01*
X126302635Y-88657347D01*
X126304490Y-88651883D01*
X126333723Y-88450263D01*
X126335249Y-88392000D01*
X126316608Y-88189126D01*
X126261307Y-87993047D01*
X126214029Y-87897175D01*
X126173756Y-87815510D01*
X126171201Y-87810329D01*
X126049305Y-87647091D01*
X125899703Y-87508800D01*
X125801114Y-87446595D01*
X125732288Y-87403169D01*
X125732283Y-87403167D01*
X125727404Y-87400088D01*
X125538180Y-87324595D01*
X125338366Y-87284849D01*
X125332592Y-87284773D01*
X125332588Y-87284773D01*
X125229452Y-87283424D01*
X125134655Y-87282183D01*
X125128958Y-87283162D01*
X125128957Y-87283162D01*
X124939567Y-87315705D01*
X124933870Y-87316684D01*
X124742734Y-87387198D01*
X124737773Y-87390150D01*
X124737772Y-87390150D01*
X124610641Y-87465785D01*
X124546218Y-87483500D01*
X119715417Y-87483500D01*
X119695708Y-87481949D01*
X119681810Y-87479748D01*
X119675223Y-87480093D01*
X119675218Y-87480093D01*
X119613520Y-87483327D01*
X119606926Y-87483500D01*
X113077503Y-87483500D01*
X113009382Y-87463498D01*
X112988408Y-87446595D01*
X111104834Y-85563021D01*
X111072660Y-85508128D01*
X111022875Y-85331606D01*
X111022874Y-85331604D01*
X111021307Y-85326047D01*
X111010680Y-85304496D01*
X110933756Y-85148510D01*
X110931201Y-85143329D01*
X110912796Y-85118681D01*
X110812758Y-84984715D01*
X110812758Y-84984714D01*
X110809305Y-84980091D01*
X110674726Y-84855687D01*
X110663943Y-84845719D01*
X110663940Y-84845717D01*
X110659703Y-84841800D01*
X110582253Y-84792933D01*
X110492288Y-84736169D01*
X110492283Y-84736167D01*
X110487404Y-84733088D01*
X110298180Y-84657595D01*
X110098366Y-84617849D01*
X110092592Y-84617773D01*
X110092588Y-84617773D01*
X109989452Y-84616424D01*
X109894655Y-84615183D01*
X109888958Y-84616162D01*
X109888957Y-84616162D01*
X109822712Y-84627545D01*
X109693870Y-84649684D01*
X109502734Y-84720198D01*
X109327649Y-84824363D01*
X109174478Y-84958690D01*
X109170911Y-84963215D01*
X109170906Y-84963220D01*
X109104328Y-85047675D01*
X109048351Y-85118681D01*
X109045662Y-85123792D01*
X109045660Y-85123795D01*
X109019609Y-85173310D01*
X108953492Y-85298978D01*
X108922723Y-85398071D01*
X108896200Y-85483490D01*
X108893078Y-85493543D01*
X108869132Y-85695859D01*
X103040954Y-85695859D01*
X104479408Y-84257405D01*
X104541720Y-84223379D01*
X104568503Y-84220500D01*
X109646583Y-84220500D01*
X109666292Y-84222051D01*
X109680190Y-84224252D01*
X109686777Y-84223907D01*
X109686782Y-84223907D01*
X109748480Y-84220673D01*
X109755074Y-84220500D01*
X109775610Y-84220500D01*
X109778882Y-84220156D01*
X109778884Y-84220156D01*
X109796042Y-84218353D01*
X109802616Y-84217836D01*
X109864308Y-84214603D01*
X109864312Y-84214602D01*
X109870903Y-84214257D01*
X109877284Y-84212547D01*
X109877286Y-84212547D01*
X109884491Y-84210617D01*
X109903925Y-84207015D01*
X109911354Y-84206234D01*
X109911363Y-84206232D01*
X109917928Y-84205542D01*
X109982997Y-84184400D01*
X109989299Y-84182533D01*
X110055370Y-84164829D01*
X110067908Y-84158440D01*
X110086174Y-84150875D01*
X110093272Y-84148569D01*
X110093274Y-84148568D01*
X110099556Y-84146527D01*
X110158785Y-84112331D01*
X110164579Y-84109185D01*
X110225530Y-84078129D01*
X110236467Y-84069273D01*
X110252763Y-84058073D01*
X110259224Y-84054343D01*
X110259228Y-84054340D01*
X110264944Y-84051040D01*
X110269850Y-84046623D01*
X110269855Y-84046619D01*
X110315769Y-84005278D01*
X110320784Y-84000994D01*
X110334177Y-83990148D01*
X110336741Y-83988072D01*
X110351256Y-83973557D01*
X110356041Y-83969016D01*
X110401957Y-83927673D01*
X110406866Y-83923253D01*
X110415140Y-83911865D01*
X110427981Y-83896832D01*
X111591408Y-82733405D01*
X111653720Y-82699379D01*
X111680503Y-82696500D01*
X114067812Y-82696500D01*
X114135933Y-82716502D01*
X114156907Y-82733405D01*
X114217700Y-82794198D01*
X114222208Y-82797355D01*
X114222211Y-82797357D01*
X114286522Y-82842388D01*
X114405251Y-82925523D01*
X114410233Y-82927846D01*
X114410238Y-82927849D01*
X114605459Y-83018881D01*
X114612757Y-83022284D01*
X114618065Y-83023706D01*
X114618067Y-83023707D01*
X114828598Y-83080119D01*
X114828600Y-83080119D01*
X114833913Y-83081543D01*
X115062000Y-83101498D01*
X115290087Y-83081543D01*
X115295400Y-83080119D01*
X115295402Y-83080119D01*
X115505933Y-83023707D01*
X115505935Y-83023706D01*
X115511243Y-83022284D01*
X115518541Y-83018881D01*
X115713762Y-82927849D01*
X115713767Y-82927846D01*
X115718749Y-82925523D01*
X115837478Y-82842388D01*
X115901789Y-82797357D01*
X115901792Y-82797355D01*
X115906300Y-82794198D01*
X116068198Y-82632300D01*
X116199523Y-82444749D01*
X116201846Y-82439767D01*
X116201849Y-82439762D01*
X116293961Y-82242225D01*
X116293961Y-82242224D01*
X116296284Y-82237243D01*
X116355543Y-82016087D01*
X116375498Y-81788000D01*
X116355543Y-81559913D01*
X116313448Y-81402814D01*
X116297707Y-81344067D01*
X116297706Y-81344065D01*
X116296284Y-81338757D01*
X116236277Y-81210070D01*
X116201849Y-81136238D01*
X116201846Y-81136233D01*
X116199523Y-81131251D01*
X116073612Y-80951432D01*
X116071357Y-80948211D01*
X116071355Y-80948208D01*
X116068198Y-80943700D01*
X115906300Y-80781802D01*
X115901792Y-80778645D01*
X115901789Y-80778643D01*
X115806267Y-80711758D01*
X115718749Y-80650477D01*
X115713767Y-80648154D01*
X115713762Y-80648151D01*
X115516225Y-80556039D01*
X115516224Y-80556039D01*
X115511243Y-80553716D01*
X115505935Y-80552294D01*
X115505933Y-80552293D01*
X115295402Y-80495881D01*
X115295400Y-80495881D01*
X115290087Y-80494457D01*
X115062000Y-80474502D01*
X114833913Y-80494457D01*
X114828600Y-80495881D01*
X114828598Y-80495881D01*
X114618067Y-80552293D01*
X114618065Y-80552294D01*
X114612757Y-80553716D01*
X114607776Y-80556039D01*
X114607775Y-80556039D01*
X114410238Y-80648151D01*
X114410233Y-80648154D01*
X114405251Y-80650477D01*
X114317733Y-80711758D01*
X114222211Y-80778643D01*
X114222208Y-80778645D01*
X114217700Y-80781802D01*
X114156907Y-80842595D01*
X114094595Y-80876621D01*
X114067812Y-80879500D01*
X111333416Y-80879500D01*
X111313707Y-80877949D01*
X111299809Y-80875748D01*
X111293222Y-80876093D01*
X111293217Y-80876093D01*
X111231519Y-80879327D01*
X111224925Y-80879500D01*
X111204390Y-80879500D01*
X111198222Y-80880148D01*
X111183960Y-80881647D01*
X111177385Y-80882164D01*
X111115696Y-80885397D01*
X111115695Y-80885397D01*
X111109096Y-80885743D01*
X111095508Y-80889384D01*
X111076061Y-80892988D01*
X111068644Y-80893767D01*
X111068640Y-80893768D01*
X111062072Y-80894458D01*
X111013555Y-80910222D01*
X110997009Y-80915598D01*
X110990685Y-80917471D01*
X110931010Y-80933461D01*
X110931006Y-80933462D01*
X110924630Y-80935171D01*
X110918748Y-80938168D01*
X110912093Y-80941559D01*
X110893826Y-80949125D01*
X110886728Y-80951431D01*
X110886726Y-80951432D01*
X110880444Y-80953473D01*
X110874723Y-80956776D01*
X110874721Y-80956777D01*
X110821223Y-80987664D01*
X110815426Y-80990812D01*
X110760352Y-81018873D01*
X110760349Y-81018875D01*
X110754469Y-81021871D01*
X110743526Y-81030733D01*
X110727237Y-81041927D01*
X110715056Y-81048960D01*
X110710150Y-81053377D01*
X110710145Y-81053381D01*
X110664221Y-81094731D01*
X110659220Y-81099003D01*
X110643259Y-81111928D01*
X110628744Y-81126443D01*
X110623959Y-81130984D01*
X110573134Y-81176747D01*
X110569255Y-81182086D01*
X110569254Y-81182087D01*
X110564860Y-81188135D01*
X110552019Y-81203168D01*
X109931778Y-81823409D01*
X109869466Y-81857435D01*
X109798651Y-81852370D01*
X109741815Y-81809823D01*
X109717162Y-81745296D01*
X109702391Y-81576470D01*
X109699543Y-81543913D01*
X109698119Y-81538598D01*
X109641707Y-81328067D01*
X109641706Y-81328065D01*
X109640284Y-81322757D01*
X109581247Y-81196151D01*
X109545849Y-81120238D01*
X109545846Y-81120233D01*
X109543523Y-81115251D01*
X109432558Y-80956777D01*
X109415357Y-80932211D01*
X109415355Y-80932208D01*
X109412198Y-80927700D01*
X109250300Y-80765802D01*
X109245792Y-80762645D01*
X109245789Y-80762643D01*
X109167611Y-80707902D01*
X109062749Y-80634477D01*
X109057767Y-80632154D01*
X109057762Y-80632151D01*
X108860225Y-80540039D01*
X108860224Y-80540039D01*
X108855243Y-80537716D01*
X108849935Y-80536294D01*
X108849933Y-80536293D01*
X108639402Y-80479881D01*
X108639400Y-80479881D01*
X108634087Y-80478457D01*
X108406000Y-80458502D01*
X108177913Y-80478457D01*
X108172600Y-80479881D01*
X108172598Y-80479881D01*
X107962067Y-80536293D01*
X107962065Y-80536294D01*
X107956757Y-80537716D01*
X107951776Y-80540039D01*
X107951775Y-80540039D01*
X107754238Y-80632151D01*
X107754233Y-80632154D01*
X107749251Y-80634477D01*
X107644389Y-80707902D01*
X107566211Y-80762643D01*
X107566208Y-80762645D01*
X107561700Y-80765802D01*
X107484907Y-80842595D01*
X107422595Y-80876621D01*
X107395812Y-80879500D01*
X103459417Y-80879500D01*
X103439707Y-80877949D01*
X103432327Y-80876780D01*
X103432326Y-80876780D01*
X103425810Y-80875748D01*
X103419223Y-80876093D01*
X103419218Y-80876093D01*
X103357520Y-80879327D01*
X103350926Y-80879500D01*
X103330390Y-80879500D01*
X103327118Y-80879844D01*
X103327116Y-80879844D01*
X103309958Y-80881647D01*
X103303384Y-80882164D01*
X103241696Y-80885397D01*
X103241694Y-80885397D01*
X103235097Y-80885743D01*
X103221504Y-80889385D01*
X103202075Y-80892986D01*
X103188072Y-80894458D01*
X103123025Y-80915593D01*
X103116712Y-80917463D01*
X103096074Y-80922993D01*
X103057003Y-80933462D01*
X103057000Y-80933463D01*
X103050630Y-80935170D01*
X103038085Y-80941562D01*
X103019826Y-80949125D01*
X103006444Y-80953473D01*
X103000723Y-80956776D01*
X102947223Y-80987664D01*
X102941426Y-80990812D01*
X102886351Y-81018874D01*
X102886348Y-81018876D01*
X102880470Y-81021871D01*
X102875342Y-81026024D01*
X102875340Y-81026025D01*
X102869534Y-81030727D01*
X102853237Y-81041927D01*
X102846776Y-81045657D01*
X102846772Y-81045660D01*
X102841056Y-81048960D01*
X102836150Y-81053377D01*
X102836145Y-81053381D01*
X102790231Y-81094722D01*
X102785216Y-81099006D01*
X102776718Y-81105888D01*
X102769259Y-81111928D01*
X102754744Y-81126443D01*
X102749959Y-81130984D01*
X102699134Y-81176747D01*
X102695255Y-81182086D01*
X102695254Y-81182087D01*
X102690860Y-81188135D01*
X102678019Y-81203168D01*
X100124105Y-83757082D01*
X100061793Y-83791108D01*
X99990978Y-83786043D01*
X99934142Y-83743496D01*
X99909747Y-83681592D01*
X99904105Y-83629648D01*
X99900479Y-83614396D01*
X99855324Y-83493946D01*
X99846786Y-83478351D01*
X99770285Y-83376276D01*
X99757724Y-83363715D01*
X99655649Y-83287214D01*
X99640054Y-83278676D01*
X99529297Y-83237155D01*
X99472533Y-83194513D01*
X99447833Y-83127952D01*
X99463040Y-83058603D01*
X99484587Y-83029922D01*
X99586057Y-82928805D01*
X99592730Y-82920965D01*
X99717003Y-82748020D01*
X99722313Y-82739183D01*
X99816670Y-82548267D01*
X99820469Y-82538672D01*
X99882377Y-82334910D01*
X99884555Y-82324837D01*
X99885986Y-82313962D01*
X99883775Y-82299778D01*
X99870617Y-82296000D01*
X98824115Y-82296000D01*
X98808876Y-82300475D01*
X98807671Y-82301865D01*
X98806000Y-82309548D01*
X98806000Y-85921884D01*
X98810475Y-85937123D01*
X98811865Y-85938328D01*
X98819548Y-85939999D01*
X98967011Y-85939999D01*
X99035132Y-85960001D01*
X99081625Y-86013657D01*
X99093011Y-86065999D01*
X99093011Y-100428094D01*
X99091460Y-100447803D01*
X99089259Y-100461701D01*
X99089604Y-100468288D01*
X99089604Y-100468293D01*
X99092838Y-100529991D01*
X99093011Y-100536585D01*
X99093011Y-100557121D01*
X99093355Y-100560393D01*
X99093355Y-100560395D01*
X99095158Y-100577553D01*
X99095675Y-100584127D01*
X99097927Y-100627088D01*
X99099254Y-100652414D01*
X99100964Y-100658795D01*
X99100964Y-100658797D01*
X99102894Y-100666002D01*
X99106496Y-100685436D01*
X99107277Y-100692865D01*
X99107279Y-100692874D01*
X99107969Y-100699439D01*
X99129111Y-100764508D01*
X99130978Y-100770810D01*
X99148682Y-100836881D01*
X99155070Y-100849418D01*
X99162636Y-100867684D01*
X99166984Y-100881067D01*
X99170287Y-100886789D01*
X99170288Y-100886790D01*
X99201178Y-100940293D01*
X99204325Y-100946088D01*
X99235382Y-101007041D01*
X99239535Y-101012169D01*
X99239536Y-101012171D01*
X99244238Y-101017977D01*
X99255438Y-101034274D01*
X99259168Y-101040735D01*
X99259171Y-101040739D01*
X99262471Y-101046455D01*
X99266888Y-101051361D01*
X99266892Y-101051366D01*
X99308233Y-101097280D01*
X99312517Y-101102295D01*
X99325439Y-101118252D01*
X99339954Y-101132767D01*
X99344495Y-101137552D01*
X99390258Y-101188377D01*
X99395597Y-101192256D01*
X99395598Y-101192257D01*
X99401646Y-101196651D01*
X99416679Y-101209492D01*
X101116092Y-102908905D01*
X101150118Y-102971217D01*
X101145053Y-103042032D01*
X101102506Y-103098868D01*
X101035986Y-103123679D01*
X101026997Y-103124000D01*
X97408000Y-103124000D01*
X97339879Y-103103998D01*
X97293386Y-103050342D01*
X97282000Y-102998000D01*
X97282000Y-85998343D01*
X97302002Y-85930222D01*
X97355658Y-85883729D01*
X97425932Y-85873625D01*
X97455096Y-85883350D01*
X97455538Y-85882172D01*
X97584394Y-85930478D01*
X97599649Y-85934105D01*
X97650514Y-85939631D01*
X97657328Y-85940000D01*
X98279885Y-85940000D01*
X98295124Y-85935525D01*
X98296329Y-85934135D01*
X98298000Y-85926452D01*
X98298000Y-81769885D01*
X98806000Y-81769885D01*
X98810475Y-81785124D01*
X98811865Y-81786329D01*
X98819548Y-81788000D01*
X99870344Y-81788000D01*
X99883875Y-81784027D01*
X99885180Y-81774947D01*
X99843214Y-81607875D01*
X99839894Y-81598124D01*
X99754972Y-81402814D01*
X99750105Y-81393739D01*
X99634426Y-81214926D01*
X99628136Y-81206757D01*
X99484806Y-81049240D01*
X99477273Y-81042215D01*
X99310139Y-80910222D01*
X99301552Y-80904517D01*
X99115117Y-80801599D01*
X99105705Y-80797369D01*
X98904959Y-80726280D01*
X98894988Y-80723646D01*
X98823837Y-80710972D01*
X98810540Y-80712432D01*
X98806000Y-80726989D01*
X98806000Y-81769885D01*
X98298000Y-81769885D01*
X98298000Y-80725102D01*
X98294082Y-80711758D01*
X98279806Y-80709771D01*
X98241324Y-80715660D01*
X98231288Y-80718051D01*
X98028868Y-80784212D01*
X98019359Y-80788209D01*
X97830463Y-80886542D01*
X97821738Y-80892036D01*
X97651433Y-81019905D01*
X97643726Y-81026748D01*
X97499094Y-81178097D01*
X97437570Y-81213527D01*
X97366657Y-81210070D01*
X97308871Y-81168824D01*
X97282557Y-81102884D01*
X97282000Y-81091046D01*
X97282000Y-74152000D01*
X107092502Y-74152000D01*
X107112457Y-74380087D01*
X107113881Y-74385400D01*
X107113881Y-74385402D01*
X107151424Y-74525511D01*
X107171716Y-74601243D01*
X107174039Y-74606224D01*
X107174039Y-74606225D01*
X107266151Y-74803762D01*
X107266154Y-74803767D01*
X107268477Y-74808749D01*
X107399802Y-74996300D01*
X107561700Y-75158198D01*
X107566208Y-75161355D01*
X107566211Y-75161357D01*
X107644389Y-75216098D01*
X107749251Y-75289523D01*
X107754233Y-75291846D01*
X107754238Y-75291849D01*
X107951775Y-75383961D01*
X107956757Y-75386284D01*
X107962065Y-75387706D01*
X107962067Y-75387707D01*
X108172598Y-75444119D01*
X108172600Y-75444119D01*
X108177913Y-75445543D01*
X108406000Y-75465498D01*
X108634087Y-75445543D01*
X108639400Y-75444119D01*
X108639402Y-75444119D01*
X108849933Y-75387707D01*
X108849935Y-75387706D01*
X108855243Y-75386284D01*
X108860225Y-75383961D01*
X109057762Y-75291849D01*
X109057767Y-75291846D01*
X109062749Y-75289523D01*
X109167611Y-75216098D01*
X109245789Y-75161357D01*
X109245792Y-75161355D01*
X109250300Y-75158198D01*
X109412198Y-74996300D01*
X109543523Y-74808749D01*
X109545846Y-74803767D01*
X109545849Y-74803762D01*
X109637961Y-74606225D01*
X109637961Y-74606224D01*
X109640284Y-74601243D01*
X109660577Y-74525511D01*
X109698119Y-74385402D01*
X109698119Y-74385400D01*
X109699543Y-74380087D01*
X109718098Y-74168000D01*
X113748502Y-74168000D01*
X113768457Y-74396087D01*
X113769881Y-74401400D01*
X113769881Y-74401402D01*
X113802629Y-74523616D01*
X113827716Y-74617243D01*
X113830039Y-74622224D01*
X113830039Y-74622225D01*
X113922151Y-74819762D01*
X113922154Y-74819767D01*
X113924477Y-74824749D01*
X113927634Y-74829257D01*
X114044599Y-74996300D01*
X114055802Y-75012300D01*
X114217700Y-75174198D01*
X114222208Y-75177355D01*
X114222211Y-75177357D01*
X114300389Y-75232098D01*
X114405251Y-75305523D01*
X114410233Y-75307846D01*
X114410238Y-75307849D01*
X114581496Y-75387707D01*
X114612757Y-75402284D01*
X114618065Y-75403706D01*
X114618067Y-75403707D01*
X114828598Y-75460119D01*
X114828600Y-75460119D01*
X114833913Y-75461543D01*
X115062000Y-75481498D01*
X115290087Y-75461543D01*
X115295400Y-75460119D01*
X115295402Y-75460119D01*
X115505933Y-75403707D01*
X115505935Y-75403706D01*
X115511243Y-75402284D01*
X115542504Y-75387707D01*
X115713762Y-75307849D01*
X115713767Y-75307846D01*
X115718749Y-75305523D01*
X115823611Y-75232098D01*
X115901789Y-75177357D01*
X115901792Y-75177355D01*
X115906300Y-75174198D01*
X116068198Y-75012300D01*
X116079402Y-74996300D01*
X116196366Y-74829257D01*
X116199523Y-74824749D01*
X116201846Y-74819767D01*
X116201849Y-74819762D01*
X116293961Y-74622225D01*
X116293961Y-74622224D01*
X116296284Y-74617243D01*
X116321372Y-74523616D01*
X116354119Y-74401402D01*
X116354119Y-74401400D01*
X116355543Y-74396087D01*
X116375498Y-74168000D01*
X116355543Y-73939913D01*
X116296284Y-73718757D01*
X116286500Y-73697775D01*
X116201849Y-73516238D01*
X116201846Y-73516233D01*
X116199523Y-73511251D01*
X116126098Y-73406389D01*
X116071357Y-73328211D01*
X116071355Y-73328208D01*
X116068198Y-73323700D01*
X116055405Y-73310907D01*
X116021379Y-73248595D01*
X116018500Y-73221812D01*
X116018500Y-71663466D01*
X116041286Y-71591198D01*
X116159720Y-71422056D01*
X116170047Y-71399911D01*
X116246690Y-71235549D01*
X116246691Y-71235548D01*
X116249013Y-71230567D01*
X116303697Y-71026481D01*
X116322112Y-70816000D01*
X116303697Y-70605519D01*
X116284635Y-70534376D01*
X116250436Y-70406743D01*
X116250435Y-70406741D01*
X116249013Y-70401433D01*
X116246690Y-70396451D01*
X116162043Y-70214925D01*
X116162041Y-70214922D01*
X116159720Y-70209944D01*
X116038532Y-70036869D01*
X115889131Y-69887468D01*
X115716056Y-69766280D01*
X115711078Y-69763959D01*
X115711075Y-69763957D01*
X115541578Y-69684919D01*
X115488293Y-69638001D01*
X115468832Y-69569724D01*
X115489374Y-69501764D01*
X115541579Y-69456529D01*
X115710817Y-69377613D01*
X115720311Y-69372131D01*
X115750532Y-69350971D01*
X115758906Y-69340495D01*
X115751838Y-69327048D01*
X115122812Y-68698022D01*
X115108868Y-68690408D01*
X115107035Y-68690539D01*
X115100420Y-68694790D01*
X114467441Y-69327769D01*
X114461011Y-69339543D01*
X114470306Y-69351558D01*
X114499689Y-69372131D01*
X114509183Y-69377613D01*
X114678421Y-69456529D01*
X114731707Y-69503446D01*
X114751168Y-69571723D01*
X114730626Y-69639683D01*
X114678422Y-69684919D01*
X114508925Y-69763957D01*
X114508922Y-69763959D01*
X114503944Y-69766280D01*
X114330869Y-69887468D01*
X114181468Y-70036869D01*
X114060280Y-70209944D01*
X114057959Y-70214922D01*
X114057957Y-70214925D01*
X113973310Y-70396451D01*
X113970987Y-70401433D01*
X113969565Y-70406741D01*
X113969564Y-70406743D01*
X113935365Y-70534376D01*
X113916303Y-70605519D01*
X113897888Y-70816000D01*
X113916303Y-71026481D01*
X113970987Y-71230567D01*
X113973309Y-71235548D01*
X113973310Y-71235549D01*
X114049954Y-71399911D01*
X114060280Y-71422056D01*
X114178714Y-71591198D01*
X114201500Y-71663466D01*
X114201500Y-73125812D01*
X114181498Y-73193933D01*
X114164595Y-73214907D01*
X114055802Y-73323700D01*
X114052645Y-73328208D01*
X114052643Y-73328211D01*
X113997902Y-73406389D01*
X113924477Y-73511251D01*
X113922154Y-73516233D01*
X113922151Y-73516238D01*
X113837500Y-73697775D01*
X113827716Y-73718757D01*
X113768457Y-73939913D01*
X113748502Y-74168000D01*
X109718098Y-74168000D01*
X109719498Y-74152000D01*
X109699543Y-73923913D01*
X109671298Y-73818502D01*
X109641707Y-73708067D01*
X109641706Y-73708065D01*
X109640284Y-73702757D01*
X109582939Y-73579779D01*
X109545849Y-73500238D01*
X109545846Y-73500233D01*
X109543523Y-73495251D01*
X109426560Y-73328211D01*
X109415357Y-73312211D01*
X109415355Y-73312208D01*
X109412198Y-73307700D01*
X109355405Y-73250907D01*
X109321379Y-73188595D01*
X109318500Y-73161812D01*
X109318500Y-71663466D01*
X109341286Y-71591198D01*
X109459720Y-71422056D01*
X109470047Y-71399911D01*
X109546690Y-71235549D01*
X109546691Y-71235548D01*
X109549013Y-71230567D01*
X109603697Y-71026481D01*
X109622112Y-70816000D01*
X109603697Y-70605519D01*
X109584635Y-70534376D01*
X109550436Y-70406743D01*
X109550435Y-70406741D01*
X109549013Y-70401433D01*
X109546690Y-70396451D01*
X109462043Y-70214925D01*
X109462041Y-70214922D01*
X109459720Y-70209944D01*
X109338532Y-70036869D01*
X109189131Y-69887468D01*
X109016056Y-69766280D01*
X109016255Y-69765996D01*
X108969284Y-69716729D01*
X108955852Y-69647014D01*
X108982243Y-69581105D01*
X109040078Y-69539926D01*
X109081281Y-69532999D01*
X109153669Y-69532999D01*
X109160490Y-69532629D01*
X109211352Y-69527105D01*
X109226604Y-69523479D01*
X109347054Y-69478324D01*
X109362649Y-69469786D01*
X109464724Y-69393285D01*
X109477285Y-69380724D01*
X109553786Y-69278649D01*
X109562324Y-69263054D01*
X109607478Y-69142606D01*
X109611105Y-69127351D01*
X109616631Y-69076486D01*
X109617000Y-69069672D01*
X109617000Y-68598115D01*
X109612525Y-68582876D01*
X109611135Y-68581671D01*
X109603452Y-68580000D01*
X107221116Y-68580000D01*
X107205877Y-68584475D01*
X107204672Y-68585865D01*
X107203001Y-68593548D01*
X107203001Y-69069669D01*
X107203371Y-69076490D01*
X107208895Y-69127352D01*
X107212521Y-69142604D01*
X107257676Y-69263054D01*
X107266214Y-69278649D01*
X107342715Y-69380724D01*
X107355276Y-69393285D01*
X107457351Y-69469786D01*
X107472946Y-69478324D01*
X107593394Y-69523478D01*
X107608649Y-69527105D01*
X107659514Y-69532631D01*
X107666328Y-69533000D01*
X107738718Y-69533000D01*
X107806839Y-69553002D01*
X107853332Y-69606658D01*
X107863436Y-69676932D01*
X107833942Y-69741512D01*
X107803949Y-69766278D01*
X107803944Y-69766280D01*
X107630869Y-69887468D01*
X107481468Y-70036869D01*
X107360280Y-70209944D01*
X107357959Y-70214922D01*
X107357957Y-70214925D01*
X107273310Y-70396451D01*
X107270987Y-70401433D01*
X107269565Y-70406741D01*
X107269564Y-70406743D01*
X107235365Y-70534376D01*
X107216303Y-70605519D01*
X107197888Y-70816000D01*
X107216303Y-71026481D01*
X107270987Y-71230567D01*
X107273309Y-71235548D01*
X107273310Y-71235549D01*
X107349954Y-71399911D01*
X107360280Y-71422056D01*
X107478714Y-71591198D01*
X107501500Y-71663466D01*
X107501500Y-73153812D01*
X107481498Y-73221933D01*
X107464595Y-73242907D01*
X107399802Y-73307700D01*
X107396645Y-73312208D01*
X107396643Y-73312211D01*
X107385440Y-73328211D01*
X107268477Y-73495251D01*
X107266154Y-73500233D01*
X107266151Y-73500238D01*
X107229061Y-73579779D01*
X107171716Y-73702757D01*
X107170294Y-73708065D01*
X107170293Y-73708067D01*
X107140702Y-73818502D01*
X107112457Y-73923913D01*
X107092502Y-74152000D01*
X97282000Y-74152000D01*
X97282000Y-68331475D01*
X113898868Y-68331475D01*
X113916317Y-68530914D01*
X113918220Y-68541709D01*
X113970035Y-68735085D01*
X113973781Y-68745377D01*
X114058388Y-68926818D01*
X114063871Y-68936313D01*
X114085029Y-68966530D01*
X114095506Y-68974905D01*
X114108953Y-68967837D01*
X114737978Y-68338812D01*
X114744356Y-68327132D01*
X115474408Y-68327132D01*
X115474539Y-68328965D01*
X115478790Y-68335580D01*
X116111768Y-68968558D01*
X116123543Y-68974988D01*
X116135558Y-68965692D01*
X116156129Y-68936313D01*
X116161612Y-68926818D01*
X116246219Y-68745377D01*
X116249965Y-68735085D01*
X116301780Y-68541709D01*
X116303683Y-68530914D01*
X116321132Y-68331475D01*
X116321132Y-68320525D01*
X116303683Y-68121086D01*
X116301780Y-68110291D01*
X116249965Y-67916915D01*
X116246219Y-67906623D01*
X116161612Y-67725182D01*
X116156129Y-67715687D01*
X116134971Y-67685470D01*
X116124494Y-67677095D01*
X116111047Y-67684163D01*
X115482022Y-68313188D01*
X115474408Y-68327132D01*
X114744356Y-68327132D01*
X114745592Y-68324868D01*
X114745461Y-68323035D01*
X114741210Y-68316420D01*
X114108232Y-67683442D01*
X114096457Y-67677012D01*
X114084442Y-67686308D01*
X114063871Y-67715687D01*
X114058388Y-67725182D01*
X113973781Y-67906623D01*
X113970035Y-67916915D01*
X113918220Y-68110291D01*
X113916317Y-68121086D01*
X113898868Y-68320525D01*
X113898868Y-68331475D01*
X97282000Y-68331475D01*
X97282000Y-68053885D01*
X107203000Y-68053885D01*
X107207475Y-68069124D01*
X107208865Y-68070329D01*
X107216548Y-68072000D01*
X108137885Y-68072000D01*
X108153124Y-68067525D01*
X108154329Y-68066135D01*
X108156000Y-68058452D01*
X108156000Y-68053885D01*
X108664000Y-68053885D01*
X108668475Y-68069124D01*
X108669865Y-68070329D01*
X108677548Y-68072000D01*
X109598884Y-68072000D01*
X109614123Y-68067525D01*
X109615328Y-68066135D01*
X109616999Y-68058452D01*
X109616999Y-67582331D01*
X109616629Y-67575510D01*
X109611105Y-67524648D01*
X109607479Y-67509396D01*
X109562324Y-67388946D01*
X109553786Y-67373351D01*
X109507436Y-67311506D01*
X114461095Y-67311506D01*
X114468163Y-67324953D01*
X115097188Y-67953978D01*
X115111132Y-67961592D01*
X115112965Y-67961461D01*
X115119580Y-67957210D01*
X115752559Y-67324231D01*
X115758989Y-67312457D01*
X115749694Y-67300442D01*
X115720311Y-67279869D01*
X115710821Y-67274390D01*
X115529377Y-67189781D01*
X115519085Y-67186035D01*
X115325709Y-67134220D01*
X115314914Y-67132317D01*
X115115475Y-67114868D01*
X115104525Y-67114868D01*
X114905086Y-67132317D01*
X114894291Y-67134220D01*
X114700915Y-67186035D01*
X114690623Y-67189781D01*
X114509182Y-67274388D01*
X114499687Y-67279871D01*
X114469470Y-67301029D01*
X114461095Y-67311506D01*
X109507436Y-67311506D01*
X109477285Y-67271276D01*
X109464724Y-67258715D01*
X109362649Y-67182214D01*
X109347054Y-67173676D01*
X109226606Y-67128522D01*
X109211351Y-67124895D01*
X109160486Y-67119369D01*
X109153672Y-67119000D01*
X108682115Y-67119000D01*
X108666876Y-67123475D01*
X108665671Y-67124865D01*
X108664000Y-67132548D01*
X108664000Y-68053885D01*
X108156000Y-68053885D01*
X108156000Y-67137116D01*
X108151525Y-67121877D01*
X108150135Y-67120672D01*
X108142452Y-67119001D01*
X107666331Y-67119001D01*
X107659510Y-67119371D01*
X107608648Y-67124895D01*
X107593396Y-67128521D01*
X107472946Y-67173676D01*
X107457351Y-67182214D01*
X107355276Y-67258715D01*
X107342715Y-67271276D01*
X107266214Y-67373351D01*
X107257676Y-67388946D01*
X107212522Y-67509394D01*
X107208895Y-67524649D01*
X107203369Y-67575514D01*
X107203000Y-67582328D01*
X107203000Y-68053885D01*
X97282000Y-68053885D01*
X97282000Y-65303312D01*
X102833568Y-65303312D01*
X102850533Y-65597541D01*
X102851358Y-65601746D01*
X102851359Y-65601754D01*
X102877531Y-65735152D01*
X102907272Y-65886745D01*
X102908659Y-65890795D01*
X102908660Y-65890800D01*
X102962984Y-66049466D01*
X103002736Y-66165572D01*
X103004658Y-66169393D01*
X103004659Y-66169396D01*
X103045370Y-66250340D01*
X103135159Y-66428864D01*
X103172972Y-66483883D01*
X103283775Y-66645102D01*
X103302088Y-66671748D01*
X103500437Y-66889730D01*
X103503726Y-66892480D01*
X103723241Y-67076025D01*
X103723246Y-67076029D01*
X103726533Y-67078777D01*
X103812252Y-67132548D01*
X103972555Y-67233106D01*
X103972559Y-67233108D01*
X103976195Y-67235389D01*
X104244801Y-67356669D01*
X104248921Y-67357889D01*
X104248920Y-67357889D01*
X104523269Y-67439155D01*
X104523273Y-67439156D01*
X104527382Y-67440373D01*
X104531619Y-67441021D01*
X104531622Y-67441022D01*
X104781431Y-67479249D01*
X104818708Y-67484953D01*
X104968769Y-67487310D01*
X105109098Y-67489515D01*
X105109104Y-67489515D01*
X105113389Y-67489582D01*
X105117641Y-67489067D01*
X105117649Y-67489067D01*
X105344870Y-67461569D01*
X105405971Y-67454175D01*
X105410120Y-67453087D01*
X105410123Y-67453086D01*
X105686891Y-67380478D01*
X105691042Y-67379389D01*
X105963325Y-67266605D01*
X106122354Y-67173676D01*
X106214079Y-67120076D01*
X106214080Y-67120075D01*
X106217782Y-67117912D01*
X106449706Y-66936061D01*
X106457780Y-66927730D01*
X106632110Y-66747834D01*
X106654803Y-66724417D01*
X106657336Y-66720969D01*
X106657340Y-66720964D01*
X106826742Y-66490351D01*
X106829280Y-66486896D01*
X106854652Y-66440166D01*
X106967856Y-66231670D01*
X106967857Y-66231668D01*
X106969906Y-66227894D01*
X107069800Y-65963534D01*
X107072564Y-65956220D01*
X107072565Y-65956216D01*
X107074082Y-65952202D01*
X107139877Y-65664923D01*
X107141745Y-65644000D01*
X107165856Y-65373837D01*
X107166076Y-65371373D01*
X107166551Y-65326000D01*
X107164713Y-65299041D01*
X107146798Y-65036242D01*
X107146797Y-65036236D01*
X107146506Y-65031965D01*
X107139223Y-64996794D01*
X107087610Y-64747568D01*
X107086741Y-64743371D01*
X106998190Y-64493312D01*
X109593568Y-64493312D01*
X109610533Y-64787541D01*
X109611358Y-64791746D01*
X109611359Y-64791754D01*
X109626537Y-64869116D01*
X109667272Y-65076745D01*
X109668659Y-65080795D01*
X109668660Y-65080800D01*
X109751471Y-65322671D01*
X109762736Y-65355572D01*
X109895159Y-65618864D01*
X109935043Y-65676896D01*
X110040610Y-65830497D01*
X110062088Y-65861748D01*
X110064975Y-65864921D01*
X110064976Y-65864922D01*
X110084834Y-65886745D01*
X110260437Y-66079730D01*
X110263726Y-66082480D01*
X110483241Y-66266025D01*
X110483246Y-66266029D01*
X110486533Y-66268777D01*
X110544697Y-66305263D01*
X110732555Y-66423106D01*
X110732559Y-66423108D01*
X110736195Y-66425389D01*
X110740105Y-66427154D01*
X110740106Y-66427155D01*
X110768922Y-66440166D01*
X111004801Y-66546669D01*
X111073453Y-66567004D01*
X111283269Y-66629155D01*
X111283273Y-66629156D01*
X111287382Y-66630373D01*
X111291619Y-66631021D01*
X111291622Y-66631022D01*
X111534663Y-66668213D01*
X111578708Y-66674953D01*
X111728769Y-66677310D01*
X111869098Y-66679515D01*
X111869104Y-66679515D01*
X111873389Y-66679582D01*
X111877641Y-66679067D01*
X111877649Y-66679067D01*
X112104870Y-66651569D01*
X112165971Y-66644175D01*
X112170120Y-66643087D01*
X112170123Y-66643086D01*
X112446891Y-66570478D01*
X112451042Y-66569389D01*
X112723325Y-66456605D01*
X112977782Y-66307912D01*
X113209706Y-66126061D01*
X113414803Y-65914417D01*
X113417336Y-65910969D01*
X113417340Y-65910964D01*
X113586742Y-65680351D01*
X113589280Y-65676896D01*
X113607141Y-65644000D01*
X113727856Y-65421670D01*
X113727857Y-65421668D01*
X113729906Y-65417894D01*
X113773203Y-65303312D01*
X116353568Y-65303312D01*
X116370533Y-65597541D01*
X116371358Y-65601746D01*
X116371359Y-65601754D01*
X116397531Y-65735152D01*
X116427272Y-65886745D01*
X116428659Y-65890795D01*
X116428660Y-65890800D01*
X116482984Y-66049466D01*
X116522736Y-66165572D01*
X116524658Y-66169393D01*
X116524659Y-66169396D01*
X116565370Y-66250340D01*
X116655159Y-66428864D01*
X116692972Y-66483883D01*
X116803775Y-66645102D01*
X116822088Y-66671748D01*
X117020437Y-66889730D01*
X117023726Y-66892480D01*
X117243241Y-67076025D01*
X117243246Y-67076029D01*
X117246533Y-67078777D01*
X117332252Y-67132548D01*
X117492555Y-67233106D01*
X117492559Y-67233108D01*
X117496195Y-67235389D01*
X117764801Y-67356669D01*
X117768921Y-67357889D01*
X117768920Y-67357889D01*
X118043269Y-67439155D01*
X118043273Y-67439156D01*
X118047382Y-67440373D01*
X118051619Y-67441021D01*
X118051622Y-67441022D01*
X118301431Y-67479249D01*
X118338708Y-67484953D01*
X118488769Y-67487310D01*
X118629098Y-67489515D01*
X118629104Y-67489515D01*
X118633389Y-67489582D01*
X118637641Y-67489067D01*
X118637649Y-67489067D01*
X118864870Y-67461569D01*
X118925971Y-67454175D01*
X118930120Y-67453087D01*
X118930123Y-67453086D01*
X119206891Y-67380478D01*
X119211042Y-67379389D01*
X119483325Y-67266605D01*
X119642354Y-67173676D01*
X119734079Y-67120076D01*
X119734080Y-67120075D01*
X119737782Y-67117912D01*
X119969706Y-66936061D01*
X119977780Y-66927730D01*
X120152110Y-66747834D01*
X120174803Y-66724417D01*
X120177336Y-66720969D01*
X120177340Y-66720964D01*
X120346742Y-66490351D01*
X120349280Y-66486896D01*
X120374652Y-66440166D01*
X120487856Y-66231670D01*
X120487857Y-66231668D01*
X120489906Y-66227894D01*
X120589800Y-65963534D01*
X120592564Y-65956220D01*
X120592565Y-65956216D01*
X120594082Y-65952202D01*
X120659877Y-65664923D01*
X120661745Y-65644000D01*
X120685856Y-65373837D01*
X120686076Y-65371373D01*
X120686551Y-65326000D01*
X120684713Y-65299041D01*
X120666798Y-65036242D01*
X120666797Y-65036236D01*
X120666506Y-65031965D01*
X120659223Y-64996794D01*
X120607610Y-64747568D01*
X120606741Y-64743371D01*
X120508362Y-64465559D01*
X120373190Y-64203668D01*
X120370264Y-64199504D01*
X120263489Y-64047579D01*
X120203726Y-63962545D01*
X120003106Y-63746652D01*
X119775042Y-63559984D01*
X119523754Y-63405995D01*
X119519818Y-63404267D01*
X119257821Y-63289258D01*
X119257818Y-63289257D01*
X119253893Y-63287534D01*
X118970451Y-63206793D01*
X118966209Y-63206189D01*
X118966203Y-63206188D01*
X118682925Y-63165872D01*
X118678674Y-63165267D01*
X118523275Y-63164453D01*
X118388247Y-63163746D01*
X118388241Y-63163746D01*
X118383961Y-63163724D01*
X118379716Y-63164283D01*
X118379714Y-63164283D01*
X118313683Y-63172976D01*
X118091765Y-63202193D01*
X117807494Y-63279960D01*
X117803546Y-63281644D01*
X117540358Y-63393903D01*
X117540354Y-63393905D01*
X117536406Y-63395589D01*
X117491042Y-63422739D01*
X117287202Y-63544734D01*
X117287198Y-63544737D01*
X117283520Y-63546938D01*
X117280177Y-63549616D01*
X117280173Y-63549619D01*
X117252126Y-63572089D01*
X117053514Y-63731208D01*
X117050570Y-63734310D01*
X117050566Y-63734314D01*
X117011825Y-63775139D01*
X116850644Y-63944988D01*
X116678664Y-64184323D01*
X116540757Y-64444784D01*
X116439475Y-64721552D01*
X116376691Y-65009504D01*
X116376355Y-65013774D01*
X116366248Y-65142202D01*
X116353568Y-65303312D01*
X113773203Y-65303312D01*
X113828810Y-65156155D01*
X113832564Y-65146220D01*
X113832565Y-65146216D01*
X113834082Y-65142202D01*
X113882527Y-64930680D01*
X113898919Y-64859107D01*
X113898920Y-64859103D01*
X113899877Y-64854923D01*
X113906274Y-64783254D01*
X113925856Y-64563837D01*
X113926076Y-64561373D01*
X113926119Y-64557316D01*
X113926525Y-64518485D01*
X113926551Y-64516000D01*
X113923388Y-64469600D01*
X113906798Y-64226242D01*
X113906797Y-64226236D01*
X113906506Y-64221965D01*
X113846741Y-63933371D01*
X113748362Y-63655559D01*
X113613190Y-63393668D01*
X113576014Y-63340771D01*
X113478619Y-63202193D01*
X113443726Y-63152545D01*
X113326968Y-63026898D01*
X113307517Y-63005966D01*
X122112257Y-63005966D01*
X122142565Y-63140446D01*
X122145645Y-63150275D01*
X122225770Y-63347603D01*
X122230413Y-63356794D01*
X122341694Y-63538388D01*
X122347777Y-63546699D01*
X122487213Y-63707667D01*
X122494580Y-63714883D01*
X122658434Y-63850916D01*
X122666881Y-63856831D01*
X122850756Y-63964279D01*
X122860042Y-63968729D01*
X123059001Y-64044703D01*
X123068899Y-64047579D01*
X123172250Y-64068606D01*
X123186299Y-64067410D01*
X123190000Y-64057065D01*
X123190000Y-64056517D01*
X123698000Y-64056517D01*
X123702064Y-64070359D01*
X123715478Y-64072393D01*
X123722184Y-64071534D01*
X123732262Y-64069392D01*
X123936255Y-64008191D01*
X123945842Y-64004433D01*
X124137095Y-63910739D01*
X124145945Y-63905464D01*
X124319328Y-63781792D01*
X124327200Y-63775139D01*
X124432286Y-63670418D01*
X124494657Y-63636501D01*
X124565464Y-63641689D01*
X124622226Y-63684335D01*
X124639208Y-63715439D01*
X124680675Y-63826052D01*
X124689214Y-63841649D01*
X124765715Y-63943724D01*
X124778276Y-63956285D01*
X124880351Y-64032786D01*
X124895946Y-64041324D01*
X125016394Y-64086478D01*
X125031649Y-64090105D01*
X125082514Y-64095631D01*
X125089328Y-64096000D01*
X125711885Y-64096000D01*
X125727124Y-64091525D01*
X125728329Y-64090135D01*
X125730000Y-64082452D01*
X125730000Y-64077884D01*
X126238000Y-64077884D01*
X126242475Y-64093123D01*
X126243865Y-64094328D01*
X126251548Y-64095999D01*
X126878669Y-64095999D01*
X126885490Y-64095629D01*
X126936352Y-64090105D01*
X126951604Y-64086479D01*
X127072054Y-64041324D01*
X127087649Y-64032786D01*
X127189724Y-63956285D01*
X127202285Y-63943724D01*
X127278786Y-63841649D01*
X127287324Y-63826054D01*
X127332478Y-63705606D01*
X127336105Y-63690351D01*
X127341631Y-63639486D01*
X127342000Y-63632672D01*
X127342000Y-63010115D01*
X127337525Y-62994876D01*
X127336135Y-62993671D01*
X127328452Y-62992000D01*
X126256115Y-62992000D01*
X126240876Y-62996475D01*
X126239671Y-62997865D01*
X126238000Y-63005548D01*
X126238000Y-64077884D01*
X125730000Y-64077884D01*
X125730000Y-63010115D01*
X125725525Y-62994876D01*
X125724135Y-62993671D01*
X125716452Y-62992000D01*
X123716115Y-62992000D01*
X123700876Y-62996475D01*
X123699671Y-62997865D01*
X123698000Y-63005548D01*
X123698000Y-64056517D01*
X123190000Y-64056517D01*
X123190000Y-63010115D01*
X123185525Y-62994876D01*
X123184135Y-62993671D01*
X123176452Y-62992000D01*
X122127225Y-62992000D01*
X122113694Y-62995973D01*
X122112257Y-63005966D01*
X113307517Y-63005966D01*
X113246027Y-62939795D01*
X113246024Y-62939792D01*
X113243106Y-62936652D01*
X113015042Y-62749984D01*
X112792184Y-62613417D01*
X112767416Y-62598239D01*
X112767415Y-62598239D01*
X112763754Y-62595995D01*
X112759818Y-62594267D01*
X112497821Y-62479258D01*
X112497818Y-62479257D01*
X112493893Y-62477534D01*
X112475108Y-62472183D01*
X122108389Y-62472183D01*
X122109912Y-62480607D01*
X122122292Y-62484000D01*
X123171885Y-62484000D01*
X123187124Y-62479525D01*
X123188329Y-62478135D01*
X123190000Y-62470452D01*
X123190000Y-62465885D01*
X123698000Y-62465885D01*
X123702475Y-62481124D01*
X123703865Y-62482329D01*
X123711548Y-62484000D01*
X125711885Y-62484000D01*
X125727124Y-62479525D01*
X125728329Y-62478135D01*
X125730000Y-62470452D01*
X125730000Y-62465885D01*
X126238000Y-62465885D01*
X126242475Y-62481124D01*
X126243865Y-62482329D01*
X126251548Y-62484000D01*
X127323884Y-62484000D01*
X127339123Y-62479525D01*
X127340328Y-62478135D01*
X127341999Y-62470452D01*
X127341999Y-61843331D01*
X127341629Y-61836510D01*
X127336105Y-61785648D01*
X127332479Y-61770396D01*
X127287324Y-61649946D01*
X127278786Y-61634351D01*
X127202285Y-61532276D01*
X127189724Y-61519715D01*
X127087649Y-61443214D01*
X127072054Y-61434676D01*
X126951606Y-61389522D01*
X126936351Y-61385895D01*
X126885486Y-61380369D01*
X126878672Y-61380000D01*
X126256115Y-61380000D01*
X126240876Y-61384475D01*
X126239671Y-61385865D01*
X126238000Y-61393548D01*
X126238000Y-62465885D01*
X125730000Y-62465885D01*
X125730000Y-61398116D01*
X125725525Y-61382877D01*
X125724135Y-61381672D01*
X125716452Y-61380001D01*
X125089331Y-61380001D01*
X125082510Y-61380371D01*
X125031648Y-61385895D01*
X125016396Y-61389521D01*
X124895946Y-61434676D01*
X124880351Y-61443214D01*
X124778276Y-61519715D01*
X124765715Y-61532276D01*
X124689214Y-61634351D01*
X124680676Y-61649946D01*
X124639100Y-61760849D01*
X124596458Y-61817613D01*
X124529897Y-61842313D01*
X124460548Y-61827105D01*
X124427925Y-61801419D01*
X124376806Y-61745240D01*
X124369273Y-61738215D01*
X124202139Y-61606222D01*
X124193552Y-61600517D01*
X124007117Y-61497599D01*
X123997705Y-61493369D01*
X123796959Y-61422280D01*
X123786988Y-61419646D01*
X123715837Y-61406972D01*
X123702540Y-61408432D01*
X123698000Y-61422989D01*
X123698000Y-62465885D01*
X123190000Y-62465885D01*
X123190000Y-61421102D01*
X123186082Y-61407758D01*
X123171806Y-61405771D01*
X123133324Y-61411660D01*
X123123288Y-61414051D01*
X122920868Y-61480212D01*
X122911359Y-61484209D01*
X122722463Y-61582542D01*
X122713738Y-61588036D01*
X122543433Y-61715905D01*
X122535726Y-61722748D01*
X122388590Y-61876717D01*
X122382104Y-61884727D01*
X122262098Y-62060649D01*
X122257000Y-62069623D01*
X122167338Y-62262783D01*
X122163775Y-62272470D01*
X122108389Y-62472183D01*
X112475108Y-62472183D01*
X112210451Y-62396793D01*
X112206209Y-62396189D01*
X112206203Y-62396188D01*
X111922925Y-62355872D01*
X111918674Y-62355267D01*
X111763275Y-62354453D01*
X111628247Y-62353746D01*
X111628241Y-62353746D01*
X111623961Y-62353724D01*
X111619716Y-62354283D01*
X111619714Y-62354283D01*
X111553683Y-62362976D01*
X111331765Y-62392193D01*
X111047494Y-62469960D01*
X111021339Y-62481116D01*
X110780358Y-62583903D01*
X110780354Y-62583905D01*
X110776406Y-62585589D01*
X110683094Y-62641435D01*
X110527202Y-62734734D01*
X110527198Y-62734737D01*
X110523520Y-62736938D01*
X110520177Y-62739616D01*
X110520173Y-62739619D01*
X110407809Y-62829640D01*
X110293514Y-62921208D01*
X110290570Y-62924310D01*
X110290566Y-62924314D01*
X110209144Y-63010115D01*
X110090644Y-63134988D01*
X109918664Y-63374323D01*
X109916655Y-63378118D01*
X109916654Y-63378119D01*
X109900706Y-63408239D01*
X109780757Y-63634784D01*
X109679475Y-63911552D01*
X109616691Y-64199504D01*
X109593568Y-64493312D01*
X106998190Y-64493312D01*
X106988362Y-64465559D01*
X106853190Y-64203668D01*
X106850264Y-64199504D01*
X106743489Y-64047579D01*
X106683726Y-63962545D01*
X106483106Y-63746652D01*
X106255042Y-63559984D01*
X106003754Y-63405995D01*
X105999818Y-63404267D01*
X105737821Y-63289258D01*
X105737818Y-63289257D01*
X105733893Y-63287534D01*
X105450451Y-63206793D01*
X105446209Y-63206189D01*
X105446203Y-63206188D01*
X105162925Y-63165872D01*
X105158674Y-63165267D01*
X105003275Y-63164453D01*
X104868247Y-63163746D01*
X104868241Y-63163746D01*
X104863961Y-63163724D01*
X104859716Y-63164283D01*
X104859714Y-63164283D01*
X104793683Y-63172976D01*
X104571765Y-63202193D01*
X104287494Y-63279960D01*
X104283546Y-63281644D01*
X104020358Y-63393903D01*
X104020354Y-63393905D01*
X104016406Y-63395589D01*
X103971042Y-63422739D01*
X103767202Y-63544734D01*
X103767198Y-63544737D01*
X103763520Y-63546938D01*
X103760177Y-63549616D01*
X103760173Y-63549619D01*
X103732126Y-63572089D01*
X103533514Y-63731208D01*
X103530570Y-63734310D01*
X103530566Y-63734314D01*
X103491825Y-63775139D01*
X103330644Y-63944988D01*
X103158664Y-64184323D01*
X103020757Y-64444784D01*
X102919475Y-64721552D01*
X102856691Y-65009504D01*
X102856355Y-65013774D01*
X102846248Y-65142202D01*
X102833568Y-65303312D01*
X97282000Y-65303312D01*
X97282000Y-60324000D01*
X97302002Y-60255879D01*
X97355658Y-60209386D01*
X97408000Y-60198000D01*
X136034533Y-60198000D01*
X136102654Y-60218002D01*
G37*
G04 #@! TD.AperFunction*
G04 #@! TA.AperFunction,Conductor*
G36*
X101118523Y-94529790D02*
G01*
X101125106Y-94535919D01*
X104879671Y-98290484D01*
X104913697Y-98352796D01*
X104908632Y-98423611D01*
X104866085Y-98480447D01*
X104829722Y-98499344D01*
X104793434Y-98511205D01*
X104627756Y-98565357D01*
X104429607Y-98668507D01*
X104425474Y-98671610D01*
X104425471Y-98671612D01*
X104255100Y-98799530D01*
X104250965Y-98802635D01*
X104225541Y-98829240D01*
X104157280Y-98900671D01*
X104096629Y-98964138D01*
X103970743Y-99148680D01*
X103876688Y-99351305D01*
X103816989Y-99566570D01*
X103793251Y-99788695D01*
X103806110Y-100011715D01*
X103807247Y-100016761D01*
X103807248Y-100016767D01*
X103821726Y-100081008D01*
X103855222Y-100229639D01*
X103887723Y-100309680D01*
X103935806Y-100428094D01*
X103939266Y-100436616D01*
X103976685Y-100497678D01*
X104053291Y-100622688D01*
X104055987Y-100627088D01*
X104202250Y-100795938D01*
X104374126Y-100938632D01*
X104567000Y-101051338D01*
X104775692Y-101131030D01*
X104780760Y-101132061D01*
X104780763Y-101132062D01*
X104875862Y-101151410D01*
X104994597Y-101175567D01*
X104999772Y-101175757D01*
X104999774Y-101175757D01*
X105212673Y-101183564D01*
X105212677Y-101183564D01*
X105217837Y-101183753D01*
X105222957Y-101183097D01*
X105222959Y-101183097D01*
X105434288Y-101156025D01*
X105434289Y-101156025D01*
X105439416Y-101155368D01*
X105444366Y-101153883D01*
X105648429Y-101092661D01*
X105648434Y-101092659D01*
X105653384Y-101091174D01*
X105853994Y-100992896D01*
X106035860Y-100863173D01*
X106056345Y-100842760D01*
X106134888Y-100764490D01*
X106194096Y-100705489D01*
X106198444Y-100699439D01*
X106324453Y-100524077D01*
X106325776Y-100525028D01*
X106372645Y-100481857D01*
X106442580Y-100469625D01*
X106508026Y-100497144D01*
X106535875Y-100528994D01*
X106595987Y-100627088D01*
X106742250Y-100795938D01*
X106914126Y-100938632D01*
X107107000Y-101051338D01*
X107315692Y-101131030D01*
X107320760Y-101132061D01*
X107320763Y-101132062D01*
X107415862Y-101151410D01*
X107534597Y-101175567D01*
X107539772Y-101175757D01*
X107539774Y-101175757D01*
X107752673Y-101183564D01*
X107752677Y-101183564D01*
X107757837Y-101183753D01*
X107762957Y-101183097D01*
X107762959Y-101183097D01*
X107974288Y-101156025D01*
X107974289Y-101156025D01*
X107979416Y-101155368D01*
X107984366Y-101153883D01*
X108188429Y-101092661D01*
X108188434Y-101092659D01*
X108193384Y-101091174D01*
X108393994Y-100992896D01*
X108575860Y-100863173D01*
X108596345Y-100842760D01*
X108674888Y-100764490D01*
X108734096Y-100705489D01*
X108738444Y-100699439D01*
X108864453Y-100524077D01*
X108865776Y-100525028D01*
X108912645Y-100481857D01*
X108982580Y-100469625D01*
X109048026Y-100497144D01*
X109075875Y-100528994D01*
X109135987Y-100627088D01*
X109139365Y-100630988D01*
X109139366Y-100630989D01*
X109189209Y-100688529D01*
X109218691Y-100753114D01*
X109208576Y-100823386D01*
X109183066Y-100860121D01*
X108626592Y-101416595D01*
X108564280Y-101450621D01*
X108537497Y-101453500D01*
X102282503Y-101453500D01*
X102214382Y-101433498D01*
X102193408Y-101416595D01*
X100946916Y-100170103D01*
X100912890Y-100107791D01*
X100910011Y-100081008D01*
X100910011Y-94625014D01*
X100930013Y-94556893D01*
X100983669Y-94510400D01*
X101053943Y-94500296D01*
X101118523Y-94529790D01*
G37*
G04 #@! TD.AperFunction*
M02*
