G04 #@! TF.GenerationSoftware,KiCad,Pcbnew,(5.1.6)-1*
G04 #@! TF.CreationDate,2021-03-05T11:33:03+01:00*
G04 #@! TF.ProjectId,rfreplacement,72667265-706c-4616-9365-6d656e742e6b,rev?*
G04 #@! TF.SameCoordinates,Original*
G04 #@! TF.FileFunction,Copper,L2,Bot*
G04 #@! TF.FilePolarity,Positive*
%FSLAX46Y46*%
G04 Gerber Fmt 4.6, Leading zero omitted, Abs format (unit mm)*
G04 Created by KiCad (PCBNEW (5.1.6)-1) date 2021-03-05 11:33:03*
%MOMM*%
%LPD*%
G01*
G04 APERTURE LIST*
G04 #@! TA.AperFunction,ComponentPad*
%ADD10O,2.200000X4.000000*%
G04 #@! TD*
G04 #@! TA.AperFunction,ComponentPad*
%ADD11O,4.000000X2.200000*%
G04 #@! TD*
G04 #@! TA.AperFunction,ComponentPad*
%ADD12R,4.000000X2.200000*%
G04 #@! TD*
G04 #@! TA.AperFunction,ComponentPad*
%ADD13C,3.306000*%
G04 #@! TD*
G04 #@! TA.AperFunction,ComponentPad*
%ADD14C,1.398000*%
G04 #@! TD*
G04 #@! TA.AperFunction,ComponentPad*
%ADD15R,1.398000X1.398000*%
G04 #@! TD*
G04 #@! TA.AperFunction,ComponentPad*
%ADD16O,1.700000X1.700000*%
G04 #@! TD*
G04 #@! TA.AperFunction,ComponentPad*
%ADD17R,1.700000X1.700000*%
G04 #@! TD*
G04 #@! TA.AperFunction,ViaPad*
%ADD18C,1.200000*%
G04 #@! TD*
G04 #@! TA.AperFunction,Conductor*
%ADD19C,0.800000*%
G04 #@! TD*
G04 #@! TA.AperFunction,Conductor*
%ADD20C,0.254000*%
G04 #@! TD*
G04 APERTURE END LIST*
D10*
X146050000Y-96012000D03*
D11*
X138050000Y-101212000D03*
X139250000Y-98512000D03*
D10*
X134850000Y-91912000D03*
D12*
X142150000Y-91412000D03*
D13*
X142446000Y-63344000D03*
X142446000Y-76864000D03*
X143256000Y-70104000D03*
D14*
X136956000Y-73454000D03*
X139446000Y-73454000D03*
X136956000Y-66754000D03*
D15*
X139446000Y-66754000D03*
D16*
X125222000Y-56896000D03*
D17*
X122682000Y-56896000D03*
D16*
X125222000Y-109220000D03*
D17*
X122682000Y-109220000D03*
D16*
X144780000Y-81788000D03*
D17*
X144780000Y-84328000D03*
D16*
X107950000Y-80518000D03*
X107950000Y-83058000D03*
D17*
X107950000Y-85598000D03*
D16*
X107950000Y-94996000D03*
X107950000Y-97536000D03*
X107950000Y-100076000D03*
D17*
X107950000Y-102616000D03*
X107950000Y-71120000D03*
D16*
X107950000Y-68580000D03*
X107950000Y-66040000D03*
X107950000Y-63500000D03*
D18*
X116332000Y-68961000D03*
X119126000Y-60706000D03*
X114300000Y-72898000D03*
X119380000Y-83566000D03*
X122047000Y-68326000D03*
X114300000Y-63246000D03*
X114427000Y-78486000D03*
X123317000Y-70231000D03*
X120650000Y-106934000D03*
D19*
X116332000Y-68961000D02*
X117729000Y-67564000D01*
X117729000Y-62103000D02*
X119126000Y-60706000D01*
X117729000Y-67564000D02*
X117729000Y-62103000D01*
X119380000Y-82717472D02*
X119380000Y-83566000D01*
X119380000Y-77978000D02*
X119380000Y-82717472D01*
X114300000Y-72898000D02*
X119380000Y-77978000D01*
X119380000Y-70993000D02*
X121447001Y-68925999D01*
X121447001Y-68925999D02*
X122047000Y-68326000D01*
X119380000Y-77978000D02*
X119380000Y-70993000D01*
X129707999Y-59505999D02*
X136956000Y-66754000D01*
X118040001Y-59505999D02*
X129707999Y-59505999D01*
X114300000Y-63246000D02*
X118040001Y-59505999D01*
X107951998Y-80518000D02*
X107950000Y-80518000D01*
X135350000Y-91412000D02*
X134850000Y-91912000D01*
X142150000Y-91412000D02*
X135350000Y-91412000D01*
X107950000Y-80518000D02*
X109220000Y-80518000D01*
X120614000Y-91912000D02*
X134850000Y-91912000D01*
X109220000Y-80518000D02*
X120614000Y-91912000D01*
X108190002Y-83058000D02*
X107950000Y-83058000D01*
X130556000Y-96012000D02*
X146050000Y-96012000D01*
X127456010Y-92912010D02*
X130556000Y-96012000D01*
X110345774Y-83058000D02*
X120199783Y-92912010D01*
X120199783Y-92912010D02*
X127456010Y-92912010D01*
X107950000Y-83058000D02*
X110345774Y-83058000D01*
X139250000Y-100012000D02*
X138050000Y-101212000D01*
X139250000Y-98512000D02*
X139250000Y-100012000D01*
X107950000Y-85598000D02*
X111471548Y-85598000D01*
X119853548Y-93980000D02*
X127109774Y-93980000D01*
X111471548Y-85598000D02*
X119853548Y-93980000D01*
X134341774Y-101212000D02*
X138050000Y-101212000D01*
X127109774Y-93980000D02*
X134341774Y-101212000D01*
D20*
G36*
X121206188Y-55921518D02*
G01*
X121193928Y-56046000D01*
X121197000Y-56610250D01*
X121355750Y-56769000D01*
X122555000Y-56769000D01*
X122555000Y-56749000D01*
X122809000Y-56749000D01*
X122809000Y-56769000D01*
X125095000Y-56769000D01*
X125095000Y-56749000D01*
X125349000Y-56749000D01*
X125349000Y-56769000D01*
X126542814Y-56769000D01*
X126663481Y-56539109D01*
X126566157Y-56264748D01*
X126417178Y-56014645D01*
X126226405Y-55803000D01*
X147397000Y-55803000D01*
X147397001Y-94018430D01*
X147282766Y-93879234D01*
X147018578Y-93662421D01*
X146717168Y-93501314D01*
X146390119Y-93402105D01*
X146050000Y-93368606D01*
X145709882Y-93402105D01*
X145382833Y-93501314D01*
X145081423Y-93662421D01*
X144817235Y-93879234D01*
X144600422Y-94143422D01*
X144439315Y-94444832D01*
X144340106Y-94771881D01*
X144319903Y-94977000D01*
X130984711Y-94977000D01*
X128954710Y-92947000D01*
X133119903Y-92947000D01*
X133140105Y-93152118D01*
X133239314Y-93479167D01*
X133400421Y-93780577D01*
X133617234Y-94044766D01*
X133881422Y-94261579D01*
X134182832Y-94422686D01*
X134509881Y-94521895D01*
X134850000Y-94555394D01*
X135190118Y-94521895D01*
X135517167Y-94422686D01*
X135818577Y-94261579D01*
X136082766Y-94044766D01*
X136299579Y-93780578D01*
X136460686Y-93479168D01*
X136559895Y-93152119D01*
X136585000Y-92897225D01*
X136585000Y-92447000D01*
X139511928Y-92447000D01*
X139511928Y-92512000D01*
X139524188Y-92636482D01*
X139560498Y-92756180D01*
X139619463Y-92866494D01*
X139698815Y-92963185D01*
X139795506Y-93042537D01*
X139905820Y-93101502D01*
X140025518Y-93137812D01*
X140150000Y-93150072D01*
X144150000Y-93150072D01*
X144274482Y-93137812D01*
X144394180Y-93101502D01*
X144504494Y-93042537D01*
X144601185Y-92963185D01*
X144680537Y-92866494D01*
X144739502Y-92756180D01*
X144775812Y-92636482D01*
X144788072Y-92512000D01*
X144788072Y-90312000D01*
X144775812Y-90187518D01*
X144739502Y-90067820D01*
X144680537Y-89957506D01*
X144601185Y-89860815D01*
X144504494Y-89781463D01*
X144394180Y-89722498D01*
X144274482Y-89686188D01*
X144150000Y-89673928D01*
X140150000Y-89673928D01*
X140025518Y-89686188D01*
X139905820Y-89722498D01*
X139795506Y-89781463D01*
X139698815Y-89860815D01*
X139619463Y-89957506D01*
X139560498Y-90067820D01*
X139524188Y-90187518D01*
X139511928Y-90312000D01*
X139511928Y-90377000D01*
X136470444Y-90377000D01*
X136460686Y-90344832D01*
X136299579Y-90043422D01*
X136082766Y-89779234D01*
X135818578Y-89562421D01*
X135517168Y-89401314D01*
X135190119Y-89302105D01*
X134850000Y-89268606D01*
X134509882Y-89302105D01*
X134182833Y-89401314D01*
X133881423Y-89562421D01*
X133617235Y-89779234D01*
X133400422Y-90043422D01*
X133239315Y-90344832D01*
X133140106Y-90671881D01*
X133119903Y-90877000D01*
X121042711Y-90877000D01*
X115343711Y-85178000D01*
X143291928Y-85178000D01*
X143304188Y-85302482D01*
X143340498Y-85422180D01*
X143399463Y-85532494D01*
X143478815Y-85629185D01*
X143575506Y-85708537D01*
X143685820Y-85767502D01*
X143805518Y-85803812D01*
X143930000Y-85816072D01*
X144494250Y-85813000D01*
X144653000Y-85654250D01*
X144653000Y-84455000D01*
X144907000Y-84455000D01*
X144907000Y-85654250D01*
X145065750Y-85813000D01*
X145630000Y-85816072D01*
X145754482Y-85803812D01*
X145874180Y-85767502D01*
X145984494Y-85708537D01*
X146081185Y-85629185D01*
X146160537Y-85532494D01*
X146219502Y-85422180D01*
X146255812Y-85302482D01*
X146268072Y-85178000D01*
X146265000Y-84613750D01*
X146106250Y-84455000D01*
X144907000Y-84455000D01*
X144653000Y-84455000D01*
X143453750Y-84455000D01*
X143295000Y-84613750D01*
X143291928Y-85178000D01*
X115343711Y-85178000D01*
X109987807Y-79822097D01*
X109955396Y-79782604D01*
X109797797Y-79653266D01*
X109617993Y-79557159D01*
X109422895Y-79497976D01*
X109270838Y-79483000D01*
X109270828Y-79483000D01*
X109220000Y-79477994D01*
X109169172Y-79483000D01*
X109015107Y-79483000D01*
X108896632Y-79364525D01*
X108653411Y-79202010D01*
X108383158Y-79090068D01*
X108096260Y-79033000D01*
X107803740Y-79033000D01*
X107516842Y-79090068D01*
X107246589Y-79202010D01*
X107003368Y-79364525D01*
X106796525Y-79571368D01*
X106634010Y-79814589D01*
X106522068Y-80084842D01*
X106465000Y-80371740D01*
X106465000Y-80664260D01*
X106522068Y-80951158D01*
X106634010Y-81221411D01*
X106796525Y-81464632D01*
X107003368Y-81671475D01*
X107177760Y-81788000D01*
X107003368Y-81904525D01*
X106796525Y-82111368D01*
X106634010Y-82354589D01*
X106522068Y-82624842D01*
X106465000Y-82911740D01*
X106465000Y-83204260D01*
X106522068Y-83491158D01*
X106634010Y-83761411D01*
X106796525Y-84004632D01*
X106928380Y-84136487D01*
X106855820Y-84158498D01*
X106745506Y-84217463D01*
X106648815Y-84296815D01*
X106569463Y-84393506D01*
X106510498Y-84503820D01*
X106474188Y-84623518D01*
X106461928Y-84748000D01*
X106461928Y-86448000D01*
X106474188Y-86572482D01*
X106510498Y-86692180D01*
X106569463Y-86802494D01*
X106648815Y-86899185D01*
X106745506Y-86978537D01*
X106855820Y-87037502D01*
X106975518Y-87073812D01*
X107100000Y-87086072D01*
X108800000Y-87086072D01*
X108924482Y-87073812D01*
X109044180Y-87037502D01*
X109154494Y-86978537D01*
X109251185Y-86899185D01*
X109330537Y-86802494D01*
X109389502Y-86692180D01*
X109407454Y-86633000D01*
X111042838Y-86633000D01*
X119085744Y-94675907D01*
X119118152Y-94715396D01*
X119157640Y-94747803D01*
X119275750Y-94844734D01*
X119371857Y-94896104D01*
X119455555Y-94940841D01*
X119650653Y-95000024D01*
X119802710Y-95015000D01*
X119802719Y-95015000D01*
X119853547Y-95020006D01*
X119904375Y-95015000D01*
X126681064Y-95015000D01*
X133573971Y-101907908D01*
X133606378Y-101947396D01*
X133763977Y-102076734D01*
X133943781Y-102172841D01*
X134138879Y-102232024D01*
X134290936Y-102247000D01*
X134290945Y-102247000D01*
X134341773Y-102252006D01*
X134392601Y-102247000D01*
X135754932Y-102247000D01*
X135917234Y-102444766D01*
X136181422Y-102661579D01*
X136482832Y-102822686D01*
X136809881Y-102921895D01*
X137064775Y-102947000D01*
X139035225Y-102947000D01*
X139290119Y-102921895D01*
X139617168Y-102822686D01*
X139918578Y-102661579D01*
X140182766Y-102444766D01*
X140399579Y-102180578D01*
X140560686Y-101879168D01*
X140659895Y-101552119D01*
X140693394Y-101212000D01*
X140659895Y-100871881D01*
X140560686Y-100544832D01*
X140399579Y-100243422D01*
X140390005Y-100231755D01*
X140490119Y-100221895D01*
X140817168Y-100122686D01*
X141118578Y-99961579D01*
X141382766Y-99744766D01*
X141599579Y-99480578D01*
X141760686Y-99179168D01*
X141859895Y-98852119D01*
X141893394Y-98512000D01*
X141859895Y-98171881D01*
X141760686Y-97844832D01*
X141599579Y-97543422D01*
X141382766Y-97279234D01*
X141118578Y-97062421D01*
X141089727Y-97047000D01*
X144319903Y-97047000D01*
X144340105Y-97252118D01*
X144439314Y-97579167D01*
X144600421Y-97880577D01*
X144817234Y-98144766D01*
X145081422Y-98361579D01*
X145382832Y-98522686D01*
X145709881Y-98621895D01*
X146050000Y-98655394D01*
X146390118Y-98621895D01*
X146717167Y-98522686D01*
X147018577Y-98361579D01*
X147282766Y-98144766D01*
X147397001Y-98005570D01*
X147397001Y-110313000D01*
X126226405Y-110313000D01*
X126417178Y-110101355D01*
X126566157Y-109851252D01*
X126663481Y-109576891D01*
X126542814Y-109347000D01*
X125349000Y-109347000D01*
X125349000Y-109367000D01*
X125095000Y-109367000D01*
X125095000Y-109347000D01*
X122809000Y-109347000D01*
X122809000Y-109367000D01*
X122555000Y-109367000D01*
X122555000Y-109347000D01*
X121355750Y-109347000D01*
X121197000Y-109505750D01*
X121193928Y-110070000D01*
X121206188Y-110194482D01*
X121242140Y-110313000D01*
X104825000Y-110313000D01*
X104825000Y-108370000D01*
X121193928Y-108370000D01*
X121197000Y-108934250D01*
X121355750Y-109093000D01*
X122555000Y-109093000D01*
X122555000Y-107893750D01*
X122809000Y-107893750D01*
X122809000Y-109093000D01*
X125095000Y-109093000D01*
X125095000Y-107899845D01*
X125349000Y-107899845D01*
X125349000Y-109093000D01*
X126542814Y-109093000D01*
X126663481Y-108863109D01*
X126566157Y-108588748D01*
X126417178Y-108338645D01*
X126222269Y-108122412D01*
X125988920Y-107948359D01*
X125726099Y-107823175D01*
X125578890Y-107778524D01*
X125349000Y-107899845D01*
X125095000Y-107899845D01*
X124865110Y-107778524D01*
X124717901Y-107823175D01*
X124455080Y-107948359D01*
X124221731Y-108122412D01*
X124145966Y-108206466D01*
X124121502Y-108125820D01*
X124062537Y-108015506D01*
X123983185Y-107918815D01*
X123886494Y-107839463D01*
X123776180Y-107780498D01*
X123656482Y-107744188D01*
X123532000Y-107731928D01*
X122967750Y-107735000D01*
X122809000Y-107893750D01*
X122555000Y-107893750D01*
X122396250Y-107735000D01*
X121832000Y-107731928D01*
X121707518Y-107744188D01*
X121587820Y-107780498D01*
X121477506Y-107839463D01*
X121380815Y-107918815D01*
X121301463Y-108015506D01*
X121242498Y-108125820D01*
X121206188Y-108245518D01*
X121193928Y-108370000D01*
X104825000Y-108370000D01*
X104825000Y-101766000D01*
X106461928Y-101766000D01*
X106461928Y-103466000D01*
X106474188Y-103590482D01*
X106510498Y-103710180D01*
X106569463Y-103820494D01*
X106648815Y-103917185D01*
X106745506Y-103996537D01*
X106855820Y-104055502D01*
X106975518Y-104091812D01*
X107100000Y-104104072D01*
X108800000Y-104104072D01*
X108924482Y-104091812D01*
X109044180Y-104055502D01*
X109154494Y-103996537D01*
X109251185Y-103917185D01*
X109330537Y-103820494D01*
X109389502Y-103710180D01*
X109425812Y-103590482D01*
X109438072Y-103466000D01*
X109438072Y-101766000D01*
X109425812Y-101641518D01*
X109389502Y-101521820D01*
X109330537Y-101411506D01*
X109251185Y-101314815D01*
X109154494Y-101235463D01*
X109044180Y-101176498D01*
X108971620Y-101154487D01*
X109103475Y-101022632D01*
X109265990Y-100779411D01*
X109377932Y-100509158D01*
X109435000Y-100222260D01*
X109435000Y-99929740D01*
X109377932Y-99642842D01*
X109265990Y-99372589D01*
X109103475Y-99129368D01*
X108896632Y-98922525D01*
X108714466Y-98800805D01*
X108831355Y-98731178D01*
X109047588Y-98536269D01*
X109221641Y-98302920D01*
X109346825Y-98040099D01*
X109391476Y-97892890D01*
X109270155Y-97663000D01*
X108077000Y-97663000D01*
X108077000Y-97683000D01*
X107823000Y-97683000D01*
X107823000Y-97663000D01*
X106629845Y-97663000D01*
X106508524Y-97892890D01*
X106553175Y-98040099D01*
X106678359Y-98302920D01*
X106852412Y-98536269D01*
X107068645Y-98731178D01*
X107185534Y-98800805D01*
X107003368Y-98922525D01*
X106796525Y-99129368D01*
X106634010Y-99372589D01*
X106522068Y-99642842D01*
X106465000Y-99929740D01*
X106465000Y-100222260D01*
X106522068Y-100509158D01*
X106634010Y-100779411D01*
X106796525Y-101022632D01*
X106928380Y-101154487D01*
X106855820Y-101176498D01*
X106745506Y-101235463D01*
X106648815Y-101314815D01*
X106569463Y-101411506D01*
X106510498Y-101521820D01*
X106474188Y-101641518D01*
X106461928Y-101766000D01*
X104825000Y-101766000D01*
X104825000Y-94849740D01*
X106465000Y-94849740D01*
X106465000Y-95142260D01*
X106522068Y-95429158D01*
X106634010Y-95699411D01*
X106796525Y-95942632D01*
X107003368Y-96149475D01*
X107185534Y-96271195D01*
X107068645Y-96340822D01*
X106852412Y-96535731D01*
X106678359Y-96769080D01*
X106553175Y-97031901D01*
X106508524Y-97179110D01*
X106629845Y-97409000D01*
X107823000Y-97409000D01*
X107823000Y-97389000D01*
X108077000Y-97389000D01*
X108077000Y-97409000D01*
X109270155Y-97409000D01*
X109391476Y-97179110D01*
X109346825Y-97031901D01*
X109221641Y-96769080D01*
X109047588Y-96535731D01*
X108831355Y-96340822D01*
X108714466Y-96271195D01*
X108896632Y-96149475D01*
X109103475Y-95942632D01*
X109265990Y-95699411D01*
X109377932Y-95429158D01*
X109435000Y-95142260D01*
X109435000Y-94849740D01*
X109377932Y-94562842D01*
X109265990Y-94292589D01*
X109103475Y-94049368D01*
X108896632Y-93842525D01*
X108653411Y-93680010D01*
X108383158Y-93568068D01*
X108096260Y-93511000D01*
X107803740Y-93511000D01*
X107516842Y-93568068D01*
X107246589Y-93680010D01*
X107003368Y-93842525D01*
X106796525Y-94049368D01*
X106634010Y-94292589D01*
X106522068Y-94562842D01*
X106465000Y-94849740D01*
X104825000Y-94849740D01*
X104825000Y-72776363D01*
X113065000Y-72776363D01*
X113065000Y-73019637D01*
X113112460Y-73258236D01*
X113205557Y-73482992D01*
X113340713Y-73685267D01*
X113512733Y-73857287D01*
X113715008Y-73992443D01*
X113939764Y-74085540D01*
X114044704Y-74106414D01*
X118345000Y-78406711D01*
X118345001Y-82666625D01*
X118345000Y-82666635D01*
X118345000Y-82892045D01*
X118285557Y-82981008D01*
X118192460Y-83205764D01*
X118145000Y-83444363D01*
X118145000Y-83687637D01*
X118192460Y-83926236D01*
X118285557Y-84150992D01*
X118420713Y-84353267D01*
X118592733Y-84525287D01*
X118795008Y-84660443D01*
X119019764Y-84753540D01*
X119258363Y-84801000D01*
X119501637Y-84801000D01*
X119740236Y-84753540D01*
X119964992Y-84660443D01*
X120167267Y-84525287D01*
X120339287Y-84353267D01*
X120474443Y-84150992D01*
X120567540Y-83926236D01*
X120615000Y-83687637D01*
X120615000Y-83478000D01*
X143291928Y-83478000D01*
X143295000Y-84042250D01*
X143453750Y-84201000D01*
X144653000Y-84201000D01*
X144653000Y-81915000D01*
X144907000Y-81915000D01*
X144907000Y-84201000D01*
X146106250Y-84201000D01*
X146265000Y-84042250D01*
X146268072Y-83478000D01*
X146255812Y-83353518D01*
X146219502Y-83233820D01*
X146160537Y-83123506D01*
X146081185Y-83026815D01*
X145984494Y-82947463D01*
X145874180Y-82888498D01*
X145793534Y-82864034D01*
X145877588Y-82788269D01*
X146051641Y-82554920D01*
X146176825Y-82292099D01*
X146221476Y-82144890D01*
X146100155Y-81915000D01*
X144907000Y-81915000D01*
X144653000Y-81915000D01*
X143459845Y-81915000D01*
X143338524Y-82144890D01*
X143383175Y-82292099D01*
X143508359Y-82554920D01*
X143682412Y-82788269D01*
X143766466Y-82864034D01*
X143685820Y-82888498D01*
X143575506Y-82947463D01*
X143478815Y-83026815D01*
X143399463Y-83123506D01*
X143340498Y-83233820D01*
X143304188Y-83353518D01*
X143291928Y-83478000D01*
X120615000Y-83478000D01*
X120615000Y-83444363D01*
X120567540Y-83205764D01*
X120474443Y-82981008D01*
X120415000Y-82892045D01*
X120415000Y-81431110D01*
X143338524Y-81431110D01*
X143459845Y-81661000D01*
X144653000Y-81661000D01*
X144653000Y-80467186D01*
X144907000Y-80467186D01*
X144907000Y-81661000D01*
X146100155Y-81661000D01*
X146221476Y-81431110D01*
X146176825Y-81283901D01*
X146051641Y-81021080D01*
X145877588Y-80787731D01*
X145661355Y-80592822D01*
X145411252Y-80443843D01*
X145136891Y-80346519D01*
X144907000Y-80467186D01*
X144653000Y-80467186D01*
X144423109Y-80346519D01*
X144148748Y-80443843D01*
X143898645Y-80592822D01*
X143682412Y-80787731D01*
X143508359Y-81021080D01*
X143383175Y-81283901D01*
X143338524Y-81431110D01*
X120415000Y-81431110D01*
X120415000Y-78028835D01*
X120420007Y-77978000D01*
X120415000Y-77927162D01*
X120415000Y-76638652D01*
X140158000Y-76638652D01*
X140158000Y-77089348D01*
X140245926Y-77531385D01*
X140418400Y-77947775D01*
X140668794Y-78322515D01*
X140987485Y-78641206D01*
X141362225Y-78891600D01*
X141778615Y-79064074D01*
X142220652Y-79152000D01*
X142671348Y-79152000D01*
X143113385Y-79064074D01*
X143529775Y-78891600D01*
X143904515Y-78641206D01*
X144223206Y-78322515D01*
X144473600Y-77947775D01*
X144646074Y-77531385D01*
X144734000Y-77089348D01*
X144734000Y-76638652D01*
X144646074Y-76196615D01*
X144473600Y-75780225D01*
X144223206Y-75405485D01*
X143904515Y-75086794D01*
X143529775Y-74836400D01*
X143113385Y-74663926D01*
X142671348Y-74576000D01*
X142220652Y-74576000D01*
X141778615Y-74663926D01*
X141362225Y-74836400D01*
X140987485Y-75086794D01*
X140668794Y-75405485D01*
X140418400Y-75780225D01*
X140245926Y-76196615D01*
X140158000Y-76638652D01*
X120415000Y-76638652D01*
X120415000Y-73322612D01*
X135622000Y-73322612D01*
X135622000Y-73585388D01*
X135673265Y-73843114D01*
X135773824Y-74085886D01*
X135919814Y-74304376D01*
X136105624Y-74490186D01*
X136324114Y-74636176D01*
X136566886Y-74736735D01*
X136824612Y-74788000D01*
X137087388Y-74788000D01*
X137345114Y-74736735D01*
X137587886Y-74636176D01*
X137806376Y-74490186D01*
X137922007Y-74374555D01*
X138705050Y-74374555D01*
X138764389Y-74608221D01*
X139002664Y-74719018D01*
X139257975Y-74781202D01*
X139520512Y-74792382D01*
X139780186Y-74752129D01*
X140027017Y-74661990D01*
X140127611Y-74608221D01*
X140186950Y-74374555D01*
X139446000Y-73633605D01*
X138705050Y-74374555D01*
X137922007Y-74374555D01*
X137992186Y-74304376D01*
X138138176Y-74085886D01*
X138201106Y-73933960D01*
X138238010Y-74035017D01*
X138291779Y-74135611D01*
X138525445Y-74194950D01*
X139266395Y-73454000D01*
X139625605Y-73454000D01*
X140366555Y-74194950D01*
X140600221Y-74135611D01*
X140711018Y-73897336D01*
X140773202Y-73642025D01*
X140784382Y-73379488D01*
X140744129Y-73119814D01*
X140653990Y-72872983D01*
X140600221Y-72772389D01*
X140366555Y-72713050D01*
X139625605Y-73454000D01*
X139266395Y-73454000D01*
X138525445Y-72713050D01*
X138291779Y-72772389D01*
X138199648Y-72970521D01*
X138138176Y-72822114D01*
X137992186Y-72603624D01*
X137922007Y-72533445D01*
X138705050Y-72533445D01*
X139446000Y-73274395D01*
X140186950Y-72533445D01*
X140127611Y-72299779D01*
X139889336Y-72188982D01*
X139634025Y-72126798D01*
X139371488Y-72115618D01*
X139111814Y-72155871D01*
X138864983Y-72246010D01*
X138764389Y-72299779D01*
X138705050Y-72533445D01*
X137922007Y-72533445D01*
X137806376Y-72417814D01*
X137587886Y-72271824D01*
X137345114Y-72171265D01*
X137087388Y-72120000D01*
X136824612Y-72120000D01*
X136566886Y-72171265D01*
X136324114Y-72271824D01*
X136105624Y-72417814D01*
X135919814Y-72603624D01*
X135773824Y-72822114D01*
X135673265Y-73064886D01*
X135622000Y-73322612D01*
X120415000Y-73322612D01*
X120415000Y-71421710D01*
X121958058Y-69878652D01*
X140968000Y-69878652D01*
X140968000Y-70329348D01*
X141055926Y-70771385D01*
X141228400Y-71187775D01*
X141478794Y-71562515D01*
X141797485Y-71881206D01*
X142172225Y-72131600D01*
X142588615Y-72304074D01*
X143030652Y-72392000D01*
X143481348Y-72392000D01*
X143923385Y-72304074D01*
X144339775Y-72131600D01*
X144714515Y-71881206D01*
X145033206Y-71562515D01*
X145283600Y-71187775D01*
X145456074Y-70771385D01*
X145544000Y-70329348D01*
X145544000Y-69878652D01*
X145456074Y-69436615D01*
X145283600Y-69020225D01*
X145033206Y-68645485D01*
X144714515Y-68326794D01*
X144339775Y-68076400D01*
X143923385Y-67903926D01*
X143481348Y-67816000D01*
X143030652Y-67816000D01*
X142588615Y-67903926D01*
X142172225Y-68076400D01*
X141797485Y-68326794D01*
X141478794Y-68645485D01*
X141228400Y-69020225D01*
X141055926Y-69436615D01*
X140968000Y-69878652D01*
X121958058Y-69878652D01*
X122214804Y-69621907D01*
X122214809Y-69621901D01*
X122302296Y-69534414D01*
X122407236Y-69513540D01*
X122631992Y-69420443D01*
X122834267Y-69285287D01*
X123006287Y-69113267D01*
X123141443Y-68910992D01*
X123234540Y-68686236D01*
X123282000Y-68447637D01*
X123282000Y-68204363D01*
X123234540Y-67965764D01*
X123141443Y-67741008D01*
X123006287Y-67538733D01*
X122834267Y-67366713D01*
X122631992Y-67231557D01*
X122407236Y-67138460D01*
X122168637Y-67091000D01*
X121925363Y-67091000D01*
X121686764Y-67138460D01*
X121462008Y-67231557D01*
X121259733Y-67366713D01*
X121087713Y-67538733D01*
X120952557Y-67741008D01*
X120859460Y-67965764D01*
X120838586Y-68070704D01*
X120751099Y-68158191D01*
X120751093Y-68158196D01*
X118684092Y-70225198D01*
X118644605Y-70257604D01*
X118612198Y-70297092D01*
X118612197Y-70297093D01*
X118515266Y-70415203D01*
X118419160Y-70595007D01*
X118359977Y-70790105D01*
X118339994Y-70993000D01*
X118345001Y-71043838D01*
X118345000Y-75479290D01*
X115508414Y-72642704D01*
X115487540Y-72537764D01*
X115394443Y-72313008D01*
X115259287Y-72110733D01*
X115087267Y-71938713D01*
X114884992Y-71803557D01*
X114660236Y-71710460D01*
X114421637Y-71663000D01*
X114178363Y-71663000D01*
X113939764Y-71710460D01*
X113715008Y-71803557D01*
X113512733Y-71938713D01*
X113340713Y-72110733D01*
X113205557Y-72313008D01*
X113112460Y-72537764D01*
X113065000Y-72776363D01*
X104825000Y-72776363D01*
X104825000Y-70270000D01*
X106461928Y-70270000D01*
X106461928Y-71970000D01*
X106474188Y-72094482D01*
X106510498Y-72214180D01*
X106569463Y-72324494D01*
X106648815Y-72421185D01*
X106745506Y-72500537D01*
X106855820Y-72559502D01*
X106975518Y-72595812D01*
X107100000Y-72608072D01*
X108800000Y-72608072D01*
X108924482Y-72595812D01*
X109044180Y-72559502D01*
X109154494Y-72500537D01*
X109251185Y-72421185D01*
X109330537Y-72324494D01*
X109389502Y-72214180D01*
X109425812Y-72094482D01*
X109438072Y-71970000D01*
X109438072Y-70270000D01*
X109425812Y-70145518D01*
X109389502Y-70025820D01*
X109330537Y-69915506D01*
X109251185Y-69818815D01*
X109154494Y-69739463D01*
X109044180Y-69680498D01*
X108971620Y-69658487D01*
X109103475Y-69526632D01*
X109265990Y-69283411D01*
X109377932Y-69013158D01*
X109435000Y-68726260D01*
X109435000Y-68433740D01*
X109377932Y-68146842D01*
X109265990Y-67876589D01*
X109103475Y-67633368D01*
X108896632Y-67426525D01*
X108722240Y-67310000D01*
X108896632Y-67193475D01*
X109103475Y-66986632D01*
X109265990Y-66743411D01*
X109377932Y-66473158D01*
X109435000Y-66186260D01*
X109435000Y-65893740D01*
X109377932Y-65606842D01*
X109265990Y-65336589D01*
X109103475Y-65093368D01*
X108896632Y-64886525D01*
X108722240Y-64770000D01*
X108896632Y-64653475D01*
X109103475Y-64446632D01*
X109265990Y-64203411D01*
X109377932Y-63933158D01*
X109435000Y-63646260D01*
X109435000Y-63353740D01*
X109389374Y-63124363D01*
X113065000Y-63124363D01*
X113065000Y-63367637D01*
X113112460Y-63606236D01*
X113205557Y-63830992D01*
X113340713Y-64033267D01*
X113512733Y-64205287D01*
X113715008Y-64340443D01*
X113939764Y-64433540D01*
X114178363Y-64481000D01*
X114421637Y-64481000D01*
X114660236Y-64433540D01*
X114884992Y-64340443D01*
X115087267Y-64205287D01*
X115259287Y-64033267D01*
X115394443Y-63830992D01*
X115487540Y-63606236D01*
X115508414Y-63501296D01*
X116694001Y-62315709D01*
X116694000Y-67135289D01*
X116076703Y-67752586D01*
X115971764Y-67773460D01*
X115747008Y-67866557D01*
X115544733Y-68001713D01*
X115372713Y-68173733D01*
X115237557Y-68376008D01*
X115144460Y-68600764D01*
X115097000Y-68839363D01*
X115097000Y-69082637D01*
X115144460Y-69321236D01*
X115237557Y-69545992D01*
X115372713Y-69748267D01*
X115544733Y-69920287D01*
X115747008Y-70055443D01*
X115971764Y-70148540D01*
X116210363Y-70196000D01*
X116453637Y-70196000D01*
X116692236Y-70148540D01*
X116916992Y-70055443D01*
X117119267Y-69920287D01*
X117291287Y-69748267D01*
X117426443Y-69545992D01*
X117519540Y-69321236D01*
X117540414Y-69216297D01*
X118424908Y-68331803D01*
X118464396Y-68299396D01*
X118496803Y-68259908D01*
X118593734Y-68141798D01*
X118668610Y-68001713D01*
X118689841Y-67961993D01*
X118749024Y-67766895D01*
X118764000Y-67614838D01*
X118764000Y-67614829D01*
X118769006Y-67564001D01*
X118764000Y-67513173D01*
X118764000Y-62531710D01*
X119381297Y-61914414D01*
X119486236Y-61893540D01*
X119710992Y-61800443D01*
X119913267Y-61665287D01*
X120085287Y-61493267D01*
X120220443Y-61290992D01*
X120313540Y-61066236D01*
X120361000Y-60827637D01*
X120361000Y-60584363D01*
X120352374Y-60540999D01*
X129279289Y-60540999D01*
X135622000Y-66883711D01*
X135622000Y-66885388D01*
X135673265Y-67143114D01*
X135773824Y-67385886D01*
X135919814Y-67604376D01*
X136105624Y-67790186D01*
X136324114Y-67936176D01*
X136566886Y-68036735D01*
X136824612Y-68088000D01*
X137087388Y-68088000D01*
X137345114Y-68036735D01*
X137587886Y-67936176D01*
X137806376Y-67790186D01*
X137992186Y-67604376D01*
X138109103Y-67429396D01*
X138108928Y-67453000D01*
X138121188Y-67577482D01*
X138157498Y-67697180D01*
X138216463Y-67807494D01*
X138295815Y-67904185D01*
X138392506Y-67983537D01*
X138502820Y-68042502D01*
X138622518Y-68078812D01*
X138747000Y-68091072D01*
X139160250Y-68088000D01*
X139319000Y-67929250D01*
X139319000Y-66881000D01*
X139573000Y-66881000D01*
X139573000Y-67929250D01*
X139731750Y-68088000D01*
X140145000Y-68091072D01*
X140269482Y-68078812D01*
X140389180Y-68042502D01*
X140499494Y-67983537D01*
X140596185Y-67904185D01*
X140675537Y-67807494D01*
X140734502Y-67697180D01*
X140770812Y-67577482D01*
X140783072Y-67453000D01*
X140780000Y-67039750D01*
X140621250Y-66881000D01*
X139573000Y-66881000D01*
X139319000Y-66881000D01*
X139299000Y-66881000D01*
X139299000Y-66627000D01*
X139319000Y-66627000D01*
X139319000Y-65578750D01*
X139573000Y-65578750D01*
X139573000Y-66627000D01*
X140621250Y-66627000D01*
X140780000Y-66468250D01*
X140783072Y-66055000D01*
X140770812Y-65930518D01*
X140734502Y-65810820D01*
X140675537Y-65700506D01*
X140596185Y-65603815D01*
X140499494Y-65524463D01*
X140389180Y-65465498D01*
X140269482Y-65429188D01*
X140145000Y-65416928D01*
X139731750Y-65420000D01*
X139573000Y-65578750D01*
X139319000Y-65578750D01*
X139160250Y-65420000D01*
X138747000Y-65416928D01*
X138622518Y-65429188D01*
X138502820Y-65465498D01*
X138392506Y-65524463D01*
X138295815Y-65603815D01*
X138216463Y-65700506D01*
X138157498Y-65810820D01*
X138121188Y-65930518D01*
X138108928Y-66055000D01*
X138109103Y-66078604D01*
X137992186Y-65903624D01*
X137806376Y-65717814D01*
X137587886Y-65571824D01*
X137345114Y-65471265D01*
X137087388Y-65420000D01*
X137085711Y-65420000D01*
X134784363Y-63118652D01*
X140158000Y-63118652D01*
X140158000Y-63569348D01*
X140245926Y-64011385D01*
X140418400Y-64427775D01*
X140668794Y-64802515D01*
X140987485Y-65121206D01*
X141362225Y-65371600D01*
X141778615Y-65544074D01*
X142220652Y-65632000D01*
X142671348Y-65632000D01*
X143113385Y-65544074D01*
X143529775Y-65371600D01*
X143904515Y-65121206D01*
X144223206Y-64802515D01*
X144473600Y-64427775D01*
X144646074Y-64011385D01*
X144734000Y-63569348D01*
X144734000Y-63118652D01*
X144646074Y-62676615D01*
X144473600Y-62260225D01*
X144223206Y-61885485D01*
X143904515Y-61566794D01*
X143529775Y-61316400D01*
X143113385Y-61143926D01*
X142671348Y-61056000D01*
X142220652Y-61056000D01*
X141778615Y-61143926D01*
X141362225Y-61316400D01*
X140987485Y-61566794D01*
X140668794Y-61885485D01*
X140418400Y-62260225D01*
X140245926Y-62676615D01*
X140158000Y-63118652D01*
X134784363Y-63118652D01*
X130475806Y-58810096D01*
X130443395Y-58770603D01*
X130285796Y-58641265D01*
X130105992Y-58545158D01*
X129910894Y-58485975D01*
X129758837Y-58470999D01*
X129758827Y-58470999D01*
X129707999Y-58465993D01*
X129657171Y-58470999D01*
X118090828Y-58470999D01*
X118040000Y-58465993D01*
X117989172Y-58470999D01*
X117989163Y-58470999D01*
X117837106Y-58485975D01*
X117642008Y-58545158D01*
X117558310Y-58589895D01*
X117462203Y-58641265D01*
X117344093Y-58738196D01*
X117304605Y-58770603D01*
X117272198Y-58810091D01*
X114044704Y-62037586D01*
X113939764Y-62058460D01*
X113715008Y-62151557D01*
X113512733Y-62286713D01*
X113340713Y-62458733D01*
X113205557Y-62661008D01*
X113112460Y-62885764D01*
X113065000Y-63124363D01*
X109389374Y-63124363D01*
X109377932Y-63066842D01*
X109265990Y-62796589D01*
X109103475Y-62553368D01*
X108896632Y-62346525D01*
X108653411Y-62184010D01*
X108383158Y-62072068D01*
X108096260Y-62015000D01*
X107803740Y-62015000D01*
X107516842Y-62072068D01*
X107246589Y-62184010D01*
X107003368Y-62346525D01*
X106796525Y-62553368D01*
X106634010Y-62796589D01*
X106522068Y-63066842D01*
X106465000Y-63353740D01*
X106465000Y-63646260D01*
X106522068Y-63933158D01*
X106634010Y-64203411D01*
X106796525Y-64446632D01*
X107003368Y-64653475D01*
X107177760Y-64770000D01*
X107003368Y-64886525D01*
X106796525Y-65093368D01*
X106634010Y-65336589D01*
X106522068Y-65606842D01*
X106465000Y-65893740D01*
X106465000Y-66186260D01*
X106522068Y-66473158D01*
X106634010Y-66743411D01*
X106796525Y-66986632D01*
X107003368Y-67193475D01*
X107177760Y-67310000D01*
X107003368Y-67426525D01*
X106796525Y-67633368D01*
X106634010Y-67876589D01*
X106522068Y-68146842D01*
X106465000Y-68433740D01*
X106465000Y-68726260D01*
X106522068Y-69013158D01*
X106634010Y-69283411D01*
X106796525Y-69526632D01*
X106928380Y-69658487D01*
X106855820Y-69680498D01*
X106745506Y-69739463D01*
X106648815Y-69818815D01*
X106569463Y-69915506D01*
X106510498Y-70025820D01*
X106474188Y-70145518D01*
X106461928Y-70270000D01*
X104825000Y-70270000D01*
X104825000Y-57746000D01*
X121193928Y-57746000D01*
X121206188Y-57870482D01*
X121242498Y-57990180D01*
X121301463Y-58100494D01*
X121380815Y-58197185D01*
X121477506Y-58276537D01*
X121587820Y-58335502D01*
X121707518Y-58371812D01*
X121832000Y-58384072D01*
X122396250Y-58381000D01*
X122555000Y-58222250D01*
X122555000Y-57023000D01*
X122809000Y-57023000D01*
X122809000Y-58222250D01*
X122967750Y-58381000D01*
X123532000Y-58384072D01*
X123656482Y-58371812D01*
X123776180Y-58335502D01*
X123886494Y-58276537D01*
X123983185Y-58197185D01*
X124062537Y-58100494D01*
X124121502Y-57990180D01*
X124145966Y-57909534D01*
X124221731Y-57993588D01*
X124455080Y-58167641D01*
X124717901Y-58292825D01*
X124865110Y-58337476D01*
X125095000Y-58216155D01*
X125095000Y-57023000D01*
X125349000Y-57023000D01*
X125349000Y-58216155D01*
X125578890Y-58337476D01*
X125726099Y-58292825D01*
X125988920Y-58167641D01*
X126222269Y-57993588D01*
X126417178Y-57777355D01*
X126566157Y-57527252D01*
X126663481Y-57252891D01*
X126542814Y-57023000D01*
X125349000Y-57023000D01*
X125095000Y-57023000D01*
X122809000Y-57023000D01*
X122555000Y-57023000D01*
X121355750Y-57023000D01*
X121197000Y-57181750D01*
X121193928Y-57746000D01*
X104825000Y-57746000D01*
X104825000Y-55803000D01*
X121242140Y-55803000D01*
X121206188Y-55921518D01*
G37*
X121206188Y-55921518D02*
X121193928Y-56046000D01*
X121197000Y-56610250D01*
X121355750Y-56769000D01*
X122555000Y-56769000D01*
X122555000Y-56749000D01*
X122809000Y-56749000D01*
X122809000Y-56769000D01*
X125095000Y-56769000D01*
X125095000Y-56749000D01*
X125349000Y-56749000D01*
X125349000Y-56769000D01*
X126542814Y-56769000D01*
X126663481Y-56539109D01*
X126566157Y-56264748D01*
X126417178Y-56014645D01*
X126226405Y-55803000D01*
X147397000Y-55803000D01*
X147397001Y-94018430D01*
X147282766Y-93879234D01*
X147018578Y-93662421D01*
X146717168Y-93501314D01*
X146390119Y-93402105D01*
X146050000Y-93368606D01*
X145709882Y-93402105D01*
X145382833Y-93501314D01*
X145081423Y-93662421D01*
X144817235Y-93879234D01*
X144600422Y-94143422D01*
X144439315Y-94444832D01*
X144340106Y-94771881D01*
X144319903Y-94977000D01*
X130984711Y-94977000D01*
X128954710Y-92947000D01*
X133119903Y-92947000D01*
X133140105Y-93152118D01*
X133239314Y-93479167D01*
X133400421Y-93780577D01*
X133617234Y-94044766D01*
X133881422Y-94261579D01*
X134182832Y-94422686D01*
X134509881Y-94521895D01*
X134850000Y-94555394D01*
X135190118Y-94521895D01*
X135517167Y-94422686D01*
X135818577Y-94261579D01*
X136082766Y-94044766D01*
X136299579Y-93780578D01*
X136460686Y-93479168D01*
X136559895Y-93152119D01*
X136585000Y-92897225D01*
X136585000Y-92447000D01*
X139511928Y-92447000D01*
X139511928Y-92512000D01*
X139524188Y-92636482D01*
X139560498Y-92756180D01*
X139619463Y-92866494D01*
X139698815Y-92963185D01*
X139795506Y-93042537D01*
X139905820Y-93101502D01*
X140025518Y-93137812D01*
X140150000Y-93150072D01*
X144150000Y-93150072D01*
X144274482Y-93137812D01*
X144394180Y-93101502D01*
X144504494Y-93042537D01*
X144601185Y-92963185D01*
X144680537Y-92866494D01*
X144739502Y-92756180D01*
X144775812Y-92636482D01*
X144788072Y-92512000D01*
X144788072Y-90312000D01*
X144775812Y-90187518D01*
X144739502Y-90067820D01*
X144680537Y-89957506D01*
X144601185Y-89860815D01*
X144504494Y-89781463D01*
X144394180Y-89722498D01*
X144274482Y-89686188D01*
X144150000Y-89673928D01*
X140150000Y-89673928D01*
X140025518Y-89686188D01*
X139905820Y-89722498D01*
X139795506Y-89781463D01*
X139698815Y-89860815D01*
X139619463Y-89957506D01*
X139560498Y-90067820D01*
X139524188Y-90187518D01*
X139511928Y-90312000D01*
X139511928Y-90377000D01*
X136470444Y-90377000D01*
X136460686Y-90344832D01*
X136299579Y-90043422D01*
X136082766Y-89779234D01*
X135818578Y-89562421D01*
X135517168Y-89401314D01*
X135190119Y-89302105D01*
X134850000Y-89268606D01*
X134509882Y-89302105D01*
X134182833Y-89401314D01*
X133881423Y-89562421D01*
X133617235Y-89779234D01*
X133400422Y-90043422D01*
X133239315Y-90344832D01*
X133140106Y-90671881D01*
X133119903Y-90877000D01*
X121042711Y-90877000D01*
X115343711Y-85178000D01*
X143291928Y-85178000D01*
X143304188Y-85302482D01*
X143340498Y-85422180D01*
X143399463Y-85532494D01*
X143478815Y-85629185D01*
X143575506Y-85708537D01*
X143685820Y-85767502D01*
X143805518Y-85803812D01*
X143930000Y-85816072D01*
X144494250Y-85813000D01*
X144653000Y-85654250D01*
X144653000Y-84455000D01*
X144907000Y-84455000D01*
X144907000Y-85654250D01*
X145065750Y-85813000D01*
X145630000Y-85816072D01*
X145754482Y-85803812D01*
X145874180Y-85767502D01*
X145984494Y-85708537D01*
X146081185Y-85629185D01*
X146160537Y-85532494D01*
X146219502Y-85422180D01*
X146255812Y-85302482D01*
X146268072Y-85178000D01*
X146265000Y-84613750D01*
X146106250Y-84455000D01*
X144907000Y-84455000D01*
X144653000Y-84455000D01*
X143453750Y-84455000D01*
X143295000Y-84613750D01*
X143291928Y-85178000D01*
X115343711Y-85178000D01*
X109987807Y-79822097D01*
X109955396Y-79782604D01*
X109797797Y-79653266D01*
X109617993Y-79557159D01*
X109422895Y-79497976D01*
X109270838Y-79483000D01*
X109270828Y-79483000D01*
X109220000Y-79477994D01*
X109169172Y-79483000D01*
X109015107Y-79483000D01*
X108896632Y-79364525D01*
X108653411Y-79202010D01*
X108383158Y-79090068D01*
X108096260Y-79033000D01*
X107803740Y-79033000D01*
X107516842Y-79090068D01*
X107246589Y-79202010D01*
X107003368Y-79364525D01*
X106796525Y-79571368D01*
X106634010Y-79814589D01*
X106522068Y-80084842D01*
X106465000Y-80371740D01*
X106465000Y-80664260D01*
X106522068Y-80951158D01*
X106634010Y-81221411D01*
X106796525Y-81464632D01*
X107003368Y-81671475D01*
X107177760Y-81788000D01*
X107003368Y-81904525D01*
X106796525Y-82111368D01*
X106634010Y-82354589D01*
X106522068Y-82624842D01*
X106465000Y-82911740D01*
X106465000Y-83204260D01*
X106522068Y-83491158D01*
X106634010Y-83761411D01*
X106796525Y-84004632D01*
X106928380Y-84136487D01*
X106855820Y-84158498D01*
X106745506Y-84217463D01*
X106648815Y-84296815D01*
X106569463Y-84393506D01*
X106510498Y-84503820D01*
X106474188Y-84623518D01*
X106461928Y-84748000D01*
X106461928Y-86448000D01*
X106474188Y-86572482D01*
X106510498Y-86692180D01*
X106569463Y-86802494D01*
X106648815Y-86899185D01*
X106745506Y-86978537D01*
X106855820Y-87037502D01*
X106975518Y-87073812D01*
X107100000Y-87086072D01*
X108800000Y-87086072D01*
X108924482Y-87073812D01*
X109044180Y-87037502D01*
X109154494Y-86978537D01*
X109251185Y-86899185D01*
X109330537Y-86802494D01*
X109389502Y-86692180D01*
X109407454Y-86633000D01*
X111042838Y-86633000D01*
X119085744Y-94675907D01*
X119118152Y-94715396D01*
X119157640Y-94747803D01*
X119275750Y-94844734D01*
X119371857Y-94896104D01*
X119455555Y-94940841D01*
X119650653Y-95000024D01*
X119802710Y-95015000D01*
X119802719Y-95015000D01*
X119853547Y-95020006D01*
X119904375Y-95015000D01*
X126681064Y-95015000D01*
X133573971Y-101907908D01*
X133606378Y-101947396D01*
X133763977Y-102076734D01*
X133943781Y-102172841D01*
X134138879Y-102232024D01*
X134290936Y-102247000D01*
X134290945Y-102247000D01*
X134341773Y-102252006D01*
X134392601Y-102247000D01*
X135754932Y-102247000D01*
X135917234Y-102444766D01*
X136181422Y-102661579D01*
X136482832Y-102822686D01*
X136809881Y-102921895D01*
X137064775Y-102947000D01*
X139035225Y-102947000D01*
X139290119Y-102921895D01*
X139617168Y-102822686D01*
X139918578Y-102661579D01*
X140182766Y-102444766D01*
X140399579Y-102180578D01*
X140560686Y-101879168D01*
X140659895Y-101552119D01*
X140693394Y-101212000D01*
X140659895Y-100871881D01*
X140560686Y-100544832D01*
X140399579Y-100243422D01*
X140390005Y-100231755D01*
X140490119Y-100221895D01*
X140817168Y-100122686D01*
X141118578Y-99961579D01*
X141382766Y-99744766D01*
X141599579Y-99480578D01*
X141760686Y-99179168D01*
X141859895Y-98852119D01*
X141893394Y-98512000D01*
X141859895Y-98171881D01*
X141760686Y-97844832D01*
X141599579Y-97543422D01*
X141382766Y-97279234D01*
X141118578Y-97062421D01*
X141089727Y-97047000D01*
X144319903Y-97047000D01*
X144340105Y-97252118D01*
X144439314Y-97579167D01*
X144600421Y-97880577D01*
X144817234Y-98144766D01*
X145081422Y-98361579D01*
X145382832Y-98522686D01*
X145709881Y-98621895D01*
X146050000Y-98655394D01*
X146390118Y-98621895D01*
X146717167Y-98522686D01*
X147018577Y-98361579D01*
X147282766Y-98144766D01*
X147397001Y-98005570D01*
X147397001Y-110313000D01*
X126226405Y-110313000D01*
X126417178Y-110101355D01*
X126566157Y-109851252D01*
X126663481Y-109576891D01*
X126542814Y-109347000D01*
X125349000Y-109347000D01*
X125349000Y-109367000D01*
X125095000Y-109367000D01*
X125095000Y-109347000D01*
X122809000Y-109347000D01*
X122809000Y-109367000D01*
X122555000Y-109367000D01*
X122555000Y-109347000D01*
X121355750Y-109347000D01*
X121197000Y-109505750D01*
X121193928Y-110070000D01*
X121206188Y-110194482D01*
X121242140Y-110313000D01*
X104825000Y-110313000D01*
X104825000Y-108370000D01*
X121193928Y-108370000D01*
X121197000Y-108934250D01*
X121355750Y-109093000D01*
X122555000Y-109093000D01*
X122555000Y-107893750D01*
X122809000Y-107893750D01*
X122809000Y-109093000D01*
X125095000Y-109093000D01*
X125095000Y-107899845D01*
X125349000Y-107899845D01*
X125349000Y-109093000D01*
X126542814Y-109093000D01*
X126663481Y-108863109D01*
X126566157Y-108588748D01*
X126417178Y-108338645D01*
X126222269Y-108122412D01*
X125988920Y-107948359D01*
X125726099Y-107823175D01*
X125578890Y-107778524D01*
X125349000Y-107899845D01*
X125095000Y-107899845D01*
X124865110Y-107778524D01*
X124717901Y-107823175D01*
X124455080Y-107948359D01*
X124221731Y-108122412D01*
X124145966Y-108206466D01*
X124121502Y-108125820D01*
X124062537Y-108015506D01*
X123983185Y-107918815D01*
X123886494Y-107839463D01*
X123776180Y-107780498D01*
X123656482Y-107744188D01*
X123532000Y-107731928D01*
X122967750Y-107735000D01*
X122809000Y-107893750D01*
X122555000Y-107893750D01*
X122396250Y-107735000D01*
X121832000Y-107731928D01*
X121707518Y-107744188D01*
X121587820Y-107780498D01*
X121477506Y-107839463D01*
X121380815Y-107918815D01*
X121301463Y-108015506D01*
X121242498Y-108125820D01*
X121206188Y-108245518D01*
X121193928Y-108370000D01*
X104825000Y-108370000D01*
X104825000Y-101766000D01*
X106461928Y-101766000D01*
X106461928Y-103466000D01*
X106474188Y-103590482D01*
X106510498Y-103710180D01*
X106569463Y-103820494D01*
X106648815Y-103917185D01*
X106745506Y-103996537D01*
X106855820Y-104055502D01*
X106975518Y-104091812D01*
X107100000Y-104104072D01*
X108800000Y-104104072D01*
X108924482Y-104091812D01*
X109044180Y-104055502D01*
X109154494Y-103996537D01*
X109251185Y-103917185D01*
X109330537Y-103820494D01*
X109389502Y-103710180D01*
X109425812Y-103590482D01*
X109438072Y-103466000D01*
X109438072Y-101766000D01*
X109425812Y-101641518D01*
X109389502Y-101521820D01*
X109330537Y-101411506D01*
X109251185Y-101314815D01*
X109154494Y-101235463D01*
X109044180Y-101176498D01*
X108971620Y-101154487D01*
X109103475Y-101022632D01*
X109265990Y-100779411D01*
X109377932Y-100509158D01*
X109435000Y-100222260D01*
X109435000Y-99929740D01*
X109377932Y-99642842D01*
X109265990Y-99372589D01*
X109103475Y-99129368D01*
X108896632Y-98922525D01*
X108714466Y-98800805D01*
X108831355Y-98731178D01*
X109047588Y-98536269D01*
X109221641Y-98302920D01*
X109346825Y-98040099D01*
X109391476Y-97892890D01*
X109270155Y-97663000D01*
X108077000Y-97663000D01*
X108077000Y-97683000D01*
X107823000Y-97683000D01*
X107823000Y-97663000D01*
X106629845Y-97663000D01*
X106508524Y-97892890D01*
X106553175Y-98040099D01*
X106678359Y-98302920D01*
X106852412Y-98536269D01*
X107068645Y-98731178D01*
X107185534Y-98800805D01*
X107003368Y-98922525D01*
X106796525Y-99129368D01*
X106634010Y-99372589D01*
X106522068Y-99642842D01*
X106465000Y-99929740D01*
X106465000Y-100222260D01*
X106522068Y-100509158D01*
X106634010Y-100779411D01*
X106796525Y-101022632D01*
X106928380Y-101154487D01*
X106855820Y-101176498D01*
X106745506Y-101235463D01*
X106648815Y-101314815D01*
X106569463Y-101411506D01*
X106510498Y-101521820D01*
X106474188Y-101641518D01*
X106461928Y-101766000D01*
X104825000Y-101766000D01*
X104825000Y-94849740D01*
X106465000Y-94849740D01*
X106465000Y-95142260D01*
X106522068Y-95429158D01*
X106634010Y-95699411D01*
X106796525Y-95942632D01*
X107003368Y-96149475D01*
X107185534Y-96271195D01*
X107068645Y-96340822D01*
X106852412Y-96535731D01*
X106678359Y-96769080D01*
X106553175Y-97031901D01*
X106508524Y-97179110D01*
X106629845Y-97409000D01*
X107823000Y-97409000D01*
X107823000Y-97389000D01*
X108077000Y-97389000D01*
X108077000Y-97409000D01*
X109270155Y-97409000D01*
X109391476Y-97179110D01*
X109346825Y-97031901D01*
X109221641Y-96769080D01*
X109047588Y-96535731D01*
X108831355Y-96340822D01*
X108714466Y-96271195D01*
X108896632Y-96149475D01*
X109103475Y-95942632D01*
X109265990Y-95699411D01*
X109377932Y-95429158D01*
X109435000Y-95142260D01*
X109435000Y-94849740D01*
X109377932Y-94562842D01*
X109265990Y-94292589D01*
X109103475Y-94049368D01*
X108896632Y-93842525D01*
X108653411Y-93680010D01*
X108383158Y-93568068D01*
X108096260Y-93511000D01*
X107803740Y-93511000D01*
X107516842Y-93568068D01*
X107246589Y-93680010D01*
X107003368Y-93842525D01*
X106796525Y-94049368D01*
X106634010Y-94292589D01*
X106522068Y-94562842D01*
X106465000Y-94849740D01*
X104825000Y-94849740D01*
X104825000Y-72776363D01*
X113065000Y-72776363D01*
X113065000Y-73019637D01*
X113112460Y-73258236D01*
X113205557Y-73482992D01*
X113340713Y-73685267D01*
X113512733Y-73857287D01*
X113715008Y-73992443D01*
X113939764Y-74085540D01*
X114044704Y-74106414D01*
X118345000Y-78406711D01*
X118345001Y-82666625D01*
X118345000Y-82666635D01*
X118345000Y-82892045D01*
X118285557Y-82981008D01*
X118192460Y-83205764D01*
X118145000Y-83444363D01*
X118145000Y-83687637D01*
X118192460Y-83926236D01*
X118285557Y-84150992D01*
X118420713Y-84353267D01*
X118592733Y-84525287D01*
X118795008Y-84660443D01*
X119019764Y-84753540D01*
X119258363Y-84801000D01*
X119501637Y-84801000D01*
X119740236Y-84753540D01*
X119964992Y-84660443D01*
X120167267Y-84525287D01*
X120339287Y-84353267D01*
X120474443Y-84150992D01*
X120567540Y-83926236D01*
X120615000Y-83687637D01*
X120615000Y-83478000D01*
X143291928Y-83478000D01*
X143295000Y-84042250D01*
X143453750Y-84201000D01*
X144653000Y-84201000D01*
X144653000Y-81915000D01*
X144907000Y-81915000D01*
X144907000Y-84201000D01*
X146106250Y-84201000D01*
X146265000Y-84042250D01*
X146268072Y-83478000D01*
X146255812Y-83353518D01*
X146219502Y-83233820D01*
X146160537Y-83123506D01*
X146081185Y-83026815D01*
X145984494Y-82947463D01*
X145874180Y-82888498D01*
X145793534Y-82864034D01*
X145877588Y-82788269D01*
X146051641Y-82554920D01*
X146176825Y-82292099D01*
X146221476Y-82144890D01*
X146100155Y-81915000D01*
X144907000Y-81915000D01*
X144653000Y-81915000D01*
X143459845Y-81915000D01*
X143338524Y-82144890D01*
X143383175Y-82292099D01*
X143508359Y-82554920D01*
X143682412Y-82788269D01*
X143766466Y-82864034D01*
X143685820Y-82888498D01*
X143575506Y-82947463D01*
X143478815Y-83026815D01*
X143399463Y-83123506D01*
X143340498Y-83233820D01*
X143304188Y-83353518D01*
X143291928Y-83478000D01*
X120615000Y-83478000D01*
X120615000Y-83444363D01*
X120567540Y-83205764D01*
X120474443Y-82981008D01*
X120415000Y-82892045D01*
X120415000Y-81431110D01*
X143338524Y-81431110D01*
X143459845Y-81661000D01*
X144653000Y-81661000D01*
X144653000Y-80467186D01*
X144907000Y-80467186D01*
X144907000Y-81661000D01*
X146100155Y-81661000D01*
X146221476Y-81431110D01*
X146176825Y-81283901D01*
X146051641Y-81021080D01*
X145877588Y-80787731D01*
X145661355Y-80592822D01*
X145411252Y-80443843D01*
X145136891Y-80346519D01*
X144907000Y-80467186D01*
X144653000Y-80467186D01*
X144423109Y-80346519D01*
X144148748Y-80443843D01*
X143898645Y-80592822D01*
X143682412Y-80787731D01*
X143508359Y-81021080D01*
X143383175Y-81283901D01*
X143338524Y-81431110D01*
X120415000Y-81431110D01*
X120415000Y-78028835D01*
X120420007Y-77978000D01*
X120415000Y-77927162D01*
X120415000Y-76638652D01*
X140158000Y-76638652D01*
X140158000Y-77089348D01*
X140245926Y-77531385D01*
X140418400Y-77947775D01*
X140668794Y-78322515D01*
X140987485Y-78641206D01*
X141362225Y-78891600D01*
X141778615Y-79064074D01*
X142220652Y-79152000D01*
X142671348Y-79152000D01*
X143113385Y-79064074D01*
X143529775Y-78891600D01*
X143904515Y-78641206D01*
X144223206Y-78322515D01*
X144473600Y-77947775D01*
X144646074Y-77531385D01*
X144734000Y-77089348D01*
X144734000Y-76638652D01*
X144646074Y-76196615D01*
X144473600Y-75780225D01*
X144223206Y-75405485D01*
X143904515Y-75086794D01*
X143529775Y-74836400D01*
X143113385Y-74663926D01*
X142671348Y-74576000D01*
X142220652Y-74576000D01*
X141778615Y-74663926D01*
X141362225Y-74836400D01*
X140987485Y-75086794D01*
X140668794Y-75405485D01*
X140418400Y-75780225D01*
X140245926Y-76196615D01*
X140158000Y-76638652D01*
X120415000Y-76638652D01*
X120415000Y-73322612D01*
X135622000Y-73322612D01*
X135622000Y-73585388D01*
X135673265Y-73843114D01*
X135773824Y-74085886D01*
X135919814Y-74304376D01*
X136105624Y-74490186D01*
X136324114Y-74636176D01*
X136566886Y-74736735D01*
X136824612Y-74788000D01*
X137087388Y-74788000D01*
X137345114Y-74736735D01*
X137587886Y-74636176D01*
X137806376Y-74490186D01*
X137922007Y-74374555D01*
X138705050Y-74374555D01*
X138764389Y-74608221D01*
X139002664Y-74719018D01*
X139257975Y-74781202D01*
X139520512Y-74792382D01*
X139780186Y-74752129D01*
X140027017Y-74661990D01*
X140127611Y-74608221D01*
X140186950Y-74374555D01*
X139446000Y-73633605D01*
X138705050Y-74374555D01*
X137922007Y-74374555D01*
X137992186Y-74304376D01*
X138138176Y-74085886D01*
X138201106Y-73933960D01*
X138238010Y-74035017D01*
X138291779Y-74135611D01*
X138525445Y-74194950D01*
X139266395Y-73454000D01*
X139625605Y-73454000D01*
X140366555Y-74194950D01*
X140600221Y-74135611D01*
X140711018Y-73897336D01*
X140773202Y-73642025D01*
X140784382Y-73379488D01*
X140744129Y-73119814D01*
X140653990Y-72872983D01*
X140600221Y-72772389D01*
X140366555Y-72713050D01*
X139625605Y-73454000D01*
X139266395Y-73454000D01*
X138525445Y-72713050D01*
X138291779Y-72772389D01*
X138199648Y-72970521D01*
X138138176Y-72822114D01*
X137992186Y-72603624D01*
X137922007Y-72533445D01*
X138705050Y-72533445D01*
X139446000Y-73274395D01*
X140186950Y-72533445D01*
X140127611Y-72299779D01*
X139889336Y-72188982D01*
X139634025Y-72126798D01*
X139371488Y-72115618D01*
X139111814Y-72155871D01*
X138864983Y-72246010D01*
X138764389Y-72299779D01*
X138705050Y-72533445D01*
X137922007Y-72533445D01*
X137806376Y-72417814D01*
X137587886Y-72271824D01*
X137345114Y-72171265D01*
X137087388Y-72120000D01*
X136824612Y-72120000D01*
X136566886Y-72171265D01*
X136324114Y-72271824D01*
X136105624Y-72417814D01*
X135919814Y-72603624D01*
X135773824Y-72822114D01*
X135673265Y-73064886D01*
X135622000Y-73322612D01*
X120415000Y-73322612D01*
X120415000Y-71421710D01*
X121958058Y-69878652D01*
X140968000Y-69878652D01*
X140968000Y-70329348D01*
X141055926Y-70771385D01*
X141228400Y-71187775D01*
X141478794Y-71562515D01*
X141797485Y-71881206D01*
X142172225Y-72131600D01*
X142588615Y-72304074D01*
X143030652Y-72392000D01*
X143481348Y-72392000D01*
X143923385Y-72304074D01*
X144339775Y-72131600D01*
X144714515Y-71881206D01*
X145033206Y-71562515D01*
X145283600Y-71187775D01*
X145456074Y-70771385D01*
X145544000Y-70329348D01*
X145544000Y-69878652D01*
X145456074Y-69436615D01*
X145283600Y-69020225D01*
X145033206Y-68645485D01*
X144714515Y-68326794D01*
X144339775Y-68076400D01*
X143923385Y-67903926D01*
X143481348Y-67816000D01*
X143030652Y-67816000D01*
X142588615Y-67903926D01*
X142172225Y-68076400D01*
X141797485Y-68326794D01*
X141478794Y-68645485D01*
X141228400Y-69020225D01*
X141055926Y-69436615D01*
X140968000Y-69878652D01*
X121958058Y-69878652D01*
X122214804Y-69621907D01*
X122214809Y-69621901D01*
X122302296Y-69534414D01*
X122407236Y-69513540D01*
X122631992Y-69420443D01*
X122834267Y-69285287D01*
X123006287Y-69113267D01*
X123141443Y-68910992D01*
X123234540Y-68686236D01*
X123282000Y-68447637D01*
X123282000Y-68204363D01*
X123234540Y-67965764D01*
X123141443Y-67741008D01*
X123006287Y-67538733D01*
X122834267Y-67366713D01*
X122631992Y-67231557D01*
X122407236Y-67138460D01*
X122168637Y-67091000D01*
X121925363Y-67091000D01*
X121686764Y-67138460D01*
X121462008Y-67231557D01*
X121259733Y-67366713D01*
X121087713Y-67538733D01*
X120952557Y-67741008D01*
X120859460Y-67965764D01*
X120838586Y-68070704D01*
X120751099Y-68158191D01*
X120751093Y-68158196D01*
X118684092Y-70225198D01*
X118644605Y-70257604D01*
X118612198Y-70297092D01*
X118612197Y-70297093D01*
X118515266Y-70415203D01*
X118419160Y-70595007D01*
X118359977Y-70790105D01*
X118339994Y-70993000D01*
X118345001Y-71043838D01*
X118345000Y-75479290D01*
X115508414Y-72642704D01*
X115487540Y-72537764D01*
X115394443Y-72313008D01*
X115259287Y-72110733D01*
X115087267Y-71938713D01*
X114884992Y-71803557D01*
X114660236Y-71710460D01*
X114421637Y-71663000D01*
X114178363Y-71663000D01*
X113939764Y-71710460D01*
X113715008Y-71803557D01*
X113512733Y-71938713D01*
X113340713Y-72110733D01*
X113205557Y-72313008D01*
X113112460Y-72537764D01*
X113065000Y-72776363D01*
X104825000Y-72776363D01*
X104825000Y-70270000D01*
X106461928Y-70270000D01*
X106461928Y-71970000D01*
X106474188Y-72094482D01*
X106510498Y-72214180D01*
X106569463Y-72324494D01*
X106648815Y-72421185D01*
X106745506Y-72500537D01*
X106855820Y-72559502D01*
X106975518Y-72595812D01*
X107100000Y-72608072D01*
X108800000Y-72608072D01*
X108924482Y-72595812D01*
X109044180Y-72559502D01*
X109154494Y-72500537D01*
X109251185Y-72421185D01*
X109330537Y-72324494D01*
X109389502Y-72214180D01*
X109425812Y-72094482D01*
X109438072Y-71970000D01*
X109438072Y-70270000D01*
X109425812Y-70145518D01*
X109389502Y-70025820D01*
X109330537Y-69915506D01*
X109251185Y-69818815D01*
X109154494Y-69739463D01*
X109044180Y-69680498D01*
X108971620Y-69658487D01*
X109103475Y-69526632D01*
X109265990Y-69283411D01*
X109377932Y-69013158D01*
X109435000Y-68726260D01*
X109435000Y-68433740D01*
X109377932Y-68146842D01*
X109265990Y-67876589D01*
X109103475Y-67633368D01*
X108896632Y-67426525D01*
X108722240Y-67310000D01*
X108896632Y-67193475D01*
X109103475Y-66986632D01*
X109265990Y-66743411D01*
X109377932Y-66473158D01*
X109435000Y-66186260D01*
X109435000Y-65893740D01*
X109377932Y-65606842D01*
X109265990Y-65336589D01*
X109103475Y-65093368D01*
X108896632Y-64886525D01*
X108722240Y-64770000D01*
X108896632Y-64653475D01*
X109103475Y-64446632D01*
X109265990Y-64203411D01*
X109377932Y-63933158D01*
X109435000Y-63646260D01*
X109435000Y-63353740D01*
X109389374Y-63124363D01*
X113065000Y-63124363D01*
X113065000Y-63367637D01*
X113112460Y-63606236D01*
X113205557Y-63830992D01*
X113340713Y-64033267D01*
X113512733Y-64205287D01*
X113715008Y-64340443D01*
X113939764Y-64433540D01*
X114178363Y-64481000D01*
X114421637Y-64481000D01*
X114660236Y-64433540D01*
X114884992Y-64340443D01*
X115087267Y-64205287D01*
X115259287Y-64033267D01*
X115394443Y-63830992D01*
X115487540Y-63606236D01*
X115508414Y-63501296D01*
X116694001Y-62315709D01*
X116694000Y-67135289D01*
X116076703Y-67752586D01*
X115971764Y-67773460D01*
X115747008Y-67866557D01*
X115544733Y-68001713D01*
X115372713Y-68173733D01*
X115237557Y-68376008D01*
X115144460Y-68600764D01*
X115097000Y-68839363D01*
X115097000Y-69082637D01*
X115144460Y-69321236D01*
X115237557Y-69545992D01*
X115372713Y-69748267D01*
X115544733Y-69920287D01*
X115747008Y-70055443D01*
X115971764Y-70148540D01*
X116210363Y-70196000D01*
X116453637Y-70196000D01*
X116692236Y-70148540D01*
X116916992Y-70055443D01*
X117119267Y-69920287D01*
X117291287Y-69748267D01*
X117426443Y-69545992D01*
X117519540Y-69321236D01*
X117540414Y-69216297D01*
X118424908Y-68331803D01*
X118464396Y-68299396D01*
X118496803Y-68259908D01*
X118593734Y-68141798D01*
X118668610Y-68001713D01*
X118689841Y-67961993D01*
X118749024Y-67766895D01*
X118764000Y-67614838D01*
X118764000Y-67614829D01*
X118769006Y-67564001D01*
X118764000Y-67513173D01*
X118764000Y-62531710D01*
X119381297Y-61914414D01*
X119486236Y-61893540D01*
X119710992Y-61800443D01*
X119913267Y-61665287D01*
X120085287Y-61493267D01*
X120220443Y-61290992D01*
X120313540Y-61066236D01*
X120361000Y-60827637D01*
X120361000Y-60584363D01*
X120352374Y-60540999D01*
X129279289Y-60540999D01*
X135622000Y-66883711D01*
X135622000Y-66885388D01*
X135673265Y-67143114D01*
X135773824Y-67385886D01*
X135919814Y-67604376D01*
X136105624Y-67790186D01*
X136324114Y-67936176D01*
X136566886Y-68036735D01*
X136824612Y-68088000D01*
X137087388Y-68088000D01*
X137345114Y-68036735D01*
X137587886Y-67936176D01*
X137806376Y-67790186D01*
X137992186Y-67604376D01*
X138109103Y-67429396D01*
X138108928Y-67453000D01*
X138121188Y-67577482D01*
X138157498Y-67697180D01*
X138216463Y-67807494D01*
X138295815Y-67904185D01*
X138392506Y-67983537D01*
X138502820Y-68042502D01*
X138622518Y-68078812D01*
X138747000Y-68091072D01*
X139160250Y-68088000D01*
X139319000Y-67929250D01*
X139319000Y-66881000D01*
X139573000Y-66881000D01*
X139573000Y-67929250D01*
X139731750Y-68088000D01*
X140145000Y-68091072D01*
X140269482Y-68078812D01*
X140389180Y-68042502D01*
X140499494Y-67983537D01*
X140596185Y-67904185D01*
X140675537Y-67807494D01*
X140734502Y-67697180D01*
X140770812Y-67577482D01*
X140783072Y-67453000D01*
X140780000Y-67039750D01*
X140621250Y-66881000D01*
X139573000Y-66881000D01*
X139319000Y-66881000D01*
X139299000Y-66881000D01*
X139299000Y-66627000D01*
X139319000Y-66627000D01*
X139319000Y-65578750D01*
X139573000Y-65578750D01*
X139573000Y-66627000D01*
X140621250Y-66627000D01*
X140780000Y-66468250D01*
X140783072Y-66055000D01*
X140770812Y-65930518D01*
X140734502Y-65810820D01*
X140675537Y-65700506D01*
X140596185Y-65603815D01*
X140499494Y-65524463D01*
X140389180Y-65465498D01*
X140269482Y-65429188D01*
X140145000Y-65416928D01*
X139731750Y-65420000D01*
X139573000Y-65578750D01*
X139319000Y-65578750D01*
X139160250Y-65420000D01*
X138747000Y-65416928D01*
X138622518Y-65429188D01*
X138502820Y-65465498D01*
X138392506Y-65524463D01*
X138295815Y-65603815D01*
X138216463Y-65700506D01*
X138157498Y-65810820D01*
X138121188Y-65930518D01*
X138108928Y-66055000D01*
X138109103Y-66078604D01*
X137992186Y-65903624D01*
X137806376Y-65717814D01*
X137587886Y-65571824D01*
X137345114Y-65471265D01*
X137087388Y-65420000D01*
X137085711Y-65420000D01*
X134784363Y-63118652D01*
X140158000Y-63118652D01*
X140158000Y-63569348D01*
X140245926Y-64011385D01*
X140418400Y-64427775D01*
X140668794Y-64802515D01*
X140987485Y-65121206D01*
X141362225Y-65371600D01*
X141778615Y-65544074D01*
X142220652Y-65632000D01*
X142671348Y-65632000D01*
X143113385Y-65544074D01*
X143529775Y-65371600D01*
X143904515Y-65121206D01*
X144223206Y-64802515D01*
X144473600Y-64427775D01*
X144646074Y-64011385D01*
X144734000Y-63569348D01*
X144734000Y-63118652D01*
X144646074Y-62676615D01*
X144473600Y-62260225D01*
X144223206Y-61885485D01*
X143904515Y-61566794D01*
X143529775Y-61316400D01*
X143113385Y-61143926D01*
X142671348Y-61056000D01*
X142220652Y-61056000D01*
X141778615Y-61143926D01*
X141362225Y-61316400D01*
X140987485Y-61566794D01*
X140668794Y-61885485D01*
X140418400Y-62260225D01*
X140245926Y-62676615D01*
X140158000Y-63118652D01*
X134784363Y-63118652D01*
X130475806Y-58810096D01*
X130443395Y-58770603D01*
X130285796Y-58641265D01*
X130105992Y-58545158D01*
X129910894Y-58485975D01*
X129758837Y-58470999D01*
X129758827Y-58470999D01*
X129707999Y-58465993D01*
X129657171Y-58470999D01*
X118090828Y-58470999D01*
X118040000Y-58465993D01*
X117989172Y-58470999D01*
X117989163Y-58470999D01*
X117837106Y-58485975D01*
X117642008Y-58545158D01*
X117558310Y-58589895D01*
X117462203Y-58641265D01*
X117344093Y-58738196D01*
X117304605Y-58770603D01*
X117272198Y-58810091D01*
X114044704Y-62037586D01*
X113939764Y-62058460D01*
X113715008Y-62151557D01*
X113512733Y-62286713D01*
X113340713Y-62458733D01*
X113205557Y-62661008D01*
X113112460Y-62885764D01*
X113065000Y-63124363D01*
X109389374Y-63124363D01*
X109377932Y-63066842D01*
X109265990Y-62796589D01*
X109103475Y-62553368D01*
X108896632Y-62346525D01*
X108653411Y-62184010D01*
X108383158Y-62072068D01*
X108096260Y-62015000D01*
X107803740Y-62015000D01*
X107516842Y-62072068D01*
X107246589Y-62184010D01*
X107003368Y-62346525D01*
X106796525Y-62553368D01*
X106634010Y-62796589D01*
X106522068Y-63066842D01*
X106465000Y-63353740D01*
X106465000Y-63646260D01*
X106522068Y-63933158D01*
X106634010Y-64203411D01*
X106796525Y-64446632D01*
X107003368Y-64653475D01*
X107177760Y-64770000D01*
X107003368Y-64886525D01*
X106796525Y-65093368D01*
X106634010Y-65336589D01*
X106522068Y-65606842D01*
X106465000Y-65893740D01*
X106465000Y-66186260D01*
X106522068Y-66473158D01*
X106634010Y-66743411D01*
X106796525Y-66986632D01*
X107003368Y-67193475D01*
X107177760Y-67310000D01*
X107003368Y-67426525D01*
X106796525Y-67633368D01*
X106634010Y-67876589D01*
X106522068Y-68146842D01*
X106465000Y-68433740D01*
X106465000Y-68726260D01*
X106522068Y-69013158D01*
X106634010Y-69283411D01*
X106796525Y-69526632D01*
X106928380Y-69658487D01*
X106855820Y-69680498D01*
X106745506Y-69739463D01*
X106648815Y-69818815D01*
X106569463Y-69915506D01*
X106510498Y-70025820D01*
X106474188Y-70145518D01*
X106461928Y-70270000D01*
X104825000Y-70270000D01*
X104825000Y-57746000D01*
X121193928Y-57746000D01*
X121206188Y-57870482D01*
X121242498Y-57990180D01*
X121301463Y-58100494D01*
X121380815Y-58197185D01*
X121477506Y-58276537D01*
X121587820Y-58335502D01*
X121707518Y-58371812D01*
X121832000Y-58384072D01*
X122396250Y-58381000D01*
X122555000Y-58222250D01*
X122555000Y-57023000D01*
X122809000Y-57023000D01*
X122809000Y-58222250D01*
X122967750Y-58381000D01*
X123532000Y-58384072D01*
X123656482Y-58371812D01*
X123776180Y-58335502D01*
X123886494Y-58276537D01*
X123983185Y-58197185D01*
X124062537Y-58100494D01*
X124121502Y-57990180D01*
X124145966Y-57909534D01*
X124221731Y-57993588D01*
X124455080Y-58167641D01*
X124717901Y-58292825D01*
X124865110Y-58337476D01*
X125095000Y-58216155D01*
X125095000Y-57023000D01*
X125349000Y-57023000D01*
X125349000Y-58216155D01*
X125578890Y-58337476D01*
X125726099Y-58292825D01*
X125988920Y-58167641D01*
X126222269Y-57993588D01*
X126417178Y-57777355D01*
X126566157Y-57527252D01*
X126663481Y-57252891D01*
X126542814Y-57023000D01*
X125349000Y-57023000D01*
X125095000Y-57023000D01*
X122809000Y-57023000D01*
X122555000Y-57023000D01*
X121355750Y-57023000D01*
X121197000Y-57181750D01*
X121193928Y-57746000D01*
X104825000Y-57746000D01*
X104825000Y-55803000D01*
X121242140Y-55803000D01*
X121206188Y-55921518D01*
M02*
