G04 #@! TF.GenerationSoftware,KiCad,Pcbnew,(6.0.0)*
G04 #@! TF.CreationDate,2022-02-19T22:35:43+01:00*
G04 #@! TF.ProjectId,rfreplacement,72667265-706c-4616-9365-6d656e742e6b,rev?*
G04 #@! TF.SameCoordinates,Original*
G04 #@! TF.FileFunction,Soldermask,Top*
G04 #@! TF.FilePolarity,Negative*
%FSLAX46Y46*%
G04 Gerber Fmt 4.6, Leading zero omitted, Abs format (unit mm)*
G04 Created by KiCad (PCBNEW (6.0.0)) date 2022-02-19 22:35:43*
%MOMM*%
%LPD*%
G01*
G04 APERTURE LIST*
G04 Aperture macros list*
%AMRoundRect*
0 Rectangle with rounded corners*
0 $1 Rounding radius*
0 $2 $3 $4 $5 $6 $7 $8 $9 X,Y pos of 4 corners*
0 Add a 4 corners polygon primitive as box body*
4,1,4,$2,$3,$4,$5,$6,$7,$8,$9,$2,$3,0*
0 Add four circle primitives for the rounded corners*
1,1,$1+$1,$2,$3*
1,1,$1+$1,$4,$5*
1,1,$1+$1,$6,$7*
1,1,$1+$1,$8,$9*
0 Add four rect primitives between the rounded corners*
20,1,$1+$1,$2,$3,$4,$5,0*
20,1,$1+$1,$4,$5,$6,$7,0*
20,1,$1+$1,$6,$7,$8,$9,0*
20,1,$1+$1,$8,$9,$2,$3,0*%
%AMFreePoly0*
4,1,22,0.500000,-0.750000,0.000000,-0.750000,0.000000,-0.745033,-0.079941,-0.743568,-0.215256,-0.701293,-0.333266,-0.622738,-0.424486,-0.514219,-0.481581,-0.384460,-0.499164,-0.250000,-0.500000,-0.250000,-0.500000,0.250000,-0.499164,0.250000,-0.499963,0.256109,-0.478152,0.396186,-0.417904,0.524511,-0.324060,0.630769,-0.204165,0.706417,-0.067858,0.745374,0.000000,0.744959,0.000000,0.750000,
0.500000,0.750000,0.500000,-0.750000,0.500000,-0.750000,$1*%
%AMFreePoly1*
4,1,20,0.000000,0.744959,0.073905,0.744508,0.209726,0.703889,0.328688,0.626782,0.421226,0.519385,0.479903,0.390333,0.500000,0.250000,0.500000,-0.250000,0.499851,-0.262216,0.476331,-0.402017,0.414519,-0.529596,0.319384,-0.634700,0.198574,-0.708877,0.061801,-0.746166,0.000000,-0.745033,0.000000,-0.750000,-0.500000,-0.750000,-0.500000,0.750000,0.000000,0.750000,0.000000,0.744959,
0.000000,0.744959,$1*%
G04 Aperture macros list end*
%ADD10O,1.350000X1.350000*%
%ADD11R,1.350000X1.350000*%
%ADD12R,1.700000X1.700000*%
%ADD13O,1.700000X1.700000*%
%ADD14R,0.800000X1.450000*%
%ADD15RoundRect,0.249999X0.325001X0.450001X-0.325001X0.450001X-0.325001X-0.450001X0.325001X-0.450001X0*%
%ADD16RoundRect,0.249999X0.450001X-0.325001X0.450001X0.325001X-0.450001X0.325001X-0.450001X-0.325001X0*%
%ADD17RoundRect,0.249999X-0.450001X0.325001X-0.450001X-0.325001X0.450001X-0.325001X0.450001X0.325001X0*%
%ADD18FreePoly0,180.000000*%
%ADD19FreePoly1,180.000000*%
%ADD20RoundRect,0.249999X-0.325001X-0.450001X0.325001X-0.450001X0.325001X0.450001X-0.325001X0.450001X0*%
%ADD21R,2.000000X1.500000*%
%ADD22R,2.000000X3.800000*%
%ADD23O,4.000000X2.200000*%
%ADD24O,2.200000X4.000000*%
%ADD25R,4.000000X2.200000*%
%ADD26R,1.398000X1.398000*%
%ADD27C,1.398000*%
%ADD28C,3.306000*%
%ADD29C,1.600000*%
%ADD30O,1.600000X1.600000*%
%ADD31RoundRect,0.250000X-0.325000X-0.450000X0.325000X-0.450000X0.325000X0.450000X-0.325000X0.450000X0*%
G04 APERTURE END LIST*
D10*
X142000000Y-108500000D03*
D11*
X144000000Y-108500000D03*
D10*
X142000000Y-104500000D03*
D11*
X144000000Y-104500000D03*
X144000000Y-106500000D03*
D10*
X142000000Y-106500000D03*
D12*
X107950000Y-102616000D03*
D13*
X107950000Y-100076000D03*
X107950000Y-97536000D03*
X107950000Y-94996000D03*
D14*
X117602000Y-76031000D03*
X118872000Y-76031000D03*
X120142000Y-76031000D03*
X121412000Y-76031000D03*
X121412000Y-70781000D03*
X120142000Y-70781000D03*
X118872000Y-70781000D03*
X117602000Y-70781000D03*
D15*
X118636000Y-106934000D03*
X116586000Y-106934000D03*
D16*
X123444000Y-74177000D03*
X123444000Y-72127000D03*
D17*
X118872000Y-79756000D03*
X118872000Y-81806000D03*
D16*
X121412000Y-81806000D03*
X121412000Y-79756000D03*
D18*
X118267000Y-94996000D03*
D19*
X116967000Y-94996000D03*
D17*
X122555000Y-65015000D03*
X122555000Y-67065000D03*
X114427000Y-74676000D03*
X114427000Y-76726000D03*
D20*
X115697000Y-60706000D03*
X117747000Y-60706000D03*
D15*
X117747000Y-65786000D03*
X115697000Y-65786000D03*
D20*
X115697000Y-63246000D03*
X117747000Y-63246000D03*
D15*
X123462000Y-94996000D03*
X121412000Y-94996000D03*
X123462000Y-85471000D03*
X121412000Y-85471000D03*
D16*
X114427000Y-86496000D03*
X114427000Y-84446000D03*
D21*
X116230000Y-99300000D03*
X116230000Y-101600000D03*
X116230000Y-103900000D03*
D22*
X122530000Y-101600000D03*
D16*
X114427000Y-71256000D03*
X114427000Y-69206000D03*
D17*
X116967000Y-84446000D03*
X116967000Y-86496000D03*
D16*
X116332000Y-81806000D03*
X116332000Y-79756000D03*
D12*
X107950000Y-85598000D03*
D13*
X107950000Y-83058000D03*
X107950000Y-80518000D03*
D17*
X121412000Y-89526000D03*
X121412000Y-91576000D03*
D12*
X107950000Y-71120000D03*
D13*
X107950000Y-68580000D03*
X107950000Y-66040000D03*
X107950000Y-63500000D03*
D23*
X137886000Y-101240000D03*
X139086000Y-98540000D03*
D24*
X145886000Y-96040000D03*
D25*
X141986000Y-91440000D03*
D24*
X134686000Y-91940000D03*
D26*
X139446000Y-66754000D03*
D27*
X139446000Y-73454000D03*
X136956000Y-66754000D03*
X136956000Y-73454000D03*
D28*
X143256000Y-70104000D03*
X142446000Y-76864000D03*
X142446000Y-63344000D03*
D29*
X133604000Y-66802000D03*
D30*
X125984000Y-66802000D03*
D29*
X133604000Y-73406000D03*
D30*
X125984000Y-73406000D03*
D31*
X127998000Y-73406000D03*
X130048000Y-73406000D03*
X128016000Y-66802000D03*
X130066000Y-66802000D03*
D12*
X145034000Y-84328000D03*
D13*
X145034000Y-81788000D03*
D12*
X123190000Y-109220000D03*
D13*
X125730000Y-109220000D03*
D12*
X123190000Y-56896000D03*
D13*
X125730000Y-56896000D03*
M02*
