G04 #@! TF.GenerationSoftware,KiCad,Pcbnew,(5.1.9)-1*
G04 #@! TF.CreationDate,2021-03-15T23:42:34+01:00*
G04 #@! TF.ProjectId,rfreplacement,72667265-706c-4616-9365-6d656e742e6b,rev?*
G04 #@! TF.SameCoordinates,Original*
G04 #@! TF.FileFunction,Copper,L2,Bot*
G04 #@! TF.FilePolarity,Positive*
%FSLAX46Y46*%
G04 Gerber Fmt 4.6, Leading zero omitted, Abs format (unit mm)*
G04 Created by KiCad (PCBNEW (5.1.9)-1) date 2021-03-15 23:42:34*
%MOMM*%
%LPD*%
G01*
G04 APERTURE LIST*
G04 #@! TA.AperFunction,ComponentPad*
%ADD10O,2.200000X4.000000*%
G04 #@! TD*
G04 #@! TA.AperFunction,ComponentPad*
%ADD11O,4.000000X2.200000*%
G04 #@! TD*
G04 #@! TA.AperFunction,ComponentPad*
%ADD12R,4.000000X2.200000*%
G04 #@! TD*
G04 #@! TA.AperFunction,ComponentPad*
%ADD13C,3.306000*%
G04 #@! TD*
G04 #@! TA.AperFunction,ComponentPad*
%ADD14C,1.398000*%
G04 #@! TD*
G04 #@! TA.AperFunction,ComponentPad*
%ADD15R,1.398000X1.398000*%
G04 #@! TD*
G04 #@! TA.AperFunction,ComponentPad*
%ADD16O,1.700000X1.700000*%
G04 #@! TD*
G04 #@! TA.AperFunction,ComponentPad*
%ADD17R,1.700000X1.700000*%
G04 #@! TD*
G04 #@! TA.AperFunction,ViaPad*
%ADD18C,1.200000*%
G04 #@! TD*
G04 #@! TA.AperFunction,Conductor*
%ADD19C,0.800000*%
G04 #@! TD*
G04 #@! TA.AperFunction,Conductor*
%ADD20C,0.254000*%
G04 #@! TD*
G04 #@! TA.AperFunction,Conductor*
%ADD21C,0.100000*%
G04 #@! TD*
G04 APERTURE END LIST*
D10*
X145886000Y-96040000D03*
D11*
X137886000Y-101240000D03*
X139086000Y-98540000D03*
D10*
X134686000Y-91940000D03*
D12*
X141986000Y-91440000D03*
D13*
X142446000Y-63344000D03*
X142446000Y-76864000D03*
X143256000Y-70104000D03*
D14*
X136956000Y-73454000D03*
X139446000Y-73454000D03*
X136956000Y-66754000D03*
D15*
X139446000Y-66754000D03*
D16*
X125730000Y-56896000D03*
D17*
X123190000Y-56896000D03*
D16*
X125730000Y-109220000D03*
D17*
X123190000Y-109220000D03*
D16*
X145034000Y-81788000D03*
D17*
X145034000Y-84328000D03*
D16*
X107950000Y-80518000D03*
X107950000Y-83058000D03*
D17*
X107950000Y-85598000D03*
D16*
X107950000Y-94996000D03*
X107950000Y-97536000D03*
X107950000Y-100076000D03*
D17*
X107950000Y-102616000D03*
X107950000Y-71120000D03*
D16*
X107950000Y-68580000D03*
X107950000Y-66040000D03*
X107950000Y-63500000D03*
D18*
X116332000Y-68961000D03*
X119126000Y-60706000D03*
X114300000Y-72898000D03*
X119380000Y-83566000D03*
X122047000Y-68326000D03*
X114300000Y-63246000D03*
X114427000Y-78486000D03*
X123317000Y-70231000D03*
X120650000Y-106934000D03*
D19*
X116332000Y-68961000D02*
X117729000Y-67564000D01*
X117729000Y-62103000D02*
X119126000Y-60706000D01*
X117729000Y-67564000D02*
X117729000Y-62103000D01*
X119380000Y-82717472D02*
X119380000Y-83566000D01*
X119380000Y-77978000D02*
X119380000Y-82717472D01*
X114300000Y-72898000D02*
X119380000Y-77978000D01*
X119380000Y-70993000D02*
X121447001Y-68925999D01*
X121447001Y-68925999D02*
X122047000Y-68326000D01*
X119380000Y-77978000D02*
X119380000Y-70993000D01*
X114300000Y-63246000D02*
X118040001Y-59505999D01*
X127323999Y-59505999D02*
X118040001Y-59505999D01*
X134572000Y-66754000D02*
X127323999Y-59505999D01*
X136956000Y-66754000D02*
X134572000Y-66754000D01*
X107951998Y-80518000D02*
X107950000Y-80518000D01*
X135350000Y-91412000D02*
X134850000Y-91912000D01*
X134243000Y-91912000D02*
X134850000Y-91305000D01*
X141650000Y-91305000D02*
X142150000Y-90805000D01*
X107950000Y-80518000D02*
X109728000Y-80518000D01*
X121150000Y-91940000D02*
X134686000Y-91940000D01*
X109728000Y-80518000D02*
X121150000Y-91940000D01*
X141486000Y-91940000D02*
X141986000Y-91440000D01*
X134686000Y-91940000D02*
X141486000Y-91940000D01*
X108190002Y-83058000D02*
X107950000Y-83058000D01*
X145886000Y-96040000D02*
X145251002Y-95405002D01*
X107950000Y-83058000D02*
X109728000Y-83058000D01*
X122710000Y-96040000D02*
X145886000Y-96040000D01*
X109728000Y-83058000D02*
X122710000Y-96040000D01*
X137886000Y-99740000D02*
X139086000Y-98540000D01*
X137886000Y-101240000D02*
X137886000Y-99740000D01*
X107950000Y-85598000D02*
X109728000Y-85598000D01*
X122670000Y-98540000D02*
X139086000Y-98540000D01*
X109728000Y-85598000D02*
X122670000Y-98540000D01*
D20*
X121714188Y-55921518D02*
X121701928Y-56046000D01*
X121705000Y-56610250D01*
X121863750Y-56769000D01*
X123063000Y-56769000D01*
X123063000Y-56749000D01*
X123317000Y-56749000D01*
X123317000Y-56769000D01*
X125603000Y-56769000D01*
X125603000Y-56749000D01*
X125857000Y-56749000D01*
X125857000Y-56769000D01*
X127050814Y-56769000D01*
X127171481Y-56539109D01*
X127074157Y-56264748D01*
X126925178Y-56014645D01*
X126734405Y-55803000D01*
X147397000Y-55803000D01*
X147397001Y-94286334D01*
X147335579Y-94171422D01*
X147118766Y-93907234D01*
X146854578Y-93690421D01*
X146553168Y-93529314D01*
X146226119Y-93430105D01*
X145886000Y-93396606D01*
X145545882Y-93430105D01*
X145218833Y-93529314D01*
X144917423Y-93690421D01*
X144653235Y-93907234D01*
X144436422Y-94171422D01*
X144275315Y-94472832D01*
X144176106Y-94799881D01*
X144155903Y-95005000D01*
X123138711Y-95005000D01*
X121109753Y-92976042D01*
X121149999Y-92980006D01*
X121200827Y-92975000D01*
X132955903Y-92975000D01*
X132976105Y-93180118D01*
X133075314Y-93507167D01*
X133236421Y-93808577D01*
X133453234Y-94072766D01*
X133717422Y-94289579D01*
X134018832Y-94450686D01*
X134345881Y-94549895D01*
X134686000Y-94583394D01*
X135026118Y-94549895D01*
X135353167Y-94450686D01*
X135654577Y-94289579D01*
X135918766Y-94072766D01*
X136135579Y-93808578D01*
X136296686Y-93507168D01*
X136395895Y-93180119D01*
X136416098Y-92975000D01*
X139521532Y-92975000D01*
X139534815Y-92991185D01*
X139631506Y-93070537D01*
X139741820Y-93129502D01*
X139861518Y-93165812D01*
X139986000Y-93178072D01*
X143986000Y-93178072D01*
X144110482Y-93165812D01*
X144230180Y-93129502D01*
X144340494Y-93070537D01*
X144437185Y-92991185D01*
X144516537Y-92894494D01*
X144575502Y-92784180D01*
X144611812Y-92664482D01*
X144624072Y-92540000D01*
X144624072Y-90340000D01*
X144611812Y-90215518D01*
X144575502Y-90095820D01*
X144516537Y-89985506D01*
X144437185Y-89888815D01*
X144340494Y-89809463D01*
X144230180Y-89750498D01*
X144110482Y-89714188D01*
X143986000Y-89701928D01*
X139986000Y-89701928D01*
X139861518Y-89714188D01*
X139741820Y-89750498D01*
X139631506Y-89809463D01*
X139534815Y-89888815D01*
X139455463Y-89985506D01*
X139396498Y-90095820D01*
X139360188Y-90215518D01*
X139347928Y-90340000D01*
X139347928Y-90905000D01*
X136416098Y-90905000D01*
X136395895Y-90699881D01*
X136296686Y-90372832D01*
X136135579Y-90071422D01*
X135918766Y-89807234D01*
X135654578Y-89590421D01*
X135353168Y-89429314D01*
X135026119Y-89330105D01*
X134686000Y-89296606D01*
X134345882Y-89330105D01*
X134018833Y-89429314D01*
X133717423Y-89590421D01*
X133453235Y-89807234D01*
X133236422Y-90071422D01*
X133075315Y-90372832D01*
X132976106Y-90699881D01*
X132955903Y-90905000D01*
X121578711Y-90905000D01*
X115851711Y-85178000D01*
X143545928Y-85178000D01*
X143558188Y-85302482D01*
X143594498Y-85422180D01*
X143653463Y-85532494D01*
X143732815Y-85629185D01*
X143829506Y-85708537D01*
X143939820Y-85767502D01*
X144059518Y-85803812D01*
X144184000Y-85816072D01*
X144748250Y-85813000D01*
X144907000Y-85654250D01*
X144907000Y-84455000D01*
X145161000Y-84455000D01*
X145161000Y-85654250D01*
X145319750Y-85813000D01*
X145884000Y-85816072D01*
X146008482Y-85803812D01*
X146128180Y-85767502D01*
X146238494Y-85708537D01*
X146335185Y-85629185D01*
X146414537Y-85532494D01*
X146473502Y-85422180D01*
X146509812Y-85302482D01*
X146522072Y-85178000D01*
X146519000Y-84613750D01*
X146360250Y-84455000D01*
X145161000Y-84455000D01*
X144907000Y-84455000D01*
X143707750Y-84455000D01*
X143549000Y-84613750D01*
X143545928Y-85178000D01*
X115851711Y-85178000D01*
X110495807Y-79822097D01*
X110463396Y-79782604D01*
X110305797Y-79653266D01*
X110125993Y-79557159D01*
X109930895Y-79497976D01*
X109778838Y-79483000D01*
X109778828Y-79483000D01*
X109728000Y-79477994D01*
X109677172Y-79483000D01*
X109015107Y-79483000D01*
X108896632Y-79364525D01*
X108653411Y-79202010D01*
X108383158Y-79090068D01*
X108096260Y-79033000D01*
X107803740Y-79033000D01*
X107516842Y-79090068D01*
X107246589Y-79202010D01*
X107003368Y-79364525D01*
X106796525Y-79571368D01*
X106634010Y-79814589D01*
X106522068Y-80084842D01*
X106465000Y-80371740D01*
X106465000Y-80664260D01*
X106522068Y-80951158D01*
X106634010Y-81221411D01*
X106796525Y-81464632D01*
X107003368Y-81671475D01*
X107177760Y-81788000D01*
X107003368Y-81904525D01*
X106796525Y-82111368D01*
X106634010Y-82354589D01*
X106522068Y-82624842D01*
X106465000Y-82911740D01*
X106465000Y-83204260D01*
X106522068Y-83491158D01*
X106634010Y-83761411D01*
X106796525Y-84004632D01*
X106928380Y-84136487D01*
X106855820Y-84158498D01*
X106745506Y-84217463D01*
X106648815Y-84296815D01*
X106569463Y-84393506D01*
X106510498Y-84503820D01*
X106474188Y-84623518D01*
X106461928Y-84748000D01*
X106461928Y-86448000D01*
X106474188Y-86572482D01*
X106510498Y-86692180D01*
X106569463Y-86802494D01*
X106648815Y-86899185D01*
X106745506Y-86978537D01*
X106855820Y-87037502D01*
X106975518Y-87073812D01*
X107100000Y-87086072D01*
X108800000Y-87086072D01*
X108924482Y-87073812D01*
X109044180Y-87037502D01*
X109154494Y-86978537D01*
X109251185Y-86899185D01*
X109330537Y-86802494D01*
X109378693Y-86712403D01*
X121902197Y-99235908D01*
X121934604Y-99275396D01*
X121974092Y-99307803D01*
X122092202Y-99404734D01*
X122188309Y-99456104D01*
X122272007Y-99500841D01*
X122467105Y-99560024D01*
X122619162Y-99575000D01*
X122619164Y-99575000D01*
X122670000Y-99580007D01*
X122720835Y-99575000D01*
X136497882Y-99575000D01*
X136318832Y-99629314D01*
X136017422Y-99790421D01*
X135753234Y-100007234D01*
X135536421Y-100271422D01*
X135375314Y-100572832D01*
X135276105Y-100899881D01*
X135242606Y-101240000D01*
X135276105Y-101580119D01*
X135375314Y-101907168D01*
X135536421Y-102208578D01*
X135753234Y-102472766D01*
X136017422Y-102689579D01*
X136318832Y-102850686D01*
X136645881Y-102949895D01*
X136900775Y-102975000D01*
X138871225Y-102975000D01*
X139126119Y-102949895D01*
X139453168Y-102850686D01*
X139754578Y-102689579D01*
X140018766Y-102472766D01*
X140235579Y-102208578D01*
X140396686Y-101907168D01*
X140495895Y-101580119D01*
X140529394Y-101240000D01*
X140495895Y-100899881D01*
X140396686Y-100572832D01*
X140235579Y-100271422D01*
X140226005Y-100259755D01*
X140326119Y-100249895D01*
X140653168Y-100150686D01*
X140954578Y-99989579D01*
X141218766Y-99772766D01*
X141435579Y-99508578D01*
X141596686Y-99207168D01*
X141695895Y-98880119D01*
X141729394Y-98540000D01*
X141695895Y-98199881D01*
X141596686Y-97872832D01*
X141435579Y-97571422D01*
X141218766Y-97307234D01*
X140954578Y-97090421D01*
X140925727Y-97075000D01*
X144155903Y-97075000D01*
X144176105Y-97280118D01*
X144275314Y-97607167D01*
X144436421Y-97908577D01*
X144653234Y-98172766D01*
X144917422Y-98389579D01*
X145218832Y-98550686D01*
X145545881Y-98649895D01*
X145886000Y-98683394D01*
X146226118Y-98649895D01*
X146553167Y-98550686D01*
X146854577Y-98389579D01*
X147118766Y-98172766D01*
X147335579Y-97908578D01*
X147397001Y-97793666D01*
X147397001Y-110313000D01*
X126734405Y-110313000D01*
X126925178Y-110101355D01*
X127074157Y-109851252D01*
X127171481Y-109576891D01*
X127050814Y-109347000D01*
X125857000Y-109347000D01*
X125857000Y-109367000D01*
X125603000Y-109367000D01*
X125603000Y-109347000D01*
X123317000Y-109347000D01*
X123317000Y-109367000D01*
X123063000Y-109367000D01*
X123063000Y-109347000D01*
X121863750Y-109347000D01*
X121705000Y-109505750D01*
X121701928Y-110070000D01*
X121714188Y-110194482D01*
X121750140Y-110313000D01*
X104825000Y-110313000D01*
X104825000Y-108370000D01*
X121701928Y-108370000D01*
X121705000Y-108934250D01*
X121863750Y-109093000D01*
X123063000Y-109093000D01*
X123063000Y-107893750D01*
X123317000Y-107893750D01*
X123317000Y-109093000D01*
X125603000Y-109093000D01*
X125603000Y-107899845D01*
X125857000Y-107899845D01*
X125857000Y-109093000D01*
X127050814Y-109093000D01*
X127171481Y-108863109D01*
X127074157Y-108588748D01*
X126925178Y-108338645D01*
X126730269Y-108122412D01*
X126496920Y-107948359D01*
X126234099Y-107823175D01*
X126086890Y-107778524D01*
X125857000Y-107899845D01*
X125603000Y-107899845D01*
X125373110Y-107778524D01*
X125225901Y-107823175D01*
X124963080Y-107948359D01*
X124729731Y-108122412D01*
X124653966Y-108206466D01*
X124629502Y-108125820D01*
X124570537Y-108015506D01*
X124491185Y-107918815D01*
X124394494Y-107839463D01*
X124284180Y-107780498D01*
X124164482Y-107744188D01*
X124040000Y-107731928D01*
X123475750Y-107735000D01*
X123317000Y-107893750D01*
X123063000Y-107893750D01*
X122904250Y-107735000D01*
X122340000Y-107731928D01*
X122215518Y-107744188D01*
X122095820Y-107780498D01*
X121985506Y-107839463D01*
X121888815Y-107918815D01*
X121809463Y-108015506D01*
X121750498Y-108125820D01*
X121714188Y-108245518D01*
X121701928Y-108370000D01*
X104825000Y-108370000D01*
X104825000Y-101766000D01*
X106461928Y-101766000D01*
X106461928Y-103466000D01*
X106474188Y-103590482D01*
X106510498Y-103710180D01*
X106569463Y-103820494D01*
X106648815Y-103917185D01*
X106745506Y-103996537D01*
X106855820Y-104055502D01*
X106975518Y-104091812D01*
X107100000Y-104104072D01*
X108800000Y-104104072D01*
X108924482Y-104091812D01*
X109044180Y-104055502D01*
X109154494Y-103996537D01*
X109251185Y-103917185D01*
X109330537Y-103820494D01*
X109389502Y-103710180D01*
X109425812Y-103590482D01*
X109438072Y-103466000D01*
X109438072Y-101766000D01*
X109425812Y-101641518D01*
X109389502Y-101521820D01*
X109330537Y-101411506D01*
X109251185Y-101314815D01*
X109154494Y-101235463D01*
X109044180Y-101176498D01*
X108971620Y-101154487D01*
X109103475Y-101022632D01*
X109265990Y-100779411D01*
X109377932Y-100509158D01*
X109435000Y-100222260D01*
X109435000Y-99929740D01*
X109377932Y-99642842D01*
X109265990Y-99372589D01*
X109103475Y-99129368D01*
X108896632Y-98922525D01*
X108714466Y-98800805D01*
X108831355Y-98731178D01*
X109047588Y-98536269D01*
X109221641Y-98302920D01*
X109346825Y-98040099D01*
X109391476Y-97892890D01*
X109270155Y-97663000D01*
X108077000Y-97663000D01*
X108077000Y-97683000D01*
X107823000Y-97683000D01*
X107823000Y-97663000D01*
X106629845Y-97663000D01*
X106508524Y-97892890D01*
X106553175Y-98040099D01*
X106678359Y-98302920D01*
X106852412Y-98536269D01*
X107068645Y-98731178D01*
X107185534Y-98800805D01*
X107003368Y-98922525D01*
X106796525Y-99129368D01*
X106634010Y-99372589D01*
X106522068Y-99642842D01*
X106465000Y-99929740D01*
X106465000Y-100222260D01*
X106522068Y-100509158D01*
X106634010Y-100779411D01*
X106796525Y-101022632D01*
X106928380Y-101154487D01*
X106855820Y-101176498D01*
X106745506Y-101235463D01*
X106648815Y-101314815D01*
X106569463Y-101411506D01*
X106510498Y-101521820D01*
X106474188Y-101641518D01*
X106461928Y-101766000D01*
X104825000Y-101766000D01*
X104825000Y-94849740D01*
X106465000Y-94849740D01*
X106465000Y-95142260D01*
X106522068Y-95429158D01*
X106634010Y-95699411D01*
X106796525Y-95942632D01*
X107003368Y-96149475D01*
X107185534Y-96271195D01*
X107068645Y-96340822D01*
X106852412Y-96535731D01*
X106678359Y-96769080D01*
X106553175Y-97031901D01*
X106508524Y-97179110D01*
X106629845Y-97409000D01*
X107823000Y-97409000D01*
X107823000Y-97389000D01*
X108077000Y-97389000D01*
X108077000Y-97409000D01*
X109270155Y-97409000D01*
X109391476Y-97179110D01*
X109346825Y-97031901D01*
X109221641Y-96769080D01*
X109047588Y-96535731D01*
X108831355Y-96340822D01*
X108714466Y-96271195D01*
X108896632Y-96149475D01*
X109103475Y-95942632D01*
X109265990Y-95699411D01*
X109377932Y-95429158D01*
X109435000Y-95142260D01*
X109435000Y-94849740D01*
X109377932Y-94562842D01*
X109265990Y-94292589D01*
X109103475Y-94049368D01*
X108896632Y-93842525D01*
X108653411Y-93680010D01*
X108383158Y-93568068D01*
X108096260Y-93511000D01*
X107803740Y-93511000D01*
X107516842Y-93568068D01*
X107246589Y-93680010D01*
X107003368Y-93842525D01*
X106796525Y-94049368D01*
X106634010Y-94292589D01*
X106522068Y-94562842D01*
X106465000Y-94849740D01*
X104825000Y-94849740D01*
X104825000Y-72776363D01*
X113065000Y-72776363D01*
X113065000Y-73019637D01*
X113112460Y-73258236D01*
X113205557Y-73482992D01*
X113340713Y-73685267D01*
X113512733Y-73857287D01*
X113715008Y-73992443D01*
X113939764Y-74085540D01*
X114044704Y-74106414D01*
X118345000Y-78406711D01*
X118345001Y-82666625D01*
X118345000Y-82666635D01*
X118345000Y-82892045D01*
X118285557Y-82981008D01*
X118192460Y-83205764D01*
X118145000Y-83444363D01*
X118145000Y-83687637D01*
X118192460Y-83926236D01*
X118285557Y-84150992D01*
X118420713Y-84353267D01*
X118592733Y-84525287D01*
X118795008Y-84660443D01*
X119019764Y-84753540D01*
X119258363Y-84801000D01*
X119501637Y-84801000D01*
X119740236Y-84753540D01*
X119964992Y-84660443D01*
X120167267Y-84525287D01*
X120339287Y-84353267D01*
X120474443Y-84150992D01*
X120567540Y-83926236D01*
X120615000Y-83687637D01*
X120615000Y-83478000D01*
X143545928Y-83478000D01*
X143549000Y-84042250D01*
X143707750Y-84201000D01*
X144907000Y-84201000D01*
X144907000Y-81915000D01*
X145161000Y-81915000D01*
X145161000Y-84201000D01*
X146360250Y-84201000D01*
X146519000Y-84042250D01*
X146522072Y-83478000D01*
X146509812Y-83353518D01*
X146473502Y-83233820D01*
X146414537Y-83123506D01*
X146335185Y-83026815D01*
X146238494Y-82947463D01*
X146128180Y-82888498D01*
X146047534Y-82864034D01*
X146131588Y-82788269D01*
X146305641Y-82554920D01*
X146430825Y-82292099D01*
X146475476Y-82144890D01*
X146354155Y-81915000D01*
X145161000Y-81915000D01*
X144907000Y-81915000D01*
X143713845Y-81915000D01*
X143592524Y-82144890D01*
X143637175Y-82292099D01*
X143762359Y-82554920D01*
X143936412Y-82788269D01*
X144020466Y-82864034D01*
X143939820Y-82888498D01*
X143829506Y-82947463D01*
X143732815Y-83026815D01*
X143653463Y-83123506D01*
X143594498Y-83233820D01*
X143558188Y-83353518D01*
X143545928Y-83478000D01*
X120615000Y-83478000D01*
X120615000Y-83444363D01*
X120567540Y-83205764D01*
X120474443Y-82981008D01*
X120415000Y-82892045D01*
X120415000Y-81431110D01*
X143592524Y-81431110D01*
X143713845Y-81661000D01*
X144907000Y-81661000D01*
X144907000Y-80467186D01*
X145161000Y-80467186D01*
X145161000Y-81661000D01*
X146354155Y-81661000D01*
X146475476Y-81431110D01*
X146430825Y-81283901D01*
X146305641Y-81021080D01*
X146131588Y-80787731D01*
X145915355Y-80592822D01*
X145665252Y-80443843D01*
X145390891Y-80346519D01*
X145161000Y-80467186D01*
X144907000Y-80467186D01*
X144677109Y-80346519D01*
X144402748Y-80443843D01*
X144152645Y-80592822D01*
X143936412Y-80787731D01*
X143762359Y-81021080D01*
X143637175Y-81283901D01*
X143592524Y-81431110D01*
X120415000Y-81431110D01*
X120415000Y-78028835D01*
X120420007Y-77978000D01*
X120415000Y-77927162D01*
X120415000Y-76638652D01*
X140158000Y-76638652D01*
X140158000Y-77089348D01*
X140245926Y-77531385D01*
X140418400Y-77947775D01*
X140668794Y-78322515D01*
X140987485Y-78641206D01*
X141362225Y-78891600D01*
X141778615Y-79064074D01*
X142220652Y-79152000D01*
X142671348Y-79152000D01*
X143113385Y-79064074D01*
X143529775Y-78891600D01*
X143904515Y-78641206D01*
X144223206Y-78322515D01*
X144473600Y-77947775D01*
X144646074Y-77531385D01*
X144734000Y-77089348D01*
X144734000Y-76638652D01*
X144646074Y-76196615D01*
X144473600Y-75780225D01*
X144223206Y-75405485D01*
X143904515Y-75086794D01*
X143529775Y-74836400D01*
X143113385Y-74663926D01*
X142671348Y-74576000D01*
X142220652Y-74576000D01*
X141778615Y-74663926D01*
X141362225Y-74836400D01*
X140987485Y-75086794D01*
X140668794Y-75405485D01*
X140418400Y-75780225D01*
X140245926Y-76196615D01*
X140158000Y-76638652D01*
X120415000Y-76638652D01*
X120415000Y-73322612D01*
X135622000Y-73322612D01*
X135622000Y-73585388D01*
X135673265Y-73843114D01*
X135773824Y-74085886D01*
X135919814Y-74304376D01*
X136105624Y-74490186D01*
X136324114Y-74636176D01*
X136566886Y-74736735D01*
X136824612Y-74788000D01*
X137087388Y-74788000D01*
X137345114Y-74736735D01*
X137587886Y-74636176D01*
X137806376Y-74490186D01*
X137922007Y-74374555D01*
X138705050Y-74374555D01*
X138764389Y-74608221D01*
X139002664Y-74719018D01*
X139257975Y-74781202D01*
X139520512Y-74792382D01*
X139780186Y-74752129D01*
X140027017Y-74661990D01*
X140127611Y-74608221D01*
X140186950Y-74374555D01*
X139446000Y-73633605D01*
X138705050Y-74374555D01*
X137922007Y-74374555D01*
X137992186Y-74304376D01*
X138138176Y-74085886D01*
X138201106Y-73933960D01*
X138238010Y-74035017D01*
X138291779Y-74135611D01*
X138525445Y-74194950D01*
X139266395Y-73454000D01*
X139625605Y-73454000D01*
X140366555Y-74194950D01*
X140600221Y-74135611D01*
X140711018Y-73897336D01*
X140773202Y-73642025D01*
X140784382Y-73379488D01*
X140744129Y-73119814D01*
X140653990Y-72872983D01*
X140600221Y-72772389D01*
X140366555Y-72713050D01*
X139625605Y-73454000D01*
X139266395Y-73454000D01*
X138525445Y-72713050D01*
X138291779Y-72772389D01*
X138199648Y-72970521D01*
X138138176Y-72822114D01*
X137992186Y-72603624D01*
X137922007Y-72533445D01*
X138705050Y-72533445D01*
X139446000Y-73274395D01*
X140186950Y-72533445D01*
X140127611Y-72299779D01*
X139889336Y-72188982D01*
X139634025Y-72126798D01*
X139371488Y-72115618D01*
X139111814Y-72155871D01*
X138864983Y-72246010D01*
X138764389Y-72299779D01*
X138705050Y-72533445D01*
X137922007Y-72533445D01*
X137806376Y-72417814D01*
X137587886Y-72271824D01*
X137345114Y-72171265D01*
X137087388Y-72120000D01*
X136824612Y-72120000D01*
X136566886Y-72171265D01*
X136324114Y-72271824D01*
X136105624Y-72417814D01*
X135919814Y-72603624D01*
X135773824Y-72822114D01*
X135673265Y-73064886D01*
X135622000Y-73322612D01*
X120415000Y-73322612D01*
X120415000Y-71421710D01*
X121958058Y-69878652D01*
X140968000Y-69878652D01*
X140968000Y-70329348D01*
X141055926Y-70771385D01*
X141228400Y-71187775D01*
X141478794Y-71562515D01*
X141797485Y-71881206D01*
X142172225Y-72131600D01*
X142588615Y-72304074D01*
X143030652Y-72392000D01*
X143481348Y-72392000D01*
X143923385Y-72304074D01*
X144339775Y-72131600D01*
X144714515Y-71881206D01*
X145033206Y-71562515D01*
X145283600Y-71187775D01*
X145456074Y-70771385D01*
X145544000Y-70329348D01*
X145544000Y-69878652D01*
X145456074Y-69436615D01*
X145283600Y-69020225D01*
X145033206Y-68645485D01*
X144714515Y-68326794D01*
X144339775Y-68076400D01*
X143923385Y-67903926D01*
X143481348Y-67816000D01*
X143030652Y-67816000D01*
X142588615Y-67903926D01*
X142172225Y-68076400D01*
X141797485Y-68326794D01*
X141478794Y-68645485D01*
X141228400Y-69020225D01*
X141055926Y-69436615D01*
X140968000Y-69878652D01*
X121958058Y-69878652D01*
X122214804Y-69621907D01*
X122214809Y-69621901D01*
X122302296Y-69534414D01*
X122407236Y-69513540D01*
X122631992Y-69420443D01*
X122834267Y-69285287D01*
X123006287Y-69113267D01*
X123141443Y-68910992D01*
X123234540Y-68686236D01*
X123282000Y-68447637D01*
X123282000Y-68204363D01*
X123234540Y-67965764D01*
X123141443Y-67741008D01*
X123006287Y-67538733D01*
X122834267Y-67366713D01*
X122631992Y-67231557D01*
X122407236Y-67138460D01*
X122168637Y-67091000D01*
X121925363Y-67091000D01*
X121686764Y-67138460D01*
X121462008Y-67231557D01*
X121259733Y-67366713D01*
X121087713Y-67538733D01*
X120952557Y-67741008D01*
X120859460Y-67965764D01*
X120838586Y-68070704D01*
X120751099Y-68158191D01*
X120751093Y-68158196D01*
X118684092Y-70225198D01*
X118644605Y-70257604D01*
X118612198Y-70297092D01*
X118612197Y-70297093D01*
X118515266Y-70415203D01*
X118419160Y-70595007D01*
X118359977Y-70790105D01*
X118339994Y-70993000D01*
X118345001Y-71043838D01*
X118345000Y-75479290D01*
X115508414Y-72642704D01*
X115487540Y-72537764D01*
X115394443Y-72313008D01*
X115259287Y-72110733D01*
X115087267Y-71938713D01*
X114884992Y-71803557D01*
X114660236Y-71710460D01*
X114421637Y-71663000D01*
X114178363Y-71663000D01*
X113939764Y-71710460D01*
X113715008Y-71803557D01*
X113512733Y-71938713D01*
X113340713Y-72110733D01*
X113205557Y-72313008D01*
X113112460Y-72537764D01*
X113065000Y-72776363D01*
X104825000Y-72776363D01*
X104825000Y-70270000D01*
X106461928Y-70270000D01*
X106461928Y-71970000D01*
X106474188Y-72094482D01*
X106510498Y-72214180D01*
X106569463Y-72324494D01*
X106648815Y-72421185D01*
X106745506Y-72500537D01*
X106855820Y-72559502D01*
X106975518Y-72595812D01*
X107100000Y-72608072D01*
X108800000Y-72608072D01*
X108924482Y-72595812D01*
X109044180Y-72559502D01*
X109154494Y-72500537D01*
X109251185Y-72421185D01*
X109330537Y-72324494D01*
X109389502Y-72214180D01*
X109425812Y-72094482D01*
X109438072Y-71970000D01*
X109438072Y-70270000D01*
X109425812Y-70145518D01*
X109389502Y-70025820D01*
X109330537Y-69915506D01*
X109251185Y-69818815D01*
X109154494Y-69739463D01*
X109044180Y-69680498D01*
X108971620Y-69658487D01*
X109103475Y-69526632D01*
X109265990Y-69283411D01*
X109377932Y-69013158D01*
X109435000Y-68726260D01*
X109435000Y-68433740D01*
X109377932Y-68146842D01*
X109265990Y-67876589D01*
X109103475Y-67633368D01*
X108896632Y-67426525D01*
X108722240Y-67310000D01*
X108896632Y-67193475D01*
X109103475Y-66986632D01*
X109265990Y-66743411D01*
X109377932Y-66473158D01*
X109435000Y-66186260D01*
X109435000Y-65893740D01*
X109377932Y-65606842D01*
X109265990Y-65336589D01*
X109103475Y-65093368D01*
X108896632Y-64886525D01*
X108722240Y-64770000D01*
X108896632Y-64653475D01*
X109103475Y-64446632D01*
X109265990Y-64203411D01*
X109377932Y-63933158D01*
X109435000Y-63646260D01*
X109435000Y-63353740D01*
X109389374Y-63124363D01*
X113065000Y-63124363D01*
X113065000Y-63367637D01*
X113112460Y-63606236D01*
X113205557Y-63830992D01*
X113340713Y-64033267D01*
X113512733Y-64205287D01*
X113715008Y-64340443D01*
X113939764Y-64433540D01*
X114178363Y-64481000D01*
X114421637Y-64481000D01*
X114660236Y-64433540D01*
X114884992Y-64340443D01*
X115087267Y-64205287D01*
X115259287Y-64033267D01*
X115394443Y-63830992D01*
X115487540Y-63606236D01*
X115508414Y-63501296D01*
X116694001Y-62315709D01*
X116694000Y-67135289D01*
X116076703Y-67752586D01*
X115971764Y-67773460D01*
X115747008Y-67866557D01*
X115544733Y-68001713D01*
X115372713Y-68173733D01*
X115237557Y-68376008D01*
X115144460Y-68600764D01*
X115097000Y-68839363D01*
X115097000Y-69082637D01*
X115144460Y-69321236D01*
X115237557Y-69545992D01*
X115372713Y-69748267D01*
X115544733Y-69920287D01*
X115747008Y-70055443D01*
X115971764Y-70148540D01*
X116210363Y-70196000D01*
X116453637Y-70196000D01*
X116692236Y-70148540D01*
X116916992Y-70055443D01*
X117119267Y-69920287D01*
X117291287Y-69748267D01*
X117426443Y-69545992D01*
X117519540Y-69321236D01*
X117540414Y-69216297D01*
X118424908Y-68331803D01*
X118464396Y-68299396D01*
X118496803Y-68259908D01*
X118593734Y-68141798D01*
X118668610Y-68001713D01*
X118689841Y-67961993D01*
X118749024Y-67766895D01*
X118764000Y-67614838D01*
X118764000Y-67614829D01*
X118769006Y-67564001D01*
X118764000Y-67513173D01*
X118764000Y-62531710D01*
X119381297Y-61914414D01*
X119486236Y-61893540D01*
X119710992Y-61800443D01*
X119913267Y-61665287D01*
X120085287Y-61493267D01*
X120220443Y-61290992D01*
X120313540Y-61066236D01*
X120361000Y-60827637D01*
X120361000Y-60584363D01*
X120352374Y-60540999D01*
X126895289Y-60540999D01*
X133804197Y-67449908D01*
X133836604Y-67489396D01*
X133876092Y-67521803D01*
X133994202Y-67618734D01*
X134021581Y-67633368D01*
X134174007Y-67714841D01*
X134369105Y-67774024D01*
X134521162Y-67789000D01*
X134521171Y-67789000D01*
X134571999Y-67794006D01*
X134622827Y-67789000D01*
X136104438Y-67789000D01*
X136105624Y-67790186D01*
X136324114Y-67936176D01*
X136566886Y-68036735D01*
X136824612Y-68088000D01*
X137087388Y-68088000D01*
X137345114Y-68036735D01*
X137587886Y-67936176D01*
X137806376Y-67790186D01*
X137992186Y-67604376D01*
X138109103Y-67429396D01*
X138108928Y-67453000D01*
X138121188Y-67577482D01*
X138157498Y-67697180D01*
X138216463Y-67807494D01*
X138295815Y-67904185D01*
X138392506Y-67983537D01*
X138502820Y-68042502D01*
X138622518Y-68078812D01*
X138747000Y-68091072D01*
X139160250Y-68088000D01*
X139319000Y-67929250D01*
X139319000Y-66881000D01*
X139573000Y-66881000D01*
X139573000Y-67929250D01*
X139731750Y-68088000D01*
X140145000Y-68091072D01*
X140269482Y-68078812D01*
X140389180Y-68042502D01*
X140499494Y-67983537D01*
X140596185Y-67904185D01*
X140675537Y-67807494D01*
X140734502Y-67697180D01*
X140770812Y-67577482D01*
X140783072Y-67453000D01*
X140780000Y-67039750D01*
X140621250Y-66881000D01*
X139573000Y-66881000D01*
X139319000Y-66881000D01*
X139299000Y-66881000D01*
X139299000Y-66627000D01*
X139319000Y-66627000D01*
X139319000Y-65578750D01*
X139573000Y-65578750D01*
X139573000Y-66627000D01*
X140621250Y-66627000D01*
X140780000Y-66468250D01*
X140783072Y-66055000D01*
X140770812Y-65930518D01*
X140734502Y-65810820D01*
X140675537Y-65700506D01*
X140596185Y-65603815D01*
X140499494Y-65524463D01*
X140389180Y-65465498D01*
X140269482Y-65429188D01*
X140145000Y-65416928D01*
X139731750Y-65420000D01*
X139573000Y-65578750D01*
X139319000Y-65578750D01*
X139160250Y-65420000D01*
X138747000Y-65416928D01*
X138622518Y-65429188D01*
X138502820Y-65465498D01*
X138392506Y-65524463D01*
X138295815Y-65603815D01*
X138216463Y-65700506D01*
X138157498Y-65810820D01*
X138121188Y-65930518D01*
X138108928Y-66055000D01*
X138109103Y-66078604D01*
X137992186Y-65903624D01*
X137806376Y-65717814D01*
X137587886Y-65571824D01*
X137345114Y-65471265D01*
X137087388Y-65420000D01*
X136824612Y-65420000D01*
X136566886Y-65471265D01*
X136324114Y-65571824D01*
X136105624Y-65717814D01*
X136104438Y-65719000D01*
X135000711Y-65719000D01*
X132400363Y-63118652D01*
X140158000Y-63118652D01*
X140158000Y-63569348D01*
X140245926Y-64011385D01*
X140418400Y-64427775D01*
X140668794Y-64802515D01*
X140987485Y-65121206D01*
X141362225Y-65371600D01*
X141778615Y-65544074D01*
X142220652Y-65632000D01*
X142671348Y-65632000D01*
X143113385Y-65544074D01*
X143529775Y-65371600D01*
X143904515Y-65121206D01*
X144223206Y-64802515D01*
X144473600Y-64427775D01*
X144646074Y-64011385D01*
X144734000Y-63569348D01*
X144734000Y-63118652D01*
X144646074Y-62676615D01*
X144473600Y-62260225D01*
X144223206Y-61885485D01*
X143904515Y-61566794D01*
X143529775Y-61316400D01*
X143113385Y-61143926D01*
X142671348Y-61056000D01*
X142220652Y-61056000D01*
X141778615Y-61143926D01*
X141362225Y-61316400D01*
X140987485Y-61566794D01*
X140668794Y-61885485D01*
X140418400Y-62260225D01*
X140245926Y-62676615D01*
X140158000Y-63118652D01*
X132400363Y-63118652D01*
X128091806Y-58810096D01*
X128059395Y-58770603D01*
X127901796Y-58641265D01*
X127721992Y-58545158D01*
X127526894Y-58485975D01*
X127374837Y-58470999D01*
X127374827Y-58470999D01*
X127323999Y-58465993D01*
X127273171Y-58470999D01*
X118090828Y-58470999D01*
X118040000Y-58465993D01*
X117989172Y-58470999D01*
X117989163Y-58470999D01*
X117837106Y-58485975D01*
X117642008Y-58545158D01*
X117558310Y-58589895D01*
X117462203Y-58641265D01*
X117344093Y-58738196D01*
X117304605Y-58770603D01*
X117272198Y-58810091D01*
X114044704Y-62037586D01*
X113939764Y-62058460D01*
X113715008Y-62151557D01*
X113512733Y-62286713D01*
X113340713Y-62458733D01*
X113205557Y-62661008D01*
X113112460Y-62885764D01*
X113065000Y-63124363D01*
X109389374Y-63124363D01*
X109377932Y-63066842D01*
X109265990Y-62796589D01*
X109103475Y-62553368D01*
X108896632Y-62346525D01*
X108653411Y-62184010D01*
X108383158Y-62072068D01*
X108096260Y-62015000D01*
X107803740Y-62015000D01*
X107516842Y-62072068D01*
X107246589Y-62184010D01*
X107003368Y-62346525D01*
X106796525Y-62553368D01*
X106634010Y-62796589D01*
X106522068Y-63066842D01*
X106465000Y-63353740D01*
X106465000Y-63646260D01*
X106522068Y-63933158D01*
X106634010Y-64203411D01*
X106796525Y-64446632D01*
X107003368Y-64653475D01*
X107177760Y-64770000D01*
X107003368Y-64886525D01*
X106796525Y-65093368D01*
X106634010Y-65336589D01*
X106522068Y-65606842D01*
X106465000Y-65893740D01*
X106465000Y-66186260D01*
X106522068Y-66473158D01*
X106634010Y-66743411D01*
X106796525Y-66986632D01*
X107003368Y-67193475D01*
X107177760Y-67310000D01*
X107003368Y-67426525D01*
X106796525Y-67633368D01*
X106634010Y-67876589D01*
X106522068Y-68146842D01*
X106465000Y-68433740D01*
X106465000Y-68726260D01*
X106522068Y-69013158D01*
X106634010Y-69283411D01*
X106796525Y-69526632D01*
X106928380Y-69658487D01*
X106855820Y-69680498D01*
X106745506Y-69739463D01*
X106648815Y-69818815D01*
X106569463Y-69915506D01*
X106510498Y-70025820D01*
X106474188Y-70145518D01*
X106461928Y-70270000D01*
X104825000Y-70270000D01*
X104825000Y-57746000D01*
X121701928Y-57746000D01*
X121714188Y-57870482D01*
X121750498Y-57990180D01*
X121809463Y-58100494D01*
X121888815Y-58197185D01*
X121985506Y-58276537D01*
X122095820Y-58335502D01*
X122215518Y-58371812D01*
X122340000Y-58384072D01*
X122904250Y-58381000D01*
X123063000Y-58222250D01*
X123063000Y-57023000D01*
X123317000Y-57023000D01*
X123317000Y-58222250D01*
X123475750Y-58381000D01*
X124040000Y-58384072D01*
X124164482Y-58371812D01*
X124284180Y-58335502D01*
X124394494Y-58276537D01*
X124491185Y-58197185D01*
X124570537Y-58100494D01*
X124629502Y-57990180D01*
X124653966Y-57909534D01*
X124729731Y-57993588D01*
X124963080Y-58167641D01*
X125225901Y-58292825D01*
X125373110Y-58337476D01*
X125603000Y-58216155D01*
X125603000Y-57023000D01*
X125857000Y-57023000D01*
X125857000Y-58216155D01*
X126086890Y-58337476D01*
X126234099Y-58292825D01*
X126496920Y-58167641D01*
X126730269Y-57993588D01*
X126925178Y-57777355D01*
X127074157Y-57527252D01*
X127171481Y-57252891D01*
X127050814Y-57023000D01*
X125857000Y-57023000D01*
X125603000Y-57023000D01*
X123317000Y-57023000D01*
X123063000Y-57023000D01*
X121863750Y-57023000D01*
X121705000Y-57181750D01*
X121701928Y-57746000D01*
X104825000Y-57746000D01*
X104825000Y-55803000D01*
X121750140Y-55803000D01*
X121714188Y-55921518D01*
G04 #@! TA.AperFunction,Conductor*
D21*
G36*
X121714188Y-55921518D02*
G01*
X121701928Y-56046000D01*
X121705000Y-56610250D01*
X121863750Y-56769000D01*
X123063000Y-56769000D01*
X123063000Y-56749000D01*
X123317000Y-56749000D01*
X123317000Y-56769000D01*
X125603000Y-56769000D01*
X125603000Y-56749000D01*
X125857000Y-56749000D01*
X125857000Y-56769000D01*
X127050814Y-56769000D01*
X127171481Y-56539109D01*
X127074157Y-56264748D01*
X126925178Y-56014645D01*
X126734405Y-55803000D01*
X147397000Y-55803000D01*
X147397001Y-94286334D01*
X147335579Y-94171422D01*
X147118766Y-93907234D01*
X146854578Y-93690421D01*
X146553168Y-93529314D01*
X146226119Y-93430105D01*
X145886000Y-93396606D01*
X145545882Y-93430105D01*
X145218833Y-93529314D01*
X144917423Y-93690421D01*
X144653235Y-93907234D01*
X144436422Y-94171422D01*
X144275315Y-94472832D01*
X144176106Y-94799881D01*
X144155903Y-95005000D01*
X123138711Y-95005000D01*
X121109753Y-92976042D01*
X121149999Y-92980006D01*
X121200827Y-92975000D01*
X132955903Y-92975000D01*
X132976105Y-93180118D01*
X133075314Y-93507167D01*
X133236421Y-93808577D01*
X133453234Y-94072766D01*
X133717422Y-94289579D01*
X134018832Y-94450686D01*
X134345881Y-94549895D01*
X134686000Y-94583394D01*
X135026118Y-94549895D01*
X135353167Y-94450686D01*
X135654577Y-94289579D01*
X135918766Y-94072766D01*
X136135579Y-93808578D01*
X136296686Y-93507168D01*
X136395895Y-93180119D01*
X136416098Y-92975000D01*
X139521532Y-92975000D01*
X139534815Y-92991185D01*
X139631506Y-93070537D01*
X139741820Y-93129502D01*
X139861518Y-93165812D01*
X139986000Y-93178072D01*
X143986000Y-93178072D01*
X144110482Y-93165812D01*
X144230180Y-93129502D01*
X144340494Y-93070537D01*
X144437185Y-92991185D01*
X144516537Y-92894494D01*
X144575502Y-92784180D01*
X144611812Y-92664482D01*
X144624072Y-92540000D01*
X144624072Y-90340000D01*
X144611812Y-90215518D01*
X144575502Y-90095820D01*
X144516537Y-89985506D01*
X144437185Y-89888815D01*
X144340494Y-89809463D01*
X144230180Y-89750498D01*
X144110482Y-89714188D01*
X143986000Y-89701928D01*
X139986000Y-89701928D01*
X139861518Y-89714188D01*
X139741820Y-89750498D01*
X139631506Y-89809463D01*
X139534815Y-89888815D01*
X139455463Y-89985506D01*
X139396498Y-90095820D01*
X139360188Y-90215518D01*
X139347928Y-90340000D01*
X139347928Y-90905000D01*
X136416098Y-90905000D01*
X136395895Y-90699881D01*
X136296686Y-90372832D01*
X136135579Y-90071422D01*
X135918766Y-89807234D01*
X135654578Y-89590421D01*
X135353168Y-89429314D01*
X135026119Y-89330105D01*
X134686000Y-89296606D01*
X134345882Y-89330105D01*
X134018833Y-89429314D01*
X133717423Y-89590421D01*
X133453235Y-89807234D01*
X133236422Y-90071422D01*
X133075315Y-90372832D01*
X132976106Y-90699881D01*
X132955903Y-90905000D01*
X121578711Y-90905000D01*
X115851711Y-85178000D01*
X143545928Y-85178000D01*
X143558188Y-85302482D01*
X143594498Y-85422180D01*
X143653463Y-85532494D01*
X143732815Y-85629185D01*
X143829506Y-85708537D01*
X143939820Y-85767502D01*
X144059518Y-85803812D01*
X144184000Y-85816072D01*
X144748250Y-85813000D01*
X144907000Y-85654250D01*
X144907000Y-84455000D01*
X145161000Y-84455000D01*
X145161000Y-85654250D01*
X145319750Y-85813000D01*
X145884000Y-85816072D01*
X146008482Y-85803812D01*
X146128180Y-85767502D01*
X146238494Y-85708537D01*
X146335185Y-85629185D01*
X146414537Y-85532494D01*
X146473502Y-85422180D01*
X146509812Y-85302482D01*
X146522072Y-85178000D01*
X146519000Y-84613750D01*
X146360250Y-84455000D01*
X145161000Y-84455000D01*
X144907000Y-84455000D01*
X143707750Y-84455000D01*
X143549000Y-84613750D01*
X143545928Y-85178000D01*
X115851711Y-85178000D01*
X110495807Y-79822097D01*
X110463396Y-79782604D01*
X110305797Y-79653266D01*
X110125993Y-79557159D01*
X109930895Y-79497976D01*
X109778838Y-79483000D01*
X109778828Y-79483000D01*
X109728000Y-79477994D01*
X109677172Y-79483000D01*
X109015107Y-79483000D01*
X108896632Y-79364525D01*
X108653411Y-79202010D01*
X108383158Y-79090068D01*
X108096260Y-79033000D01*
X107803740Y-79033000D01*
X107516842Y-79090068D01*
X107246589Y-79202010D01*
X107003368Y-79364525D01*
X106796525Y-79571368D01*
X106634010Y-79814589D01*
X106522068Y-80084842D01*
X106465000Y-80371740D01*
X106465000Y-80664260D01*
X106522068Y-80951158D01*
X106634010Y-81221411D01*
X106796525Y-81464632D01*
X107003368Y-81671475D01*
X107177760Y-81788000D01*
X107003368Y-81904525D01*
X106796525Y-82111368D01*
X106634010Y-82354589D01*
X106522068Y-82624842D01*
X106465000Y-82911740D01*
X106465000Y-83204260D01*
X106522068Y-83491158D01*
X106634010Y-83761411D01*
X106796525Y-84004632D01*
X106928380Y-84136487D01*
X106855820Y-84158498D01*
X106745506Y-84217463D01*
X106648815Y-84296815D01*
X106569463Y-84393506D01*
X106510498Y-84503820D01*
X106474188Y-84623518D01*
X106461928Y-84748000D01*
X106461928Y-86448000D01*
X106474188Y-86572482D01*
X106510498Y-86692180D01*
X106569463Y-86802494D01*
X106648815Y-86899185D01*
X106745506Y-86978537D01*
X106855820Y-87037502D01*
X106975518Y-87073812D01*
X107100000Y-87086072D01*
X108800000Y-87086072D01*
X108924482Y-87073812D01*
X109044180Y-87037502D01*
X109154494Y-86978537D01*
X109251185Y-86899185D01*
X109330537Y-86802494D01*
X109378693Y-86712403D01*
X121902197Y-99235908D01*
X121934604Y-99275396D01*
X121974092Y-99307803D01*
X122092202Y-99404734D01*
X122188309Y-99456104D01*
X122272007Y-99500841D01*
X122467105Y-99560024D01*
X122619162Y-99575000D01*
X122619164Y-99575000D01*
X122670000Y-99580007D01*
X122720835Y-99575000D01*
X136497882Y-99575000D01*
X136318832Y-99629314D01*
X136017422Y-99790421D01*
X135753234Y-100007234D01*
X135536421Y-100271422D01*
X135375314Y-100572832D01*
X135276105Y-100899881D01*
X135242606Y-101240000D01*
X135276105Y-101580119D01*
X135375314Y-101907168D01*
X135536421Y-102208578D01*
X135753234Y-102472766D01*
X136017422Y-102689579D01*
X136318832Y-102850686D01*
X136645881Y-102949895D01*
X136900775Y-102975000D01*
X138871225Y-102975000D01*
X139126119Y-102949895D01*
X139453168Y-102850686D01*
X139754578Y-102689579D01*
X140018766Y-102472766D01*
X140235579Y-102208578D01*
X140396686Y-101907168D01*
X140495895Y-101580119D01*
X140529394Y-101240000D01*
X140495895Y-100899881D01*
X140396686Y-100572832D01*
X140235579Y-100271422D01*
X140226005Y-100259755D01*
X140326119Y-100249895D01*
X140653168Y-100150686D01*
X140954578Y-99989579D01*
X141218766Y-99772766D01*
X141435579Y-99508578D01*
X141596686Y-99207168D01*
X141695895Y-98880119D01*
X141729394Y-98540000D01*
X141695895Y-98199881D01*
X141596686Y-97872832D01*
X141435579Y-97571422D01*
X141218766Y-97307234D01*
X140954578Y-97090421D01*
X140925727Y-97075000D01*
X144155903Y-97075000D01*
X144176105Y-97280118D01*
X144275314Y-97607167D01*
X144436421Y-97908577D01*
X144653234Y-98172766D01*
X144917422Y-98389579D01*
X145218832Y-98550686D01*
X145545881Y-98649895D01*
X145886000Y-98683394D01*
X146226118Y-98649895D01*
X146553167Y-98550686D01*
X146854577Y-98389579D01*
X147118766Y-98172766D01*
X147335579Y-97908578D01*
X147397001Y-97793666D01*
X147397001Y-110313000D01*
X126734405Y-110313000D01*
X126925178Y-110101355D01*
X127074157Y-109851252D01*
X127171481Y-109576891D01*
X127050814Y-109347000D01*
X125857000Y-109347000D01*
X125857000Y-109367000D01*
X125603000Y-109367000D01*
X125603000Y-109347000D01*
X123317000Y-109347000D01*
X123317000Y-109367000D01*
X123063000Y-109367000D01*
X123063000Y-109347000D01*
X121863750Y-109347000D01*
X121705000Y-109505750D01*
X121701928Y-110070000D01*
X121714188Y-110194482D01*
X121750140Y-110313000D01*
X104825000Y-110313000D01*
X104825000Y-108370000D01*
X121701928Y-108370000D01*
X121705000Y-108934250D01*
X121863750Y-109093000D01*
X123063000Y-109093000D01*
X123063000Y-107893750D01*
X123317000Y-107893750D01*
X123317000Y-109093000D01*
X125603000Y-109093000D01*
X125603000Y-107899845D01*
X125857000Y-107899845D01*
X125857000Y-109093000D01*
X127050814Y-109093000D01*
X127171481Y-108863109D01*
X127074157Y-108588748D01*
X126925178Y-108338645D01*
X126730269Y-108122412D01*
X126496920Y-107948359D01*
X126234099Y-107823175D01*
X126086890Y-107778524D01*
X125857000Y-107899845D01*
X125603000Y-107899845D01*
X125373110Y-107778524D01*
X125225901Y-107823175D01*
X124963080Y-107948359D01*
X124729731Y-108122412D01*
X124653966Y-108206466D01*
X124629502Y-108125820D01*
X124570537Y-108015506D01*
X124491185Y-107918815D01*
X124394494Y-107839463D01*
X124284180Y-107780498D01*
X124164482Y-107744188D01*
X124040000Y-107731928D01*
X123475750Y-107735000D01*
X123317000Y-107893750D01*
X123063000Y-107893750D01*
X122904250Y-107735000D01*
X122340000Y-107731928D01*
X122215518Y-107744188D01*
X122095820Y-107780498D01*
X121985506Y-107839463D01*
X121888815Y-107918815D01*
X121809463Y-108015506D01*
X121750498Y-108125820D01*
X121714188Y-108245518D01*
X121701928Y-108370000D01*
X104825000Y-108370000D01*
X104825000Y-101766000D01*
X106461928Y-101766000D01*
X106461928Y-103466000D01*
X106474188Y-103590482D01*
X106510498Y-103710180D01*
X106569463Y-103820494D01*
X106648815Y-103917185D01*
X106745506Y-103996537D01*
X106855820Y-104055502D01*
X106975518Y-104091812D01*
X107100000Y-104104072D01*
X108800000Y-104104072D01*
X108924482Y-104091812D01*
X109044180Y-104055502D01*
X109154494Y-103996537D01*
X109251185Y-103917185D01*
X109330537Y-103820494D01*
X109389502Y-103710180D01*
X109425812Y-103590482D01*
X109438072Y-103466000D01*
X109438072Y-101766000D01*
X109425812Y-101641518D01*
X109389502Y-101521820D01*
X109330537Y-101411506D01*
X109251185Y-101314815D01*
X109154494Y-101235463D01*
X109044180Y-101176498D01*
X108971620Y-101154487D01*
X109103475Y-101022632D01*
X109265990Y-100779411D01*
X109377932Y-100509158D01*
X109435000Y-100222260D01*
X109435000Y-99929740D01*
X109377932Y-99642842D01*
X109265990Y-99372589D01*
X109103475Y-99129368D01*
X108896632Y-98922525D01*
X108714466Y-98800805D01*
X108831355Y-98731178D01*
X109047588Y-98536269D01*
X109221641Y-98302920D01*
X109346825Y-98040099D01*
X109391476Y-97892890D01*
X109270155Y-97663000D01*
X108077000Y-97663000D01*
X108077000Y-97683000D01*
X107823000Y-97683000D01*
X107823000Y-97663000D01*
X106629845Y-97663000D01*
X106508524Y-97892890D01*
X106553175Y-98040099D01*
X106678359Y-98302920D01*
X106852412Y-98536269D01*
X107068645Y-98731178D01*
X107185534Y-98800805D01*
X107003368Y-98922525D01*
X106796525Y-99129368D01*
X106634010Y-99372589D01*
X106522068Y-99642842D01*
X106465000Y-99929740D01*
X106465000Y-100222260D01*
X106522068Y-100509158D01*
X106634010Y-100779411D01*
X106796525Y-101022632D01*
X106928380Y-101154487D01*
X106855820Y-101176498D01*
X106745506Y-101235463D01*
X106648815Y-101314815D01*
X106569463Y-101411506D01*
X106510498Y-101521820D01*
X106474188Y-101641518D01*
X106461928Y-101766000D01*
X104825000Y-101766000D01*
X104825000Y-94849740D01*
X106465000Y-94849740D01*
X106465000Y-95142260D01*
X106522068Y-95429158D01*
X106634010Y-95699411D01*
X106796525Y-95942632D01*
X107003368Y-96149475D01*
X107185534Y-96271195D01*
X107068645Y-96340822D01*
X106852412Y-96535731D01*
X106678359Y-96769080D01*
X106553175Y-97031901D01*
X106508524Y-97179110D01*
X106629845Y-97409000D01*
X107823000Y-97409000D01*
X107823000Y-97389000D01*
X108077000Y-97389000D01*
X108077000Y-97409000D01*
X109270155Y-97409000D01*
X109391476Y-97179110D01*
X109346825Y-97031901D01*
X109221641Y-96769080D01*
X109047588Y-96535731D01*
X108831355Y-96340822D01*
X108714466Y-96271195D01*
X108896632Y-96149475D01*
X109103475Y-95942632D01*
X109265990Y-95699411D01*
X109377932Y-95429158D01*
X109435000Y-95142260D01*
X109435000Y-94849740D01*
X109377932Y-94562842D01*
X109265990Y-94292589D01*
X109103475Y-94049368D01*
X108896632Y-93842525D01*
X108653411Y-93680010D01*
X108383158Y-93568068D01*
X108096260Y-93511000D01*
X107803740Y-93511000D01*
X107516842Y-93568068D01*
X107246589Y-93680010D01*
X107003368Y-93842525D01*
X106796525Y-94049368D01*
X106634010Y-94292589D01*
X106522068Y-94562842D01*
X106465000Y-94849740D01*
X104825000Y-94849740D01*
X104825000Y-72776363D01*
X113065000Y-72776363D01*
X113065000Y-73019637D01*
X113112460Y-73258236D01*
X113205557Y-73482992D01*
X113340713Y-73685267D01*
X113512733Y-73857287D01*
X113715008Y-73992443D01*
X113939764Y-74085540D01*
X114044704Y-74106414D01*
X118345000Y-78406711D01*
X118345001Y-82666625D01*
X118345000Y-82666635D01*
X118345000Y-82892045D01*
X118285557Y-82981008D01*
X118192460Y-83205764D01*
X118145000Y-83444363D01*
X118145000Y-83687637D01*
X118192460Y-83926236D01*
X118285557Y-84150992D01*
X118420713Y-84353267D01*
X118592733Y-84525287D01*
X118795008Y-84660443D01*
X119019764Y-84753540D01*
X119258363Y-84801000D01*
X119501637Y-84801000D01*
X119740236Y-84753540D01*
X119964992Y-84660443D01*
X120167267Y-84525287D01*
X120339287Y-84353267D01*
X120474443Y-84150992D01*
X120567540Y-83926236D01*
X120615000Y-83687637D01*
X120615000Y-83478000D01*
X143545928Y-83478000D01*
X143549000Y-84042250D01*
X143707750Y-84201000D01*
X144907000Y-84201000D01*
X144907000Y-81915000D01*
X145161000Y-81915000D01*
X145161000Y-84201000D01*
X146360250Y-84201000D01*
X146519000Y-84042250D01*
X146522072Y-83478000D01*
X146509812Y-83353518D01*
X146473502Y-83233820D01*
X146414537Y-83123506D01*
X146335185Y-83026815D01*
X146238494Y-82947463D01*
X146128180Y-82888498D01*
X146047534Y-82864034D01*
X146131588Y-82788269D01*
X146305641Y-82554920D01*
X146430825Y-82292099D01*
X146475476Y-82144890D01*
X146354155Y-81915000D01*
X145161000Y-81915000D01*
X144907000Y-81915000D01*
X143713845Y-81915000D01*
X143592524Y-82144890D01*
X143637175Y-82292099D01*
X143762359Y-82554920D01*
X143936412Y-82788269D01*
X144020466Y-82864034D01*
X143939820Y-82888498D01*
X143829506Y-82947463D01*
X143732815Y-83026815D01*
X143653463Y-83123506D01*
X143594498Y-83233820D01*
X143558188Y-83353518D01*
X143545928Y-83478000D01*
X120615000Y-83478000D01*
X120615000Y-83444363D01*
X120567540Y-83205764D01*
X120474443Y-82981008D01*
X120415000Y-82892045D01*
X120415000Y-81431110D01*
X143592524Y-81431110D01*
X143713845Y-81661000D01*
X144907000Y-81661000D01*
X144907000Y-80467186D01*
X145161000Y-80467186D01*
X145161000Y-81661000D01*
X146354155Y-81661000D01*
X146475476Y-81431110D01*
X146430825Y-81283901D01*
X146305641Y-81021080D01*
X146131588Y-80787731D01*
X145915355Y-80592822D01*
X145665252Y-80443843D01*
X145390891Y-80346519D01*
X145161000Y-80467186D01*
X144907000Y-80467186D01*
X144677109Y-80346519D01*
X144402748Y-80443843D01*
X144152645Y-80592822D01*
X143936412Y-80787731D01*
X143762359Y-81021080D01*
X143637175Y-81283901D01*
X143592524Y-81431110D01*
X120415000Y-81431110D01*
X120415000Y-78028835D01*
X120420007Y-77978000D01*
X120415000Y-77927162D01*
X120415000Y-76638652D01*
X140158000Y-76638652D01*
X140158000Y-77089348D01*
X140245926Y-77531385D01*
X140418400Y-77947775D01*
X140668794Y-78322515D01*
X140987485Y-78641206D01*
X141362225Y-78891600D01*
X141778615Y-79064074D01*
X142220652Y-79152000D01*
X142671348Y-79152000D01*
X143113385Y-79064074D01*
X143529775Y-78891600D01*
X143904515Y-78641206D01*
X144223206Y-78322515D01*
X144473600Y-77947775D01*
X144646074Y-77531385D01*
X144734000Y-77089348D01*
X144734000Y-76638652D01*
X144646074Y-76196615D01*
X144473600Y-75780225D01*
X144223206Y-75405485D01*
X143904515Y-75086794D01*
X143529775Y-74836400D01*
X143113385Y-74663926D01*
X142671348Y-74576000D01*
X142220652Y-74576000D01*
X141778615Y-74663926D01*
X141362225Y-74836400D01*
X140987485Y-75086794D01*
X140668794Y-75405485D01*
X140418400Y-75780225D01*
X140245926Y-76196615D01*
X140158000Y-76638652D01*
X120415000Y-76638652D01*
X120415000Y-73322612D01*
X135622000Y-73322612D01*
X135622000Y-73585388D01*
X135673265Y-73843114D01*
X135773824Y-74085886D01*
X135919814Y-74304376D01*
X136105624Y-74490186D01*
X136324114Y-74636176D01*
X136566886Y-74736735D01*
X136824612Y-74788000D01*
X137087388Y-74788000D01*
X137345114Y-74736735D01*
X137587886Y-74636176D01*
X137806376Y-74490186D01*
X137922007Y-74374555D01*
X138705050Y-74374555D01*
X138764389Y-74608221D01*
X139002664Y-74719018D01*
X139257975Y-74781202D01*
X139520512Y-74792382D01*
X139780186Y-74752129D01*
X140027017Y-74661990D01*
X140127611Y-74608221D01*
X140186950Y-74374555D01*
X139446000Y-73633605D01*
X138705050Y-74374555D01*
X137922007Y-74374555D01*
X137992186Y-74304376D01*
X138138176Y-74085886D01*
X138201106Y-73933960D01*
X138238010Y-74035017D01*
X138291779Y-74135611D01*
X138525445Y-74194950D01*
X139266395Y-73454000D01*
X139625605Y-73454000D01*
X140366555Y-74194950D01*
X140600221Y-74135611D01*
X140711018Y-73897336D01*
X140773202Y-73642025D01*
X140784382Y-73379488D01*
X140744129Y-73119814D01*
X140653990Y-72872983D01*
X140600221Y-72772389D01*
X140366555Y-72713050D01*
X139625605Y-73454000D01*
X139266395Y-73454000D01*
X138525445Y-72713050D01*
X138291779Y-72772389D01*
X138199648Y-72970521D01*
X138138176Y-72822114D01*
X137992186Y-72603624D01*
X137922007Y-72533445D01*
X138705050Y-72533445D01*
X139446000Y-73274395D01*
X140186950Y-72533445D01*
X140127611Y-72299779D01*
X139889336Y-72188982D01*
X139634025Y-72126798D01*
X139371488Y-72115618D01*
X139111814Y-72155871D01*
X138864983Y-72246010D01*
X138764389Y-72299779D01*
X138705050Y-72533445D01*
X137922007Y-72533445D01*
X137806376Y-72417814D01*
X137587886Y-72271824D01*
X137345114Y-72171265D01*
X137087388Y-72120000D01*
X136824612Y-72120000D01*
X136566886Y-72171265D01*
X136324114Y-72271824D01*
X136105624Y-72417814D01*
X135919814Y-72603624D01*
X135773824Y-72822114D01*
X135673265Y-73064886D01*
X135622000Y-73322612D01*
X120415000Y-73322612D01*
X120415000Y-71421710D01*
X121958058Y-69878652D01*
X140968000Y-69878652D01*
X140968000Y-70329348D01*
X141055926Y-70771385D01*
X141228400Y-71187775D01*
X141478794Y-71562515D01*
X141797485Y-71881206D01*
X142172225Y-72131600D01*
X142588615Y-72304074D01*
X143030652Y-72392000D01*
X143481348Y-72392000D01*
X143923385Y-72304074D01*
X144339775Y-72131600D01*
X144714515Y-71881206D01*
X145033206Y-71562515D01*
X145283600Y-71187775D01*
X145456074Y-70771385D01*
X145544000Y-70329348D01*
X145544000Y-69878652D01*
X145456074Y-69436615D01*
X145283600Y-69020225D01*
X145033206Y-68645485D01*
X144714515Y-68326794D01*
X144339775Y-68076400D01*
X143923385Y-67903926D01*
X143481348Y-67816000D01*
X143030652Y-67816000D01*
X142588615Y-67903926D01*
X142172225Y-68076400D01*
X141797485Y-68326794D01*
X141478794Y-68645485D01*
X141228400Y-69020225D01*
X141055926Y-69436615D01*
X140968000Y-69878652D01*
X121958058Y-69878652D01*
X122214804Y-69621907D01*
X122214809Y-69621901D01*
X122302296Y-69534414D01*
X122407236Y-69513540D01*
X122631992Y-69420443D01*
X122834267Y-69285287D01*
X123006287Y-69113267D01*
X123141443Y-68910992D01*
X123234540Y-68686236D01*
X123282000Y-68447637D01*
X123282000Y-68204363D01*
X123234540Y-67965764D01*
X123141443Y-67741008D01*
X123006287Y-67538733D01*
X122834267Y-67366713D01*
X122631992Y-67231557D01*
X122407236Y-67138460D01*
X122168637Y-67091000D01*
X121925363Y-67091000D01*
X121686764Y-67138460D01*
X121462008Y-67231557D01*
X121259733Y-67366713D01*
X121087713Y-67538733D01*
X120952557Y-67741008D01*
X120859460Y-67965764D01*
X120838586Y-68070704D01*
X120751099Y-68158191D01*
X120751093Y-68158196D01*
X118684092Y-70225198D01*
X118644605Y-70257604D01*
X118612198Y-70297092D01*
X118612197Y-70297093D01*
X118515266Y-70415203D01*
X118419160Y-70595007D01*
X118359977Y-70790105D01*
X118339994Y-70993000D01*
X118345001Y-71043838D01*
X118345000Y-75479290D01*
X115508414Y-72642704D01*
X115487540Y-72537764D01*
X115394443Y-72313008D01*
X115259287Y-72110733D01*
X115087267Y-71938713D01*
X114884992Y-71803557D01*
X114660236Y-71710460D01*
X114421637Y-71663000D01*
X114178363Y-71663000D01*
X113939764Y-71710460D01*
X113715008Y-71803557D01*
X113512733Y-71938713D01*
X113340713Y-72110733D01*
X113205557Y-72313008D01*
X113112460Y-72537764D01*
X113065000Y-72776363D01*
X104825000Y-72776363D01*
X104825000Y-70270000D01*
X106461928Y-70270000D01*
X106461928Y-71970000D01*
X106474188Y-72094482D01*
X106510498Y-72214180D01*
X106569463Y-72324494D01*
X106648815Y-72421185D01*
X106745506Y-72500537D01*
X106855820Y-72559502D01*
X106975518Y-72595812D01*
X107100000Y-72608072D01*
X108800000Y-72608072D01*
X108924482Y-72595812D01*
X109044180Y-72559502D01*
X109154494Y-72500537D01*
X109251185Y-72421185D01*
X109330537Y-72324494D01*
X109389502Y-72214180D01*
X109425812Y-72094482D01*
X109438072Y-71970000D01*
X109438072Y-70270000D01*
X109425812Y-70145518D01*
X109389502Y-70025820D01*
X109330537Y-69915506D01*
X109251185Y-69818815D01*
X109154494Y-69739463D01*
X109044180Y-69680498D01*
X108971620Y-69658487D01*
X109103475Y-69526632D01*
X109265990Y-69283411D01*
X109377932Y-69013158D01*
X109435000Y-68726260D01*
X109435000Y-68433740D01*
X109377932Y-68146842D01*
X109265990Y-67876589D01*
X109103475Y-67633368D01*
X108896632Y-67426525D01*
X108722240Y-67310000D01*
X108896632Y-67193475D01*
X109103475Y-66986632D01*
X109265990Y-66743411D01*
X109377932Y-66473158D01*
X109435000Y-66186260D01*
X109435000Y-65893740D01*
X109377932Y-65606842D01*
X109265990Y-65336589D01*
X109103475Y-65093368D01*
X108896632Y-64886525D01*
X108722240Y-64770000D01*
X108896632Y-64653475D01*
X109103475Y-64446632D01*
X109265990Y-64203411D01*
X109377932Y-63933158D01*
X109435000Y-63646260D01*
X109435000Y-63353740D01*
X109389374Y-63124363D01*
X113065000Y-63124363D01*
X113065000Y-63367637D01*
X113112460Y-63606236D01*
X113205557Y-63830992D01*
X113340713Y-64033267D01*
X113512733Y-64205287D01*
X113715008Y-64340443D01*
X113939764Y-64433540D01*
X114178363Y-64481000D01*
X114421637Y-64481000D01*
X114660236Y-64433540D01*
X114884992Y-64340443D01*
X115087267Y-64205287D01*
X115259287Y-64033267D01*
X115394443Y-63830992D01*
X115487540Y-63606236D01*
X115508414Y-63501296D01*
X116694001Y-62315709D01*
X116694000Y-67135289D01*
X116076703Y-67752586D01*
X115971764Y-67773460D01*
X115747008Y-67866557D01*
X115544733Y-68001713D01*
X115372713Y-68173733D01*
X115237557Y-68376008D01*
X115144460Y-68600764D01*
X115097000Y-68839363D01*
X115097000Y-69082637D01*
X115144460Y-69321236D01*
X115237557Y-69545992D01*
X115372713Y-69748267D01*
X115544733Y-69920287D01*
X115747008Y-70055443D01*
X115971764Y-70148540D01*
X116210363Y-70196000D01*
X116453637Y-70196000D01*
X116692236Y-70148540D01*
X116916992Y-70055443D01*
X117119267Y-69920287D01*
X117291287Y-69748267D01*
X117426443Y-69545992D01*
X117519540Y-69321236D01*
X117540414Y-69216297D01*
X118424908Y-68331803D01*
X118464396Y-68299396D01*
X118496803Y-68259908D01*
X118593734Y-68141798D01*
X118668610Y-68001713D01*
X118689841Y-67961993D01*
X118749024Y-67766895D01*
X118764000Y-67614838D01*
X118764000Y-67614829D01*
X118769006Y-67564001D01*
X118764000Y-67513173D01*
X118764000Y-62531710D01*
X119381297Y-61914414D01*
X119486236Y-61893540D01*
X119710992Y-61800443D01*
X119913267Y-61665287D01*
X120085287Y-61493267D01*
X120220443Y-61290992D01*
X120313540Y-61066236D01*
X120361000Y-60827637D01*
X120361000Y-60584363D01*
X120352374Y-60540999D01*
X126895289Y-60540999D01*
X133804197Y-67449908D01*
X133836604Y-67489396D01*
X133876092Y-67521803D01*
X133994202Y-67618734D01*
X134021581Y-67633368D01*
X134174007Y-67714841D01*
X134369105Y-67774024D01*
X134521162Y-67789000D01*
X134521171Y-67789000D01*
X134571999Y-67794006D01*
X134622827Y-67789000D01*
X136104438Y-67789000D01*
X136105624Y-67790186D01*
X136324114Y-67936176D01*
X136566886Y-68036735D01*
X136824612Y-68088000D01*
X137087388Y-68088000D01*
X137345114Y-68036735D01*
X137587886Y-67936176D01*
X137806376Y-67790186D01*
X137992186Y-67604376D01*
X138109103Y-67429396D01*
X138108928Y-67453000D01*
X138121188Y-67577482D01*
X138157498Y-67697180D01*
X138216463Y-67807494D01*
X138295815Y-67904185D01*
X138392506Y-67983537D01*
X138502820Y-68042502D01*
X138622518Y-68078812D01*
X138747000Y-68091072D01*
X139160250Y-68088000D01*
X139319000Y-67929250D01*
X139319000Y-66881000D01*
X139573000Y-66881000D01*
X139573000Y-67929250D01*
X139731750Y-68088000D01*
X140145000Y-68091072D01*
X140269482Y-68078812D01*
X140389180Y-68042502D01*
X140499494Y-67983537D01*
X140596185Y-67904185D01*
X140675537Y-67807494D01*
X140734502Y-67697180D01*
X140770812Y-67577482D01*
X140783072Y-67453000D01*
X140780000Y-67039750D01*
X140621250Y-66881000D01*
X139573000Y-66881000D01*
X139319000Y-66881000D01*
X139299000Y-66881000D01*
X139299000Y-66627000D01*
X139319000Y-66627000D01*
X139319000Y-65578750D01*
X139573000Y-65578750D01*
X139573000Y-66627000D01*
X140621250Y-66627000D01*
X140780000Y-66468250D01*
X140783072Y-66055000D01*
X140770812Y-65930518D01*
X140734502Y-65810820D01*
X140675537Y-65700506D01*
X140596185Y-65603815D01*
X140499494Y-65524463D01*
X140389180Y-65465498D01*
X140269482Y-65429188D01*
X140145000Y-65416928D01*
X139731750Y-65420000D01*
X139573000Y-65578750D01*
X139319000Y-65578750D01*
X139160250Y-65420000D01*
X138747000Y-65416928D01*
X138622518Y-65429188D01*
X138502820Y-65465498D01*
X138392506Y-65524463D01*
X138295815Y-65603815D01*
X138216463Y-65700506D01*
X138157498Y-65810820D01*
X138121188Y-65930518D01*
X138108928Y-66055000D01*
X138109103Y-66078604D01*
X137992186Y-65903624D01*
X137806376Y-65717814D01*
X137587886Y-65571824D01*
X137345114Y-65471265D01*
X137087388Y-65420000D01*
X136824612Y-65420000D01*
X136566886Y-65471265D01*
X136324114Y-65571824D01*
X136105624Y-65717814D01*
X136104438Y-65719000D01*
X135000711Y-65719000D01*
X132400363Y-63118652D01*
X140158000Y-63118652D01*
X140158000Y-63569348D01*
X140245926Y-64011385D01*
X140418400Y-64427775D01*
X140668794Y-64802515D01*
X140987485Y-65121206D01*
X141362225Y-65371600D01*
X141778615Y-65544074D01*
X142220652Y-65632000D01*
X142671348Y-65632000D01*
X143113385Y-65544074D01*
X143529775Y-65371600D01*
X143904515Y-65121206D01*
X144223206Y-64802515D01*
X144473600Y-64427775D01*
X144646074Y-64011385D01*
X144734000Y-63569348D01*
X144734000Y-63118652D01*
X144646074Y-62676615D01*
X144473600Y-62260225D01*
X144223206Y-61885485D01*
X143904515Y-61566794D01*
X143529775Y-61316400D01*
X143113385Y-61143926D01*
X142671348Y-61056000D01*
X142220652Y-61056000D01*
X141778615Y-61143926D01*
X141362225Y-61316400D01*
X140987485Y-61566794D01*
X140668794Y-61885485D01*
X140418400Y-62260225D01*
X140245926Y-62676615D01*
X140158000Y-63118652D01*
X132400363Y-63118652D01*
X128091806Y-58810096D01*
X128059395Y-58770603D01*
X127901796Y-58641265D01*
X127721992Y-58545158D01*
X127526894Y-58485975D01*
X127374837Y-58470999D01*
X127374827Y-58470999D01*
X127323999Y-58465993D01*
X127273171Y-58470999D01*
X118090828Y-58470999D01*
X118040000Y-58465993D01*
X117989172Y-58470999D01*
X117989163Y-58470999D01*
X117837106Y-58485975D01*
X117642008Y-58545158D01*
X117558310Y-58589895D01*
X117462203Y-58641265D01*
X117344093Y-58738196D01*
X117304605Y-58770603D01*
X117272198Y-58810091D01*
X114044704Y-62037586D01*
X113939764Y-62058460D01*
X113715008Y-62151557D01*
X113512733Y-62286713D01*
X113340713Y-62458733D01*
X113205557Y-62661008D01*
X113112460Y-62885764D01*
X113065000Y-63124363D01*
X109389374Y-63124363D01*
X109377932Y-63066842D01*
X109265990Y-62796589D01*
X109103475Y-62553368D01*
X108896632Y-62346525D01*
X108653411Y-62184010D01*
X108383158Y-62072068D01*
X108096260Y-62015000D01*
X107803740Y-62015000D01*
X107516842Y-62072068D01*
X107246589Y-62184010D01*
X107003368Y-62346525D01*
X106796525Y-62553368D01*
X106634010Y-62796589D01*
X106522068Y-63066842D01*
X106465000Y-63353740D01*
X106465000Y-63646260D01*
X106522068Y-63933158D01*
X106634010Y-64203411D01*
X106796525Y-64446632D01*
X107003368Y-64653475D01*
X107177760Y-64770000D01*
X107003368Y-64886525D01*
X106796525Y-65093368D01*
X106634010Y-65336589D01*
X106522068Y-65606842D01*
X106465000Y-65893740D01*
X106465000Y-66186260D01*
X106522068Y-66473158D01*
X106634010Y-66743411D01*
X106796525Y-66986632D01*
X107003368Y-67193475D01*
X107177760Y-67310000D01*
X107003368Y-67426525D01*
X106796525Y-67633368D01*
X106634010Y-67876589D01*
X106522068Y-68146842D01*
X106465000Y-68433740D01*
X106465000Y-68726260D01*
X106522068Y-69013158D01*
X106634010Y-69283411D01*
X106796525Y-69526632D01*
X106928380Y-69658487D01*
X106855820Y-69680498D01*
X106745506Y-69739463D01*
X106648815Y-69818815D01*
X106569463Y-69915506D01*
X106510498Y-70025820D01*
X106474188Y-70145518D01*
X106461928Y-70270000D01*
X104825000Y-70270000D01*
X104825000Y-57746000D01*
X121701928Y-57746000D01*
X121714188Y-57870482D01*
X121750498Y-57990180D01*
X121809463Y-58100494D01*
X121888815Y-58197185D01*
X121985506Y-58276537D01*
X122095820Y-58335502D01*
X122215518Y-58371812D01*
X122340000Y-58384072D01*
X122904250Y-58381000D01*
X123063000Y-58222250D01*
X123063000Y-57023000D01*
X123317000Y-57023000D01*
X123317000Y-58222250D01*
X123475750Y-58381000D01*
X124040000Y-58384072D01*
X124164482Y-58371812D01*
X124284180Y-58335502D01*
X124394494Y-58276537D01*
X124491185Y-58197185D01*
X124570537Y-58100494D01*
X124629502Y-57990180D01*
X124653966Y-57909534D01*
X124729731Y-57993588D01*
X124963080Y-58167641D01*
X125225901Y-58292825D01*
X125373110Y-58337476D01*
X125603000Y-58216155D01*
X125603000Y-57023000D01*
X125857000Y-57023000D01*
X125857000Y-58216155D01*
X126086890Y-58337476D01*
X126234099Y-58292825D01*
X126496920Y-58167641D01*
X126730269Y-57993588D01*
X126925178Y-57777355D01*
X127074157Y-57527252D01*
X127171481Y-57252891D01*
X127050814Y-57023000D01*
X125857000Y-57023000D01*
X125603000Y-57023000D01*
X123317000Y-57023000D01*
X123063000Y-57023000D01*
X121863750Y-57023000D01*
X121705000Y-57181750D01*
X121701928Y-57746000D01*
X104825000Y-57746000D01*
X104825000Y-55803000D01*
X121750140Y-55803000D01*
X121714188Y-55921518D01*
G37*
G04 #@! TD.AperFunction*
M02*
