M48
; DRILL file {KiCad (5.1.6)-1} date 03/05/21 11:33:14
; FORMAT={-:-/ absolute / inch / decimal}
; #@! TF.CreationDate,2021-03-05T11:33:14+01:00
; #@! TF.GenerationSoftware,Kicad,Pcbnew,(5.1.6)-1
; #@! TF.FileFunction,Plated,1,2,PTH
FMAT,2
INCH
T1C0.0315
T2C0.0350
T3C0.0394
T4C0.0512
T5C0.0902
%
G90
G05
T1
X4.5Y-2.49
X4.5Y-2.87
X4.505Y-3.09
X4.58Y-2.715
X4.69Y-2.39
X4.7Y-3.29
X4.75Y-4.21
X4.805Y-2.69
X4.855Y-2.765
T2
X5.392Y-2.6281
X5.392Y-2.8919
X5.49Y-2.6281
X5.49Y-2.8919
T3
X5.7Y-3.22
X5.7Y-3.32
X4.83Y-4.3
X4.93Y-4.3
X4.83Y-2.24
X4.93Y-2.24
X4.25Y-2.5
X4.25Y-2.6
X4.25Y-2.7
X4.25Y-2.8
X4.25Y-3.17
X4.25Y-3.27
X4.25Y-3.37
X4.25Y-3.74
X4.25Y-3.84
X4.25Y-3.94
X4.25Y-4.04
T4
X5.3091Y-3.6186
X5.435Y-3.9847
X5.4823Y-3.8784
X5.5965Y-3.5989
X5.75Y-3.78
T5
X5.6081Y-2.4939
X5.6081Y-3.0261
X5.64Y-2.76
T0
M30
